<svg width="956" height="253" viewBox="0 0 956 253" fill="none" xmlns="http://www.w3.org/2000/svg">
<path d="M833.8 215.1H798V252.8H833.8V215.1Z" fill="#FF8F28"/>
<path d="M635.696 188.298V192.498H671.696V132.198C671.696 148.698 664.996 164.498 653.196 176.098C648.096 181.198 642.196 185.298 635.696 188.298Z" fill="#BE78FF"/>
<path d="M256.9 156.9H219.6V192.4H256.9V156.9Z" fill="#FF50A4"/>
<path d="M956 160.7H920.4V196.3H956V160.7Z" fill="#04E1FF"/>
<path d="M108.6 57.2V53H72.6001V113.3C72.6001 96.8 79.3001 81 91.1001 69.4C96.2001 64.3 102.2 60.2 108.6 57.2Z" fill="#BE78FF"/>
<path d="M798 61.2C787.3 54.9 774.9 51.2 761.6 51.2C722.2 51.2 690.1 83.3 690.1 122.7C690.1 162.1 722.2 194.2 761.6 194.2C774.9 194.2 787.3 190.6 798 184.2V214.9H833.8V53H798V61.2ZM761.6 159C741.6 159 725.4 142.7 725.4 122.8C725.4 102.8 741.7 86.6 761.6 86.6C781.5 86.6 797.8 102.9 797.8 122.8C797.8 142.7 781.6 159 761.6 159Z" fill="#08124C"/>
<path d="M774.297 110.1C771.797 107.6 768.597 105.9 765.097 105.2C761.597 104.5 757.997 104.9 754.797 106.2C751.497 107.6 748.697 109.8 746.797 112.8C744.797 115.7 743.797 119.2 743.797 122.7C743.797 127.4 745.697 132 748.997 135.4C752.397 138.8 756.897 140.6 761.697 140.6C765.197 140.6 768.697 139.6 771.597 137.6C774.497 135.6 776.797 132.8 778.197 129.6C779.597 126.3 779.897 122.7 779.197 119.3C778.497 115.8 776.797 112.6 774.297 110.1Z" fill="#08124C"/>
<path d="M403.1 2.20001H366.6V53V88.8V134.1C366.6 150.6 373.4 166.3 385.4 178C397.4 189.6 413.7 196.2 430.7 196.2V160.6C423.4 160.6 416.4 157.8 411.3 152.8C406.1 147.8 403.2 141 403.2 134V88.8H445.8V53H403.2V2.20001H403.1Z" fill="#08124C"/>
<path d="M500.3 53H464.5V114.3V192.4H500H500.3V110.3C501.2 104.8 503.7 99.6 507.8 95.6C512.8 90.7 519.6 87.9 526.7 87.9V53C517.5 53 508.5 55 500.3 58.8V53Z" fill="#08124C"/>
<path d="M635.7 132.2C635.7 139.3 632.8 146.1 627.8 151.1C622.7 156.1 615.8 158.9 608.6 158.9C601.4 158.9 594.5 156.1 589.4 151.1C584.3 146.1 581.5 139.3 581.5 132.2V53H545.5V132.2C545.5 148.7 552.2 164.5 564 176.1C575.8 187.8 591.9 194.3 608.6 194.3C618.1 194.3 627.3 192.2 635.7 188.3C642.1 185.3 648.1 181.2 653.2 176.1C665 164.4 671.7 148.6 671.7 132.2V53H635.7V132.2Z" fill="#08124C"/>
<path d="M41.5002 64.7C36.1002 66.9 30.3002 68.1 24.4002 68C18.6002 68 12.8002 66.9 7.4002 64.7H7.0002H6.7002V192.4H42.5002V64.3L41.9002 64.6L41.5002 64.7Z" fill="#08124C"/>
<path d="M42.7033 7.20001C40.5033 5.00001 37.8033 3.30001 34.9033 2.20001C31.9033 0.900012 28.7033 0.200012 25.4033 0.200012C18.9033 0.300012 12.7033 2.80001 8.00332 7.20001C5.80332 9.40001 4.00332 11.9 2.80332 14.7C1.60332 17.6 0.90332 20.6 0.90332 23.7C0.90332 26.9 1.50332 30 2.80332 32.9C5.30332 38.6 9.90332 43.1 15.8033 45.5C18.8033 46.7 22.1033 47.3 25.4033 47.3C28.7033 47.3 31.9033 46.7 34.9033 45.5C37.8033 44.3 40.5033 42.6 42.8033 40.5C45.0033 38.3 46.8033 35.8 48.0033 33C49.3033 30.1 50.0033 27 50.0033 23.8C50.0033 20.7 49.3033 17.6 48.0033 14.8C46.8033 12 45.0033 9.40001 42.7033 7.20001Z" fill="#08124C"/>
<path d="M334.503 118.2C330.303 114.5 325.503 111.6 320.203 109.7C314.603 107.6 308.703 106.5 302.703 106.6H265.003C263.803 106.6 262.603 106.4 261.503 105.9C260.403 105.5 259.403 104.8 258.603 104C257.703 103.1 257.103 102.1 256.603 101C256.103 99.9 255.903 98.7 255.903 97.5C255.903 95.2 256.903 92.9 258.603 91.2C260.303 89.5 262.603 88.6 265.003 88.6H338.403V53H265.003C253.003 53 241.503 57.7 232.903 65.9C228.803 70 225.503 74.7 223.203 80C218.603 91.1 218.603 103.6 223.203 114.7C225.503 120 228.803 124.8 232.903 128.9C237.003 133 241.903 136.2 247.203 138.4C252.803 140.8 258.803 141.9 264.803 141.9H302.503C304.703 141.8 306.903 142.2 308.903 143.1C309.803 143.6 310.503 144.3 311.003 145.2C311.503 146.1 311.703 147.1 311.503 148.1C311.503 149.2 311.203 150.4 310.703 151.4C310.203 152.4 309.503 153.4 308.703 154.2C307.903 155.1 306.903 155.7 305.803 156.2C304.703 156.7 303.503 156.9 302.303 156.9H256.803V192.4H302.303C308.403 192.5 314.403 191.4 320.003 189.2C325.303 186.9 330.203 183.7 334.303 179.7C338.403 175.6 341.703 170.8 344.003 165.6C346.403 160.1 347.603 154.2 347.603 148.2C347.703 142.6 346.503 137 344.303 131.8C342.103 126.7 338.703 122 334.503 118.2Z" fill="#08124C"/>
<path d="M901 152.8C895.8 147.8 892.9 141 892.9 134V88.8H937.4V53H892.9V2.20001H856.4V53V88.8V134.1C856.4 150.6 863.2 166.3 875.2 178C887.2 189.6 903.5 196.2 920.5 196.2V160.6C913.1 160.6 906.1 157.8 901 152.8Z" fill="#08124C"/>
<path d="M135.7 51.1C126.2 51.1 117 53.2 108.6 57.1C102.2 60.1 96.2001 64.2 91.1001 69.3C79.3001 81 72.6001 96.8 72.6001 113.2V192.4H108.6V113.2C108.6 106.1 111.5 99.3 116.5 94.3C121.6 89.3 128.5 86.5 135.7 86.5C142.9 86.5 149.8 89.3 154.9 94.3C160 99.3 162.8 106.1 162.8 113.2V192.4H198.8V113.2C198.8 96.7 192.1 80.9 180.3 69.3C168.5 57.7 152.5 51.2 135.7 51.1Z" fill="#08124C"/>
</svg>
