<?xml version="1.0" encoding="UTF-8" standalone="no"?>
<svg
   version="1.1"
   viewBox="0 0 649.23077 387.69232"
   stroke-miterlimit="10"
   id="svg129"
   sodipodi:docname="ripu_lab_diagram.svg"
   inkscape:version="1.2.2 (b0a8486541, 2022-12-01)"
   width="649.23077"
   height="387.69232"
   style="fill:none;stroke:none;stroke-linecap:square;stroke-miterlimit:10"
   xml:space="preserve"
   xmlns:inkscape="http://www.inkscape.org/namespaces/inkscape"
   xmlns:sodipodi="http://sodipodi.sourceforge.net/DTD/sodipodi-0.dtd"
   xmlns="http://www.w3.org/2000/svg"
   xmlns:svg="http://www.w3.org/2000/svg"
   xmlns:rdf="http://www.w3.org/1999/02/22-rdf-syntax-ns#"
   xmlns:cc="http://creativecommons.org/ns#"
   xmlns:dc="http://purl.org/dc/elements/1.1/"><metadata
     id="metadata135"><rdf:RDF><cc:Work
         rdf:about=""><dc:format>image/svg+xml</dc:format><dc:type
           rdf:resource="http://purl.org/dc/dcmitype/StillImage" /><dc:title /></cc:Work></rdf:RDF></metadata><defs
     id="defs133"><style
       id="style3771">
      .ae6e1551-d493-493e-bed6-b6a66e091221 {
        fill: #e00;
      }
    </style><style
       id="style3937">
      .ae59af28-2789-477d-8d0c-fdb7c56f7be0 {
        fill: #e00;
      }
    </style><style
       id="style331">
      .ae6e1551-d493-493e-bed6-b6a66e091221 {
        fill: #e00;
      }
    </style></defs><sodipodi:namedview
     pagecolor="#ffffff"
     bordercolor="#666666"
     borderopacity="1"
     objecttolerance="10"
     gridtolerance="10"
     guidetolerance="10"
     inkscape:pageopacity="0"
     inkscape:pageshadow="2"
     inkscape:window-width="2560"
     inkscape:window-height="1403"
     id="namedview131"
     showgrid="false"
     inkscape:zoom="2.7577164"
     inkscape:cx="377.12362"
     inkscape:cy="205.6049"
     inkscape:window-x="2560"
     inkscape:window-y="0"
     inkscape:window-maximized="1"
     inkscape:current-layer="svg129"
     fit-margin-top="0"
     fit-margin-left="0"
     fit-margin-right="0"
     fit-margin-bottom="0"
     inkscape:showpageshadow="2"
     inkscape:pagecheckerboard="0"
     inkscape:deskcolor="#d1d1d1" /><clipPath
     id="g221f5f41f23_4_0.0"><path
       d="M 0,0 H 1280 V 720 H 0 Z"
       id="path2"
       inkscape:connector-curvature="0"
       style="clip-rule:nonzero" /></clipPath><path
     style="fill:#ffffff;fill-rule:evenodd;stroke-width:0.522603"
     inkscape:connector-curvature="0"
     id="path5"
     d="M 0,0 H 649.23078 V 387.69231 H 0 Z" /><path
     d="M 55.01703,128.58316 H 212.76242 V 286.76689 H 55.01703 Z"
     id="path45"
     inkscape:connector-curvature="0"
     style="fill:#000000;fill-opacity:0;fill-rule:evenodd" /><path
     d="m 99.07529,88.90034 h 69.62814 v 85.70099 H 99.07529 Z"
     id="path54"
     inkscape:connector-curvature="0"
     style="fill:#000000;fill-opacity:0;fill-rule:evenodd" /><path
     d="M 289.23621,199.49916 H 446.9816 V 357.68288 H 289.23621 Z"
     id="path63"
     inkscape:connector-curvature="0"
     style="fill:#000000;fill-opacity:0;fill-rule:evenodd" /><path
     d="M 289.23621,35.93223 H 446.9816 V 194.11595 H 289.23621 Z"
     id="path72"
     inkscape:connector-curvature="0"
     style="fill:#000000;fill-opacity:0;fill-rule:evenodd" /><path
     d="M 497.35994,71.05293 H 617.30482 V 190.99785 H 497.35994 Z"
     id="path81"
     inkscape:connector-curvature="0"
     style="fill:#000000;fill-opacity:0;fill-rule:evenodd" /><path
     d="M 497.35994,234.61853 H 617.30482 V 354.56345 H 497.35994 Z"
     id="path106"
     inkscape:connector-curvature="0"
     style="fill:#000000;fill-opacity:0;fill-rule:evenodd" /><g
     transform="matrix(0.2695501,0,0,0.2695501,99.36807,89.55121)"
     id="g1114"><g
       style="fill:#1a1918"
       transform="translate(0,281.86)"
       id="g1090"><path
         inkscape:connector-curvature="0"
         d="m 67.5168,32.0035 c -0.54152,0 -1.12617,-0.13685 -1.53212,-0.68583 L 48.60118,8.45647 v 23.3187 H 44.63687 V 3.06097 c 0,-1.14253 0.94592,-2.0571 2.0278,-2.0571 0.62971,0 1.17084,0.1826 1.57485,0.73158 l 17.3396,22.8159 V 1.32375 h 3.96392 v 28.6681 c 0,1.18907 -0.94592,2.01175 -2.02625,2.01175"
         id="path1076" /><path
         inkscape:connector-curvature="0"
         d="m 100.306,32.278 c -3.96276,0 -8.10693,-0.82347 -11.9803,-2.28584 l 0.94631,-3.2927 c 3.55797,1.14332 7.43099,1.96639 11.034,1.96639 4.99958,0 7.61163,-1.7834 7.61163,-4.29759 0,-2.28663 -2.02741,-3.42956 -9.00817,-6.72187 -6.98076,-3.29192 -9.72722,-5.39477 -9.72722,-9.51055 0,-5.16563 3.96276,-7.27006 11.4384,-7.27006 3.10813,0 7.88162,0.64087 10.63,1.46395 l -0.63087,3.38302 c -3.01839,-0.73119 -6.80051,-1.23402 -9.90864,-1.23402 -5.26839,0 -7.4306,1.00528 -7.4306,3.52066 0,2.46844 1.57562,3.52026 8.96194,6.94982 7.79188,3.61216 9.77345,5.4413 9.77345,9.18992 0,5.4417 -5.13515,8.13888 -11.71,8.13888"
         id="path1078" /><path
         inkscape:connector-curvature="0"
         d="m 130.798,1.32367 h 4.09833 v 30.4511 H 130.798 Z"
         id="path1080" /><path
         inkscape:connector-curvature="0"
         d="m 169.758,17.9669 h -10.1798 v 10.334 h 10.1798 c 3.46746,0 5.58422,-2.19514 5.58422,-5.2591 0,-2.88057 -2.2065,-5.07492 -5.58422,-5.07492 m -1.98274,-13.1685 h -8.19705 v 9.73929 h 8.19705 c 3.28838,0 5.67512,-2.10364 5.67512,-5.02957 0,-2.88057 -2.07208,-4.70972 -5.67512,-4.70972 m 2.02741,26.9766 h -12.2499 c -1.17162,0 -2.07247,-0.91497 -2.07247,-2.0575 V 3.38138 c 0,-1.09796 0.90086,-2.0575 2.07247,-2.0575 h 10.1332 c 6.21509,0 9.90786,3.06317 9.90786,7.86439 0,2.60569 -1.53134,5.02917 -3.8738,6.44659 3.4694,1.05182 5.80992,3.932 5.80992,7.40691 0,4.84657 -4.00743,8.73322 -9.72722,8.73322"
         id="path1082" /><path
         inkscape:connector-curvature="0"
         d="m 199.212,31.7751 c -1.12422,0 -2.02547,-0.96032 -2.02547,-2.0575 V 1.324 h 4.09755 v 26.7479 h 16.304 v 3.70326 h -18.3761 z"
         id="path1084" /><path
         inkscape:connector-curvature="0"
         d="m 245.526,32.278 c -8.3773,0 -13.4215,-3.10892 -13.4215,-9.37291 0,-2.97207 1.66691,-5.8069 4.90984,-7.13281 -2.61244,-1.64616 -3.96314,-3.97814 -3.96314,-6.53848 0,-5.66926 4.36987,-8.36802 12.5658,-8.36802 2.74763,0 6.62026,0.32063 9.86358,1.05261 l -0.45101,3.38302 c -3.42201,-0.54898 -6.62104,-0.86804 -9.72839,-0.86804 -5.31462,0 -8.15238,1.46237 -8.15238,4.98343 0,2.78947 2.61283,4.98382 6.08146,4.98382 h 7.02504 c 0.99098,0 1.75626,0.77733 1.75626,1.73726 0,1.00568 -0.76528,1.78301 -1.75626,1.78301 h -7.56501 c -3.9647,0 -6.48546,1.96561 -6.48546,4.98421 0,4.43484 4.09833,5.76075 9.23232,5.76075 2.79269,0 6.57442,-0.3648 9.63671,-1.09678 l 0.58697,3.33727 c -2.92827,0.82347 -6.757,1.37166 -10.1347,1.37166"
         id="path1086" /><path
         inkscape:connector-curvature="0"
         d="M 14.138,7.0347 21.31571,25.019 10.47511,16.34967 14.13797,7.03474 Z M 26.8894,29.1624 15.8495,2.1878 C 15.53445,1.41047 14.90358,0.99873 14.13791,0.99873 c -0.76567,0 -1.44121,0.41174 -1.75626,1.18907 L 0.26375,31.7752 h 4.14456 l 4.79757,-12.1983 14.3142,11.7408 c 0.57571,0.47208 0.99098,0.68583 1.53212,0.68583 1.08033,0 2.02625,-0.82268 2.02625,-2.01135 0,-0.19285 -0.06798,-0.49968 -0.18918,-0.82978 z"
         id="path1088" /></g><path
       style="fill:#1a1918"
       inkscape:connector-curvature="0"
       d="m 255.879,127.868 c 0,70.4551 -57.1101,127.565 -127.566,127.565 C 57.8629,255.433 0.747,198.3234 0.747,127.868 0.747,57.4179 57.8631,0.302 128.313,0.302 c 70.4561,0 127.566,57.1161 127.566,127.566"
       id="path1092" /><path
       style="fill:#ffffff"
       inkscape:connector-curvature="0"
       d="M 130.46,78.2289 163.4716,159.7052 113.6081,120.4274 130.46,78.229 Z m 58.6445,100.245 -50.7786,-122.202 c -1.44952,-3.52436 -4.34807,-5.38926 -7.86591,-5.38926 -3.52436,0 -6.63386,1.86489 -8.08339,5.38926 l -55.7329,134.04 H 85.709 l 22.0623,-55.2653 65.8389,53.1899 c 2.64792,2.14114 4.55852,3.1095 7.0422,3.1095 4.97389,0 9.32146,-3.72878 9.32146,-9.11101 0,-0.87594 -0.30939,-2.2662 -0.86941,-3.76143 z"
       id="path1094" /></g><g
     id="g4005"
     transform="matrix(3.3273927,0,0,3.3273927,497.63544,66.862912)"><path
       class="ae59af28-2789-477d-8d0c-fdb7c56f7be0"
       d="M 31.65,15 C 31.23,4.87 4.76,4.87 4.35,15 v 6 c 0,4.29 6,7.65 13.65,7.65 7.65,0 13.65,-3.36 13.65,-7.65 z m -1.3,6 C 30.35,24.44 24.7,27.35 18,27.35 11.3,27.35 5.65,24.44 5.65,21 v -2.71 c 4.5,5.76 20.2,5.75 24.7,0 z M 18,21.35 C 11.3,21.35 5.65,18.44 5.65,15 5.65,11.56 11.3,8.65 18,8.65 c 6.7,0 12.35,2.91 12.35,6.35 0,3.44 -5.65,6.35 -12.35,6.35 z"
       id="path3941" /><path
       class="ae59af28-2789-477d-8d0c-fdb7c56f7be0"
       d="M 3.83,11.66 A 0.63,0.63 0 0 0 4.21,10.53 0.62,0.62 0 1 0 3.83,11.66 Z"
       id="path3943" /><path
       class="ae59af28-2789-477d-8d0c-fdb7c56f7be0"
       d="m 2.44,14.29 a 0.61,0.61 0 0 0 0.74,-0.48 v 0 A 0.63,0.63 0 0 0 2,13.55 0.62,0.62 0 0 0 2.44,14.29 Z"
       id="path3945" /><path
       class="ae59af28-2789-477d-8d0c-fdb7c56f7be0"
       d="M 6,9.61 C 7.09,9.54 6.57,7.88 5.63,8.48 A 0.63,0.63 0 0 0 6,9.61 Z"
       id="path3947" /><path
       class="ae59af28-2789-477d-8d0c-fdb7c56f7be0"
       d="m 2.44,17.26 a 0.63,0.63 0 0 0 0,-1.25 0.63,0.63 0 0 0 0,1.25 z"
       id="path3949" /><path
       class="ae59af28-2789-477d-8d0c-fdb7c56f7be0"
       d="m 3.07,19.6 a 0.63,0.63 0 0 0 -1.25,0 0.63,0.63 0 0 0 1.25,0 z"
       id="path3951" /><path
       class="ae59af28-2789-477d-8d0c-fdb7c56f7be0"
       d="M 25.67,7.43 A 0.62459987,0.62459987 0 0 0 26.08,6.25 0.62459987,0.62459987 0 0 0 25.67,7.43 Z"
       id="path3953" /><path
       class="ae59af28-2789-477d-8d0c-fdb7c56f7be0"
       d="M 2.47,21.94 A 0.62453983,0.62453983 0 0 0 2.78,23.15 0.62453983,0.62453983 0 0 0 2.47,21.94 Z"
       id="path3955" /><path
       class="ae59af28-2789-477d-8d0c-fdb7c56f7be0"
       d="M 8.51,8.12 A 0.63,0.63 0 1 0 8.25,6.92 0.63,0.63 0 0 0 8.51,8.12 Z"
       id="path3957" /><path
       class="ae59af28-2789-477d-8d0c-fdb7c56f7be0"
       d="m 17.13,6.2 v 0 a 0.62,0.62 0 0 0 0,-1.24 0.62,0.62 0 0 0 0.02,1.23 z"
       id="path3959" /><path
       class="ae59af28-2789-477d-8d0c-fdb7c56f7be0"
       d="M 20,6.26 A 0.63387696,0.63387696 0 0 0 20.14,5 0.63387696,0.63387696 0 0 0 20,6.26 Z"
       id="path3961" /><path
       class="ae59af28-2789-477d-8d0c-fdb7c56f7be0"
       d="M 11.29,7.09 A 0.62,0.62 0 1 0 11.12,5.87 0.62,0.62 0 0 0 11.29,7.09 Z"
       id="path3963" /><path
       class="ae59af28-2789-477d-8d0c-fdb7c56f7be0"
       d="M 22.9,6.67 A 0.63,0.63 0 0 0 23.14,5.44 0.63,0.63 0 0 0 22.9,6.67 Z"
       id="path3965" /><path
       class="ae59af28-2789-477d-8d0c-fdb7c56f7be0"
       d="M 14.18,6.46 A 0.62163092,0.62163092 0 1 0 14.09,5.22 0.62163092,0.62163092 0 0 0 14.18,6.46 Z"
       id="path3967" /><path
       class="ae59af28-2789-477d-8d0c-fdb7c56f7be0"
       d="M 31,10.37 A 0.62,0.62 0 0 0 31.42,9.29 0.62,0.62 0 1 0 31,10.37 Z"
       id="path3969" /><path
       class="ae59af28-2789-477d-8d0c-fdb7c56f7be0"
       d="M 28.27,8.59 A 0.62453983,0.62453983 0 0 0 28.88,7.5 0.62453983,0.62453983 0 0 0 28.27,8.59 Z"
       id="path3971" /><path
       class="ae59af28-2789-477d-8d0c-fdb7c56f7be0"
       d="M 9,28 A 0.63,0.63 0 0 0 8.49,29.15 0.63,0.63 0 0 0 9,28 Z"
       id="path3973" /><path
       class="ae59af28-2789-477d-8d0c-fdb7c56f7be0"
       d="m 32.83,12.68 a 0.62,0.62 0 1 0 -0.3,-1.18 0.62,0.62 0 0 0 0.3,1.18 z"
       id="path3975" /><path
       class="ae59af28-2789-477d-8d0c-fdb7c56f7be0"
       d="m 30.73,25.63 a 0.63,0.63 0 0 0 0.86,0.91 0.63,0.63 0 0 0 -0.86,-0.91 z"
       id="path3977" /><path
       class="ae59af28-2789-477d-8d0c-fdb7c56f7be0"
       d="m 33.21,23.17 a 0.63,0.63 0 1 0 0.29,0.84 v 0 a 0.62,0.62 0 0 0 -0.29,-0.84 z"
       id="path3979" /><path
       class="ae59af28-2789-477d-8d0c-fdb7c56f7be0"
       d="m 3.59,24.67 a 0.63411355,0.63411355 0 0 0 0.78,1 0.63411355,0.63411355 0 0 0 -0.78,-1 z"
       id="path3981" /><path
       class="ae59af28-2789-477d-8d0c-fdb7c56f7be0"
       d="M 28.47,27.3 A 0.63,0.63 0 0 0 29.1,28.38 0.63,0.63 0 0 0 28.47,27.3 Z"
       id="path3983" /><path
       class="ae59af28-2789-477d-8d0c-fdb7c56f7be0"
       d="m 33.56,15.56 a 0.65,0.65 0 0 0 0,-1.3 0.65,0.65 0 0 0 0,1.3 z"
       id="path3985" /><path
       class="ae59af28-2789-477d-8d0c-fdb7c56f7be0"
       d="m 33.56,17.28 a 0.63,0.63 0 0 0 0,1.25 0.63,0.63 0 0 0 0,-1.25 z"
       id="path3987" /><path
       class="ae59af28-2789-477d-8d0c-fdb7c56f7be0"
       d="m 33.56,20.25 a 0.63,0.63 0 0 0 0,1.25 0.63,0.63 0 0 0 0,-1.25 z"
       id="path3989" /><path
       class="ae59af28-2789-477d-8d0c-fdb7c56f7be0"
       d="m 14.5,29.58 a 0.6208462,0.6208462 0 0 0 -0.17,1.23 0.6208462,0.6208462 0 0 0 0.17,-1.23 z"
       id="path3991" /><path
       class="ae59af28-2789-477d-8d0c-fdb7c56f7be0"
       d="M 11.68,29 A 0.63,0.63 0 0 0 11.35,30.21 0.63,0.63 0 0 0 11.68,29 Z"
       id="path3993" /><path
       class="ae59af28-2789-477d-8d0c-fdb7c56f7be0"
       d="m 5.64,26.8 a 0.62,0.62 0 0 0 1,0.72 0.62,0.62 0 0 0 -1,-0.72 z"
       id="path3995" /><path
       class="ae59af28-2789-477d-8d0c-fdb7c56f7be0"
       d="m 25.88,28.49 a 0.63,0.63 0 0 0 0.43,1.18 0.63,0.63 0 0 0 -0.43,-1.18 z"
       id="path3997" /><path
       class="ae59af28-2789-477d-8d0c-fdb7c56f7be0"
       d="m 17.38,29.81 a 0.63,0.63 0 0 0 0,1.25 0.63,0.63 0 0 0 0,-1.25 z"
       id="path3999" /><path
       class="ae59af28-2789-477d-8d0c-fdb7c56f7be0"
       d="m 23.12,29.29 a 0.62369865,0.62369865 0 0 0 0.26,1.22 0.62369865,0.62369865 0 0 0 -0.26,-1.22 z"
       id="path4001" /><path
       class="ae59af28-2789-477d-8d0c-fdb7c56f7be0"
       d="M 20.27,29.72 A 0.64235893,0.64235893 0 0 0 20.38,31 0.64235893,0.64235893 0 0 0 20.27,29.72 Z"
       id="path4003" /></g><g
     id="g4108"
     transform="matrix(3.3273927,0,0,3.3273927,497.38941,230.66465)"><path
       class="ae59af28-2789-477d-8d0c-fdb7c56f7be0"
       d="M 31.65,15 C 31.23,4.87 4.76,4.87 4.35,15 v 6 c 0,4.29 6,7.65 13.65,7.65 7.65,0 13.65,-3.36 13.65,-7.65 z m -1.3,6 C 30.35,24.44 24.7,27.35 18,27.35 11.3,27.35 5.65,24.44 5.65,21 v -2.71 c 4.5,5.76 20.2,5.75 24.7,0 z M 18,21.35 C 11.3,21.35 5.65,18.44 5.65,15 5.65,11.56 11.3,8.65 18,8.65 c 6.7,0 12.35,2.91 12.35,6.35 0,3.44 -5.65,6.35 -12.35,6.35 z"
       id="path4044" /><path
       class="ae59af28-2789-477d-8d0c-fdb7c56f7be0"
       d="M 3.83,11.66 A 0.63,0.63 0 0 0 4.21,10.53 0.62,0.62 0 1 0 3.83,11.66 Z"
       id="path4046" /><path
       class="ae59af28-2789-477d-8d0c-fdb7c56f7be0"
       d="m 2.44,14.29 a 0.61,0.61 0 0 0 0.74,-0.48 v 0 A 0.63,0.63 0 0 0 2,13.55 0.62,0.62 0 0 0 2.44,14.29 Z"
       id="path4048" /><path
       class="ae59af28-2789-477d-8d0c-fdb7c56f7be0"
       d="M 6,9.61 C 7.09,9.54 6.57,7.88 5.63,8.48 A 0.63,0.63 0 0 0 6,9.61 Z"
       id="path4050" /><path
       class="ae59af28-2789-477d-8d0c-fdb7c56f7be0"
       d="m 2.44,17.26 a 0.63,0.63 0 0 0 0,-1.25 0.63,0.63 0 0 0 0,1.25 z"
       id="path4052" /><path
       class="ae59af28-2789-477d-8d0c-fdb7c56f7be0"
       d="m 3.07,19.6 a 0.63,0.63 0 0 0 -1.25,0 0.63,0.63 0 0 0 1.25,0 z"
       id="path4054" /><path
       class="ae59af28-2789-477d-8d0c-fdb7c56f7be0"
       d="M 25.67,7.43 A 0.62459987,0.62459987 0 0 0 26.08,6.25 0.62459987,0.62459987 0 0 0 25.67,7.43 Z"
       id="path4056" /><path
       class="ae59af28-2789-477d-8d0c-fdb7c56f7be0"
       d="M 2.47,21.94 A 0.62453983,0.62453983 0 0 0 2.78,23.15 0.62453983,0.62453983 0 0 0 2.47,21.94 Z"
       id="path4058" /><path
       class="ae59af28-2789-477d-8d0c-fdb7c56f7be0"
       d="M 8.51,8.12 A 0.63,0.63 0 1 0 8.25,6.92 0.63,0.63 0 0 0 8.51,8.12 Z"
       id="path4060" /><path
       class="ae59af28-2789-477d-8d0c-fdb7c56f7be0"
       d="m 17.13,6.2 v 0 a 0.62,0.62 0 0 0 0,-1.24 0.62,0.62 0 0 0 0.02,1.23 z"
       id="path4062" /><path
       class="ae59af28-2789-477d-8d0c-fdb7c56f7be0"
       d="M 20,6.26 A 0.63387696,0.63387696 0 0 0 20.14,5 0.63387696,0.63387696 0 0 0 20,6.26 Z"
       id="path4064" /><path
       class="ae59af28-2789-477d-8d0c-fdb7c56f7be0"
       d="M 11.29,7.09 A 0.62,0.62 0 1 0 11.12,5.87 0.62,0.62 0 0 0 11.29,7.09 Z"
       id="path4066" /><path
       class="ae59af28-2789-477d-8d0c-fdb7c56f7be0"
       d="M 22.9,6.67 A 0.63,0.63 0 0 0 23.14,5.44 0.63,0.63 0 0 0 22.9,6.67 Z"
       id="path4068" /><path
       class="ae59af28-2789-477d-8d0c-fdb7c56f7be0"
       d="M 14.18,6.46 A 0.62163092,0.62163092 0 1 0 14.09,5.22 0.62163092,0.62163092 0 0 0 14.18,6.46 Z"
       id="path4070" /><path
       class="ae59af28-2789-477d-8d0c-fdb7c56f7be0"
       d="M 31,10.37 A 0.62,0.62 0 0 0 31.42,9.29 0.62,0.62 0 1 0 31,10.37 Z"
       id="path4072" /><path
       class="ae59af28-2789-477d-8d0c-fdb7c56f7be0"
       d="M 28.27,8.59 A 0.62453983,0.62453983 0 0 0 28.88,7.5 0.62453983,0.62453983 0 0 0 28.27,8.59 Z"
       id="path4074" /><path
       class="ae59af28-2789-477d-8d0c-fdb7c56f7be0"
       d="M 9,28 A 0.63,0.63 0 0 0 8.49,29.15 0.63,0.63 0 0 0 9,28 Z"
       id="path4076" /><path
       class="ae59af28-2789-477d-8d0c-fdb7c56f7be0"
       d="m 32.83,12.68 a 0.62,0.62 0 1 0 -0.3,-1.18 0.62,0.62 0 0 0 0.3,1.18 z"
       id="path4078" /><path
       class="ae59af28-2789-477d-8d0c-fdb7c56f7be0"
       d="m 30.73,25.63 a 0.63,0.63 0 0 0 0.86,0.91 0.63,0.63 0 0 0 -0.86,-0.91 z"
       id="path4080" /><path
       class="ae59af28-2789-477d-8d0c-fdb7c56f7be0"
       d="m 33.21,23.17 a 0.63,0.63 0 1 0 0.29,0.84 v 0 a 0.62,0.62 0 0 0 -0.29,-0.84 z"
       id="path4082" /><path
       class="ae59af28-2789-477d-8d0c-fdb7c56f7be0"
       d="m 3.59,24.67 a 0.63411355,0.63411355 0 0 0 0.78,1 0.63411355,0.63411355 0 0 0 -0.78,-1 z"
       id="path4084" /><path
       class="ae59af28-2789-477d-8d0c-fdb7c56f7be0"
       d="M 28.47,27.3 A 0.63,0.63 0 0 0 29.1,28.38 0.63,0.63 0 0 0 28.47,27.3 Z"
       id="path4086" /><path
       class="ae59af28-2789-477d-8d0c-fdb7c56f7be0"
       d="m 33.56,15.56 a 0.65,0.65 0 0 0 0,-1.3 0.65,0.65 0 0 0 0,1.3 z"
       id="path4088" /><path
       class="ae59af28-2789-477d-8d0c-fdb7c56f7be0"
       d="m 33.56,17.28 a 0.63,0.63 0 0 0 0,1.25 0.63,0.63 0 0 0 0,-1.25 z"
       id="path4090" /><path
       class="ae59af28-2789-477d-8d0c-fdb7c56f7be0"
       d="m 33.56,20.25 a 0.63,0.63 0 0 0 0,1.25 0.63,0.63 0 0 0 0,-1.25 z"
       id="path4092" /><path
       class="ae59af28-2789-477d-8d0c-fdb7c56f7be0"
       d="m 14.5,29.58 a 0.6208462,0.6208462 0 0 0 -0.17,1.23 0.6208462,0.6208462 0 0 0 0.17,-1.23 z"
       id="path4094" /><path
       class="ae59af28-2789-477d-8d0c-fdb7c56f7be0"
       d="M 11.68,29 A 0.63,0.63 0 0 0 11.35,30.21 0.63,0.63 0 0 0 11.68,29 Z"
       id="path4096" /><path
       class="ae59af28-2789-477d-8d0c-fdb7c56f7be0"
       d="m 5.64,26.8 a 0.62,0.62 0 0 0 1,0.72 0.62,0.62 0 0 0 -1,-0.72 z"
       id="path4098" /><path
       class="ae59af28-2789-477d-8d0c-fdb7c56f7be0"
       d="m 25.88,28.49 a 0.63,0.63 0 0 0 0.43,1.18 0.63,0.63 0 0 0 -0.43,-1.18 z"
       id="path4100" /><path
       class="ae59af28-2789-477d-8d0c-fdb7c56f7be0"
       d="m 17.38,29.81 a 0.63,0.63 0 0 0 0,1.25 0.63,0.63 0 0 0 0,-1.25 z"
       id="path4102" /><path
       class="ae59af28-2789-477d-8d0c-fdb7c56f7be0"
       d="m 23.12,29.29 a 0.62369865,0.62369865 0 0 0 0.26,1.22 0.62369865,0.62369865 0 0 0 -0.26,-1.22 z"
       id="path4104" /><path
       class="ae59af28-2789-477d-8d0c-fdb7c56f7be0"
       d="M 20.27,29.72 A 0.64235893,0.64235893 0 0 0 20.38,31 0.64235893,0.64235893 0 0 0 20.27,29.72 Z"
       id="path4106" /></g><g
     id="g489"
     transform="matrix(4.4046623,0,0,4.4046623,54.605804,101.96313)"><path
       class="ae6e1551-d493-493e-bed6-b6a66e091221"
       d="M 27,23.37 A 0.63,0.63 0 0 0 26.38,24 0.63,0.63 0 0 0 27.63,24 0.63,0.63 0 0 0 27,23.37 Z"
       id="path481" /><g
       id="g487"><path
         class="ae6e1551-d493-493e-bed6-b6a66e091221"
         d="M 31,18.38 H 5 A 0.62,0.62 0 0 0 4.38,19 V 29 A 0.62,0.62 0 0 0 5,29.62 H 31 A 0.62,0.62 0 0 0 31.62,29 V 19 A 0.62,0.62 0 0 0 31,18.38 Z m -0.62,10 H 5.62 v -8.76 h 24.76 z"
         id="path483" /><path
         class="ae6e1551-d493-493e-bed6-b6a66e091221"
         d="m 9,24.62 h 6 a 0.62,0.62 0 0 0 0,-1.24 H 9 a 0.62,0.62 0 0 0 0,1.24 z"
         id="path485" /></g></g><text
     xml:space="preserve"
     style="font-style:normal;font-variant:normal;font-weight:bold;font-stretch:normal;font-size:16.2667px;font-family:'Red Hat Display';-inkscape-font-specification:'Red Hat Display Bold';text-align:center;text-anchor:middle;fill:#000000;stroke-width:2.684"
     x="133.88519"
     y="41.792885"
     id="text571"><tspan
       sodipodi:role="line"
       id="tspan569"
       x="133.88519"
       y="41.792885"
       style="font-size:16.2667px">Control node</tspan></text><text
     xml:space="preserve"
     style="font-style:normal;font-variant:normal;font-weight:bold;font-stretch:normal;font-size:16.2667px;font-family:'Red Hat Display';-inkscape-font-specification:'Red Hat Display Bold';text-align:center;text-anchor:middle;fill:#000000;stroke-width:2.684"
     x="368.11713"
     y="41.766491"
     id="text575"><tspan
       sodipodi:role="line"
       id="tspan573"
       x="368.11713"
       y="41.766491">Hosts to be upgraded</tspan></text><text
     xml:space="preserve"
     style="font-style:normal;font-variant:normal;font-weight:bold;font-stretch:normal;font-size:16.2667px;font-family:'Red Hat Display';-inkscape-font-specification:'Red Hat Display Bold';text-align:center;text-anchor:middle;fill:#000000;stroke-width:2.684"
     x="557.32623"
     y="41.764133"
     id="text579"><tspan
       sodipodi:role="line"
       id="tspan577"
       x="557.32623"
       y="41.764133">EBS snapshots</tspan></text><text
     xml:space="preserve"
     style="font-style:normal;font-variant:normal;font-weight:normal;font-stretch:normal;font-size:16.2667px;font-family:'Red Hat Display';-inkscape-font-specification:'Red Hat Display';text-align:center;text-anchor:middle;fill:#000000;stroke-width:2.684"
     x="368.08612"
     y="165.18419"
     id="text583"><tspan
       sodipodi:role="line"
       id="tspan581"
       x="368.08612"
       y="165.18419">RHEL7</tspan><tspan
       sodipodi:role="line"
       x="368.08612"
       y="185.51756"
       id="tspan585">Pet application servers</tspan></text><text
     xml:space="preserve"
     style="font-style:normal;font-variant:normal;font-weight:normal;font-stretch:normal;font-size:16.2667px;font-family:'Red Hat Display';-inkscape-font-specification:'Red Hat Display';text-align:center;text-anchor:middle;fill:#000000;stroke-width:2.684"
     x="368.08612"
     y="329.06039"
     id="text595"><tspan
       sodipodi:role="line"
       id="tspan591"
       x="368.08612"
       y="329.06039">RHEL8</tspan><tspan
       sodipodi:role="line"
       x="368.08612"
       y="349.39377"
       id="tspan593">Pet application servers</tspan></text><text
     xml:space="preserve"
     style="font-style:normal;font-variant:normal;font-weight:normal;font-stretch:normal;font-size:16.2667px;font-family:'Red Hat Display';-inkscape-font-specification:'Red Hat Display';text-align:center;text-anchor:middle;fill:#000000;stroke-width:2.684"
     x="133.89328"
     y="258.63821"
     id="text603"><tspan
       sodipodi:role="line"
       id="tspan601"
       x="133.89328"
       y="258.63821">Ansible Automation Platform</tspan></text><g
     id="g1780"><g
       id="g349"
       transform="matrix(4.4046623,0,0,4.4046623,282.82497,166.87914)"><rect
         style="fill:#ffffff;fill-opacity:1;stroke:none;stroke-width:2.684;stroke-linecap:square;stroke-miterlimit:10"
         id="rect657"
         width="114.73483"
         height="44.358223"
         x="310.74149"
         y="256.41193"
         transform="matrix(0.22703216,0,0,0.22703216,-65.572557,-39.249125)" /><path
         class="ae6e1551-d493-493e-bed6-b6a66e091221"
         d="M 27,23.37 A 0.63,0.63 0 0 0 26.38,24 0.63,0.63 0 0 0 27.63,24 0.63,0.63 0 0 0 27,23.37 Z"
         id="path335" /><path
         class="ae6e1551-d493-493e-bed6-b6a66e091221"
         d="M 31,18.38 H 5 A 0.62,0.62 0 0 0 4.38,19 V 29 A 0.62,0.62 0 0 0 5,29.62 H 31 A 0.62,0.62 0 0 0 31.62,29 V 19 A 0.62,0.62 0 0 0 31,18.38 Z m -0.62,10 H 5.62 v -8.76 h 24.76 z"
         id="path341" /><path
         class="ae6e1551-d493-493e-bed6-b6a66e091221"
         d="m 9,24.62 h 6 a 0.62,0.62 0 0 0 0,-1.24 H 9 a 0.62,0.62 0 0 0 0,1.24 z"
         id="path343" /></g><g
       id="g1768"
       transform="matrix(4.4046623,0,0,4.4046623,294.82497,178.87914)"><rect
         style="fill:#ffffff;fill-opacity:1;stroke:none;stroke-width:2.684;stroke-linecap:square;stroke-miterlimit:10"
         id="rect1760"
         width="114.73483"
         height="44.358223"
         x="310.74149"
         y="256.41193"
         transform="matrix(0.22703216,0,0,0.22703216,-65.572557,-39.249125)" /><path
         class="ae6e1551-d493-493e-bed6-b6a66e091221"
         d="M 27,23.37 A 0.63,0.63 0 0 0 26.38,24 0.63,0.63 0 0 0 27.63,24 0.63,0.63 0 0 0 27,23.37 Z"
         id="path1762" /><path
         class="ae6e1551-d493-493e-bed6-b6a66e091221"
         d="M 31,18.38 H 5 A 0.62,0.62 0 0 0 4.38,19 V 29 A 0.62,0.62 0 0 0 5,29.62 H 31 A 0.62,0.62 0 0 0 31.62,29 V 19 A 0.62,0.62 0 0 0 31,18.38 Z m -0.62,10 H 5.62 v -8.76 h 24.76 z"
         id="path1764" /><path
         class="ae6e1551-d493-493e-bed6-b6a66e091221"
         d="m 9,24.62 h 6 a 0.62,0.62 0 0 0 0,-1.24 H 9 a 0.62,0.62 0 0 0 0,1.24 z"
         id="path1766" /></g></g><g
     id="g1802"
     transform="translate(0,-163.56694)"><g
       id="g1790"
       transform="matrix(4.4046623,0,0,4.4046623,282.82497,166.87914)"><rect
         style="fill:#ffffff;fill-opacity:1;stroke:none;stroke-width:2.684;stroke-linecap:square;stroke-miterlimit:10"
         id="rect1782"
         width="114.73483"
         height="44.358223"
         x="310.74149"
         y="256.41193"
         transform="matrix(0.22703216,0,0,0.22703216,-65.572557,-39.249125)" /><path
         class="ae6e1551-d493-493e-bed6-b6a66e091221"
         d="M 27,23.37 A 0.63,0.63 0 0 0 26.38,24 0.63,0.63 0 0 0 27.63,24 0.63,0.63 0 0 0 27,23.37 Z"
         id="path1784" /><path
         class="ae6e1551-d493-493e-bed6-b6a66e091221"
         d="M 31,18.38 H 5 A 0.62,0.62 0 0 0 4.38,19 V 29 A 0.62,0.62 0 0 0 5,29.62 H 31 A 0.62,0.62 0 0 0 31.62,29 V 19 A 0.62,0.62 0 0 0 31,18.38 Z m -0.62,10 H 5.62 v -8.76 h 24.76 z"
         id="path1786" /><path
         class="ae6e1551-d493-493e-bed6-b6a66e091221"
         d="m 9,24.62 h 6 a 0.62,0.62 0 0 0 0,-1.24 H 9 a 0.62,0.62 0 0 0 0,1.24 z"
         id="path1788" /></g><g
       id="g1800"
       transform="matrix(4.4046623,0,0,4.4046623,294.82497,178.87914)"><rect
         style="fill:#ffffff;fill-opacity:1;stroke:none;stroke-width:2.684;stroke-linecap:square;stroke-miterlimit:10"
         id="rect1792"
         width="114.73483"
         height="44.358223"
         x="310.74149"
         y="256.41193"
         transform="matrix(0.22703216,0,0,0.22703216,-65.572557,-39.249125)" /><path
         class="ae6e1551-d493-493e-bed6-b6a66e091221"
         d="M 27,23.37 A 0.63,0.63 0 0 0 26.38,24 0.63,0.63 0 0 0 27.63,24 0.63,0.63 0 0 0 27,23.37 Z"
         id="path1794" /><path
         class="ae6e1551-d493-493e-bed6-b6a66e091221"
         d="M 31,18.38 H 5 A 0.62,0.62 0 0 0 4.38,19 V 29 A 0.62,0.62 0 0 0 5,29.62 H 31 A 0.62,0.62 0 0 0 31.62,29 V 19 A 0.62,0.62 0 0 0 31,18.38 Z m -0.62,10 H 5.62 v -8.76 h 24.76 z"
         id="path1796" /><path
         class="ae6e1551-d493-493e-bed6-b6a66e091221"
         d="m 9,24.62 h 6 a 0.62,0.62 0 0 0 0,-1.24 H 9 a 0.62,0.62 0 0 0 0,1.24 z"
         id="path1798" /></g></g></svg>
