<?xml version="1.0" encoding="UTF-8" standalone="no"?>
<svg
   id="a911b74f-6656-4b41-8581-1a46686faa58"
   data-name="Icon"
   viewBox="0 0 28 24"
   version="1.1"
   sodipodi:docname="playbook_icon.svg"
   width="28"
   height="24"
   inkscape:version="1.2.2 (b0a8486541, 2022-12-01)"
   xmlns:inkscape="http://www.inkscape.org/namespaces/inkscape"
   xmlns:sodipodi="http://sodipodi.sourceforge.net/DTD/sodipodi-0.dtd"
   xmlns="http://www.w3.org/2000/svg"
   xmlns:svg="http://www.w3.org/2000/svg">
  <defs
     id="defs721" />
  <sodipodi:namedview
     id="namedview719"
     pagecolor="#ffffff"
     bordercolor="#000000"
     borderopacity="0.25"
     inkscape:showpageshadow="2"
     inkscape:pageopacity="0.0"
     inkscape:pagecheckerboard="0"
     inkscape:deskcolor="#d1d1d1"
     showgrid="false"
     inkscape:zoom="28.527778"
     inkscape:cx="10.743914"
     inkscape:cy="11.234664"
     inkscape:current-layer="a911b74f-6656-4b41-8581-1a46686faa58" />
  <g
     id="g3169"
     transform="matrix(0.9632812,0,0,0.9632812,0.5140632,0.88125074)">
    <rect
       style="fill:#666666;fill-opacity:1;stroke-width:1.82842"
       id="rect2984"
       width="24"
       height="18.416294"
       x="2"
       y="5.5837064" />
    <g
       id="g2982"
       style="fill:#ffffff;fill-opacity:1"
       transform="matrix(0.69055022,0,0,0.69055022,1.570096,2.7544751)">
      <path
         d="M 27,23.62 A 0.62,0.62 0 1 0 26.38,23 0.61,0.61 0 0 0 27,23.62 Z"
         id="path708"
         style="fill:#ffffff;fill-opacity:1" />
      <g
         id="g716"
         style="fill:#ffffff;fill-opacity:1">
        <path
           d="M 31,17.38 H 5 A 0.61,0.61 0 0 0 4.38,18 V 28 A 0.61,0.61 0 0 0 5,28.62 H 31 A 0.61,0.61 0 0 0 31.62,28 V 18 A 0.61,0.61 0 0 0 31,17.38 Z m -0.62,10 H 5.62 v -8.76 h 24.76 z"
           id="path710"
           style="fill:#ffffff;fill-opacity:1" />
        <path
           d="m 9,23.62 h 6 a 0.62,0.62 0 0 0 0,-1.24 H 9 a 0.62,0.62 0 0 0 0,1.24 z"
           id="path712"
           style="fill:#ffffff;fill-opacity:1" />
        <path
           d="m 17.56,15.44 a 0.62,0.62 0 0 0 0.88,0 l 3.6,-3.6 c 0.58,-0.56 -0.32,-1.47 -0.88,-0.88 l -2.54,2.53 V 6 a 0.62,0.62 0 0 0 -1.24,0 v 7.49 L 14.84,11 c -0.56,-0.58 -1.46,0.32 -0.88,0.88 z"
           id="path714"
           style="fill:#ffffff;fill-opacity:1" />
      </g>
    </g>
  </g>
</svg>
