<?xml version="1.0" encoding="UTF-8" standalone="no"?>
<!-- Created with Inkscape (http://www.inkscape.org/) -->

<svg
   version="1.1"
   id="svg2533"
   width="1040.6194"
   height="307.23901"
   viewBox="0 0 1040.6194 307.23902"
   sodipodi:docname="ripu-workflow-hl-rollback.svg"
   xml:space="preserve"
   inkscape:version="1.2.2 (b0a8486541, 2022-12-01)"
   inkscape:export-filename="ripu-workflow.png"
   inkscape:export-xdpi="460.64691"
   inkscape:export-ydpi="460.64691"
   xmlns:inkscape="http://www.inkscape.org/namespaces/inkscape"
   xmlns:sodipodi="http://sodipodi.sourceforge.net/DTD/sodipodi-0.dtd"
   xmlns="http://www.w3.org/2000/svg"
   xmlns:svg="http://www.w3.org/2000/svg"><defs
     id="defs2537"><clipPath
       clipPathUnits="userSpaceOnUse"
       id="clipPath2553"><path
         d="M 0,792 H 612 V 0 H 0 Z"
         id="path2551" /></clipPath><clipPath
       clipPathUnits="userSpaceOnUse"
       id="clipPath2579"><path
         d="M 0,792 H 612 V 0 H 0 Z"
         id="path2577" /></clipPath><clipPath
       clipPathUnits="userSpaceOnUse"
       id="clipPath2587"><path
         d="m 42.84,719.75 h 119.88 v 34 H 42.84 Z"
         id="path2585" /></clipPath><clipPath
       clipPathUnits="userSpaceOnUse"
       id="clipPath2611"><path
         d="m 42.84,719.75 h 106 v 34 h -106 z"
         id="path2609" /></clipPath><clipPath
       clipPathUnits="userSpaceOnUse"
       id="clipPath2943"><path
         d="M 179.28,462.384 H 569.16 V 581.975 H 179.28 Z"
         id="path2941" /></clipPath><clipPath
       clipPathUnits="userSpaceOnUse"
       id="clipPath2983"><path
         d="M 179.28,462.384 H 569.16 V 581.975 H 179.28 Z"
         id="path2981" /></clipPath><style
       id="style4590">
      .a59a7be5-8ddd-47cd-aa67-b081be49d87f {
        fill: #fff;
      }
    </style></defs><sodipodi:namedview
     id="namedview2535"
     pagecolor="#ffffff"
     bordercolor="#000000"
     borderopacity="0.25"
     inkscape:showpageshadow="2"
     inkscape:pageopacity="0.0"
     inkscape:pagecheckerboard="0"
     inkscape:deskcolor="#d1d1d1"
     showgrid="false"
     inkscape:zoom="2"
     inkscape:cx="512.5"
     inkscape:cy="284.75"
     inkscape:current-layer="g2539" /><g
     id="g2539"
     inkscape:groupmode="layer"
     inkscape:label="workflow-4"
     transform="matrix(1.3333333,0,0,-1.3333333,-228.03651,785.04726)"><rect
       style="fill:#ffffff;fill-opacity:1;stroke:none;stroke-width:2.118"
       id="rect4263"
       width="780.46454"
       height="230.42926"
       x="171.02739"
       y="-588.78546"
       transform="scale(1,-1)" /><path
       d="m 712.36668,424.71963 h -78.00001 v 78 h 78.00001 z"
       style="fill:#ffff00;fill-opacity:1;fill-rule:nonzero;stroke:none;stroke-width:1.76535"
       id="path1025"
       clip-path="none" /><g
       id="g2849"
       transform="matrix(1.7653542,0,0,1.7653542,226.26379,541.84784)"
       clip-path="none"
       style="fill:#000000;fill-opacity:1;stroke:none;stroke-width:0.99975;stroke-dasharray:none;stroke-opacity:1"><path
         d="m 0,0 c 0,-7.317 -5.932,-13.249 -13.249,-13.249 -7.317,0 -13.249,5.932 -13.249,13.249 0,7.318 5.932,13.249 13.249,13.249 C -5.932,13.249 0,7.318 0,0"
         style="fill:#000000;fill-opacity:1;fill-rule:nonzero;stroke:none;stroke-width:0.99975;stroke-dasharray:none;stroke-opacity:1"
         id="path2851" /></g><path
       d="m 380.53456,429.77186 h -62.97724 c -5.97749,0 -10.82163,4.84413 -10.82163,10.82162 v 46.25228 c 0,5.97749 4.84414,10.82162 10.82163,10.82162 h 62.97724 c 5.97749,0 10.82162,-4.84413 10.82162,-10.82162 v -46.25228 c 0,-5.97749 -4.84413,-10.82162 -10.82162,-10.82162"
       style="fill:#000000;fill-opacity:1;fill-rule:nonzero;stroke:none;stroke-width:1.76535"
       id="path2919"
       clip-path="none" /><path
       d="m 304.28627,507.90008 h -67.89553 v 67.89552 h 67.89553 z"
       style="fill:#000000;fill-opacity:1;fill-rule:nonzero;stroke:none;stroke-width:1.76535"
       id="path2853"
       clip-path="none" /><g
       id="g2727"
       transform="matrix(2.628868,0,0,1.7653542,431.79396,463.61723)"
       style="stroke:#000000"><path
         d="M 0,0 H 79.59"
         style="fill:none;stroke:#000000;stroke-width:0.364;stroke-linecap:square;stroke-linejoin:miter;stroke-miterlimit:10;stroke-dasharray:none;stroke-opacity:1"
         id="path2729" /></g><path
       d="m 707.31444,429.77186 h -67.89552 v 67.89553 h 67.89552 z"
       style="fill:#e41e34;fill-opacity:1;fill-rule:nonzero;stroke:none;stroke-width:1.76535"
       id="path4636" /><g
       id="g4648"
       transform="matrix(0.7093694,0,0,-0.7093694,682.5127,499.55056)"
       style="stroke-width:1.00018413;stroke-dasharray:none;fill:#ffff00;fill-opacity:1"><path
         class="a59a7be5-8ddd-47cd-aa67-b081be49d87f"
         d="M 27,23.62 A 0.62,0.62 0 1 0 26.38,23 0.61,0.61 0 0 0 27,23.62 Z"
         id="path4638"
         style="stroke-width:1.00018413;stroke-dasharray:none;fill:#ffff00;fill-opacity:1" /><g
         id="g4646"
         style="stroke-width:1.00018413;stroke-dasharray:none;fill:#ffff00;fill-opacity:1"><path
           class="a59a7be5-8ddd-47cd-aa67-b081be49d87f"
           d="M 31,17.38 H 5 A 0.61,0.61 0 0 0 4.38,18 V 28 A 0.61,0.61 0 0 0 5,28.62 H 31 A 0.61,0.61 0 0 0 31.62,28 V 18 A 0.61,0.61 0 0 0 31,17.38 Z m -0.62,10 H 5.62 v -8.76 h 24.76 z"
           id="path4640"
           style="stroke-width:1.00018413;stroke-dasharray:none;fill:#ffff00;fill-opacity:1" /><path
           class="a59a7be5-8ddd-47cd-aa67-b081be49d87f"
           d="m 9,23.62 h 6 a 0.62,0.62 0 0 0 0,-1.24 H 9 a 0.62,0.62 0 0 0 0,1.24 z"
           id="path4642"
           style="stroke-width:1.00018413;stroke-dasharray:none;fill:#ffff00;fill-opacity:1" /><path
           class="a59a7be5-8ddd-47cd-aa67-b081be49d87f"
           d="m 17.56,15.44 a 0.62,0.62 0 0 0 0.88,0 l 3.6,-3.6 c 0.58,-0.56 -0.32,-1.47 -0.88,-0.88 l -2.54,2.53 V 6 a 0.62,0.62 0 0 0 -1.24,0 v 7.49 L 14.84,11 c -0.56,-0.58 -1.46,0.32 -0.88,0.88 z"
           id="path4644"
           style="stroke-width:1.00018413;stroke-dasharray:none;fill:#ffff00;fill-opacity:1" /></g></g><g
       id="g2753"
       transform="matrix(1.7653542,0,0,1.7653542,705.31606,541.84784)"
       style="stroke:#000000"><path
         d="M 0,0 H 4.576"
         style="fill:none;stroke:#000000;stroke-width:0.364;stroke-linecap:square;stroke-linejoin:miter;stroke-miterlimit:10;stroke-dasharray:none;stroke-opacity:1"
         id="path2755" /></g><g
       id="g4162"
       transform="matrix(1.7653542,0,0,1.7653542,-58.386229,-370.47238)"><g
         id="g4160"
         clip-path="url(#clipPath2943)"><g
           id="g4158"
           transform="translate(428.2477,497.5616)"><path
             d="m 0,0 h -27.48 c -3.033,0 -5.491,2.458 -5.491,5.491 v 27.478 c 0,3.033 2.458,5.491 5.491,5.491 H 0 c 3.033,0 5.491,-2.458 5.491,-5.491 V 5.491 C 5.491,2.458 3.033,0 0,0"
             style="fill:#e41e34;fill-opacity:1;fill-rule:nonzero;stroke:none"
             id="path4156" /></g></g></g><g
       id="g2881"
       transform="matrix(1.7653542,0,0,1.7653542,426.69716,507.21918)"
       style="fill:#000000"><path
         d="M 0,0 -19.616,19.616 0,39.231 19.616,19.616 Z"
         style="fill:#000000;fill-opacity:1;fill-rule:nonzero;stroke:none"
         id="path2883" /></g><g
       id="g4126"
       transform="matrix(1.7653542,0,0,1.7653542,-383.18803,-370.47238)"
       style="fill:#000000;stroke:none"><g
         id="g4124"
         clip-path="url(#clipPath2943)"
         style="fill:#000000;stroke:none"><g
           id="g4122"
           transform="translate(428.2477,497.5616)"
           style="fill:#000000;stroke:none"><path
             d="m 0,0 h -27.48 c -3.033,0 -5.491,2.458 -5.491,5.491 v 27.478 c 0,3.033 2.458,5.491 5.491,5.491 H 0 c 3.033,0 5.491,-2.458 5.491,-5.491 V 5.491 C 5.491,2.458 3.033,0 0,0"
             style="fill:#000000;fill-opacity:1;fill-rule:nonzero;stroke:none"
             id="path4120" /></g></g></g><g
       id="g2705"
       transform="matrix(1.7653542,0,0,1.7653542,751.49879,501.89894)"
       style="fill:#000000;stroke:#000000"><path
         d="M 0,0 V 6.888"
         style="fill:#000000;stroke:#000000;stroke-width:0.364;stroke-linecap:square;stroke-linejoin:miter;stroke-miterlimit:10;stroke-dasharray:none;stroke-opacity:1"
         id="path2707" /></g><g
       id="g2709"
       transform="matrix(1.7653542,0,0,1.7653542,753.41949,502.46085)"
       style="fill:#000000"><path
         d="M 0,0 -1.088,-1.884 -2.176,0 Z"
         style="fill:#000000;fill-opacity:1;fill-rule:nonzero;stroke:none"
         id="path2711" /></g><g
       id="g2719"
       transform="matrix(1.7653542,0,0,1.7653542,395.17245,463.61723)"
       style="stroke:#000000"><path
         d="M 0,0 H 17.856 V 29.808"
         style="fill:none;stroke:#000000;stroke-width:0.364;stroke-linecap:square;stroke-linejoin:miter;stroke-miterlimit:10;stroke-dasharray:none;stroke-opacity:1"
         id="path2721" /></g><g
       id="g2723"
       transform="matrix(1.7653542,0,0,1.7653542,395.89844,461.69688)"
       style="fill:#000000"><path
         d="M 0,0 -1.884,1.088 0,2.176 Z"
         style="fill:#000000;fill-opacity:1;fill-rule:nonzero;stroke:none"
         id="path2725" /></g><g
       id="g2731"
       transform="matrix(1.7653542,0,0,1.7653542,432.19871,461.69688)"
       style="fill:#000000"><path
         d="M 0,0 -1.884,1.088 0,2.176 Z"
         style="fill:#000000;fill-opacity:1;fill-rule:nonzero;stroke:none"
         id="path2733" /></g><g
       id="g2735"
       transform="matrix(1.7653542,0,0,1.7653542,783.35619,541.84749)"
       style="stroke:#000000"><path
         d="M 0,0 H 11.495"
         style="fill:none;stroke:#000000;stroke-width:0.364;stroke-linecap:square;stroke-linejoin:miter;stroke-miterlimit:10;stroke-dasharray:none;stroke-opacity:1"
         id="path2737" /></g><g
       id="g2739"
       transform="matrix(1.7653542,0,0,1.7653542,803.08738,539.92678)"
       style="fill:#000000"><path
         d="M 0,0 1.884,1.088 0,2.176 Z"
         style="fill:#000000;fill-opacity:1;fill-rule:nonzero;stroke:none"
         id="path2741" /></g><g
       id="g2743"
       transform="matrix(1.7653542,0,0,1.7653542,627.09128,541.84784)"><path
         d="M 0,0 H 4.576"
         style="fill:none;stroke:#231f20;stroke-width:0.364;stroke-linecap:square;stroke-linejoin:miter;stroke-miterlimit:10;stroke-dasharray:none;stroke-opacity:1"
         id="path2745" /></g><g
       id="g2747"
       transform="matrix(1.7653542,0,0,1.7653542,634.60798,539.92714)"
       style="fill:#000000"><path
         d="M 0,0 1.884,1.088 0,2.176 Z"
         style="fill:#000000;fill-opacity:1;fill-rule:nonzero;stroke:none"
         id="path2749" /></g><g
       id="g523"
       transform="matrix(1.7653542,0,0,1.7653542,549.44543,541.84784)"><path
         d="M 0,0 H 4.576"
         style="fill:none;stroke:#231f20;stroke-width:0.364;stroke-linecap:square;stroke-linejoin:miter;stroke-miterlimit:10;stroke-dasharray:none;stroke-opacity:1"
         id="path521" /></g><g
       id="g2757"
       transform="matrix(1.7653542,0,0,1.7653542,712.83276,539.92714)"
       style="fill:#000000"><path
         d="M 0,0 1.884,1.088 0,2.176 Z"
         style="fill:#000000;fill-opacity:1;fill-rule:nonzero;stroke:none"
         id="path2759" /></g><g
       id="g2771"
       transform="matrix(1.7653542,0,0,1.7653542,874.4896,541.78482)"
       style="stroke:#000000"><path
         d="M 0,0 H 4.576"
         style="fill:none;stroke:#000000;stroke-width:0.364;stroke-linecap:square;stroke-linejoin:miter;stroke-miterlimit:10;stroke-dasharray:none;stroke-opacity:1"
         id="path2773" /></g><g
       id="g2775"
       transform="matrix(1.7653542,0,0,1.7653542,882.0063,539.86429)"
       style="fill:#000000"><path
         d="M 0,0 1.884,1.088 0,2.176 Z"
         style="fill:#000000;fill-opacity:1;fill-rule:nonzero;stroke:none"
         id="path2777" /></g><g
       id="g2779"
       transform="matrix(1.7653542,0,0,1.7653542,751.49879,507.21918)"><path
         d="M 0,0 -19.616,19.616 0,39.231 19.616,19.616 Z"
         style="fill:#e41e34;fill-opacity:1;fill-rule:nonzero;stroke:none"
         id="path2781" /></g><g
       id="g2793"
       transform="matrix(1.7653542,0,0,1.7653542,783.35619,463.72103)"
       style="stroke:#000000"><path
         d="M 0,0 H 32.877 V 22.49"
         style="fill:none;stroke:#000000;stroke-width:0.364;stroke-linecap:square;stroke-linejoin:miter;stroke-miterlimit:10;stroke-dasharray:none;stroke-opacity:1"
         id="path2795" /></g><g
       id="g2797"
       transform="matrix(1.7653542,0,0,1.7653542,843.31592,502.7975)"
       style="fill:#000000"><path
         d="M 0,0 -1.088,1.884 -2.176,0 Z"
         style="fill:#000000;fill-opacity:1;fill-rule:nonzero;stroke:none"
         id="path2799" /></g><g
       id="g2801"
       transform="matrix(1.7653542,0,0,1.7653542,710.65838,463.72103)"
       style="stroke:#000000"><path
         d="M 0,0 H 11.495"
         style="fill:none;stroke:#000000;stroke-width:0.364;stroke-linecap:square;stroke-linejoin:miter;stroke-miterlimit:10;stroke-dasharray:none;stroke-opacity:1"
         id="path2803" /></g><g
       id="g2805"
       transform="matrix(1.7653542,0,0,1.7653542,711.22029,461.80033)"
       style="fill:#000000"><path
         d="M 0,0 -1.884,1.088 0,2.176 Z"
         style="fill:#000000;fill-opacity:1;fill-rule:nonzero;stroke:none"
         id="path2807" /></g><g
       id="g2809"
       transform="matrix(1.7653542,0,0,1.7653542,751.49879,429.09185)"><path
         d="M 0,0 -19.616,19.616 0,39.232 19.616,19.616 Z"
         style="fill:#e41e34;fill-opacity:1;fill-rule:nonzero;stroke:none"
         id="path2811" /></g><g
       id="g2817"
       transform="matrix(1.7653542,0,0,1.7653542,224.55122,541.84784)"
       style="stroke:#000000"><path
         d="M 0,0 H 4.575"
         style="fill:none;stroke:#000000;stroke-width:0.364;stroke-linecap:square;stroke-linejoin:miter;stroke-miterlimit:10;stroke-dasharray:none;stroke-opacity:1"
         id="path2819" /></g><g
       id="g2821"
       transform="matrix(1.7653542,0,0,1.7653542,232.06704,539.92714)"
       style="fill:#000000"><path
         d="M 0,0 1.884,1.088 0,2.176 Z"
         style="fill:#000000;fill-opacity:1;fill-rule:nonzero;stroke:none"
         id="path2823" /></g><g
       id="g2825"
       transform="matrix(1.7653542,0,0,1.7653542,302.28947,541.84784)"
       style="stroke:#000000"><path
         d="M 0,0 H 4.576"
         style="fill:none;stroke:#000000;stroke-width:0.364;stroke-linecap:square;stroke-linejoin:miter;stroke-miterlimit:10;stroke-dasharray:none;stroke-opacity:1"
         id="path2827" /></g><g
       id="g2829"
       transform="matrix(1.7653542,0,0,1.7653542,309.80617,539.92714)"
       style="fill:#000000"><path
         d="M 0,0 1.884,1.088 0,2.176 Z"
         style="fill:#000000;fill-opacity:1;fill-rule:nonzero;stroke:none"
         id="path2831" /></g><g
       id="g2833"
       transform="matrix(1.7653542,0,0,1.7653542,270.37805,503.28721)"
       style="stroke:#000000"><path
         d="M 0,0 V -22.45 H 38.901"
         style="fill:none;stroke:#000000;stroke-width:0.364;stroke-linecap:square;stroke-linejoin:miter;stroke-miterlimit:10;stroke-dasharray:none;stroke-opacity:1"
         id="path2835" /></g><g
       id="g2837"
       transform="matrix(1.7653542,0,0,1.7653542,268.45752,502.7253)"
       style="fill:#000000"><path
         d="M 0,0 1.088,1.884 2.176,0 Z"
         style="fill:#000000;fill-opacity:1;fill-rule:nonzero;stroke:none"
         id="path2839" /></g><g
       id="g2867"
       transform="matrix(1.7653542,0,0,1.7653542,380.51444,541.84749)"
       style="stroke:#000000"><path
         d="M 0,0 H 4.576"
         style="fill:none;stroke:#000000;stroke-width:0.364;stroke-linecap:square;stroke-linejoin:miter;stroke-miterlimit:10;stroke-dasharray:none;stroke-opacity:1"
         id="path2869" /></g><g
       id="g2871"
       transform="matrix(1.7653542,0,0,1.7653542,388.03114,539.92678)"
       style="fill:#000000"><path
         d="M 0,0 1.884,1.088 0,2.176 Z"
         style="fill:#000000;fill-opacity:1;fill-rule:nonzero;stroke:none"
         id="path2873" /></g><g
       id="g2885"
       transform="matrix(1.7653542,0,0,1.7653542,425.63301,420.9954)"
       style="fill:#000000"><path
         d="M 0,0 24.496,-14.254 0,-28.509 Z"
         style="fill:#000000;fill-opacity:1;fill-rule:nonzero;stroke:none"
         id="path2887" /></g><g
       id="g2901"
       transform="matrix(1.7653542,0,0,1.7653542,278.56435,463.65695)"
       style="stroke:#000000"><path
         d="M 0,0 H 62.327"
         style="fill:none;stroke:#000000;stroke-width:0.364;stroke-linecap:square;stroke-linejoin:miter;stroke-miterlimit:10;stroke-dasharray:none;stroke-opacity:1"
         id="path2903" /></g><g
       id="g2905"
       transform="matrix(1.7653542,0,0,1.7653542,388.03114,461.7366)"><path
         d="M 0,0 1.884,1.088 0,2.176 Z"
         style="fill:#231f20;fill-opacity:1;fill-rule:nonzero;stroke:none"
         id="path2907" /></g><g
       id="g2921"
       transform="matrix(1.7653542,0,0,1.7653542,471.9416,370.66674)"
       clip-path="none"
       style="fill:none;stroke:#000000;stroke-opacity:1"><path
         d="M 0,0 V 116.197"
         style="fill:none;stroke:#000000;stroke-width:0.242;stroke-linecap:butt;stroke-linejoin:miter;stroke-miterlimit:10;stroke-dasharray:1.939, 0.97;stroke-dashoffset:0;stroke-opacity:1"
         id="path2923" /></g><g
       id="g2925"
       transform="matrix(1.7653542,0,0,1.7653542,796.67879,370.66674)"
       clip-path="none"
       style="fill:none;stroke:#000000;stroke-opacity:1"><path
         d="M 0,0 V 116.197"
         style="fill:none;stroke:#000000;stroke-width:0.242;stroke-linecap:butt;stroke-linejoin:miter;stroke-miterlimit:10;stroke-dasharray:1.939, 0.97;stroke-dashoffset:0;stroke-opacity:1"
         id="path2927" /></g><path
       d="m 875.63744,507.90008 h -67.89553 v 67.89552 h 67.89553 z"
       style="fill:#e9e9e9;fill-opacity:1;fill-rule:nonzero;stroke:none;stroke-width:1.76535"
       id="path2961" /><g
       id="g2969"
       transform="matrix(1.7653542,0,0,1.7653542,458.619,541.84749)"
       style="stroke:#000000"><path
         d="M 0,0 H 11.495"
         style="fill:none;stroke:#000000;stroke-width:0.364;stroke-linecap:square;stroke-linejoin:miter;stroke-miterlimit:10;stroke-dasharray:none;stroke-opacity:1"
         id="path2971" /></g><g
       id="g2973"
       transform="matrix(1.7653542,0,0,1.7653542,478.35037,539.92678)"
       style="fill:#000000"><path
         d="M 0,0 1.884,1.088 0,2.176 Z"
         style="fill:#000000;fill-opacity:1;fill-rule:nonzero;stroke:none"
         id="path2975" /></g><g
       id="g2977"
       transform="matrix(1.7653542,0,0,1.7653542,-58.700989,-448.6006)"><g
         id="g2979"
         clip-path="url(#clipPath2983)"><g
           id="g2985"
           transform="translate(562.3143,561.0479)"><path
             d="m 0,0 c 0,-7.317 -5.932,-13.249 -13.249,-13.249 -7.317,0 -13.249,5.932 -13.249,13.249 0,7.318 5.932,13.249 13.249,13.249 C -5.932,13.249 0,7.318 0,0"
             style="fill:#e9e9e9;fill-opacity:1;fill-rule:nonzero;stroke:none"
             id="path2987" /></g></g></g><path
       d="M 179.38922,382.27042 H 433.5455 v 26.69745 H 179.38922 Z"
       style="fill:#000000;fill-opacity:1;fill-rule:nonzero;stroke:none;stroke-width:1.76535"
       id="path2997" /><g
       id="g3003"
       transform="matrix(1.7653542,0,0,1.7653542,750.96953,420.9954)"><path
         d="M 0,0 24.496,-14.254 0,-28.509 Z"
         style="fill:#e41e34;fill-opacity:1;fill-rule:nonzero;stroke:none"
         id="path3005" /></g><path
       d="m 757.36008,382.27042 h -277.0221 v 26.69745 h 277.0221 z"
       style="fill:#e41e34;fill-opacity:1;fill-rule:nonzero;stroke:none;stroke-width:2.07693"
       id="path3007" /><g
       id="g3013"
       transform="matrix(1.7653542,0,0,1.7653542,901.23881,370.66586)"><path
         d="M 0,0 24.496,14.255 0,28.509 Z"
         style="fill:#e9e9e9;fill-opacity:1;fill-rule:nonzero;stroke:none"
         id="path3015" /></g><path
       d="m 910.73444,382.27042 h -106.466 v 26.69745 h 106.466 z"
       style="fill:#e9e9e9;fill-opacity:1;fill-rule:nonzero;stroke:none;stroke-width:1.7936"
       id="path3017" /><text
       xml:space="preserve"
       style="font-style:normal;font-variant:normal;font-weight:normal;font-stretch:normal;font-size:10.4156px;font-family:'Red Hat Display';-inkscape-font-specification:'Red Hat Display, Normal';font-variant-ligatures:normal;font-variant-caps:normal;font-variant-numeric:normal;font-variant-east-asian:normal;text-align:center;text-anchor:middle;fill:#ffffff;stroke-width:1.32402"
       x="348.23679"
       y="-545.77448"
       id="text3854"
       transform="scale(1,-1)"><tspan
         sodipodi:role="line"
         x="348.23679"
         y="-545.77448"
         id="tspan3852"
         style="stroke-width:1.32402">Review</tspan><tspan
         sodipodi:role="line"
         x="348.23679"
         y="-532.755"
         id="tspan4118"
         style="stroke-width:1.32402">Report</tspan></text><text
       xml:space="preserve"
       style="font-style:normal;font-variant:normal;font-weight:normal;font-stretch:normal;font-size:10.4156px;font-family:'Red Hat Display';-inkscape-font-specification:'Red Hat Display, Normal';font-variant-ligatures:normal;font-variant-caps:normal;font-variant-numeric:normal;font-variant-east-asian:normal;text-align:center;text-anchor:middle;fill:#ffffff;stroke-width:1.32402;fill-opacity:1"
       x="751.2019"
       y="-544.68048"
       id="text3863"
       transform="scale(1,-1)"><tspan
         sodipodi:role="line"
         x="751.2019"
         y="-544.68048"
         id="tspan3861"
         style="stroke-width:1.32402;fill:#ffffff;fill-opacity:1">Looks</tspan><tspan
         sodipodi:role="line"
         x="751.2019"
         y="-531.66101"
         id="tspan3865"
         style="stroke-width:1.32402;fill:#ffffff;fill-opacity:1">OK?</tspan></text><text
       xml:space="preserve"
       style="font-style:normal;font-variant:normal;font-weight:900;font-stretch:normal;font-size:7.94409px;font-family:'Red Hat Display';-inkscape-font-specification:'Red Hat Display, Heavy';font-variant-ligatures:normal;font-variant-caps:normal;font-variant-numeric:normal;font-variant-east-asian:normal;text-align:center;text-anchor:middle;fill:#000000;stroke-width:1.32402"
       x="461.54614"
       y="-550.45801"
       id="text3979"
       transform="scale(1,-1)"><tspan
         sodipodi:role="line"
         id="tspan3977"
         style="font-style:normal;font-variant:normal;font-weight:900;font-stretch:normal;font-size:7.94409px;font-family:'Red Hat Display';-inkscape-font-specification:'Red Hat Display, Heavy';font-variant-ligatures:normal;font-variant-caps:normal;font-variant-numeric:normal;font-variant-east-asian:normal;stroke-width:1.32402"
         x="461.54614"
         y="-550.45801">YES</tspan></text><text
       xml:space="preserve"
       style="font-style:normal;font-variant:normal;font-weight:900;font-stretch:normal;font-size:7.94409px;font-family:'Red Hat Display';-inkscape-font-specification:'Red Hat Display, Heavy';font-variant-ligatures:normal;font-variant-caps:normal;font-variant-numeric:normal;font-variant-east-asian:normal;text-align:center;text-anchor:middle;fill:#000000;stroke-width:1.32402"
       x="435.69437"
       y="-501.74234"
       id="text4033"
       transform="scale(1,-1)"><tspan
         sodipodi:role="line"
         id="tspan4031"
         style="font-style:normal;font-variant:normal;font-weight:900;font-stretch:normal;font-size:7.94409px;font-family:'Red Hat Display';-inkscape-font-specification:'Red Hat Display, Heavy';font-variant-ligatures:normal;font-variant-caps:normal;font-variant-numeric:normal;font-variant-east-asian:normal;stroke-width:1.32402"
         x="435.69437"
         y="-501.74234">NO</tspan></text><text
       xml:space="preserve"
       style="font-style:normal;font-variant:normal;font-weight:normal;font-stretch:normal;font-size:15.3586px;font-family:'Red Hat Text';-inkscape-font-specification:'Red Hat Text, Normal ';font-variant-ligatures:normal;font-variant-caps:normal;font-variant-numeric:normal;font-variant-east-asian:normal;text-align:center;text-anchor:middle;fill:#ffffff;stroke-width:1.32402"
       x="306.72076"
       y="-390.27371"
       id="text4084"
       transform="scale(1,-1)"><tspan
         sodipodi:role="line"
         id="tspan4082"
         style="font-style:normal;font-variant:normal;font-weight:900;font-stretch:normal;font-size:15.3586px;font-family:'Red Hat Display';-inkscape-font-specification:'Red Hat Display, Heavy';font-variant-ligatures:normal;font-variant-caps:normal;font-variant-numeric:normal;font-variant-east-asian:normal;text-align:center;text-anchor:middle;fill:#ffffff;stroke-width:1.32402"
         x="306.72076"
         y="-390.27371">Analysis Phase</tspan></text><text
       xml:space="preserve"
       style="font-style:normal;font-variant:normal;font-weight:normal;font-stretch:normal;font-size:15.3586px;font-family:'Red Hat Text';-inkscape-font-specification:'Red Hat Text, Normal ';font-variant-ligatures:normal;font-variant-caps:normal;font-variant-numeric:normal;font-variant-east-asian:normal;text-align:center;text-anchor:middle;fill:#ffffff;stroke-width:1.32402"
       x="618.68005"
       y="-390.27371"
       id="text4088"
       transform="scale(1,-1)"><tspan
         sodipodi:role="line"
         id="tspan4086"
         style="font-style:normal;font-variant:normal;font-weight:900;font-stretch:normal;font-size:15.3586px;font-family:'Red Hat Display';-inkscape-font-specification:'Red Hat Display, Heavy';font-variant-ligatures:normal;font-variant-caps:normal;font-variant-numeric:normal;font-variant-east-asian:normal;text-align:center;text-anchor:middle;fill:#ffffff;stroke-width:1.32402"
         x="618.68005"
         y="-390.27371">Upgrade Phase</tspan></text><text
       xml:space="preserve"
       style="font-style:normal;font-variant:normal;font-weight:normal;font-stretch:normal;font-size:15.3586px;font-family:'Red Hat Text';-inkscape-font-specification:'Red Hat Text, Normal ';font-variant-ligatures:normal;font-variant-caps:normal;font-variant-numeric:normal;font-variant-east-asian:normal;text-align:center;text-anchor:middle;fill:#000000;stroke-width:1.32402"
       x="868.00812"
       y="-390.27371"
       id="text4092"
       transform="scale(1,-1)"><tspan
         sodipodi:role="line"
         id="tspan4090"
         style="font-style:normal;font-variant:normal;font-weight:900;font-stretch:normal;font-size:15.3586px;font-family:'Red Hat Display';-inkscape-font-specification:'Red Hat Display, Heavy';font-variant-ligatures:normal;font-variant-caps:normal;font-variant-numeric:normal;font-variant-east-asian:normal;text-align:center;text-anchor:middle;fill:#000000;stroke-width:1.32402"
         x="868.00812"
         y="-390.27371">Commit Phase</tspan></text><text
       xml:space="preserve"
       style="font-style:normal;font-variant:normal;font-weight:normal;font-stretch:normal;font-size:10.4156px;font-family:'Red Hat Display';-inkscape-font-specification:'Red Hat Display, Normal';font-variant-ligatures:normal;font-variant-caps:normal;font-variant-numeric:normal;font-variant-east-asian:normal;text-align:center;text-anchor:middle;fill:#ffffff;stroke-width:1.32402"
       x="426.4003"
       y="-544.68048"
       id="text4132"
       transform="scale(1,-1)"><tspan
         sodipodi:role="line"
         x="426.4003"
         y="-544.68048"
         id="tspan4128"
         style="stroke-width:1.32402">Looks</tspan><tspan
         sodipodi:role="line"
         x="426.4003"
         y="-531.66101"
         id="tspan4130"
         style="stroke-width:1.32402">OK?</tspan></text><text
       xml:space="preserve"
       style="font-style:normal;font-variant:normal;font-weight:normal;font-stretch:normal;font-size:10.4156px;font-family:'Red Hat Display';-inkscape-font-specification:'Red Hat Display, Normal';font-variant-ligatures:normal;font-variant-caps:normal;font-variant-numeric:normal;font-variant-east-asian:normal;text-align:center;text-anchor:middle;fill:#ffffff;stroke-width:1.32402;fill-opacity:1"
       x="673.44995"
       y="-544.76422"
       id="text4138"
       transform="scale(1,-1)"><tspan
         sodipodi:role="line"
         x="673.44995"
         y="-544.76422"
         id="tspan4136"
         style="stroke-width:1.32402;fill:#ffffff;fill-opacity:1">App Team</tspan><tspan
         sodipodi:role="line"
         x="673.44995"
         y="-531.74475"
         id="tspan4142"
         style="stroke-width:1.32402;fill:#ffffff;fill-opacity:1">Validations</tspan></text><text
       xml:space="preserve"
       style="font-style:normal;font-variant:normal;font-weight:normal;font-stretch:normal;font-size:10.4156px;font-family:'Red Hat Display';-inkscape-font-specification:'Red Hat Display, Normal';font-variant-ligatures:normal;font-variant-caps:normal;font-variant-numeric:normal;font-variant-east-asian:normal;text-align:center;text-anchor:middle;fill:#ffffff;stroke-width:1.32402"
       x="751.47791"
       y="-460.07562"
       id="text4148"
       transform="scale(1,-1)"><tspan
         sodipodi:role="line"
         x="751.47791"
         y="-460.07562"
         id="tspan4152"
         style="stroke-width:1.32402">Can Fix?</tspan></text><text
       xml:space="preserve"
       style="font-style:normal;font-variant:normal;font-weight:normal;font-stretch:normal;font-size:10.4156px;font-family:'Red Hat Display';-inkscape-font-specification:'Red Hat Display, Normal';font-variant-ligatures:normal;font-variant-caps:normal;font-variant-numeric:normal;font-variant-east-asian:normal;text-align:center;text-anchor:middle;fill:#ffff00;stroke-width:1.32402;fill-opacity:1"
       x="672.60925"
       y="-460.03769"
       id="text4168"
       transform="scale(1,-1)"><tspan
         sodipodi:role="line"
         x="672.60925"
         y="-460.03769"
         id="tspan4166"
         style="stroke-width:1.32402;fill:#ffff00;fill-opacity:1">Rollback</tspan></text><text
       xml:space="preserve"
       style="font-style:normal;font-variant:normal;font-weight:900;font-stretch:normal;font-size:7.94409px;font-family:'Red Hat Display';-inkscape-font-specification:'Red Hat Display, Heavy';font-variant-ligatures:normal;font-variant-caps:normal;font-variant-numeric:normal;font-variant-east-asian:normal;text-align:center;text-anchor:middle;fill:#000000;stroke-width:1.32402"
       x="786.27759"
       y="-550.45801"
       id="text4276"
       transform="scale(1,-1)"><tspan
         sodipodi:role="line"
         id="tspan4274"
         style="font-style:normal;font-variant:normal;font-weight:900;font-stretch:normal;font-size:7.94409px;font-family:'Red Hat Display';-inkscape-font-specification:'Red Hat Display, Heavy';font-variant-ligatures:normal;font-variant-caps:normal;font-variant-numeric:normal;font-variant-east-asian:normal;stroke-width:1.32402"
         x="786.27759"
         y="-550.45801">YES</tspan></text><text
       xml:space="preserve"
       style="font-style:normal;font-variant:normal;font-weight:900;font-stretch:normal;font-size:7.94409px;font-family:'Red Hat Display';-inkscape-font-specification:'Red Hat Display, Heavy';font-variant-ligatures:normal;font-variant-caps:normal;font-variant-numeric:normal;font-variant-east-asian:normal;text-align:center;text-anchor:middle;fill:#000000;stroke-width:1.32402"
       x="760.36377"
       y="-501.74234"
       id="text4280"
       transform="scale(1,-1)"><tspan
         sodipodi:role="line"
         id="tspan4278"
         style="font-style:normal;font-variant:normal;font-weight:900;font-stretch:normal;font-size:7.94409px;font-family:'Red Hat Display';-inkscape-font-specification:'Red Hat Display, Heavy';font-variant-ligatures:normal;font-variant-caps:normal;font-variant-numeric:normal;font-variant-east-asian:normal;stroke-width:1.32402"
         x="760.36377"
         y="-501.74234">NO</tspan></text><text
       xml:space="preserve"
       style="font-style:normal;font-variant:normal;font-weight:900;font-stretch:normal;font-size:7.94409px;font-family:'Red Hat Display';-inkscape-font-specification:'Red Hat Display, Heavy';font-variant-ligatures:normal;font-variant-caps:normal;font-variant-numeric:normal;font-variant-east-asian:normal;text-align:center;text-anchor:middle;fill:#000000;stroke-width:1.32402"
       x="715.28522"
       y="-472.15134"
       id="text4284"
       transform="scale(1,-1)"><tspan
         sodipodi:role="line"
         id="tspan4282"
         style="font-style:normal;font-variant:normal;font-weight:900;font-stretch:normal;font-size:7.94409px;font-family:'Red Hat Display';-inkscape-font-specification:'Red Hat Display, Heavy';font-variant-ligatures:normal;font-variant-caps:normal;font-variant-numeric:normal;font-variant-east-asian:normal;stroke-width:1.32402"
         x="715.28522"
         y="-472.15134">NO</tspan></text><text
       xml:space="preserve"
       style="font-style:normal;font-variant:normal;font-weight:900;font-stretch:normal;font-size:7.94409px;font-family:'Red Hat Display';-inkscape-font-specification:'Red Hat Display, Heavy';font-variant-ligatures:normal;font-variant-caps:normal;font-variant-numeric:normal;font-variant-east-asian:normal;text-align:center;text-anchor:middle;fill:#000000;stroke-width:1.32402"
       x="786.27759"
       y="-472.1593"
       id="text4298"
       transform="scale(1,-1)"><tspan
         sodipodi:role="line"
         id="tspan4296"
         style="font-style:normal;font-variant:normal;font-weight:900;font-stretch:normal;font-size:7.94409px;font-family:'Red Hat Display';-inkscape-font-specification:'Red Hat Display, Heavy';font-variant-ligatures:normal;font-variant-caps:normal;font-variant-numeric:normal;font-variant-east-asian:normal;stroke-width:1.32402"
         x="786.27759"
         y="-472.1593">YES</tspan></text><text
       xml:space="preserve"
       style="font-style:normal;font-variant:normal;font-weight:normal;font-stretch:normal;font-size:10.4156px;font-family:'Red Hat Display';-inkscape-font-specification:'Red Hat Display, Normal';font-variant-ligatures:normal;font-variant-caps:normal;font-variant-numeric:normal;font-variant-east-asian:normal;text-align:center;text-anchor:middle;fill:#000000;stroke-width:1.32402"
       x="841.73651"
       y="-545.68604"
       id="text4304"
       transform="scale(1,-1)"><tspan
         sodipodi:role="line"
         x="841.73651"
         y="-545.68604"
         id="tspan4300"
         style="stroke-width:1.32402">Delete</tspan><tspan
         sodipodi:role="line"
         x="841.73651"
         y="-532.66656"
         id="tspan4302"
         style="stroke-width:1.32402">Snapshot</tspan></text><text
       xml:space="preserve"
       style="font-style:normal;font-variant:normal;font-weight:normal;font-stretch:normal;font-size:10.4156px;font-family:'Red Hat Display';-inkscape-font-specification:'Red Hat Display, Normal';font-variant-ligatures:normal;font-variant-caps:normal;font-variant-numeric:normal;font-variant-east-asian:normal;text-align:center;text-anchor:middle;fill:#000000;stroke-width:1.32402"
       x="910.42706"
       y="-538.25427"
       id="text4314"
       transform="scale(1,-1)"><tspan
         sodipodi:role="line"
         x="910.42706"
         y="-538.25427"
         id="tspan4312"
         style="font-style:normal;font-variant:normal;font-weight:900;font-stretch:normal;font-family:'Red Hat Display';-inkscape-font-specification:'Red Hat Display Heavy';stroke-width:1.32402">Done</tspan></text><g
       id="g4669"
       transform="matrix(0.7093694,0,0,-0.7093694,851.33786,577.67878)"
       style="fill:#000000"><path
         class="a59a7be5-8ddd-47cd-aa67-b081be49d87f"
         d="M 27,23.62 A 0.62,0.62 0 1 0 26.38,23 0.61,0.61 0 0 0 27,23.62 Z"
         id="path4659"
         style="fill:#000000" /><g
         id="g4667"
         style="fill:#000000"><path
           class="a59a7be5-8ddd-47cd-aa67-b081be49d87f"
           d="M 31,17.38 H 5 A 0.61,0.61 0 0 0 4.38,18 V 28 A 0.61,0.61 0 0 0 5,28.62 H 31 A 0.61,0.61 0 0 0 31.62,28 V 18 A 0.61,0.61 0 0 0 31,17.38 Z m -0.62,10 H 5.62 v -8.76 h 24.76 z"
           id="path4661"
           style="fill:#000000" /><path
           class="a59a7be5-8ddd-47cd-aa67-b081be49d87f"
           d="m 9,23.62 h 6 a 0.62,0.62 0 0 0 0,-1.24 H 9 a 0.62,0.62 0 0 0 0,1.24 z"
           id="path4663"
           style="fill:#000000" /><path
           class="a59a7be5-8ddd-47cd-aa67-b081be49d87f"
           d="m 17.56,15.44 a 0.62,0.62 0 0 0 0.88,0 l 3.6,-3.6 c 0.58,-0.56 -0.32,-1.47 -0.88,-0.88 l -2.54,2.53 V 6 a 0.62,0.62 0 0 0 -1.24,0 v 7.49 L 14.84,11 c -0.56,-0.58 -1.46,0.32 -0.88,0.88 z"
           id="path4665"
           style="fill:#000000" /></g></g><text
       xml:space="preserve"
       style="font-style:normal;font-variant:normal;font-weight:normal;font-stretch:normal;font-size:15.8882px;font-family:'Red Hat Text';-inkscape-font-specification:'Red Hat Text, Normal ';font-variant-ligatures:normal;font-variant-caps:normal;font-variant-numeric:normal;font-variant-east-asian:normal;text-align:center;text-anchor:middle;fill:#ffffff;stroke-width:1.32402"
       x="202.87463"
       y="-538.20221"
       id="text3314"
       transform="scale(1,-1)"><tspan
         sodipodi:role="line"
         id="tspan3312"
         style="font-style:normal;font-variant:normal;font-weight:900;font-stretch:normal;font-size:10.4156px;font-family:'Red Hat Display';-inkscape-font-specification:'Red Hat Display, Heavy';font-variant-ligatures:normal;font-variant-caps:normal;font-variant-numeric:normal;font-variant-east-asian:normal;text-align:center;text-anchor:middle;fill:#ffffff;stroke-width:1.32402"
         x="202.87463"
         y="-538.20221">Start</tspan></text><text
       xml:space="preserve"
       style="font-style:normal;font-variant:normal;font-weight:normal;font-stretch:normal;font-size:10.4156px;font-family:'Red Hat Display';-inkscape-font-specification:'Red Hat Display, Normal';font-variant-ligatures:normal;font-variant-caps:normal;font-variant-numeric:normal;font-variant-east-asian:normal;text-align:center;text-anchor:middle;fill:#ffffff;stroke-width:1.32402"
       x="348.97302"
       y="-473.05716"
       id="text4037"
       transform="scale(1,-1)"><tspan
         sodipodi:role="line"
         x="348.97302"
         y="-473.05716"
         id="tspan4039"
         style="stroke-width:1.32402">Apply</tspan><tspan
         sodipodi:role="line"
         x="348.97302"
         y="-460.03766"
         id="tspan4043"
         style="stroke-width:1.32402">Recommended</tspan><tspan
         sodipodi:role="line"
         x="348.97302"
         y="-447.01816"
         id="tspan4045"
         style="stroke-width:1.32402">Remediation</tspan></text><text
       xml:space="preserve"
       style="font-style:normal;font-variant:normal;font-weight:normal;font-stretch:normal;font-size:10.4156px;font-family:'Red Hat Display';-inkscape-font-specification:'Red Hat Display, Normal';font-variant-ligatures:normal;font-variant-caps:normal;font-variant-numeric:normal;font-variant-east-asian:normal;text-align:center;text-anchor:middle;fill:#ffffff;stroke-width:1.32402;fill-opacity:1"
       x="270.15625"
       y="-552.34155"
       id="text3720"
       transform="scale(1,-1)"><tspan
         sodipodi:role="line"
         id="tspan3722"
         x="270.15625"
         y="-552.34155"
         style="font-style:normal;font-variant:normal;font-weight:normal;font-stretch:normal;font-family:'Red Hat Display';-inkscape-font-specification:'Red Hat Display';stroke-width:1.32402;fill:#ffffff;fill-opacity:1">Run</tspan><tspan
         sodipodi:role="line"
         x="270.15625"
         y="-539.32208"
         id="tspan3842"
         style="font-style:normal;font-variant:normal;font-weight:normal;font-stretch:normal;font-family:'Red Hat Display';-inkscape-font-specification:'Red Hat Display';stroke-width:1.32402;fill:#ffffff;fill-opacity:1">Pre-upgrade</tspan><tspan
         sodipodi:role="line"
         x="270.15625"
         y="-526.30255"
         id="tspan3846"
         style="font-style:normal;font-variant:normal;font-weight:normal;font-stretch:normal;font-family:'Red Hat Display';-inkscape-font-specification:'Red Hat Display';stroke-width:1.32402;fill:#ffffff;fill-opacity:1">Analysis</tspan></text><g
       id="g4613"
       transform="matrix(0.7093694,0,0,-0.7093694,279.93345,577.67878)"
       style="fill:#ffffff;fill-opacity:1"><path
         class="a59a7be5-8ddd-47cd-aa67-b081be49d87f"
         d="M 27,23.62 A 0.62,0.62 0 1 0 26.38,23 0.61,0.61 0 0 0 27,23.62 Z"
         id="path4594"
         style="fill:#ffffff;fill-opacity:1" /><g
         id="g4602"
         style="fill:#ffffff;fill-opacity:1"><path
           class="a59a7be5-8ddd-47cd-aa67-b081be49d87f"
           d="M 31,17.38 H 5 A 0.61,0.61 0 0 0 4.38,18 V 28 A 0.61,0.61 0 0 0 5,28.62 H 31 A 0.61,0.61 0 0 0 31.62,28 V 18 A 0.61,0.61 0 0 0 31,17.38 Z m -0.62,10 H 5.62 v -8.76 h 24.76 z"
           id="path4596"
           style="fill:#ffffff;fill-opacity:1" /><path
           class="a59a7be5-8ddd-47cd-aa67-b081be49d87f"
           d="m 9,23.62 h 6 a 0.62,0.62 0 0 0 0,-1.24 H 9 a 0.62,0.62 0 0 0 0,1.24 z"
           id="path4598"
           style="fill:#ffffff;fill-opacity:1" /><path
           class="a59a7be5-8ddd-47cd-aa67-b081be49d87f"
           d="m 17.56,15.44 a 0.62,0.62 0 0 0 0.88,0 l 3.6,-3.6 c 0.58,-0.56 -0.32,-1.47 -0.88,-0.88 l -2.54,2.53 V 6 a 0.62,0.62 0 0 0 -1.24,0 v 7.49 L 14.84,11 c -0.56,-0.58 -1.46,0.32 -0.88,0.88 z"
           id="path4600"
           style="fill:#ffffff;fill-opacity:1" /></g></g><g
       id="g527"
       transform="matrix(1.7653542,0,0,1.7653542,556.49338,539.92714)"
       style="fill:#000000"><path
         d="M 0,0 1.884,1.088 0,2.176 Z"
         style="fill:#000000;fill-opacity:1;fill-rule:nonzero;stroke:none"
         id="path525" /></g><g
       id="g4695"><path
         d="m 550.68734,507.90008 h -67.89552 v 67.89552 h 67.89552 z"
         style="fill:#e41e34;fill-opacity:1;fill-rule:nonzero;stroke:none;stroke-width:1.76535"
         id="path2751" /><path
         d="m 629.08983,507.90008 h -67.89552 v 67.89552 h 67.89552 z"
         style="fill:#e41e34;fill-opacity:1;fill-rule:nonzero;stroke:none;stroke-width:1.76535"
         id="path529" /></g><text
       xml:space="preserve"
       style="font-style:normal;font-variant:normal;font-weight:normal;font-stretch:normal;font-size:10.4156px;font-family:'Red Hat Display';-inkscape-font-specification:'Red Hat Display, Normal';font-variant-ligatures:normal;font-variant-caps:normal;font-variant-numeric:normal;font-variant-east-asian:normal;text-align:center;text-anchor:middle;fill:#ffffff;stroke-width:1.32402;fill-opacity:1"
       x="595.02747"
       y="-552.33636"
       id="text537"
       transform="scale(1,-1)"><tspan
         sodipodi:role="line"
         x="595.02747"
         y="-552.33636"
         id="tspan531"
         style="font-style:normal;font-variant:normal;font-weight:900;font-stretch:normal;font-family:'Red Hat Display';-inkscape-font-specification:'Red Hat Display Heavy';stroke-width:1.32402;fill:#ffffff;fill-opacity:1">Run</tspan><tspan
         sodipodi:role="line"
         x="595.02747"
         y="-539.31689"
         id="tspan533"
         style="font-style:normal;font-variant:normal;font-weight:900;font-stretch:normal;font-family:'Red Hat Display';-inkscape-font-specification:'Red Hat Display Heavy';stroke-width:1.32402;fill:#ffffff;fill-opacity:1">In-place</tspan><tspan
         sodipodi:role="line"
         x="595.02747"
         y="-526.29736"
         id="tspan535"
         style="font-style:normal;font-variant:normal;font-weight:900;font-stretch:normal;font-family:'Red Hat Display';-inkscape-font-specification:'Red Hat Display Heavy';stroke-width:1.32402;fill:#ffffff;fill-opacity:1">Upgrade</tspan></text><text
       xml:space="preserve"
       style="font-style:normal;font-variant:normal;font-weight:normal;font-stretch:normal;font-size:10.4156px;font-family:'Red Hat Display';-inkscape-font-specification:'Red Hat Display, Normal';font-variant-ligatures:normal;font-variant-caps:normal;font-variant-numeric:normal;font-variant-east-asian:normal;text-align:center;text-anchor:middle;fill:#ffffff;stroke-width:1.32402;fill-opacity:1"
       x="516.76562"
       y="-545.71722"
       id="text555"
       transform="scale(1,-1)"><tspan
         sodipodi:role="line"
         x="516.76562"
         y="-545.71722"
         id="tspan553"
         style="stroke-width:1.32402;fill:#ffffff;fill-opacity:1">Create</tspan><tspan
         sodipodi:role="line"
         x="516.76562"
         y="-532.69775"
         style="stroke-width:1.32402;fill:#ffffff;fill-opacity:1"
         id="tspan661">Snapshot</tspan></text><g
       id="g4625"
       transform="matrix(0.7093694,0,0,-0.7093694,526.20036,577.67878)"
       style="fill:#ffffff;fill-opacity:1"><path
         class="a59a7be5-8ddd-47cd-aa67-b081be49d87f"
         d="M 27,23.62 A 0.62,0.62 0 1 0 26.38,23 0.61,0.61 0 0 0 27,23.62 Z"
         id="path4615"
         style="fill:#ffffff;fill-opacity:1" /><g
         id="g4623"
         style="fill:#ffffff;fill-opacity:1"><path
           class="a59a7be5-8ddd-47cd-aa67-b081be49d87f"
           d="M 31,17.38 H 5 A 0.61,0.61 0 0 0 4.38,18 V 28 A 0.61,0.61 0 0 0 5,28.62 H 31 A 0.61,0.61 0 0 0 31.62,28 V 18 A 0.61,0.61 0 0 0 31,17.38 Z m -0.62,10 H 5.62 v -8.76 h 24.76 z"
           id="path4617"
           style="fill:#ffffff;fill-opacity:1" /><path
           class="a59a7be5-8ddd-47cd-aa67-b081be49d87f"
           d="m 9,23.62 h 6 a 0.62,0.62 0 0 0 0,-1.24 H 9 a 0.62,0.62 0 0 0 0,1.24 z"
           id="path4619"
           style="fill:#ffffff;fill-opacity:1" /><path
           class="a59a7be5-8ddd-47cd-aa67-b081be49d87f"
           d="m 17.56,15.44 a 0.62,0.62 0 0 0 0.88,0 l 3.6,-3.6 c 0.58,-0.56 -0.32,-1.47 -0.88,-0.88 l -2.54,2.53 V 6 a 0.62,0.62 0 0 0 -1.24,0 v 7.49 L 14.84,11 c -0.56,-0.58 -1.46,0.32 -0.88,0.88 z"
           id="path4621"
           style="fill:#ffffff;fill-opacity:1" /></g></g><g
       id="g549"
       transform="matrix(0.7093694,0,0,-0.7093694,604.60285,577.67878)"
       style="fill:#ffffff;fill-opacity:1"><path
         class="a59a7be5-8ddd-47cd-aa67-b081be49d87f"
         d="M 27,23.62 A 0.62,0.62 0 1 0 26.38,23 0.61,0.61 0 0 0 27,23.62 Z"
         id="path539"
         style="fill:#ffffff;fill-opacity:1" /><g
         id="g547"
         style="fill:#ffffff;fill-opacity:1"><path
           class="a59a7be5-8ddd-47cd-aa67-b081be49d87f"
           d="M 31,17.38 H 5 A 0.61,0.61 0 0 0 4.38,18 V 28 A 0.61,0.61 0 0 0 5,28.62 H 31 A 0.61,0.61 0 0 0 31.62,28 V 18 A 0.61,0.61 0 0 0 31,17.38 Z m -0.62,10 H 5.62 v -8.76 h 24.76 z"
           id="path541"
           style="fill:#ffffff;fill-opacity:1" /><path
           class="a59a7be5-8ddd-47cd-aa67-b081be49d87f"
           d="m 9,23.62 h 6 a 0.62,0.62 0 0 0 0,-1.24 H 9 a 0.62,0.62 0 0 0 0,1.24 z"
           id="path543"
           style="fill:#ffffff;fill-opacity:1" /><path
           class="a59a7be5-8ddd-47cd-aa67-b081be49d87f"
           d="m 17.56,15.44 a 0.62,0.62 0 0 0 0.88,0 l 3.6,-3.6 c 0.58,-0.56 -0.32,-1.47 -0.88,-0.88 l -2.54,2.53 V 6 a 0.62,0.62 0 0 0 -1.24,0 v 7.49 L 14.84,11 c -0.56,-0.58 -1.46,0.32 -0.88,0.88 z"
           id="path545"
           style="fill:#ffffff;fill-opacity:1" /></g></g></g></svg>
