<?xml version="1.0" encoding="utf-8"?>
<!-- Generator: Adobe Illustrator 21.0.2, SVG Export Plug-In . SVG Version: 6.00 Build 0)  -->
<svg version="1.1" id="Layer_1" xmlns="http://www.w3.org/2000/svg" xmlns:xlink="http://www.w3.org/1999/xlink" x="0px" y="0px"
	 viewBox="0 0 2000 1636" style="enable-background:new 0 0 2000 1636;" xml:space="preserve">
<style type="text/css">
	.st0{fill:none;stroke:#636466;stroke-width:6;stroke-miterlimit:10;}
	.st1{fill:url(#SVGID_1_);}
	.st2{fill:#CBCAC9;}
	.st3{fill:none;}
	.st4{enable-background:new    ;}
	.st5{fill:#4D4E4E;}
	.st6{fill:#808080;}
	.st7{fill:#CC0000;}
	.st8{fill:#A61F23;}
	.st9{fill:#666667;}
	.st10{fill:#FFFFFF;}
</style>
<polyline class="st0" points="1435.1,152.2 1465.5,152.2 1986.4,152.2 1986.4,1521.5 19.7,1521.5 19.7,152.2 562.7,152.2 "/>
<linearGradient id="SVGID_1_" gradientUnits="userSpaceOnUse" x1="66.6" y1="-755.75" x2="1941.2" y2="-755.75" gradientTransform="matrix(1 0 0 1 0 2264)">
	<stop  offset="0" style="stop-color:#E0E0E0"/>
	<stop  offset="0.4716" style="stop-color:#CFCFCF"/>
	<stop  offset="1" style="stop-color:#E5E5E5"/>
</linearGradient>
<rect x="66.6" y="1416.5" class="st1" width="1874.6" height="183.5"/>
<polygon class="st2" points="67.1,1417.8 215.6,1344.1 1742.9,1345.4 1942.1,1417.8 "/>
<rect x="66.6" y="1493.7" class="st3" width="1875.6" height="58.2"/>
<g class="st4">
	<path class="st5" d="M312.8,1534.1h-4.4v-37.9h21.2v3.9h-16.7v13.9h15.7v3.9h-15.7V1534.1z"/>
	<path class="st5" d="M364.5,1496.1v24.6c0,4.3-1.3,7.7-3.9,10.2c-2.6,2.5-6.2,3.7-10.8,3.7s-8.1-1.2-10.6-3.7
		c-2.5-2.5-3.8-5.9-3.8-10.3v-24.4h4.4v24.8c0,3.2,0.9,5.6,2.6,7.3c1.7,1.7,4.3,2.5,7.6,2.5c3.2,0,5.7-0.9,7.4-2.6
		c1.7-1.7,2.6-4.1,2.6-7.3v-24.7H364.5z"/>
	<path class="st5" d="M395.7,1534.1h-21.2v-37.9h21.2v3.9H379v12.2h15.7v3.9H379v14h16.7V1534.1z"/>
	<path class="st5" d="M404.1,1534.1v-37.9h4.4v33.9h16.7v4H404.1z"/>
	<path class="st5" d="M452.9,1534.1h-21.2v-37.9h21.2v3.9h-16.7v12.2h15.7v3.9h-15.7v14h16.7V1534.1z"/>
	<path class="st5" d="M491.6,1514.8c0,6.3-1.7,11.1-5.1,14.4s-8.3,5-14.7,5h-10.5v-37.9h11.6c5.9,0,10.5,1.6,13.8,4.9
		C489.9,1504.3,491.6,1508.9,491.6,1514.8z M486.9,1514.9c0-4.9-1.2-8.7-3.7-11.2s-6.2-3.8-11.1-3.8h-6.4v30.3h5.4
		c5.3,0,9.2-1.3,11.9-3.9C485.6,1523.8,486.9,1520,486.9,1514.9z"/>
	<path class="st5" d="M513.8,1496.1h10.7c5,0,8.7,0.8,10.9,2.3c2.2,1.5,3.4,3.9,3.4,7.1c0,2.2-0.6,4.1-1.9,5.6
		c-1.3,1.5-3.1,2.4-5.5,2.8v0.3c5.8,1,8.6,4,8.6,9.1c0,3.4-1.1,6-3.4,7.9c-2.3,1.9-5.5,2.9-9.6,2.9h-13.2V1496.1z M518.2,1512.4h7.3
		c3.1,0,5.4-0.5,6.7-1.5c1.4-1,2.1-2.6,2.1-4.9c0-2.1-0.8-3.7-2.3-4.6c-1.5-0.9-3.9-1.4-7.3-1.4h-6.5V1512.4z M518.2,1516.1v14.2
		h7.9c3.1,0,5.4-0.6,6.9-1.8c1.5-1.2,2.3-3,2.3-5.6c0-2.4-0.8-4.1-2.4-5.2c-1.6-1.1-4-1.7-7.2-1.7H518.2z"/>
	<path class="st5" d="M557.9,1515.1l10.1-19h4.8l-12.7,23.2v14.7h-4.5v-14.5l-12.6-23.4h4.8L557.9,1515.1z"/>
	<path class="st5" d="M615.7,1534.1L611,1522h-15.2l-4.7,12.1h-4.5l15-38.1h3.7l14.9,38.1H615.7z M609.6,1518.1l-4.4-11.8
		c-0.6-1.5-1.2-3.3-1.8-5.5c-0.4,1.7-0.9,3.5-1.6,5.5l-4.5,11.8H609.6z"/>
	<path class="st5" d="M655.1,1534.1h-5l-20.7-31.8h-0.2c0.3,3.7,0.4,7.2,0.4,10.3v21.6h-4.1v-37.9h5l20.7,31.7h0.2
		c0-0.5-0.1-2-0.2-4.5c-0.1-2.5-0.2-4.3-0.1-5.4v-21.8h4.1V1534.1z"/>
	<path class="st5" d="M679.4,1534.1v-37.9h4.4v37.9H679.4z"/>
	<path class="st5" d="M723.8,1534.1h-5l-20.7-31.8h-0.2c0.3,3.7,0.4,7.2,0.4,10.3v21.6h-4.1v-37.9h5l20.7,31.7h0.2
		c0-0.5-0.1-2-0.2-4.5c-0.1-2.5-0.2-4.3-0.1-5.4v-21.8h4.1V1534.1z"/>
	<path class="st5" d="M763.9,1534.1h-5l-20.7-31.8h-0.2c0.3,3.7,0.4,7.2,0.4,10.3v21.6h-4.1v-37.9h5l20.7,31.7h0.2
		c0-0.5-0.1-2-0.2-4.5c-0.1-2.5-0.2-4.3-0.1-5.4v-21.8h4.1V1534.1z"/>
	<path class="st5" d="M807.3,1515.1c0,6.1-1.5,10.8-4.6,14.3c-3.1,3.5-7.3,5.2-12.8,5.2c-5.6,0-9.9-1.7-12.9-5.1s-4.6-8.2-4.6-14.5
		c0-6.2,1.5-11,4.6-14.4c3-3.4,7.4-5.1,13-5.1c5.5,0,9.7,1.7,12.8,5.2C805.7,1504.2,807.3,1509,807.3,1515.1z M777,1515.1
		c0,5.1,1.1,9,3.3,11.7c2.2,2.7,5.4,4,9.5,4c4.2,0,7.4-1.3,9.5-4s3.2-6.5,3.2-11.7c0-5.1-1.1-9-3.2-11.6c-2.1-2.6-5.3-4-9.5-4
		c-4.2,0-7.4,1.3-9.6,4C778.1,1506.1,777,1510,777,1515.1z"/>
	<path class="st5" d="M837.4,1496.1h4.8l-13.7,37.9h-4.4l-13.6-37.9h4.7l8.7,24.6c1,2.8,1.8,5.6,2.4,8.2c0.6-2.8,1.4-5.6,2.4-8.4
		L837.4,1496.1z"/>
	<path class="st5" d="M871.2,1534.1l-4.7-12.1h-15.2l-4.7,12.1h-4.5l15-38.1h3.7l14.9,38.1H871.2z M865.1,1518.1l-4.4-11.8
		c-0.6-1.5-1.2-3.3-1.8-5.5c-0.4,1.7-0.9,3.5-1.6,5.5l-4.5,11.8H865.1z"/>
	<path class="st5" d="M892.7,1534.1h-4.4v-34h-12v-3.9h28.4v3.9h-12V1534.1z"/>
	<path class="st5" d="M910.4,1534.1v-37.9h4.4v37.9H910.4z"/>
	<path class="st5" d="M946.9,1496.1h4.7l-13.7,37.9h-4.4l-13.6-37.9h4.7l8.7,24.6c1,2.8,1.8,5.6,2.4,8.2c0.6-2.8,1.4-5.6,2.4-8.4
		L946.9,1496.1z"/>
	<path class="st5" d="M978,1534.1h-21.2v-37.9H978v3.9h-16.7v12.2H977v3.9h-15.7v14H978V1534.1z"/>
</g>
<g class="st4">
	<path class="st5" d="M1034.2,1515.1c0,6.3-1.6,11.1-4.7,14.5c-3.1,3.4-7.6,5.1-13.4,5.1s-10.3-1.7-13.4-5.1
		c-3.1-3.4-4.7-8.2-4.7-14.5s1.6-11.1,4.7-14.5c3.1-3.3,7.6-5,13.4-5s10.3,1.7,13.4,5C1032.7,1503.9,1034.2,1508.8,1034.2,1515.1z
		 M1006.5,1515.1c0,4.2,0.8,7.4,2.4,9.6c1.6,2.1,4,3.2,7.2,3.2c6.4,0,9.6-4.3,9.6-12.8c0-8.5-3.2-12.8-9.6-12.8
		c-3.2,0-5.6,1.1-7.2,3.2S1006.5,1510.8,1006.5,1515.1z"/>
	<path class="st5" d="M1068.3,1508c0,4.1-1.3,7.2-3.8,9.4c-2.6,2.2-6.2,3.2-10.9,3.2h-3.5v13.5h-8v-37.9h12.1c4.6,0,8.1,1,10.5,3
		S1068.3,1504.1,1068.3,1508z M1050.1,1514h2.6c2.5,0,4.3-0.5,5.6-1.5c1.2-1,1.8-2.4,1.8-4.3c0-1.9-0.5-3.3-1.5-4.2
		c-1-0.9-2.6-1.3-4.8-1.3h-3.7V1514z"/>
	<path class="st5" d="M1097.3,1534.1h-21.9v-37.9h21.9v6.6h-13.8v8.3h12.8v6.6h-12.8v9.8h13.8V1534.1z"/>
	<path class="st5" d="M1138.9,1534.1h-10.2l-16.5-28.7h-0.2c0.3,5.1,0.5,8.7,0.5,10.8v17.9h-7.2v-37.9h10.1l16.5,28.4h0.2
		c-0.3-4.9-0.4-8.4-0.4-10.5v-18h7.2V1534.1z"/>
	<path class="st5" d="M1184.6,1523.6c0,3.4-1.2,6.1-3.7,8.1s-5.9,3-10.3,3c-4,0-7.6-0.8-10.7-2.3v-7.5c2.6,1.1,4.7,1.9,6.5,2.4
		c1.8,0.5,3.4,0.7,4.9,0.7c1.8,0,3.1-0.3,4.1-1c0.9-0.7,1.4-1.7,1.4-3c0-0.7-0.2-1.4-0.6-2c-0.4-0.6-1-1.1-1.8-1.7
		c-0.8-0.5-2.4-1.4-4.9-2.6c-2.3-1.1-4.1-2.1-5.2-3.1c-1.2-1-2.1-2.2-2.8-3.5c-0.7-1.3-1-2.9-1-4.7c0-3.4,1.1-6,3.4-7.9
		c2.3-1.9,5.4-2.9,9.4-2.9c2,0,3.9,0.2,5.6,0.7c1.8,0.5,3.7,1.1,5.6,2l-2.6,6.3c-2-0.8-3.7-1.4-5-1.7c-1.3-0.3-2.6-0.5-3.9-0.5
		c-1.5,0-2.7,0.4-3.5,1.1c-0.8,0.7-1.2,1.6-1.2,2.8c0,0.7,0.2,1.3,0.5,1.9c0.3,0.5,0.9,1,1.6,1.5s2.4,1.4,5.1,2.7
		c3.5,1.7,6,3.4,7.3,5.1C1184,1519,1184.6,1521.1,1184.6,1523.6z"/>
	<path class="st5" d="M1225.9,1515.1c0,6.3-1.6,11.1-4.7,14.5s-7.6,5.1-13.4,5.1c-5.8,0-10.3-1.7-13.4-5.1s-4.7-8.2-4.7-14.5
		s1.6-11.1,4.7-14.5c3.1-3.3,7.6-5,13.4-5c5.8,0,10.3,1.7,13.4,5C1224.4,1503.9,1225.9,1508.8,1225.9,1515.1z M1198.3,1515.1
		c0,4.2,0.8,7.4,2.4,9.6s4,3.2,7.2,3.2c6.4,0,9.6-4.3,9.6-12.8c0-8.5-3.2-12.8-9.6-12.8c-3.2,0-5.6,1.1-7.2,3.2
		C1199.1,1507.6,1198.3,1510.8,1198.3,1515.1z"/>
	<path class="st5" d="M1264.7,1496.1v24.6c0,2.8-0.6,5.3-1.9,7.4c-1.3,2.1-3.1,3.7-5.4,4.9c-2.4,1.1-5.2,1.7-8.4,1.7
		c-4.9,0-8.7-1.2-11.4-3.8c-2.7-2.5-4-5.9-4-10.3v-24.4h8v23.2c0,2.9,0.6,5.1,1.8,6.4c1.2,1.4,3.1,2.1,5.8,2.1
		c2.6,0,4.5-0.7,5.7-2.1c1.2-1.4,1.8-3.5,1.8-6.5v-23.2H1264.7z"/>
	<path class="st5" d="M1282,1519.5v14.6h-8v-37.9h11.1c5.2,0,9,0.9,11.4,2.8c2.5,1.9,3.7,4.7,3.7,8.6c0,2.2-0.6,4.2-1.8,6
		c-1.2,1.7-3,3.1-5.2,4.1c5.7,8.5,9.4,14,11.2,16.5h-8.9l-9.1-14.6H1282z M1282,1513h2.6c2.5,0,4.4-0.4,5.6-1.3
		c1.2-0.8,1.8-2.2,1.8-4c0-1.8-0.6-3.1-1.9-3.8c-1.2-0.8-3.2-1.1-5.7-1.1h-2.4V1513z"/>
	<path class="st5" d="M1325.2,1502.3c-3,0-5.4,1.1-7,3.4s-2.5,5.4-2.5,9.5c0,8.5,3.2,12.7,9.5,12.7c2.7,0,5.9-0.7,9.7-2v6.7
		c-3.1,1.3-6.6,1.9-10.4,1.9c-5.5,0-9.7-1.7-12.7-5c-2.9-3.3-4.4-8.2-4.4-14.4c0-3.9,0.7-7.4,2.2-10.4s3.5-5.2,6.2-6.8
		s5.8-2.4,9.5-2.4c3.7,0,7.4,0.9,11.1,2.7l-2.6,6.5c-1.4-0.7-2.8-1.3-4.3-1.8S1326.6,1502.3,1325.2,1502.3z"/>
	<path class="st5" d="M1364.8,1534.1h-21.9v-37.9h21.9v6.6H1351v8.3h12.8v6.6H1351v9.8h13.8V1534.1z"/>
</g>
<g class="st4">
	<path class="st5" d="M1403.2,1499.5c-4.2,0-7.5,1.4-9.9,4.2c-2.4,2.8-3.6,6.6-3.6,11.4c0,5,1.2,8.8,3.5,11.5s5.6,4.1,10,4.1
		c2.6,0,5.7-0.5,9.1-1.4v3.9c-2.6,1-5.9,1.5-9.7,1.5c-5.6,0-9.9-1.7-12.9-5.1c-3-3.4-4.6-8.2-4.6-14.5c0-3.9,0.7-7.3,2.2-10.3
		c1.5-2.9,3.6-5.2,6.3-6.8c2.8-1.6,6-2.4,9.7-2.4c4,0,7.5,0.7,10.4,2.2l-1.9,3.8C1408.9,1500.2,1406.1,1499.5,1403.2,1499.5z"/>
	<path class="st5" d="M1453.4,1515.1c0,6.1-1.5,10.8-4.6,14.3c-3.1,3.5-7.3,5.2-12.8,5.2c-5.6,0-9.9-1.7-12.9-5.1
		c-3-3.4-4.6-8.2-4.6-14.5c0-6.2,1.5-11,4.6-14.4c3-3.4,7.4-5.1,13-5.1c5.5,0,9.7,1.7,12.8,5.2
		C1451.9,1504.2,1453.4,1509,1453.4,1515.1z M1423.2,1515.1c0,5.1,1.1,9,3.3,11.7s5.4,4,9.5,4c4.2,0,7.4-1.3,9.5-4s3.2-6.5,3.2-11.7
		c0-5.1-1.1-9-3.2-11.6s-5.3-4-9.5-4c-4.2,0-7.4,1.3-9.6,4C1424.3,1506.1,1423.2,1510,1423.2,1515.1z"/>
	<path class="st5" d="M1478.7,1534.1l-12.9-33.6h-0.2c0.2,2.7,0.4,5.8,0.4,9.5v24.1h-4.1v-37.9h6.6l12,31.3h0.2l12.1-31.3h6.6v37.9
		h-4.4v-24.4c0-2.8,0.1-5.8,0.4-9.1h-0.2l-13,33.6H1478.7z"/>
	<path class="st5" d="M1526.7,1534.1l-12.9-33.6h-0.2c0.2,2.7,0.4,5.8,0.4,9.5v24.1h-4.1v-37.9h6.6l12,31.3h0.2l12.1-31.3h6.6v37.9
		h-4.4v-24.4c0-2.8,0.1-5.8,0.4-9.1h-0.2l-13,33.6H1526.7z"/>
	<path class="st5" d="M1586.5,1496.1v24.6c0,4.3-1.3,7.7-3.9,10.2c-2.6,2.5-6.2,3.7-10.8,3.7c-4.6,0-8.1-1.2-10.6-3.7
		c-2.5-2.5-3.8-5.9-3.8-10.3v-24.4h4.4v24.8c0,3.2,0.9,5.6,2.6,7.3c1.7,1.7,4.3,2.5,7.6,2.5c3.2,0,5.7-0.9,7.4-2.6
		c1.7-1.7,2.6-4.1,2.6-7.3v-24.7H1586.5z"/>
	<path class="st5" d="M1626.2,1534.1h-5l-20.7-31.8h-0.2c0.3,3.7,0.4,7.2,0.4,10.3v21.6h-4.1v-37.9h5l20.7,31.7h0.2
		c0-0.5-0.1-2-0.2-4.5c-0.1-2.5-0.2-4.3-0.1-5.4v-21.8h4.1V1534.1z"/>
	<path class="st5" d="M1636.6,1534.1v-37.9h4.4v37.9H1636.6z"/>
	<path class="st5" d="M1663.1,1534.1h-4.4v-34h-12v-3.9h28.4v3.9h-12V1534.1z"/>
	<path class="st5" d="M1690.5,1515.1l10.1-19h4.8l-12.7,23.2v14.7h-4.5v-14.5l-12.6-23.4h4.8L1690.5,1515.1z"/>
</g>
<rect x="203.2" y="893.8" class="st6" width="1584.5" height="501.2"/>
<rect x="204.5" y="352.1" class="st7" width="1584.5" height="501.2"/>
<rect x="749.5" y="587.5" class="st8" width="468.5" height="207.6"/>
<rect x="1251.6" y="587.3" class="st8" width="468.5" height="207.6"/>
<rect x="247" y="587.3" class="st8" width="468.5" height="207.6"/>
<rect x="758.8" y="1127.4" class="st9" width="468.5" height="209.3"/>
<rect x="1261" y="1126.9" class="st9" width="468.5" height="209.3"/>
<rect x="255.1" y="1126.9" class="st9" width="468.5" height="209.3"/>
<rect x="246.3" y="679.9" class="st3" width="470.5" height="44.3"/>
<g class="st4">
	<path class="st10" d="M383.7,687.6c-2.7,0-4.9,1-6.4,3.1c-1.5,2.1-2.3,4.9-2.3,8.6c0,7.7,2.9,11.5,8.6,11.5c2.4,0,5.3-0.6,8.8-1.8
		v6.1c-2.8,1.2-6,1.8-9.5,1.8c-5,0-8.8-1.5-11.5-4.6c-2.7-3-4-7.4-4-13.1c0-3.6,0.7-6.7,2-9.4c1.3-2.7,3.2-4.8,5.6-6.2
		c2.4-1.4,5.3-2.2,8.6-2.2c3.3,0,6.7,0.8,10.1,2.4l-2.4,5.9c-1.3-0.6-2.6-1.1-3.9-1.6C386.2,687.8,385,687.6,383.7,687.6z"/>
	<path class="st10" d="M431,699.2c0,5.7-1.4,10.1-4.2,13.1c-2.8,3.1-6.9,4.6-12.1,4.6s-9.3-1.5-12.1-4.6c-2.8-3.1-4.2-7.4-4.2-13.2
		c0-5.7,1.4-10.1,4.2-13.1c2.8-3,6.9-4.5,12.2-4.5c5.3,0,9.3,1.5,12.1,4.6C429.6,689.1,431,693.5,431,699.2z M405.9,699.2
		c0,3.8,0.7,6.7,2.2,8.7c1.5,1.9,3.6,2.9,6.5,2.9c5.8,0,8.7-3.9,8.7-11.6c0-7.7-2.9-11.6-8.7-11.6c-2.9,0-5.1,1-6.6,2.9
		C406.7,692.4,405.9,695.3,405.9,699.2z"/>
	<path class="st10" d="M468.7,716.4h-9.3l-15-26h-0.2c0.3,4.6,0.4,7.9,0.4,9.8v16.2h-6.5V682h9.2l14.9,25.8h0.2
		c-0.2-4.5-0.4-7.6-0.4-9.5V682h6.6V716.4z"/>
	<path class="st10" d="M490.6,716.4h-7.3v-28.3H474V682h26v6.1h-9.3V716.4z"/>
	<path class="st10" d="M512.5,703.2v13.2h-7.3V682h10c4.7,0,8.1,0.9,10.4,2.6c2.2,1.7,3.4,4.3,3.4,7.8c0,2-0.6,3.8-1.7,5.4
		s-2.7,2.8-4.7,3.7c5.2,7.7,8.5,12.7,10.1,15h-8.1l-8.2-13.2H512.5z M512.5,697.3h2.4c2.3,0,4-0.4,5.1-1.2c1.1-0.8,1.6-2,1.6-3.6
		c0-1.6-0.6-2.8-1.7-3.5c-1.1-0.7-2.9-1-5.2-1h-2.2V697.3z"/>
	<path class="st10" d="M568.2,699.2c0,5.7-1.4,10.1-4.2,13.1c-2.8,3.1-6.9,4.6-12.1,4.6s-9.3-1.5-12.1-4.6
		c-2.8-3.1-4.2-7.4-4.2-13.2c0-5.7,1.4-10.1,4.2-13.1c2.8-3,6.9-4.5,12.2-4.5c5.3,0,9.3,1.5,12.1,4.6
		C566.8,689.1,568.2,693.5,568.2,699.2z M543.1,699.2c0,3.8,0.7,6.7,2.2,8.7c1.5,1.9,3.6,2.9,6.5,2.9c5.8,0,8.7-3.9,8.7-11.6
		c0-7.7-2.9-11.6-8.7-11.6c-2.9,0-5.1,1-6.6,2.9C543.9,692.4,543.1,695.3,543.1,699.2z"/>
	<path class="st10" d="M575.4,716.4V682h7.3v28.4h14v6H575.4z"/>
</g>
<rect x="755" y="679.9" class="st3" width="457.6" height="44.3"/>
<g class="st4">
	<path class="st10" d="M862,716.4h-8.3l-9-14.5l-3.1,2.2v12.3h-7.3V682h7.3v15.7l2.9-4l9.3-11.7h8.1l-12,15.2L862,716.4z"/>
	<path class="st10" d="M896.8,716.4h-9.3l-15-26h-0.2c0.3,4.6,0.4,7.9,0.4,9.8v16.2h-6.5V682h9.2l14.9,25.8h0.2
		c-0.2-4.5-0.4-7.6-0.4-9.5V682h6.6V716.4z"/>
	<path class="st10" d="M936.7,699.2c0,5.7-1.4,10.1-4.2,13.1c-2.8,3.1-6.9,4.6-12.1,4.6s-9.3-1.5-12.1-4.6
		c-2.8-3.1-4.2-7.4-4.2-13.2c0-5.7,1.4-10.1,4.2-13.1c2.8-3,6.9-4.5,12.2-4.5c5.3,0,9.3,1.5,12.1,4.6
		C935.3,689.1,936.7,693.5,936.7,699.2z M911.6,699.2c0,3.8,0.7,6.7,2.2,8.7c1.5,1.9,3.6,2.9,6.5,2.9c5.8,0,8.7-3.9,8.7-11.6
		c0-7.7-2.9-11.6-8.7-11.6c-2.9,0-5.1,1-6.6,2.9C912.3,692.4,911.6,695.3,911.6,699.2z"/>
	<path class="st10" d="M977.3,716.4H969l-4.7-18.1c-0.2-0.6-0.5-2-0.9-4c-0.4-2-0.7-3.4-0.7-4.1c-0.1,0.8-0.3,2.2-0.7,4.1
		c-0.4,1.9-0.7,3.2-0.9,4l-4.6,18h-8.3l-8.8-34.4h7.2l4.4,18.8c0.8,3.5,1.3,6.5,1.7,9c0.1-0.9,0.3-2.3,0.6-4.2s0.7-3.3,1-4.4l5-19.3
		h6.9l5,19.3c0.2,0.9,0.5,2.2,0.8,4c0.3,1.8,0.6,3.3,0.8,4.6c0.2-1.2,0.4-2.7,0.8-4.6c0.3-1.8,0.7-3.3,0.9-4.4l4.4-18.8h7.2
		L977.3,716.4z"/>
	<path class="st10" d="M990.4,716.4V682h7.3v28.4h14v6H990.4z"/>
	<path class="st10" d="M1037.4,716.4h-19.8V682h19.8v6h-12.5v7.6h11.6v6h-11.6v8.9h12.5V716.4z"/>
	<path class="st10" d="M1073.1,698.9c0,5.7-1.6,10-4.8,13c-3.2,3-7.9,4.5-14,4.5h-9.7V682h10.8c5.6,0,10,1.5,13.1,4.4
		C1071.6,689.4,1073.1,693.6,1073.1,698.9z M1065.5,699.1c0-7.4-3.3-11.1-9.8-11.1h-3.9v22.4h3.1
		C1062,710.4,1065.5,706.6,1065.5,699.1z"/>
	<path class="st10" d="M1093.3,697.1h13.6v17.8c-2.2,0.7-4.3,1.2-6.2,1.5c-2,0.3-3.9,0.4-6,0.4c-5.2,0-9.2-1.5-11.9-4.6
		c-2.7-3-4.1-7.4-4.1-13.1c0-5.6,1.6-9.9,4.8-13c3.2-3.1,7.6-4.7,13.2-4.7c3.5,0,6.9,0.7,10.2,2.1l-2.4,5.8
		c-2.5-1.3-5.1-1.9-7.8-1.9c-3.2,0-5.7,1.1-7.6,3.2s-2.8,5-2.8,8.5c0,3.7,0.8,6.6,2.3,8.6c1.5,2,3.8,3,6.7,3c1.5,0,3.1-0.2,4.6-0.5
		v-7.2h-6.5V697.1z"/>
	<path class="st10" d="M1134.9,716.4h-19.8V682h19.8v6h-12.5v7.6h11.6v6h-11.6v8.9h12.5V716.4z"/>
</g>
<rect x="1258.5" y="679.9" class="st3" width="460.9" height="49.4"/>
<g class="st4">
	<path class="st10" d="M1368.6,698.9c0,5.7-1.6,10-4.8,13c-3.2,3-7.9,4.5-14,4.5h-9.7V682h10.8c5.6,0,10,1.5,13.1,4.4
		C1367,689.4,1368.6,693.6,1368.6,698.9z M1361,699.1c0-7.4-3.3-11.1-9.8-11.1h-3.9v22.4h3.1C1357.5,710.4,1361,706.6,1361,699.1z"
		/>
	<path class="st10" d="M1395.5,716.4h-19.8V682h19.8v6H1383v7.6h11.6v6H1383v8.9h12.5V716.4z"/>
	<path class="st10" d="M1402.7,716.4V682h7.3v28.4h14v6H1402.7z"/>
	<path class="st10" d="M1449.7,716.4h-19.8V682h19.8v6h-12.5v7.6h11.6v6h-11.6v8.9h12.5V716.4z"/>
	<path class="st10" d="M1469.9,697.1h13.6v17.8c-2.2,0.7-4.3,1.2-6.2,1.5c-2,0.3-3.9,0.4-6,0.4c-5.2,0-9.2-1.5-11.9-4.6
		c-2.7-3-4.1-7.4-4.1-13.1c0-5.6,1.6-9.9,4.8-13c3.2-3.1,7.6-4.7,13.2-4.7c3.5,0,6.9,0.7,10.2,2.1l-2.4,5.8
		c-2.5-1.3-5.1-1.9-7.8-1.9c-3.2,0-5.7,1.1-7.6,3.2c-1.9,2.1-2.8,5-2.8,8.5c0,3.7,0.8,6.6,2.3,8.6c1.5,2,3.8,3,6.7,3
		c1.5,0,3.1-0.2,4.6-0.5v-7.2h-6.5V697.1z"/>
	<path class="st10" d="M1512.8,716.4l-2.5-8.2h-12.5l-2.5,8.2h-7.9l12.1-34.5h8.9l12.2,34.5H1512.8z M1508.6,702.1
		c-2.3-7.4-3.6-11.6-3.9-12.6c-0.3-1-0.5-1.7-0.6-2.3c-0.5,2-2,7-4.4,14.9H1508.6z"/>
	<path class="st10" d="M1538.3,716.4h-7.3v-28.3h-9.3V682h26v6.1h-9.3V716.4z"/>
	<path class="st10" d="M1552.9,716.4V682h7.3v34.4H1552.9z"/>
	<path class="st10" d="M1600.1,699.2c0,5.7-1.4,10.1-4.2,13.1c-2.8,3.1-6.9,4.6-12.1,4.6s-9.3-1.5-12.1-4.6
		c-2.8-3.1-4.2-7.4-4.2-13.2c0-5.7,1.4-10.1,4.2-13.1c2.8-3,6.9-4.5,12.2-4.5s9.3,1.5,12.1,4.6S1600.1,693.5,1600.1,699.2z
		 M1575,699.2c0,3.8,0.7,6.7,2.2,8.7c1.5,1.9,3.6,2.9,6.5,2.9c5.8,0,8.7-3.9,8.7-11.6c0-7.7-2.9-11.6-8.7-11.6c-2.9,0-5.1,1-6.6,2.9
		C1575.7,692.4,1575,695.3,1575,699.2z"/>
	<path class="st10" d="M1637.7,716.4h-9.3l-15-26h-0.2c0.3,4.6,0.4,7.9,0.4,9.8v16.2h-6.5V682h9.2l14.9,25.8h0.2
		c-0.2-4.5-0.4-7.6-0.4-9.5V682h6.6V716.4z"/>
</g>
<rect x="261.5" y="1212.7" class="st3" width="455.6" height="53.2"/>
<g class="st4">
	<path class="st10" d="M427.7,1239.7c0,3.1-1.1,5.6-3.4,7.3c-2.2,1.8-5.3,2.7-9.3,2.7c-3.7,0-6.9-0.7-9.7-2.1v-6.8
		c2.3,1,4.3,1.8,5.9,2.2c1.6,0.4,3.1,0.6,4.4,0.6c1.6,0,2.8-0.3,3.7-0.9c0.9-0.6,1.3-1.5,1.3-2.7c0-0.7-0.2-1.3-0.6-1.8
		c-0.4-0.5-0.9-1-1.7-1.5c-0.7-0.5-2.2-1.3-4.5-2.3c-2.1-1-3.7-1.9-4.7-2.8c-1.1-0.9-1.9-2-2.5-3.2c-0.6-1.2-0.9-2.6-0.9-4.2
		c0-3,1-5.4,3.1-7.2c2.1-1.7,4.9-2.6,8.6-2.6c1.8,0,3.5,0.2,5.1,0.6c1.6,0.4,3.3,1,5.1,1.8l-2.4,5.7c-1.8-0.8-3.4-1.3-4.6-1.6
		c-1.2-0.3-2.4-0.4-3.5-0.4c-1.4,0-2.4,0.3-3.2,1c-0.7,0.6-1.1,1.5-1.1,2.5c0,0.6,0.1,1.2,0.4,1.7c0.3,0.5,0.8,0.9,1.4,1.4
		c0.7,0.4,2.2,1.2,4.6,2.4c3.2,1.5,5.4,3.1,6.6,4.6C427.1,1235.6,427.7,1237.5,427.7,1239.7z"/>
	<path class="st10" d="M433.9,1249.3v-34.4h7.3v34.4H433.9z"/>
	<path class="st10" d="M464.4,1249.3l-8.3-27H456c0.3,5.5,0.4,9.2,0.4,11v16h-6.5v-34.4h9.9l8.1,26.3h0.1l8.6-26.3h9.9v34.4h-6.8
		V1233c0-0.8,0-1.7,0-2.7c0-1,0.1-3.7,0.3-8H480l-8.9,26.9H464.4z"/>
	<path class="st10" d="M519.1,1225.6c0,3.7-1.2,6.5-3.5,8.5c-2.3,2-5.6,2.9-9.9,2.9h-3.1v12.2h-7.3v-34.4h11c4.2,0,7.3,0.9,9.5,2.7
		S519.1,1222.1,519.1,1225.6z M502.6,1231.1h2.4c2.2,0,3.9-0.4,5-1.3c1.1-0.9,1.7-2.2,1.7-3.9c0-1.7-0.5-3-1.4-3.8
		c-0.9-0.8-2.4-1.2-4.4-1.2h-3.3V1231.1z"/>
	<path class="st10" d="M525.6,1249.3v-34.4h7.3v28.4h14v6H525.6z"/>
	<path class="st10" d="M572.6,1249.3h-19.8v-34.4h19.8v6h-12.5v7.6h11.6v6h-11.6v8.9h12.5V1249.3z"/>
</g>
<rect x="770.2" y="1215" class="st3" width="457.6" height="50.9"/>
<g class="st4">
	<path class="st10" d="M895.1,1227.9c0,3.7-1.2,6.5-3.5,8.5c-2.3,2-5.6,2.9-9.9,2.9h-3.1v12.2h-7.3v-34.4h11c4.2,0,7.3,0.9,9.5,2.7
		S895.1,1224.4,895.1,1227.9z M878.7,1233.4h2.4c2.2,0,3.9-0.4,5-1.3c1.1-0.9,1.7-2.2,1.7-3.9c0-1.7-0.5-3-1.4-3.8
		c-0.9-0.8-2.4-1.2-4.4-1.2h-3.3V1233.4z"/>
	<path class="st10" d="M932.8,1234.3c0,5.7-1.4,10.1-4.2,13.1c-2.8,3.1-6.9,4.6-12.1,4.6s-9.3-1.5-12.1-4.6
		c-2.8-3.1-4.2-7.4-4.2-13.2c0-5.7,1.4-10.1,4.2-13.1c2.8-3,6.9-4.5,12.2-4.5c5.3,0,9.3,1.5,12.1,4.6
		C931.4,1224.3,932.8,1228.6,932.8,1234.3z M907.7,1234.3c0,3.8,0.7,6.7,2.2,8.7c1.5,1.9,3.6,2.9,6.5,2.9c5.8,0,8.7-3.9,8.7-11.6
		c0-7.7-2.9-11.6-8.7-11.6c-2.9,0-5.1,1-6.6,2.9C908.5,1227.6,907.7,1230.5,907.7,1234.3z"/>
	<path class="st10" d="M973.5,1251.6h-8.3l-4.7-18.1c-0.2-0.6-0.5-2-0.9-4c-0.4-2-0.7-3.4-0.7-4.1c-0.1,0.8-0.3,2.2-0.7,4.1
		c-0.4,1.9-0.7,3.2-0.9,4l-4.6,18h-8.3l-8.8-34.4h7.2l4.4,18.8c0.8,3.5,1.3,6.5,1.7,9c0.1-0.9,0.3-2.3,0.6-4.2s0.7-3.3,1-4.4l5-19.3
		h6.9l5,19.3c0.2,0.9,0.5,2.2,0.8,4c0.3,1.8,0.6,3.3,0.8,4.6c0.2-1.2,0.4-2.7,0.8-4.6c0.3-1.8,0.7-3.3,0.9-4.4l4.4-18.8h7.2
		L973.5,1251.6z"/>
	<path class="st10" d="M1006.4,1251.6h-19.8v-34.4h19.8v6h-12.5v7.6h11.6v6h-11.6v8.9h12.5V1251.6z"/>
	<path class="st10" d="M1020.8,1238.4v13.2h-7.3v-34.4h10c4.7,0,8.1,0.9,10.4,2.6c2.2,1.7,3.4,4.3,3.4,7.8c0,2-0.6,3.8-1.7,5.4
		c-1.1,1.6-2.7,2.8-4.7,3.7c5.2,7.7,8.5,12.7,10.1,15h-8.1l-8.2-13.2H1020.8z M1020.8,1232.5h2.4c2.3,0,4-0.4,5.1-1.2s1.6-2,1.6-3.6
		c0-1.6-0.6-2.8-1.7-3.5c-1.1-0.7-2.9-1-5.2-1h-2.2V1232.5z"/>
	<path class="st10" d="M1052.5,1251.6h-7.2v-34.4h19.7v6h-12.5v8.9h11.7v6h-11.7V1251.6z"/>
	<path class="st10" d="M1099.8,1217.2v22.3c0,2.5-0.6,4.8-1.7,6.7c-1.1,1.9-2.8,3.4-4.9,4.4s-4.7,1.5-7.6,1.5
		c-4.4,0-7.9-1.1-10.3-3.4s-3.7-5.4-3.7-9.3v-22.2h7.3v21.1c0,2.7,0.5,4.6,1.6,5.8c1.1,1.2,2.8,1.9,5.3,1.9c2.4,0,4.1-0.6,5.2-1.9
		c1.1-1.2,1.6-3.2,1.6-5.9v-21H1099.8z"/>
	<path class="st10" d="M1108.2,1251.6v-34.4h7.3v28.4h14v6H1108.2z"/>
</g>
<rect x="1258.5" y="1215.3" class="st3" width="478.6" height="50.6"/>
<g class="st4">
	<path class="st10" d="M1388.4,1251.9l-2.5-8.2h-12.5l-2.5,8.2h-7.9l12.1-34.5h8.9l12.2,34.5H1388.4z M1384.2,1237.6
		c-2.3-7.4-3.6-11.6-3.9-12.6s-0.5-1.7-0.6-2.3c-0.5,2-2,7-4.4,14.9H1384.2z"/>
	<path class="st10" d="M1413.6,1232.6h13.6v17.8c-2.2,0.7-4.3,1.2-6.2,1.5c-2,0.3-3.9,0.4-6,0.4c-5.2,0-9.2-1.5-11.9-4.6
		c-2.7-3-4.1-7.4-4.1-13.1c0-5.6,1.6-9.9,4.8-13c3.2-3.1,7.6-4.7,13.2-4.7c3.5,0,6.9,0.7,10.2,2.1l-2.4,5.8
		c-2.5-1.3-5.1-1.9-7.8-1.9c-3.2,0-5.7,1.1-7.6,3.2c-1.9,2.1-2.8,5-2.8,8.5c0,3.7,0.8,6.6,2.3,8.6c1.5,2,3.8,3,6.7,3
		c1.5,0,3.1-0.2,4.6-0.5v-7.2h-6.5V1232.6z"/>
	<path class="st10" d="M1455.3,1251.9h-19.8v-34.4h19.8v6h-12.5v7.6h11.6v6h-11.6v8.9h12.5V1251.9z"/>
	<path class="st10" d="M1493,1251.9h-9.3l-15-26h-0.2c0.3,4.6,0.4,7.9,0.4,9.8v16.2h-6.5v-34.4h9.2l14.9,25.8h0.2
		c-0.2-4.5-0.4-7.6-0.4-9.5v-16.3h6.6V1251.9z"/>
	<path class="st10" d="M1514.9,1251.9h-7.3v-28.3h-9.3v-6.1h26v6.1h-9.3V1251.9z"/>
	<path class="st10" d="M1529.5,1251.9v-34.4h7.3v28.4h14v6H1529.5z"/>
	<path class="st10" d="M1576.6,1251.9h-19.8v-34.4h19.8v6H1564v7.6h11.6v6H1564v8.9h12.5V1251.9z"/>
	<path class="st10" d="M1604,1242.3c0,3.1-1.1,5.6-3.4,7.3c-2.2,1.8-5.3,2.7-9.3,2.7c-3.7,0-6.9-0.7-9.7-2.1v-6.8
		c2.3,1,4.3,1.8,5.9,2.2c1.6,0.4,3.1,0.6,4.4,0.6c1.6,0,2.8-0.3,3.7-0.9c0.9-0.6,1.3-1.5,1.3-2.7c0-0.7-0.2-1.3-0.6-1.8
		c-0.4-0.5-0.9-1-1.7-1.5s-2.2-1.3-4.5-2.3c-2.1-1-3.7-1.9-4.7-2.8s-1.9-2-2.5-3.2c-0.6-1.2-0.9-2.6-0.9-4.2c0-3,1-5.4,3.1-7.2
		c2.1-1.7,4.9-2.6,8.6-2.6c1.8,0,3.5,0.2,5.1,0.6c1.6,0.4,3.3,1,5.1,1.8l-2.4,5.7c-1.8-0.8-3.4-1.3-4.6-1.6
		c-1.2-0.3-2.4-0.4-3.5-0.4c-1.4,0-2.4,0.3-3.2,1c-0.7,0.6-1.1,1.5-1.1,2.5c0,0.6,0.1,1.2,0.4,1.7c0.3,0.5,0.8,0.9,1.4,1.4
		c0.7,0.4,2.2,1.2,4.6,2.4c3.2,1.5,5.4,3.1,6.6,4.6C1603.4,1238.2,1604,1240.1,1604,1242.3z"/>
	<path class="st10" d="M1630.6,1242.3c0,3.1-1.1,5.6-3.4,7.3c-2.2,1.8-5.3,2.7-9.3,2.7c-3.7,0-6.9-0.7-9.7-2.1v-6.8
		c2.3,1,4.3,1.8,5.9,2.2c1.6,0.4,3.1,0.6,4.4,0.6c1.6,0,2.8-0.3,3.7-0.9c0.9-0.6,1.3-1.5,1.3-2.7c0-0.7-0.2-1.3-0.6-1.8
		c-0.4-0.5-0.9-1-1.7-1.5c-0.7-0.5-2.2-1.3-4.5-2.3c-2.1-1-3.7-1.9-4.7-2.8c-1.1-0.9-1.9-2-2.5-3.2s-0.9-2.6-0.9-4.2
		c0-3,1-5.4,3.1-7.2c2.1-1.7,4.9-2.6,8.6-2.6c1.8,0,3.5,0.2,5.1,0.6c1.6,0.4,3.3,1,5.1,1.8l-2.4,5.7c-1.8-0.8-3.4-1.3-4.6-1.6
		c-1.2-0.3-2.4-0.4-3.5-0.4c-1.4,0-2.4,0.3-3.2,1c-0.7,0.6-1.1,1.5-1.1,2.5c0,0.6,0.1,1.2,0.4,1.7c0.3,0.5,0.8,0.9,1.4,1.4
		c0.7,0.4,2.2,1.2,4.6,2.4c3.2,1.5,5.4,3.1,6.6,4.6C1630,1238.2,1630.6,1240.1,1630.6,1242.3z"/>
</g>
<path class="st7" d="M843.8,162.6c0,63.5-51.7,115.1-115.1,115.1S613.5,226,613.5,162.6S665.1,47.4,728.6,47.4
	S843.8,99.1,843.8,162.6L843.8,162.6z"/>
<path class="st10" d="M730.6,117.9l29.8,73.6l-44.9-35.4L730.6,117.9L730.6,117.9z M783.4,208.3L737.6,98c-1.4-3.1-3.9-4.8-7-4.8
	s-5.9,1.7-7.3,4.8L673,219h17.1l19.9-50l59.5,48c2.5,2,4.2,2.8,6.5,2.8c4.5,0,8.4-3.4,8.4-8.1C784.2,210.9,783.9,209.8,783.4,208.3
	L783.4,208.3z"/>
<path class="st10" d="M730.6,117.9l29.8,73.6l-44.9-35.4L730.6,117.9L730.6,117.9z M783.4,208.3L737.6,98c-1.4-3.1-3.9-4.8-7-4.8
	s-5.9,1.7-7.3,4.8L673,219h17.1l19.9-50l59.5,48c2.5,2,4.2,2.8,6.5,2.8c4.5,0,8.4-3.4,8.4-8.1C784.2,210.9,783.9,209.8,783.4,208.3
	L783.4,208.3z"/>
<path d="M932.8,108.9l-9.3-19.4H917v19.4h-15.7V51.6h25.6c13.5,0,22.2,5.1,22.2,18.5c0,8.7-3.9,13.8-10.4,16.9l11.8,21.9H932.8
	L932.8,108.9L932.8,108.9z M926.6,64.6h-9.5v12.6h9.3c5.1,0,7.3-2.2,7.3-6.5C933.6,67.1,931.7,64.6,926.6,64.6L926.6,64.6
	L926.6,64.6z"/>
<polygon points="962.6,108.9 962.6,51.6 1006.4,51.6 1006.4,65.1 978.3,65.1 978.3,72.7 995.1,72.7 995.1,85.9 978.3,85.9 
	978.3,95.7 1006.9,95.7 1006.9,108.9 "/>
<path d="M1038.1,108.9h-18.5V51.6h19.9c18,0,29.5,6.7,29.5,28.4S1058.3,108.9,1038.1,108.9L1038.1,108.9L1038.1,108.9z M1039.5,65.4
	h-3.9v30.1h3.4c9.8,0,13.8-3.7,13.8-15.2C1052.7,69.6,1049.3,65.4,1039.5,65.4L1039.5,65.4L1039.5,65.4z"/>
<polygon points="1144.5,108.9 1144.5,86.5 1126.6,86.5 1126.6,108.9 1110.6,108.9 1110.6,51.6 1126.6,51.6 1126.6,72.7 1144.5,72.7 
	1144.5,51.6 1160.6,51.6 1160.6,108.9 "/>
<path d="M1211.7,108.9l-3.1-10.1h-17.1l-3.1,10.1h-17.1l20.8-57.3h16l20.8,57.3H1211.7L1211.7,108.9L1211.7,108.9z M1203.5,82.5
	c-2-7.3-2.8-10.4-3.7-14.3c-0.8,3.9-1.7,7-3.7,14.3l-1.1,3.7h9.5L1203.5,82.5L1203.5,82.5L1203.5,82.5z"/>
<polygon points="1261.1,65.7 1261.1,108.9 1245.4,108.9 1245.4,65.7 1229.4,65.7 1229.4,51.6 1277.1,51.6 1277.1,65.7 "/>
<path d="M1291.7,66c-4.2,0-7.3-3.1-7.3-7.3s3.1-7.3,7.3-7.3s7.3,3.1,7.3,7.3S1295.9,66,1291.7,66L1291.7,66L1291.7,66z M1291.7,52.5
	c-3.7,0-6.2,2.8-6.2,6.2c0,3.7,2.8,6.2,6.2,6.2c3.7,0,6.2-2.8,6.2-6.2S1295.1,52.5,1291.7,52.5L1291.7,52.5L1291.7,52.5z
	 M1293.4,59.2l1.7,3.4h-1.7l-1.7-3.1h-1.4v3.1h-1.4v-8.1h3.7c1.4,0,2.5,0.8,2.5,2.5C1295.1,58.4,1294.2,58.9,1293.4,59.2
	L1293.4,59.2L1293.4,59.2z M1292.3,55.8h-2V58h2.2c0.8,0,1.4-0.3,1.4-1.1C1293.7,56.1,1293.1,55.8,1292.3,55.8L1292.3,55.8
	L1292.3,55.8z"/>
<path d="M956.9,211.2l-7.3-21.9H914l-7.6,21.9h-9.8l29.8-85.9H937l29.8,85.9H956.9L956.9,211.2L956.9,211.2z M937,152.5
	c-2-5.6-4.5-13.5-5.3-16.9c-0.8,3.4-3.4,11.2-5.3,17.1l-9.5,28.1h29.5L937,152.5L937,152.5L937,152.5z"/>
<path d="M1037.5,211.2l-37.6-58.7c-2-2.8-5.1-8.7-6.2-10.7v5.9v63.8h-9.3v-86.2h9.3l37.1,59.8c2,2.8,5.1,8.7,6.2,10.7v-5.9v-64.6
	h9.3v85.9L1037.5,211.2L1037.5,211.2L1037.5,211.2z"/>
<path d="M1093.4,212.6c-11.5,0-22.2-5.1-28.9-11.8l6.5-7c6.5,6.2,14,10.4,22.7,10.4c11.5,0,18.5-5.6,18.5-14.6
	c0-7.9-4.8-12.6-20.5-18.3c-18.5-6.7-24.7-12.6-24.7-25c0-13.8,10.7-21.9,27-21.9c11.5,0,18.8,3.4,26.1,9.3l-6.2,7.6
	c-6.2-5.1-12.1-7.9-20.5-7.9c-11.8,0-16.6,5.9-16.6,12.6c0,7,3.1,11.2,20.2,17.4c19.1,6.7,25,13.2,25,26.1
	C1121.8,202.2,1111.1,212.6,1093.4,212.6L1093.4,212.6L1093.4,212.6z"/>
<polygon points="1142.3,211.2 1142.3,125.2 1151.9,125.2 1151.9,211.2 "/>
<path d="M1205.8,211.2h-30.9v-85.9h31.5c13.5,0,23.3,6.7,23.3,21.3c0,9.5-5.1,14.9-12.4,17.4c7.9,2,16.6,7.6,16.6,21.3
	C1233.9,202.7,1223.7,211.2,1205.8,211.2L1205.8,211.2L1205.8,211.2z M1206.1,133.9h-21.3v26.7h20.8c10.7,0,14.9-6.2,14.9-13.5
	C1220.1,139.3,1215.6,133.9,1206.1,133.9L1206.1,133.9L1206.1,133.9z M1206.1,169.3h-21.3v33.1h21.9c12.9,0,17.7-6.5,17.7-16.3
	C1224.3,175.5,1217,169.3,1206.1,169.3L1206.1,169.3L1206.1,169.3z"/>
<polygon points="1251.8,211.2 1251.8,125.2 1261.4,125.2 1261.4,202.4 1303.8,202.4 1303.8,211.2 "/>
<polygon points="1322.3,211.2 1322.3,125.2 1374.3,125.2 1374.3,133.9 1331.9,133.9 1331.9,160.9 1356.3,160.9 1356.3,169.6 
	1331.9,169.6 1331.9,202.4 1376,202.4 1376,211.2 "/>
<path d="M1391.7,139.8c-4.2,0-7.3-3.1-7.3-7.3s3.1-7.3,7.3-7.3s7.3,3.1,7.3,7.3S1395.6,139.8,1391.7,139.8L1391.7,139.8
	L1391.7,139.8z M1391.7,126.3c-3.7,0-6.2,2.8-6.2,6.2c0,3.7,2.8,6.2,6.2,6.2c3.7,0,6.2-2.8,6.2-6.2
	C1397.9,128.9,1395.1,126.3,1391.7,126.3L1391.7,126.3L1391.7,126.3z M1393.1,133.1l1.7,3.4h-1.7l-1.7-3.1h-1.7v3.1h-1.4v-8.1h3.7
	c1.4,0,2.5,0.8,2.5,2.5C1395.1,132,1394.2,132.8,1393.1,133.1L1393.1,133.1L1393.1,133.1z M1392.3,129.7h-2.2v2.2h2.2
	c0.8,0,1.4-0.3,1.4-1.1C1393.7,130,1393.1,129.7,1392.3,129.7L1392.3,129.7L1392.3,129.7z"/>
<path d="M930,272.4l-3.7-10.1h-17.1l-3.7,10.1h-6.7l15.4-43h6.7l15.7,43H930L930,272.4L930,272.4z M921,246.5
	c-1.1-3.1-2.8-8.1-3.4-9.8c-0.6,2-2,6.7-3.1,9.8l-3.4,9.8h13.2L921,246.5L921,246.5L921,246.5z"/>
<path d="M962.6,272.4v-3.1c-1.7,2.2-4.8,3.7-8.1,3.7c-7.6,0-11.5-4.8-11.5-14.3v-18.5h6.2v18.3c0,6.5,2.5,8.7,6.7,8.7
	s6.7-3.1,6.7-8.1v-18.8h6.2v32.3h-6.2V272.4L962.6,272.4z"/>
<path d="M993.7,271.5c-1.4,0.8-3.7,1.4-6.2,1.4c-4.5,0-7.3-2.8-7.3-8.4V246h-4.5v-5.9h4.5v-9.3l6.2-3.4V240h7.9v5.9h-7.9v17.4
	c0,3.1,1.1,3.9,3.4,3.9c1.7,0,3.4-0.6,4.8-1.4L993.7,271.5L993.7,271.5L993.7,271.5z"/>
<path d="M1014.5,273.2c-8.1,0-14-6.7-14-16.9c0-10.7,6.2-16.9,14.3-16.9s14.3,6.5,14.3,16.6C1028.8,266.8,1022.7,273.2,1014.5,273.2
	L1014.5,273.2L1014.5,273.2z M1014.5,245.7c-4.8,0-7.9,4.2-7.9,10.7c0,7,3.4,11,8.1,11c4.8,0,7.9-4.8,7.9-10.7
	C1022.7,249.9,1019.6,245.7,1014.5,245.7L1014.5,245.7L1014.5,245.7z"/>
<path d="M1074.1,272.4v-18.3c0-6.5-2-8.7-6.2-8.7s-6.2,3.1-6.2,8.1v18.8h-6.5V254c0-6.5-2-8.7-6.2-8.7s-6.2,3.1-6.2,8.1v18.8h-6.5
	v-32.3h6.5v3.1c1.7-2.2,4.5-3.7,7.6-3.7c4.5,0,7,1.7,8.7,4.8c2.2-2.8,4.8-4.8,9.8-4.8c7.6,0,11,4.8,11,14.3v18.5h-5.8V272.4
	L1074.1,272.4z"/>
<path d="M1108,272.4v-3.1c-2.2,2.2-5.3,3.9-8.7,3.9c-5.3,0-11.2-2.8-11.2-11c0-7.3,5.6-10.4,12.9-10.4c3.1,0,5.3,0.6,7.3,1.1v-2.5
	c0-3.4-2.2-5.3-6.2-5.3c-3.4,0-5.9,0.6-8.4,2l-2.5-4.8c3.1-2,6.5-2.8,11-2.8c7.3,0,12.1,3.4,12.1,10.7v22.2H1108L1108,272.4
	L1108,272.4z M1108,258.6c-1.7-0.8-3.9-1.4-7.3-1.4c-3.9,0-6.7,2-6.7,4.8c0,3.1,2,5.3,6.2,5.3c3.4,0,6.5-2,7.9-4.2L1108,258.6
	L1108,258.6L1108,258.6z"/>
<path d="M1138.7,271.5c-1.4,0.8-3.7,1.4-6.2,1.4c-4.5,0-7.3-2.8-7.3-8.4V246h-4.5v-5.9h4.5v-9.3l6.2-3.4V240h7.9v5.9h-7.9v17.4
	c0,3.1,0.8,3.9,3.4,3.9c1.7,0,3.4-0.6,4.8-1.4L1138.7,271.5L1138.7,271.5L1138.7,271.5z"/>
<path d="M1151.6,236.2c-2.2,0-4.2-2-4.2-3.9c0-2.2,2-4.2,4.2-4.2s3.9,2,3.9,4.2C1155.5,234.2,1153.8,236.2,1151.6,236.2
	L1151.6,236.2L1151.6,236.2z M1148.2,272.4v-32.3h6.5v32.3H1148.2L1148.2,272.4L1148.2,272.4z"/>
<path d="M1176.8,273.2c-8.1,0-14-6.7-14-16.9c0-10.7,6.2-16.9,14.3-16.9c8.1,0,14.3,6.5,14.3,16.6
	C1191.5,266.8,1185.3,273.2,1176.8,273.2L1176.8,273.2L1176.8,273.2z M1176.8,245.7c-4.8,0-7.9,4.2-7.9,10.7c0,7,3.4,11,8.1,11
	s7.9-4.8,7.9-10.7C1185,249.9,1181.9,245.7,1176.8,245.7L1176.8,245.7L1176.8,245.7z"/>
<path d="M1218.7,272.4v-18.3c0-6.5-2.5-8.7-6.7-8.7s-6.7,3.1-6.7,8.1v18.8h-6.2V240h6.2v3.1c1.7-2.2,4.8-3.7,8.1-3.7
	c7.6,0,11.5,4.8,11.5,14.3v18.5h-6.2V272.4L1218.7,272.4z"/>
<path d="M932.8,108.9l-9.3-19.4H917v19.4h-15.7V51.6h25.6c13.5,0,22.2,5.1,22.2,18.5c0,8.7-3.9,13.8-10.4,16.9l11.8,21.9H932.8
	L932.8,108.9L932.8,108.9z M926.6,64.6h-9.5v12.6h9.3c5.1,0,7.3-2.2,7.3-6.5C933.6,67.1,931.7,64.6,926.6,64.6L926.6,64.6
	L926.6,64.6z"/>
<polygon points="962.6,108.9 962.6,51.6 1006.4,51.6 1006.4,65.1 978.3,65.1 978.3,72.7 995.1,72.7 995.1,85.9 978.3,85.9 
	978.3,95.7 1006.9,95.7 1006.9,108.9 "/>
<path d="M1038.1,108.9h-18.5V51.6h19.9c18,0,29.5,6.7,29.5,28.4S1058.3,108.9,1038.1,108.9L1038.1,108.9L1038.1,108.9z M1039.5,65.4
	h-3.9v30.1h3.4c9.8,0,13.8-3.7,13.8-15.2C1052.7,69.6,1049.3,65.4,1039.5,65.4L1039.5,65.4L1039.5,65.4z"/>
<polygon points="1144.5,108.9 1144.5,86.5 1126.6,86.5 1126.6,108.9 1110.6,108.9 1110.6,51.6 1126.6,51.6 1126.6,72.7 1144.5,72.7 
	1144.5,51.6 1160.6,51.6 1160.6,108.9 "/>
<path d="M1211.7,108.9l-3.1-10.1h-17.1l-3.1,10.1h-17.1l20.8-57.3h16l20.8,57.3H1211.7L1211.7,108.9L1211.7,108.9z M1203.5,82.5
	c-2-7.3-2.8-10.4-3.7-14.3c-0.8,3.9-1.7,7-3.7,14.3l-1.1,3.7h9.5L1203.5,82.5L1203.5,82.5L1203.5,82.5z"/>
<polygon points="1261.1,65.7 1261.1,108.9 1245.4,108.9 1245.4,65.7 1229.4,65.7 1229.4,51.6 1277.1,51.6 1277.1,65.7 "/>
<path d="M1291.7,66c-4.2,0-7.3-3.1-7.3-7.3s3.1-7.3,7.3-7.3s7.3,3.1,7.3,7.3S1295.9,66,1291.7,66L1291.7,66L1291.7,66z M1291.7,52.5
	c-3.7,0-6.2,2.8-6.2,6.2c0,3.7,2.8,6.2,6.2,6.2c3.7,0,6.2-2.8,6.2-6.2S1295.1,52.5,1291.7,52.5L1291.7,52.5L1291.7,52.5z
	 M1293.4,59.2l1.7,3.4h-1.7l-1.7-3.1h-1.4v3.1h-1.4v-8.1h3.7c1.4,0,2.5,0.8,2.5,2.5C1295.1,58.4,1294.2,58.9,1293.4,59.2
	L1293.4,59.2L1293.4,59.2z M1292.3,55.8h-2V58h2.2c0.8,0,1.4-0.3,1.4-1.1C1293.7,56.1,1293.1,55.8,1292.3,55.8L1292.3,55.8
	L1292.3,55.8z"/>
<path d="M956.9,211.2l-7.3-21.9H914l-7.6,21.9h-9.8l29.8-85.9H937l29.8,85.9H956.9L956.9,211.2L956.9,211.2z M937,152.5
	c-2-5.6-4.5-13.5-5.3-16.9c-0.8,3.4-3.4,11.2-5.3,17.1l-9.5,28.1h29.5L937,152.5L937,152.5L937,152.5z"/>
<path d="M1037.5,211.2l-37.6-58.7c-2-2.8-5.1-8.7-6.2-10.7v5.9v63.8h-9.3v-86.2h9.3l37.1,59.8c2,2.8,5.1,8.7,6.2,10.7v-5.9v-64.6
	h9.3v85.9L1037.5,211.2L1037.5,211.2L1037.5,211.2z"/>
<path d="M1093.4,212.6c-11.5,0-22.2-5.1-28.9-11.8l6.5-7c6.5,6.2,14,10.4,22.7,10.4c11.5,0,18.5-5.6,18.5-14.6
	c0-7.9-4.8-12.6-20.5-18.3c-18.5-6.7-24.7-12.6-24.7-25c0-13.8,10.7-21.9,27-21.9c11.5,0,18.8,3.4,26.1,9.3l-6.2,7.6
	c-6.2-5.1-12.1-7.9-20.5-7.9c-11.8,0-16.6,5.9-16.6,12.6c0,7,3.1,11.2,20.2,17.4c19.1,6.7,25,13.2,25,26.1
	C1121.8,202.2,1111.1,212.6,1093.4,212.6L1093.4,212.6L1093.4,212.6z"/>
<polygon points="1142.3,211.2 1142.3,125.2 1151.9,125.2 1151.9,211.2 "/>
<path d="M1205.8,211.2h-30.9v-85.9h31.5c13.5,0,23.3,6.7,23.3,21.3c0,9.5-5.1,14.9-12.4,17.4c7.9,2,16.6,7.6,16.6,21.3
	C1233.9,202.7,1223.7,211.2,1205.8,211.2L1205.8,211.2L1205.8,211.2z M1206.1,133.9h-21.3v26.7h20.8c10.7,0,14.9-6.2,14.9-13.5
	C1220.1,139.3,1215.6,133.9,1206.1,133.9L1206.1,133.9L1206.1,133.9z M1206.1,169.3h-21.3v33.1h21.9c12.9,0,17.7-6.5,17.7-16.3
	C1224.3,175.5,1217,169.3,1206.1,169.3L1206.1,169.3L1206.1,169.3z"/>
<polygon points="1251.8,211.2 1251.8,125.2 1261.4,125.2 1261.4,202.4 1303.8,202.4 1303.8,211.2 "/>
<polygon points="1322.3,211.2 1322.3,125.2 1374.3,125.2 1374.3,133.9 1331.9,133.9 1331.9,160.9 1356.3,160.9 1356.3,169.6 
	1331.9,169.6 1331.9,202.4 1376,202.4 1376,211.2 "/>
<path d="M1391.7,139.8c-4.2,0-7.3-3.1-7.3-7.3s3.1-7.3,7.3-7.3s7.3,3.1,7.3,7.3S1395.6,139.8,1391.7,139.8L1391.7,139.8
	L1391.7,139.8z M1391.7,126.3c-3.7,0-6.2,2.8-6.2,6.2c0,3.7,2.8,6.2,6.2,6.2c3.7,0,6.2-2.8,6.2-6.2
	C1397.9,128.9,1395.1,126.3,1391.7,126.3L1391.7,126.3L1391.7,126.3z M1393.1,133.1l1.7,3.4h-1.7l-1.7-3.1h-1.7v3.1h-1.4v-8.1h3.7
	c1.4,0,2.5,0.8,2.5,2.5C1395.1,132,1394.2,132.8,1393.1,133.1L1393.1,133.1L1393.1,133.1z M1392.3,129.7h-2.2v2.2h2.2
	c0.8,0,1.4-0.3,1.4-1.1C1393.7,130,1393.1,129.7,1392.3,129.7L1392.3,129.7L1392.3,129.7z"/>
<path d="M930,272.4l-3.7-10.1h-17.1l-3.7,10.1h-6.7l15.4-43h6.7l15.7,43H930L930,272.4L930,272.4z M921,246.5
	c-1.1-3.1-2.8-8.1-3.4-9.8c-0.6,2-2,6.7-3.1,9.8l-3.4,9.8h13.2L921,246.5L921,246.5L921,246.5z"/>
<path d="M962.6,272.4v-3.1c-1.7,2.2-4.8,3.7-8.1,3.7c-7.6,0-11.5-4.8-11.5-14.3v-18.5h6.2v18.3c0,6.5,2.5,8.7,6.7,8.7
	s6.7-3.1,6.7-8.1v-18.8h6.2v32.3h-6.2V272.4L962.6,272.4z"/>
<path d="M993.7,271.5c-1.4,0.8-3.7,1.4-6.2,1.4c-4.5,0-7.3-2.8-7.3-8.4V246h-4.5v-5.9h4.5v-9.3l6.2-3.4V240h7.9v5.9h-7.9v17.4
	c0,3.1,1.1,3.9,3.4,3.9c1.7,0,3.4-0.6,4.8-1.4L993.7,271.5L993.7,271.5L993.7,271.5z"/>
<path d="M1014.5,273.2c-8.1,0-14-6.7-14-16.9c0-10.7,6.2-16.9,14.3-16.9s14.3,6.5,14.3,16.6C1028.8,266.8,1022.7,273.2,1014.5,273.2
	L1014.5,273.2L1014.5,273.2z M1014.5,245.7c-4.8,0-7.9,4.2-7.9,10.7c0,7,3.4,11,8.1,11c4.8,0,7.9-4.8,7.9-10.7
	C1022.7,249.9,1019.6,245.7,1014.5,245.7L1014.5,245.7L1014.5,245.7z"/>
<path d="M1074.1,272.4v-18.3c0-6.5-2-8.7-6.2-8.7s-6.2,3.1-6.2,8.1v18.8h-6.5V254c0-6.5-2-8.7-6.2-8.7s-6.2,3.1-6.2,8.1v18.8h-6.5
	v-32.3h6.5v3.1c1.7-2.2,4.5-3.7,7.6-3.7c4.5,0,7,1.7,8.7,4.8c2.2-2.8,4.8-4.8,9.8-4.8c7.6,0,11,4.8,11,14.3v18.5h-5.8V272.4
	L1074.1,272.4z"/>
<path d="M1108,272.4v-3.1c-2.2,2.2-5.3,3.9-8.7,3.9c-5.3,0-11.2-2.8-11.2-11c0-7.3,5.6-10.4,12.9-10.4c3.1,0,5.3,0.6,7.3,1.1v-2.5
	c0-3.4-2.2-5.3-6.2-5.3c-3.4,0-5.9,0.6-8.4,2l-2.5-4.8c3.1-2,6.5-2.8,11-2.8c7.3,0,12.1,3.4,12.1,10.7v22.2H1108L1108,272.4
	L1108,272.4z M1108,258.6c-1.7-0.8-3.9-1.4-7.3-1.4c-3.9,0-6.7,2-6.7,4.8c0,3.1,2,5.3,6.2,5.3c3.4,0,6.5-2,7.9-4.2L1108,258.6
	L1108,258.6L1108,258.6z"/>
<path d="M1138.7,271.5c-1.4,0.8-3.7,1.4-6.2,1.4c-4.5,0-7.3-2.8-7.3-8.4V246h-4.5v-5.9h4.5v-9.3l6.2-3.4V240h7.9v5.9h-7.9v17.4
	c0,3.1,0.8,3.9,3.4,3.9c1.7,0,3.4-0.6,4.8-1.4L1138.7,271.5L1138.7,271.5L1138.7,271.5z"/>
<path d="M1151.6,236.2c-2.2,0-4.2-2-4.2-3.9c0-2.2,2-4.2,4.2-4.2s3.9,2,3.9,4.2C1155.5,234.2,1153.8,236.2,1151.6,236.2
	L1151.6,236.2L1151.6,236.2z M1148.2,272.4v-32.3h6.5v32.3H1148.2L1148.2,272.4L1148.2,272.4z"/>
<path d="M1176.8,273.2c-8.1,0-14-6.7-14-16.9c0-10.7,6.2-16.9,14.3-16.9c8.1,0,14.3,6.5,14.3,16.6
	C1191.5,266.8,1185.3,273.2,1176.8,273.2L1176.8,273.2L1176.8,273.2z M1176.8,245.7c-4.8,0-7.9,4.2-7.9,10.7c0,7,3.4,11,8.1,11
	s7.9-4.8,7.9-10.7C1185,249.9,1181.9,245.7,1176.8,245.7L1176.8,245.7L1176.8,245.7z"/>
<path d="M1218.7,272.4v-18.3c0-6.5-2.5-8.7-6.7-8.7s-6.7,3.1-6.7,8.1v18.8h-6.2V240h6.2v3.1c1.7-2.2,4.8-3.7,8.1-3.7
	c7.6,0,11.5,4.8,11.5,14.3v18.5h-6.2V272.4L1218.7,272.4z"/>
<rect x="203.2" y="949.5" class="st3" width="1587" height="45.6"/>
<g class="st4">
	<path class="st10" d="M701.6,972.9V986h-7.3v-34.3h10c4.7,0,8.1,0.8,10.4,2.5c2.2,1.7,3.4,4.3,3.4,7.7c0,2-0.6,3.8-1.7,5.4
		c-1.1,1.6-2.7,2.8-4.7,3.7c5.2,7.7,8.5,12.7,10.1,15h-8.1l-8.2-13.2H701.6z M701.6,967h2.3c2.3,0,4-0.4,5.1-1.2
		c1.1-0.8,1.6-2,1.6-3.6c0-1.6-0.6-2.8-1.7-3.5c-1.1-0.7-2.9-1-5.2-1h-2.2V967z"/>
	<path class="st10" d="M745.8,986h-19.8v-34.3h19.8v6h-12.5v7.5H745v6h-11.6v8.9h12.5V986z"/>
	<path class="st10" d="M781.5,968.6c0,5.7-1.6,10-4.8,13c-3.2,3-7.9,4.5-13.9,4.5H753v-34.3h10.8c5.6,0,10,1.5,13.1,4.4
		C779.9,959.1,781.5,963.2,781.5,968.6z M773.9,968.7c0-7.4-3.3-11.1-9.8-11.1h-3.9V980h3.1C770.4,980,773.9,976.3,773.9,968.7z"/>
	<path class="st10" d="M829.2,986H822v-14.8h-13.6V986h-7.3v-34.3h7.3v13.5H822v-13.5h7.3V986z"/>
	<path class="st10" d="M858.9,986l-2.5-8.2h-12.5l-2.5,8.2h-7.8l12.1-34.5h8.9l12.2,34.5H858.9z M854.7,971.8
		c-2.3-7.4-3.6-11.6-3.9-12.6s-0.5-1.7-0.6-2.3c-0.5,2-2,7-4.4,14.9H854.7z"/>
	<path class="st10" d="M884.3,986H877v-28.3h-9.3v-6.1h25.9v6.1h-9.3V986z"/>
	<path class="st10" d="M932.4,986l-2.5-8.2h-12.5l-2.5,8.2h-7.8l12.1-34.5h8.9l12.2,34.5H932.4z M928.2,971.8
		c-2.3-7.4-3.6-11.6-3.9-12.6s-0.5-1.7-0.6-2.3c-0.5,2-2,7-4.4,14.9H928.2z"/>
	<path class="st10" d="M975.1,986h-9.3l-14.9-26h-0.2c0.3,4.6,0.4,7.9,0.4,9.8V986h-6.5v-34.3h9.2l14.9,25.7h0.2
		c-0.2-4.5-0.4-7.6-0.4-9.5v-16.2h6.6V986z"/>
	<path class="st10" d="M1004,976.5c0,3.1-1.1,5.5-3.3,7.3c-2.2,1.8-5.3,2.7-9.3,2.7c-3.7,0-6.9-0.7-9.7-2.1v-6.8
		c2.3,1,4.3,1.8,5.9,2.2c1.6,0.4,3.1,0.6,4.4,0.6c1.6,0,2.8-0.3,3.7-0.9c0.9-0.6,1.3-1.5,1.3-2.7c0-0.7-0.2-1.3-0.6-1.8
		c-0.4-0.5-0.9-1-1.7-1.5c-0.7-0.5-2.2-1.3-4.4-2.3c-2.1-1-3.7-1.9-4.7-2.8c-1-0.9-1.9-2-2.5-3.2c-0.6-1.2-0.9-2.6-0.9-4.2
		c0-3,1-5.4,3.1-7.2c2.1-1.7,4.9-2.6,8.5-2.6c1.8,0,3.5,0.2,5.1,0.6s3.3,1,5.1,1.8l-2.3,5.7c-1.8-0.8-3.3-1.3-4.5-1.6
		c-1.2-0.3-2.4-0.4-3.5-0.4c-1.4,0-2.4,0.3-3.2,1s-1.1,1.5-1.1,2.5c0,0.6,0.1,1.2,0.4,1.7c0.3,0.5,0.8,0.9,1.4,1.4
		c0.6,0.4,2.2,1.2,4.6,2.4c3.2,1.5,5.4,3.1,6.6,4.6C1003.4,972.4,1004,974.3,1004,976.5z"/>
	<path class="st10" d="M1010.2,986v-34.3h7.3V986H1010.2z"/>
	<path class="st10" d="M1026.1,951.7h10.7c4.9,0,8.4,0.7,10.6,2.1c2.2,1.4,3.3,3.6,3.3,6.6c0,2.1-0.5,3.7-1.4,5
		c-1,1.3-2.2,2.1-3.8,2.4v0.2c2.2,0.5,3.7,1.4,4.7,2.7c1,1.3,1.4,3.1,1.4,5.3c0,3.1-1.1,5.6-3.4,7.3s-5.3,2.6-9.2,2.6h-12.8V951.7z
		 M1033.4,965.3h4.2c2,0,3.4-0.3,4.3-0.9c0.9-0.6,1.3-1.6,1.3-3c0-1.3-0.5-2.3-1.4-2.8c-1-0.6-2.5-0.9-4.6-0.9h-3.8V965.3z
		 M1033.4,971.1v8.9h4.7c2,0,3.5-0.4,4.4-1.2c1-0.8,1.4-1.9,1.4-3.5c0-2.8-2-4.3-6.1-4.3H1033.4z"/>
	<path class="st10" d="M1058.4,986v-34.3h7.3V980h13.9v6H1058.4z"/>
	<path class="st10" d="M1105.4,986h-19.8v-34.3h19.8v6h-12.5v7.5h11.6v6h-11.6v8.9h12.5V986z"/>
	<path class="st10" d="M1144.8,986H1125v-34.3h19.8v6h-12.5v7.5h11.6v6h-11.6v8.9h12.5V986z"/>
	<path class="st10" d="M1182.4,986h-9.3l-14.9-26h-0.2c0.3,4.6,0.4,7.9,0.4,9.8V986h-6.5v-34.3h9.2l14.9,25.7h0.2
		c-0.2-4.5-0.4-7.6-0.4-9.5v-16.2h6.6V986z"/>
	<path class="st10" d="M1204.1,966.8h13.6v17.8c-2.2,0.7-4.3,1.2-6.2,1.5c-1.9,0.3-3.9,0.4-6,0.4c-5.2,0-9.1-1.5-11.9-4.6
		c-2.7-3-4.1-7.4-4.1-13.1c0-5.5,1.6-9.9,4.8-13s7.6-4.6,13.2-4.6c3.5,0,6.9,0.7,10.2,2.1l-2.4,5.8c-2.5-1.3-5.1-1.9-7.8-1.9
		c-3.1,0-5.7,1.1-7.6,3.2c-1.9,2.1-2.8,5-2.8,8.5c0,3.7,0.8,6.6,2.3,8.5c1.5,2,3.7,2.9,6.7,2.9c1.5,0,3.1-0.2,4.6-0.5v-7.2h-6.5
		V966.8z"/>
	<path class="st10" d="M1225.9,986v-34.3h7.3V986H1225.9z"/>
	<path class="st10" d="M1272.2,986h-9.3l-14.9-26h-0.2c0.3,4.6,0.4,7.9,0.4,9.8V986h-6.5v-34.3h9.2l14.9,25.7h0.2
		c-0.2-4.5-0.4-7.6-0.4-9.5v-16.2h6.6V986z"/>
	<path class="st10" d="M1300.7,986h-19.8v-34.3h19.8v6h-12.5v7.5h11.6v6h-11.6v8.9h12.5V986z"/>
</g>
<rect x="205.8" y="418" class="st3" width="1584.5" height="48.1"/>
<g class="st4">
	<path class="st10" d="M708.6,441.3v13.2h-7.3v-34.3h10c4.7,0,8.1,0.8,10.4,2.5c2.2,1.7,3.4,4.3,3.4,7.7c0,2-0.6,3.8-1.7,5.4
		c-1.1,1.6-2.7,2.8-4.7,3.7c5.2,7.7,8.5,12.7,10.1,15h-8.1l-8.2-13.2H708.6z M708.6,435.4h2.3c2.3,0,4-0.4,5.1-1.2
		c1.1-0.8,1.6-2,1.6-3.6c0-1.6-0.6-2.8-1.7-3.5c-1.1-0.7-2.9-1-5.2-1h-2.2V435.4z"/>
	<path class="st10" d="M752.9,454.5h-19.8v-34.3h19.8v6h-12.5v7.5H752v6h-11.6v8.9h12.5V454.5z"/>
	<path class="st10" d="M788.5,437c0,5.7-1.6,10-4.8,13c-3.2,3-7.9,4.5-13.9,4.5H760v-34.3h10.8c5.6,0,10,1.5,13.1,4.4
		C787,427.6,788.5,431.7,788.5,437z M780.9,437.2c0-7.4-3.3-11.1-9.8-11.1h-3.9v22.4h3.1C777.4,448.5,780.9,444.7,780.9,437.2z"/>
	<path class="st10" d="M836.2,454.5H829v-14.8h-13.6v14.8h-7.3v-34.3h7.3v13.5H829v-13.5h7.3V454.5z"/>
	<path class="st10" d="M865.9,454.5l-2.5-8.2h-12.5l-2.5,8.2h-7.8l12.1-34.5h8.9l12.2,34.5H865.9z M861.7,440.2
		c-2.3-7.4-3.6-11.6-3.9-12.6s-0.5-1.7-0.6-2.3c-0.5,2-2,7-4.4,14.9H861.7z"/>
	<path class="st10" d="M891.3,454.5h-7.3v-28.3h-9.3v-6.1h25.9v6.1h-9.3V454.5z"/>
	<path class="st10" d="M939.4,454.5l-2.5-8.2h-12.5l-2.5,8.2h-7.8l12.1-34.5h8.9l12.2,34.5H939.4z M935.2,440.2
		c-2.3-7.4-3.6-11.6-3.9-12.6s-0.5-1.7-0.6-2.3c-0.5,2-2,7-4.4,14.9H935.2z"/>
	<path class="st10" d="M982.1,454.5h-9.3l-14.9-26h-0.2c0.3,4.6,0.4,7.9,0.4,9.8v16.2h-6.5v-34.3h9.2l14.9,25.7h0.2
		c-0.2-4.5-0.4-7.6-0.4-9.5v-16.2h6.6V454.5z"/>
	<path class="st10" d="M1011,445c0,3.1-1.1,5.5-3.3,7.3c-2.2,1.8-5.3,2.7-9.3,2.7c-3.7,0-6.9-0.7-9.7-2.1v-6.8
		c2.3,1,4.3,1.8,5.9,2.2c1.6,0.4,3.1,0.6,4.4,0.6c1.6,0,2.8-0.3,3.7-0.9c0.9-0.6,1.3-1.5,1.3-2.7c0-0.7-0.2-1.3-0.6-1.8
		s-0.9-1-1.7-1.5s-2.2-1.3-4.4-2.3c-2.1-1-3.7-1.9-4.7-2.8c-1-0.9-1.9-2-2.5-3.2c-0.6-1.2-0.9-2.6-0.9-4.2c0-3,1-5.4,3.1-7.2
		c2.1-1.7,4.9-2.6,8.5-2.6c1.8,0,3.5,0.2,5.1,0.6s3.3,1,5.1,1.8l-2.3,5.7c-1.8-0.8-3.3-1.3-4.5-1.6c-1.2-0.3-2.4-0.4-3.5-0.4
		c-1.4,0-2.4,0.3-3.2,1s-1.1,1.5-1.1,2.5c0,0.6,0.1,1.2,0.4,1.7c0.3,0.5,0.8,0.9,1.4,1.4c0.6,0.4,2.2,1.2,4.6,2.4
		c3.2,1.5,5.4,3.1,6.6,4.6C1010.4,440.8,1011,442.7,1011,445z"/>
	<path class="st10" d="M1017.2,454.5v-34.3h7.3v34.3H1017.2z"/>
	<path class="st10" d="M1033.1,420.2h10.7c4.9,0,8.4,0.7,10.6,2.1c2.2,1.4,3.3,3.6,3.3,6.6c0,2.1-0.5,3.7-1.4,5
		c-1,1.3-2.2,2.1-3.8,2.4v0.2c2.2,0.5,3.7,1.4,4.7,2.7c1,1.3,1.4,3.1,1.4,5.3c0,3.1-1.1,5.6-3.4,7.3s-5.3,2.6-9.2,2.6h-12.8V420.2z
		 M1040.4,433.8h4.2c2,0,3.4-0.3,4.3-0.9c0.9-0.6,1.3-1.6,1.3-3c0-1.3-0.5-2.3-1.4-2.8c-1-0.6-2.5-0.9-4.6-0.9h-3.8V433.8z
		 M1040.4,439.6v8.9h4.7c2,0,3.5-0.4,4.4-1.2c1-0.8,1.4-1.9,1.4-3.5c0-2.8-2-4.3-6.1-4.3H1040.4z"/>
	<path class="st10" d="M1065.4,454.5v-34.3h7.3v28.3h13.9v6H1065.4z"/>
	<path class="st10" d="M1112.4,454.5h-19.8v-34.3h19.8v6h-12.5v7.5h11.6v6h-11.6v8.9h12.5V454.5z"/>
	<path class="st10" d="M1145.3,454.5h-7.3v-28.3h-9.3v-6.1h25.9v6.1h-9.3V454.5z"/>
	<path class="st10" d="M1191,437.3c0,5.7-1.4,10.1-4.2,13.1c-2.8,3.1-6.9,4.6-12.1,4.6s-9.3-1.5-12.1-4.6c-2.8-3.1-4.2-7.4-4.2-13.2
		c0-5.7,1.4-10.1,4.2-13.1c2.8-3,6.9-4.5,12.2-4.5s9.3,1.5,12.1,4.6C1189.6,427.2,1191,431.6,1191,437.3z M1166,437.3
		c0,3.8,0.7,6.7,2.2,8.7c1.5,1.9,3.6,2.9,6.5,2.9c5.8,0,8.7-3.9,8.7-11.6c0-7.7-2.9-11.6-8.7-11.6c-2.9,0-5.1,1-6.6,2.9
		C1166.7,430.6,1166,433.5,1166,437.3z"/>
	<path class="st10" d="M1231.6,454.5h-8.3l-4.6-18c-0.2-0.6-0.5-2-0.9-4c-0.4-2-0.7-3.4-0.7-4.1c-0.1,0.8-0.3,2.2-0.7,4.1
		c-0.4,1.9-0.7,3.2-0.9,4l-4.6,18h-8.3l-8.8-34.3h7.2l4.4,18.7c0.8,3.5,1.3,6.5,1.7,9c0.1-0.9,0.3-2.3,0.6-4.1
		c0.3-1.9,0.7-3.3,1-4.4l5-19.2h6.9l5,19.2c0.2,0.9,0.5,2.2,0.8,3.9c0.3,1.8,0.6,3.3,0.8,4.6c0.2-1.2,0.4-2.7,0.8-4.6
		c0.3-1.8,0.7-3.3,0.9-4.4l4.4-18.7h7.2L1231.6,454.5z"/>
	<path class="st10" d="M1264.4,454.5h-19.8v-34.3h19.8v6h-12.5v7.5h11.6v6h-11.6v8.9h12.5V454.5z"/>
	<path class="st10" d="M1278.9,441.3v13.2h-7.3v-34.3h10c4.7,0,8.1,0.8,10.4,2.5c2.2,1.7,3.4,4.3,3.4,7.7c0,2-0.6,3.8-1.7,5.4
		s-2.7,2.8-4.7,3.7c5.2,7.7,8.5,12.7,10.1,15h-8.1l-8.2-13.2H1278.9z M1278.9,435.4h2.3c2.3,0,4-0.4,5.1-1.2c1.1-0.8,1.6-2,1.6-3.6
		c0-1.6-0.6-2.8-1.7-3.5c-1.1-0.7-2.9-1-5.2-1h-2.2V435.4z"/>
</g>
<rect x="8.3" y="488.8" class="st3" width="1965.4" height="134.2"/>
<g class="st4">
	<path class="st10" d="M598.6,514.8c0,2.9-1,5.1-3.1,6.7c-2.1,1.6-4.9,2.4-8.5,2.4c-3.9,0-6.8-0.5-8.9-1.5v-3.6
		c1.3,0.6,2.8,1,4.4,1.3c1.6,0.3,3.1,0.5,4.7,0.5c2.5,0,4.4-0.5,5.7-1.4s1.9-2.3,1.9-4c0-1.1-0.2-2-0.7-2.8c-0.5-0.7-1.2-1.4-2.3-2
		c-1.1-0.6-2.7-1.3-4.8-2.1c-3-1.1-5.2-2.4-6.5-3.8c-1.3-1.5-1.9-3.4-1.9-5.8c0-2.5,0.9-4.5,2.8-6c1.9-1.5,4.4-2.2,7.5-2.2
		c3.2,0,6.2,0.6,8.9,1.8l-1.2,3.3c-2.7-1.1-5.3-1.7-7.8-1.7c-2,0-3.6,0.4-4.7,1.3c-1.1,0.9-1.7,2.1-1.7,3.6c0,1.1,0.2,2.1,0.6,2.8
		c0.4,0.7,1.1,1.4,2.1,2c1,0.6,2.5,1.3,4.5,2c3.4,1.2,5.8,2.5,7,3.9C598,510.8,598.6,512.6,598.6,514.8z"/>
	<path class="st10" d="M614.4,523.9c-3.5,0-6.3-1.1-8.2-3.3c-1.9-2.2-2.9-5.2-2.9-9.2c0-4.1,1-7.2,2.9-9.5c2-2.2,4.8-3.3,8.4-3.3
		c1.2,0,2.3,0.1,3.5,0.4c1.2,0.3,2.1,0.5,2.8,0.9l-1.1,3.1c-0.8-0.3-1.7-0.6-2.7-0.8c-1-0.2-1.8-0.3-2.6-0.3c-5,0-7.4,3.2-7.4,9.5
		c0,3,0.6,5.3,1.8,6.9c1.2,1.6,3,2.4,5.4,2.4c2,0,4.1-0.4,6.3-1.3v3.3C619,523.5,616.9,523.9,614.4,523.9z"/>
	<path class="st10" d="M641.4,523.5l-0.7-3.5h-0.2c-1.2,1.5-2.4,2.6-3.6,3.1c-1.2,0.5-2.7,0.8-4.5,0.8c-2.4,0-4.3-0.6-5.7-1.9
		c-1.4-1.2-2.1-3-2.1-5.3c0-4.9,3.9-7.5,11.8-7.7l4.1-0.1v-1.5c0-1.9-0.4-3.3-1.2-4.2s-2.1-1.4-3.9-1.4c-2,0-4.3,0.6-6.9,1.9
		l-1.1-2.8c1.2-0.7,2.5-1.2,3.9-1.5c1.4-0.4,2.9-0.6,4.3-0.6c2.9,0,5.1,0.6,6.5,1.9c1.4,1.3,2.1,3.4,2.1,6.2v16.6H641.4z M633,520.9
		c2.3,0,4.1-0.6,5.4-1.9c1.3-1.3,2-3,2-5.3v-2.2l-3.7,0.2c-2.9,0.1-5.1,0.6-6.4,1.4c-1.3,0.8-1.9,2.1-1.9,3.8c0,1.3,0.4,2.4,1.2,3
		C630.5,520.5,631.6,520.9,633,520.9z"/>
	<path class="st10" d="M655.4,523.5h-3.7v-34.6h3.7V523.5z"/>
	<path class="st10" d="M673.6,523.9c-3.6,0-6.4-1.1-8.5-3.3c-2.1-2.2-3.1-5.2-3.1-9.1c0-3.9,1-7.1,2.9-9.4s4.5-3.5,7.8-3.5
		c3.1,0,5.5,1,7.3,3s2.7,4.7,2.7,8v2.3h-16.8c0.1,2.9,0.8,5,2.2,6.5c1.4,1.5,3.3,2.2,5.8,2.2c2.6,0,5.2-0.5,7.8-1.6v3.3
		c-1.3,0.6-2.5,1-3.7,1.2C676.6,523.8,675.2,523.9,673.6,523.9z M672.6,501.7c-2,0-3.5,0.6-4.7,1.9c-1.2,1.3-1.9,3-2.1,5.3h12.7
		c0-2.3-0.5-4.1-1.6-5.4S674.5,501.7,672.6,501.7z"/>
	<path class="st10" d="M711.3,505.9h9.2v3.1h-9.2v9.5h-3.1v-9.5h-9.1v-3.1h9.1v-9.5h3.1V505.9z"/>
	<path class="st10" d="M759.6,511.2c0,4-1,7.1-3,9.3c-2,2.2-4.8,3.3-8.3,3.3c-2.2,0-4.1-0.5-5.8-1.5c-1.7-1-3-2.5-3.9-4.4
		s-1.4-4.2-1.4-6.7c0-4,1-7.1,3-9.3c2-2.2,4.7-3.3,8.3-3.3c3.4,0,6.1,1.1,8.1,3.4C758.6,504.3,759.6,507.4,759.6,511.2z M741,511.2
		c0,3.1,0.6,5.5,1.9,7.1c1.2,1.6,3.1,2.4,5.5,2.4s4.3-0.8,5.5-2.4c1.3-1.6,1.9-4,1.9-7.1c0-3.1-0.6-5.5-1.9-7.1
		c-1.3-1.6-3.1-2.4-5.6-2.4c-2.4,0-4.2,0.8-5.5,2.4S741,508.1,741,511.2z"/>
	<path class="st10" d="M777.4,523.9c-1.6,0-3-0.3-4.3-0.9s-2.4-1.5-3.3-2.7h-0.3c0.2,1.4,0.3,2.8,0.3,4v10h-3.7v-35.3h3l0.5,3.3h0.2
		c0.9-1.3,2.1-2.3,3.3-2.9c1.3-0.6,2.7-0.9,4.3-0.9c3.2,0,5.7,1.1,7.5,3.3c1.8,2.2,2.6,5.3,2.6,9.3c0,4-0.9,7.1-2.7,9.3
		C783.1,522.8,780.6,523.9,777.4,523.9z M776.9,501.8c-2.5,0-4.3,0.7-5.4,2.1c-1.1,1.4-1.7,3.6-1.7,6.6v0.8c0,3.4,0.6,5.9,1.7,7.4
		c1.1,1.5,3,2.2,5.5,2.2c2.1,0,3.8-0.9,4.9-2.6c1.2-1.7,1.8-4.1,1.8-7.1c0-3-0.6-5.4-1.8-7S779,501.8,776.9,501.8z"/>
	<path class="st10" d="M804.3,523.9c-3.6,0-6.4-1.1-8.5-3.3c-2.1-2.2-3.1-5.2-3.1-9.1c0-3.9,1-7.1,2.9-9.4s4.5-3.5,7.8-3.5
		c3.1,0,5.5,1,7.3,3s2.7,4.7,2.7,8v2.3h-16.8c0.1,2.9,0.8,5,2.2,6.5c1.4,1.5,3.3,2.2,5.8,2.2c2.6,0,5.2-0.5,7.8-1.6v3.3
		c-1.3,0.6-2.5,1-3.7,1.2C807.3,523.8,805.9,523.9,804.3,523.9z M803.3,501.7c-2,0-3.5,0.6-4.7,1.9c-1.2,1.3-1.9,3-2.1,5.3h12.7
		c0-2.3-0.5-4.1-1.6-5.4S805.2,501.7,803.3,501.7z"/>
	<path class="st10" d="M830.7,498.6c1.1,0,2.1,0.1,2.9,0.3l-0.5,3.4c-1-0.2-1.9-0.3-2.7-0.3c-2,0-3.7,0.8-5.1,2.4
		c-1.4,1.6-2.1,3.6-2.1,6v13.1h-3.7v-24.4h3l0.4,4.5h0.2c0.9-1.6,2-2.8,3.3-3.7C827.7,499.1,829.1,498.6,830.7,498.6z"/>
	<path class="st10" d="M853.1,523.5l-0.7-3.5h-0.2c-1.2,1.5-2.4,2.6-3.6,3.1c-1.2,0.5-2.7,0.8-4.5,0.8c-2.4,0-4.3-0.6-5.7-1.9
		c-1.4-1.2-2.1-3-2.1-5.3c0-4.9,3.9-7.5,11.8-7.7l4.1-0.1v-1.5c0-1.9-0.4-3.3-1.2-4.2s-2.1-1.4-3.9-1.4c-2,0-4.3,0.6-6.9,1.9
		l-1.1-2.8c1.2-0.7,2.5-1.2,3.9-1.5c1.4-0.4,2.9-0.6,4.3-0.6c2.9,0,5.1,0.6,6.5,1.9c1.4,1.3,2.1,3.4,2.1,6.2v16.6H853.1z
		 M844.8,520.9c2.3,0,4.1-0.6,5.4-1.9c1.3-1.3,2-3,2-5.3v-2.2l-3.7,0.2c-2.9,0.1-5.1,0.6-6.4,1.4c-1.3,0.8-1.9,2.1-1.9,3.8
		c0,1.3,0.4,2.4,1.2,3C842.2,520.5,843.3,520.9,844.8,520.9z"/>
	<path class="st10" d="M871.3,520.9c0.7,0,1.3,0,1.9-0.1c0.6-0.1,1.1-0.2,1.4-0.3v2.8c-0.4,0.2-1,0.4-1.8,0.5s-1.5,0.2-2.1,0.2
		c-4.7,0-7.1-2.5-7.1-7.5v-14.5h-3.5v-1.8l3.5-1.5l1.6-5.2h2.1v5.7h7.1v2.9h-7.1v14.3c0,1.5,0.3,2.6,1,3.4
		C869.2,520.5,870.1,520.9,871.3,520.9z"/>
	<path class="st10" d="M879.2,492.5c0-0.8,0.2-1.5,0.6-1.9c0.4-0.4,0.9-0.6,1.6-0.6c0.6,0,1.1,0.2,1.5,0.6s0.6,1,0.6,1.8
		c0,0.8-0.2,1.5-0.6,1.9c-0.4,0.4-0.9,0.6-1.5,0.6c-0.6,0-1.1-0.2-1.6-0.6C879.5,493.9,879.2,493.3,879.2,492.5z M883.2,523.5h-3.7
		v-24.4h3.7V523.5z"/>
	<path class="st10" d="M912.1,511.2c0,4-1,7.1-3,9.3c-2,2.2-4.8,3.3-8.3,3.3c-2.2,0-4.1-0.5-5.8-1.5c-1.7-1-3-2.5-3.9-4.4
		s-1.4-4.2-1.4-6.7c0-4,1-7.1,3-9.3c2-2.2,4.7-3.3,8.3-3.3c3.4,0,6.1,1.1,8.1,3.4C911.1,504.3,912.1,507.4,912.1,511.2z
		 M893.6,511.2c0,3.1,0.6,5.5,1.9,7.1c1.2,1.6,3.1,2.4,5.5,2.4s4.3-0.8,5.5-2.4c1.3-1.6,1.9-4,1.9-7.1c0-3.1-0.6-5.5-1.9-7.1
		c-1.3-1.6-3.1-2.4-5.6-2.4c-2.4,0-4.2,0.8-5.5,2.4S893.6,508.1,893.6,511.2z"/>
	<path class="st10" d="M935.3,523.5v-15.8c0-2-0.5-3.5-1.4-4.4c-0.9-1-2.3-1.5-4.2-1.5c-2.6,0-4.4,0.7-5.6,2.1
		c-1.2,1.4-1.8,3.7-1.8,6.8v12.8h-3.7v-24.4h3l0.6,3.3h0.2c0.8-1.2,1.8-2.1,3.2-2.8c1.4-0.7,2.9-1,4.6-1c2.9,0,5.1,0.7,6.6,2.1
		c1.5,1.4,2.2,3.7,2.2,6.8v15.9H935.3z"/>
	<path class="st10" d="M961.6,523.5l-0.7-3.5h-0.2c-1.2,1.5-2.4,2.6-3.6,3.1c-1.2,0.5-2.7,0.8-4.5,0.8c-2.4,0-4.3-0.6-5.7-1.9
		c-1.4-1.2-2.1-3-2.1-5.3c0-4.9,3.9-7.5,11.8-7.7l4.1-0.1v-1.5c0-1.9-0.4-3.3-1.2-4.2s-2.1-1.4-3.9-1.4c-2,0-4.3,0.6-6.9,1.9
		l-1.1-2.8c1.2-0.7,2.5-1.2,3.9-1.5c1.4-0.4,2.9-0.6,4.3-0.6c2.9,0,5.1,0.6,6.5,1.9c1.4,1.3,2.1,3.4,2.1,6.2v16.6H961.6z
		 M953.2,520.9c2.3,0,4.1-0.6,5.4-1.9c1.3-1.3,2-3,2-5.3v-2.2l-3.7,0.2c-2.9,0.1-5.1,0.6-6.4,1.4c-1.3,0.8-1.9,2.1-1.9,3.8
		c0,1.3,0.4,2.4,1.2,3C950.6,520.5,951.8,520.9,953.2,520.9z"/>
	<path class="st10" d="M975.6,523.5h-3.7v-34.6h3.7V523.5z"/>
	<path class="st10" d="M983.1,492.5c0-0.8,0.2-1.5,0.6-1.9c0.4-0.4,0.9-0.6,1.6-0.6c0.6,0,1.1,0.2,1.5,0.6s0.6,1,0.6,1.8
		c0,0.8-0.2,1.5-0.6,1.9c-0.4,0.4-0.9,0.6-1.5,0.6c-0.6,0-1.1-0.2-1.6-0.6C983.3,493.9,983.1,493.3,983.1,492.5z M987.1,523.5h-3.7
		v-24.4h3.7V523.5z"/>
	<path class="st10" d="M1010.5,523.5h-17.7v-2.5l13.3-19h-12.5v-2.9h16.5v2.9l-13.1,18.6h13.5V523.5z"/>
	<path class="st10" d="M1026.6,523.9c-3.6,0-6.4-1.1-8.5-3.3c-2.1-2.2-3.1-5.2-3.1-9.1c0-3.9,1-7.1,2.9-9.4s4.5-3.5,7.8-3.5
		c3.1,0,5.5,1,7.3,3c1.8,2,2.7,4.7,2.7,8v2.3h-16.8c0.1,2.9,0.8,5,2.2,6.5c1.4,1.5,3.3,2.2,5.8,2.2c2.6,0,5.2-0.5,7.8-1.6v3.3
		c-1.3,0.6-2.5,1-3.7,1.2C1029.6,523.8,1028.2,523.9,1026.6,523.9z M1025.6,501.7c-2,0-3.5,0.6-4.7,1.9c-1.2,1.3-1.8,3-2.1,5.3h12.7
		c0-2.3-0.5-4.1-1.6-5.4S1027.5,501.7,1025.6,501.7z"/>
	<path class="st10" d="M1049.8,499.1h4l5.3,13.9c1.2,3.2,1.9,5.5,2.2,6.9h0.2c0.2-0.8,0.6-2.1,1.2-3.9c0.6-1.8,2.6-7.5,6-16.9h4
		l-10.5,27.8c-1,2.7-2.3,4.7-3.6,5.8s-3.1,1.7-5.1,1.7c-1.1,0-2.2-0.1-3.3-0.4v-3c0.8,0.2,1.7,0.3,2.7,0.3c2.5,0,4.3-1.4,5.4-4.3
		l1.4-3.5L1049.8,499.1z"/>
	<path class="st10" d="M1097.7,511.2c0,4-1,7.1-3,9.3c-2,2.2-4.8,3.3-8.3,3.3c-2.2,0-4.1-0.5-5.8-1.5s-3-2.5-3.9-4.4
		c-0.9-1.9-1.4-4.2-1.4-6.7c0-4,1-7.1,3-9.3s4.7-3.3,8.3-3.3c3.4,0,6.1,1.1,8.1,3.4C1096.7,504.3,1097.7,507.4,1097.7,511.2z
		 M1079.1,511.2c0,3.1,0.6,5.5,1.9,7.1c1.2,1.6,3.1,2.4,5.5,2.4c2.4,0,4.3-0.8,5.5-2.4c1.3-1.6,1.9-4,1.9-7.1c0-3.1-0.6-5.5-1.9-7.1
		c-1.3-1.6-3.1-2.4-5.6-2.4c-2.4,0-4.2,0.8-5.5,2.4C1079.7,505.7,1079.1,508.1,1079.1,511.2z"/>
	<path class="st10" d="M1107.6,499.1v15.8c0,2,0.5,3.5,1.4,4.4c0.9,1,2.3,1.5,4.2,1.5c2.6,0,4.4-0.7,5.6-2.1
		c1.2-1.4,1.8-3.7,1.8-6.8v-12.8h3.7v24.4h-3l-0.5-3.3h-0.2c-0.8,1.2-1.8,2.1-3.1,2.8c-1.3,0.6-2.9,1-4.6,1c-3,0-5.2-0.7-6.7-2.1
		c-1.5-1.4-2.2-3.7-2.2-6.8v-16H1107.6z"/>
	<path class="st10" d="M1143.2,498.6c1.1,0,2.1,0.1,2.9,0.3l-0.5,3.4c-1-0.2-1.9-0.3-2.7-0.3c-2,0-3.7,0.8-5.1,2.4
		c-1.4,1.6-2.1,3.6-2.1,6v13.1h-3.7v-24.4h3l0.4,4.5h0.2c0.9-1.6,2-2.8,3.3-3.7C1140.3,499.1,1141.7,498.6,1143.2,498.6z"/>
	<path class="st10" d="M1177.5,523.5l-0.7-3.5h-0.2c-1.2,1.5-2.4,2.6-3.6,3.1s-2.7,0.8-4.5,0.8c-2.4,0-4.3-0.6-5.7-1.9
		s-2.1-3-2.1-5.3c0-4.9,3.9-7.5,11.8-7.7l4.1-0.1v-1.5c0-1.9-0.4-3.3-1.2-4.2s-2.1-1.4-3.9-1.4c-2,0-4.3,0.6-6.9,1.9l-1.1-2.8
		c1.2-0.7,2.5-1.2,3.9-1.5c1.4-0.4,2.9-0.6,4.3-0.6c2.9,0,5.1,0.6,6.5,1.9c1.4,1.3,2.1,3.4,2.1,6.2v16.6H1177.5z M1169.2,520.9
		c2.3,0,4.1-0.6,5.4-1.9c1.3-1.3,2-3,2-5.3v-2.2l-3.7,0.2c-2.9,0.1-5.1,0.6-6.4,1.4s-1.9,2.1-1.9,3.8c0,1.3,0.4,2.4,1.2,3
		S1167.7,520.9,1169.2,520.9z"/>
	<path class="st10" d="M1191.3,499.1v15.8c0,2,0.5,3.5,1.4,4.4c0.9,1,2.3,1.5,4.2,1.5c2.6,0,4.4-0.7,5.6-2.1
		c1.2-1.4,1.8-3.7,1.8-6.8v-12.8h3.7v24.4h-3l-0.5-3.3h-0.2c-0.8,1.2-1.8,2.1-3.1,2.8c-1.3,0.6-2.9,1-4.6,1c-3,0-5.2-0.7-6.7-2.1
		c-1.5-1.4-2.2-3.7-2.2-6.8v-16H1191.3z"/>
	<path class="st10" d="M1223.7,520.9c0.7,0,1.3,0,1.9-0.1c0.6-0.1,1.1-0.2,1.4-0.3v2.8c-0.4,0.2-1,0.4-1.8,0.5
		c-0.8,0.1-1.5,0.2-2.1,0.2c-4.7,0-7.1-2.5-7.1-7.5v-14.5h-3.5v-1.8l3.5-1.5l1.6-5.2h2.1v5.7h7.1v2.9h-7.1v14.3c0,1.5,0.3,2.6,1,3.4
		C1221.5,520.5,1222.5,520.9,1223.7,520.9z"/>
	<path class="st10" d="M1253,511.2c0,4-1,7.1-3,9.3c-2,2.2-4.8,3.3-8.3,3.3c-2.2,0-4.1-0.5-5.8-1.5c-1.7-1-3-2.5-3.9-4.4
		s-1.4-4.2-1.4-6.7c0-4,1-7.1,3-9.3s4.7-3.3,8.3-3.3c3.4,0,6.1,1.1,8.1,3.4C1252,504.3,1253,507.4,1253,511.2z M1234.4,511.2
		c0,3.1,0.6,5.5,1.9,7.1c1.2,1.6,3.1,2.4,5.5,2.4s4.3-0.8,5.5-2.4s1.9-4,1.9-7.1c0-3.1-0.6-5.5-1.9-7.1s-3.1-2.4-5.5-2.4
		c-2.4,0-4.2,0.8-5.5,2.4C1235,505.7,1234.4,508.1,1234.4,511.2z"/>
	<path class="st10" d="M1290.5,523.5v-15.9c0-1.9-0.4-3.4-1.2-4.4c-0.8-1-2.1-1.5-3.9-1.5c-2.3,0-4,0.7-5.1,2s-1.6,3.4-1.6,6.1v13.6
		h-3.7v-15.9c0-1.9-0.4-3.4-1.2-4.4c-0.8-1-2.1-1.5-3.9-1.5c-2.3,0-4,0.7-5.1,2.1s-1.6,3.7-1.6,6.8v12.8h-3.7v-24.4h3l0.6,3.3h0.2
		c0.7-1.2,1.7-2.1,2.9-2.8c1.3-0.7,2.7-1,4.3-1c3.8,0,6.3,1.4,7.5,4.1h0.2c0.7-1.3,1.8-2.3,3.2-3c1.4-0.7,3-1.1,4.7-1.1
		c2.8,0,4.8,0.7,6.2,2.1c1.4,1.4,2.1,3.7,2.1,6.8v15.9H1290.5z"/>
	<path class="st10" d="M1316.8,523.5l-0.7-3.5h-0.2c-1.2,1.5-2.4,2.6-3.6,3.1c-1.2,0.5-2.7,0.8-4.5,0.8c-2.4,0-4.3-0.6-5.7-1.9
		c-1.4-1.2-2.1-3-2.1-5.3c0-4.9,3.9-7.5,11.8-7.7l4.1-0.1v-1.5c0-1.9-0.4-3.3-1.2-4.2c-0.8-0.9-2.1-1.4-3.9-1.4
		c-2,0-4.3,0.6-6.9,1.9l-1.1-2.8c1.2-0.7,2.5-1.2,3.9-1.5c1.4-0.4,2.9-0.6,4.3-0.6c2.9,0,5.1,0.6,6.5,1.9c1.4,1.3,2.1,3.4,2.1,6.2
		v16.6H1316.8z M1308.5,520.9c2.3,0,4.1-0.6,5.4-1.9c1.3-1.3,2-3,2-5.3v-2.2l-3.7,0.2c-2.9,0.1-5.1,0.6-6.4,1.4s-1.9,2.1-1.9,3.8
		c0,1.3,0.4,2.4,1.2,3C1305.9,520.5,1307,520.9,1308.5,520.9z"/>
	<path class="st10" d="M1335,520.9c0.7,0,1.3,0,1.9-0.1c0.6-0.1,1.1-0.2,1.4-0.3v2.8c-0.4,0.2-1,0.4-1.8,0.5
		c-0.8,0.1-1.5,0.2-2.1,0.2c-4.7,0-7.1-2.5-7.1-7.5v-14.5h-3.5v-1.8l3.5-1.5l1.6-5.2h2.1v5.7h7.1v2.9h-7.1v14.3c0,1.5,0.3,2.6,1,3.4
		C1332.9,520.5,1333.8,520.9,1335,520.9z"/>
	<path class="st10" d="M1342.9,492.5c0-0.8,0.2-1.5,0.6-1.9c0.4-0.4,0.9-0.6,1.6-0.6c0.6,0,1.1,0.2,1.5,0.6c0.4,0.4,0.6,1,0.6,1.8
		c0,0.8-0.2,1.5-0.6,1.9c-0.4,0.4-0.9,0.6-1.5,0.6c-0.6,0-1.1-0.2-1.6-0.6C1343.1,493.9,1342.9,493.3,1342.9,492.5z M1346.9,523.5
		h-3.7v-24.4h3.7V523.5z"/>
	<path class="st10" d="M1375.8,511.2c0,4-1,7.1-3,9.3c-2,2.2-4.8,3.3-8.3,3.3c-2.2,0-4.1-0.5-5.8-1.5c-1.7-1-3-2.5-3.9-4.4
		s-1.4-4.2-1.4-6.7c0-4,1-7.1,3-9.3s4.7-3.3,8.3-3.3c3.4,0,6.1,1.1,8.1,3.4C1374.8,504.3,1375.8,507.4,1375.8,511.2z M1357.2,511.2
		c0,3.1,0.6,5.5,1.9,7.1c1.2,1.6,3.1,2.4,5.5,2.4s4.3-0.8,5.5-2.4s1.9-4,1.9-7.1c0-3.1-0.6-5.5-1.9-7.1s-3.1-2.4-5.5-2.4
		c-2.4,0-4.2,0.8-5.5,2.4C1357.8,505.7,1357.2,508.1,1357.2,511.2z"/>
	<path class="st10" d="M1399,523.5v-15.8c0-2-0.5-3.5-1.4-4.4c-0.9-1-2.3-1.5-4.2-1.5c-2.6,0-4.4,0.7-5.6,2.1
		c-1.2,1.4-1.8,3.7-1.8,6.8v12.8h-3.7v-24.4h3l0.6,3.3h0.2c0.8-1.2,1.8-2.1,3.2-2.8c1.4-0.7,2.9-1,4.6-1c2.9,0,5.1,0.7,6.6,2.1
		c1.5,1.4,2.2,3.7,2.2,6.8v15.9H1399z"/>
</g>
<rect x="24.8" y="1015.3" class="st3" width="1965.4" height="43"/>
<g class="st4">
	<path class="st10" d="M640.5,1041.3c0,2.9-1,5.1-3.1,6.7c-2.1,1.6-4.9,2.4-8.5,2.4c-3.9,0-6.8-0.5-8.9-1.5v-3.6
		c1.3,0.6,2.8,1,4.4,1.3c1.6,0.3,3.1,0.5,4.7,0.5c2.5,0,4.4-0.5,5.7-1.4s1.9-2.3,1.9-4c0-1.1-0.2-2-0.7-2.8c-0.5-0.7-1.2-1.4-2.3-2
		c-1.1-0.6-2.7-1.3-4.8-2.1c-3-1.1-5.2-2.4-6.5-3.8c-1.3-1.5-1.9-3.4-1.9-5.8c0-2.5,0.9-4.5,2.8-6c1.9-1.5,4.4-2.2,7.5-2.2
		c3.2,0,6.2,0.6,8.9,1.8l-1.2,3.3c-2.7-1.1-5.3-1.7-7.8-1.7c-2,0-3.6,0.4-4.7,1.3c-1.1,0.9-1.7,2.1-1.7,3.6c0,1.1,0.2,2.1,0.6,2.8
		c0.4,0.7,1.1,1.4,2.1,2c1,0.6,2.5,1.3,4.5,2c3.4,1.2,5.8,2.5,7,3.9C639.8,1037.2,640.5,1039.1,640.5,1041.3z"/>
	<path class="st10" d="M650,1025.6v15.8c0,2,0.5,3.5,1.4,4.4c0.9,1,2.3,1.5,4.2,1.5c2.6,0,4.4-0.7,5.6-2.1c1.2-1.4,1.8-3.7,1.8-6.8
		v-12.8h3.7v24.4h-3l-0.5-3.3h-0.2c-0.8,1.2-1.8,2.1-3.1,2.8c-1.3,0.6-2.9,1-4.6,1c-3,0-5.2-0.7-6.7-2.1c-1.5-1.4-2.2-3.7-2.2-6.8
		v-16H650z"/>
	<path class="st10" d="M685.9,1050.4c-1.6,0-3-0.3-4.3-0.9s-2.4-1.5-3.3-2.7H678c0.2,1.4,0.3,2.8,0.3,4v10h-3.7v-35.3h3l0.5,3.3h0.2
		c0.9-1.3,2.1-2.3,3.3-2.9c1.3-0.6,2.7-0.9,4.3-0.9c3.2,0,5.7,1.1,7.5,3.3c1.8,2.2,2.6,5.3,2.6,9.3c0,4-0.9,7.1-2.7,9.3
		C691.5,1049.3,689.1,1050.4,685.9,1050.4z M685.3,1028.2c-2.5,0-4.3,0.7-5.4,2.1c-1.1,1.4-1.7,3.6-1.7,6.6v0.8
		c0,3.4,0.6,5.9,1.7,7.4c1.1,1.5,3,2.2,5.5,2.2c2.1,0,3.8-0.9,4.9-2.6c1.2-1.7,1.8-4.1,1.8-7.1c0-3-0.6-5.4-1.8-7
		S687.5,1028.2,685.3,1028.2z"/>
	<path class="st10" d="M713.8,1050.4c-1.6,0-3-0.3-4.3-0.9s-2.4-1.5-3.3-2.7h-0.3c0.2,1.4,0.3,2.8,0.3,4v10h-3.7v-35.3h3l0.5,3.3
		h0.2c0.9-1.3,2.1-2.3,3.3-2.9c1.3-0.6,2.7-0.9,4.3-0.9c3.2,0,5.7,1.1,7.5,3.3c1.8,2.2,2.6,5.3,2.6,9.3c0,4-0.9,7.1-2.7,9.3
		C719.5,1049.3,717,1050.4,713.8,1050.4z M713.3,1028.2c-2.5,0-4.3,0.7-5.4,2.1c-1.1,1.4-1.7,3.6-1.7,6.6v0.8c0,3.4,0.6,5.9,1.7,7.4
		c1.1,1.5,3,2.2,5.5,2.2c2.1,0,3.8-0.9,4.9-2.6c1.2-1.7,1.8-4.1,1.8-7.1c0-3-0.6-5.4-1.8-7S715.4,1028.2,713.3,1028.2z"/>
	<path class="st10" d="M751.4,1037.7c0,4-1,7.1-3,9.3c-2,2.2-4.8,3.3-8.3,3.3c-2.2,0-4.1-0.5-5.8-1.5c-1.7-1-3-2.5-3.9-4.4
		s-1.4-4.2-1.4-6.7c0-4,1-7.1,3-9.3c2-2.2,4.7-3.3,8.3-3.3c3.4,0,6.1,1.1,8.1,3.4C750.4,1030.8,751.4,1033.9,751.4,1037.7z
		 M732.8,1037.7c0,3.1,0.6,5.5,1.9,7.1c1.2,1.6,3.1,2.4,5.5,2.4s4.3-0.8,5.5-2.4c1.3-1.6,1.9-4,1.9-7.1c0-3.1-0.6-5.5-1.9-7.1
		c-1.3-1.6-3.1-2.4-5.6-2.4c-2.4,0-4.2,0.8-5.5,2.4S732.8,1034.6,732.8,1037.7z"/>
	<path class="st10" d="M769,1025.1c1.1,0,2.1,0.1,2.9,0.3l-0.5,3.4c-1-0.2-1.9-0.3-2.7-0.3c-2,0-3.7,0.8-5.1,2.4
		c-1.4,1.6-2.1,3.6-2.1,6v13.1h-3.7v-24.4h3l0.4,4.5h0.2c0.9-1.6,2-2.8,3.3-3.7C766.1,1025.5,767.5,1025.1,769,1025.1z"/>
	<path class="st10" d="M784.4,1047.3c0.7,0,1.3,0,1.9-0.1c0.6-0.1,1.1-0.2,1.4-0.3v2.8c-0.4,0.2-1,0.4-1.8,0.5s-1.5,0.2-2.1,0.2
		c-4.7,0-7.1-2.5-7.1-7.5v-14.5h-3.5v-1.8l3.5-1.5l1.6-5.2h2.1v5.7h7.1v2.9h-7.1v14.3c0,1.5,0.3,2.6,1,3.4
		C782.2,1046.9,783.1,1047.3,784.4,1047.3z"/>
	<path class="st10" d="M815.4,1028.4h-6.2v21.5h-3.7v-21.5h-4.4v-1.7l4.4-1.3v-1.4c0-6,2.6-9,7.9-9c1.3,0,2.8,0.3,4.5,0.8l-1,3
		c-1.4-0.5-2.6-0.7-3.6-0.7c-1.4,0-2.4,0.5-3.1,1.4c-0.7,0.9-1,2.4-1,4.5v1.6h6.2V1028.4z"/>
	<path class="st10" d="M840.9,1037.7c0,4-1,7.1-3,9.3c-2,2.2-4.8,3.3-8.3,3.3c-2.2,0-4.1-0.5-5.8-1.5c-1.7-1-3-2.5-3.9-4.4
		s-1.4-4.2-1.4-6.7c0-4,1-7.1,3-9.3c2-2.2,4.7-3.3,8.3-3.3c3.4,0,6.1,1.1,8.1,3.4C839.9,1030.8,840.9,1033.9,840.9,1037.7z
		 M822.3,1037.7c0,3.1,0.6,5.5,1.9,7.1c1.2,1.6,3.1,2.4,5.5,2.4s4.3-0.8,5.5-2.4c1.3-1.6,1.9-4,1.9-7.1c0-3.1-0.6-5.5-1.9-7.1
		c-1.3-1.6-3.1-2.4-5.6-2.4c-2.4,0-4.2,0.8-5.5,2.4S822.3,1034.6,822.3,1037.7z"/>
	<path class="st10" d="M858.5,1025.1c1.1,0,2.1,0.1,2.9,0.3l-0.5,3.4c-1-0.2-1.9-0.3-2.7-0.3c-2,0-3.7,0.8-5.1,2.4
		c-1.4,1.6-2.1,3.6-2.1,6v13.1h-3.7v-24.4h3l0.4,4.5h0.2c0.9-1.6,2-2.8,3.3-3.7C855.6,1025.5,857,1025.1,858.5,1025.1z"/>
	<path class="st10" d="M873.9,1025.6h4l5.3,13.9c1.2,3.2,1.9,5.5,2.2,6.9h0.2c0.2-0.8,0.6-2.1,1.2-3.9c0.6-1.8,2.6-7.5,6-16.9h4
		l-10.5,27.8c-1,2.7-2.3,4.7-3.6,5.8s-3.1,1.7-5.1,1.7c-1.1,0-2.2-0.1-3.3-0.4v-3c0.8,0.2,1.7,0.3,2.7,0.3c2.5,0,4.3-1.4,5.4-4.3
		l1.4-3.5L873.9,1025.6z"/>
	<path class="st10" d="M921.8,1037.7c0,4-1,7.1-3,9.3c-2,2.2-4.8,3.3-8.3,3.3c-2.2,0-4.1-0.5-5.8-1.5c-1.7-1-3-2.5-3.9-4.4
		s-1.4-4.2-1.4-6.7c0-4,1-7.1,3-9.3c2-2.2,4.7-3.3,8.3-3.3c3.4,0,6.1,1.1,8.1,3.4C920.8,1030.8,921.8,1033.9,921.8,1037.7z
		 M903.2,1037.7c0,3.1,0.6,5.5,1.9,7.1c1.2,1.6,3.1,2.4,5.5,2.4s4.3-0.8,5.5-2.4c1.3-1.6,1.9-4,1.9-7.1c0-3.1-0.6-5.5-1.9-7.1
		c-1.3-1.6-3.1-2.4-5.6-2.4c-2.4,0-4.2,0.8-5.5,2.4S903.2,1034.6,903.2,1037.7z"/>
	<path class="st10" d="M931.7,1025.6v15.8c0,2,0.5,3.5,1.4,4.4c0.9,1,2.3,1.5,4.2,1.5c2.6,0,4.4-0.7,5.6-2.1
		c1.2-1.4,1.8-3.7,1.8-6.8v-12.8h3.7v24.4h-3l-0.5-3.3h-0.2c-0.8,1.2-1.8,2.1-3.1,2.8c-1.3,0.6-2.9,1-4.6,1c-3,0-5.2-0.7-6.7-2.1
		c-1.5-1.4-2.2-3.7-2.2-6.8v-16H931.7z"/>
	<path class="st10" d="M967.4,1025.1c1.1,0,2.1,0.1,2.9,0.3l-0.5,3.4c-1-0.2-1.9-0.3-2.7-0.3c-2,0-3.7,0.8-5.1,2.4
		c-1.4,1.6-2.1,3.6-2.1,6v13.1h-3.7v-24.4h3l0.4,4.5h0.2c0.9-1.6,2-2.8,3.3-3.7C964.4,1025.5,965.8,1025.1,967.4,1025.1z"/>
	<path class="st10" d="M1007.7,1049.9l-4-10.3h-13l-4,10.3h-3.8l12.9-32.7h3.2l12.8,32.7H1007.7z M1002.4,1036.2l-3.8-10.1
		c-0.5-1.3-1-2.8-1.5-4.7c-0.3,1.4-0.8,3-1.4,4.7l-3.8,10.1H1002.4z"/>
	<path class="st10" d="M1032.2,1049.9v-15.8c0-2-0.5-3.5-1.4-4.4c-0.9-1-2.3-1.5-4.2-1.5c-2.6,0-4.4,0.7-5.6,2.1
		c-1.2,1.4-1.8,3.7-1.8,6.8v12.8h-3.7v-24.4h3l0.6,3.3h0.2c0.8-1.2,1.8-2.1,3.2-2.8c1.4-0.7,2.9-1,4.6-1c2.9,0,5.1,0.7,6.6,2.1
		s2.2,3.7,2.2,6.8v15.9H1032.2z"/>
	<path class="st10" d="M1059.2,1043.3c0,2.3-0.8,4-2.5,5.2c-1.7,1.2-4.1,1.8-7.1,1.8c-3.2,0-5.8-0.5-7.6-1.5v-3.4
		c1.2,0.6,2.4,1.1,3.8,1.4c1.3,0.3,2.6,0.5,3.9,0.5c1.9,0,3.4-0.3,4.4-0.9c1-0.6,1.6-1.6,1.6-2.8c0-0.9-0.4-1.8-1.2-2.4
		s-2.4-1.5-4.8-2.4c-2.3-0.8-3.9-1.6-4.8-2.2c-1-0.6-1.7-1.3-2.1-2.1c-0.5-0.8-0.7-1.8-0.7-2.9c0-2,0.8-3.6,2.4-4.7s3.8-1.7,6.7-1.7
		c2.6,0,5.2,0.5,7.7,1.6l-1.3,3c-2.4-1-4.7-1.5-6.7-1.5c-1.8,0-3.1,0.3-4,0.8s-1.3,1.3-1.3,2.3c0,0.7,0.2,1.2,0.5,1.7
		c0.3,0.5,0.9,0.9,1.6,1.3c0.7,0.4,2.2,1,4.3,1.8c2.9,1.1,4.8,2.1,5.9,3.2C1058.7,1040.3,1059.2,1041.7,1059.2,1043.3z"/>
	<path class="st10" d="M1064.9,1018.9c0-0.8,0.2-1.5,0.6-1.9c0.4-0.4,0.9-0.6,1.6-0.6c0.6,0,1.1,0.2,1.5,0.6c0.4,0.4,0.6,1,0.6,1.8
		c0,0.8-0.2,1.5-0.6,1.9c-0.4,0.4-0.9,0.6-1.5,0.6c-0.6,0-1.1-0.2-1.6-0.6C1065.1,1020.4,1064.9,1019.8,1064.9,1018.9z
		 M1068.9,1049.9h-3.7v-24.4h3.7V1049.9z"/>
	<path class="st10" d="M1088.1,1025.2c3.2,0,5.7,1.1,7.5,3.3s2.7,5.3,2.7,9.3c0,4-0.9,7.1-2.7,9.3c-1.8,2.2-4.3,3.3-7.4,3.3
		c-1.6,0-3-0.3-4.3-0.9s-2.4-1.5-3.3-2.7h-0.3l-0.8,3.1h-2.6v-34.6h3.7v8.4c0,1.9-0.1,3.6-0.2,5.1h0.2
		C1082.1,1026.4,1084.7,1025.2,1088.1,1025.2z M1087.5,1028.2c-2.5,0-4.3,0.7-5.5,2.2c-1.1,1.4-1.7,3.9-1.7,7.3s0.6,5.9,1.7,7.4
		s3,2.2,5.5,2.2c2.3,0,4-0.8,5.1-2.5c1.1-1.7,1.7-4,1.7-7.1c0-3.2-0.6-5.5-1.7-7.1C1091.6,1029,1089.9,1028.2,1087.5,1028.2z"/>
	<path class="st10" d="M1108.3,1049.9h-3.7v-34.6h3.7V1049.9z"/>
	<path class="st10" d="M1126.5,1050.4c-3.6,0-6.4-1.1-8.5-3.3c-2.1-2.2-3.1-5.2-3.1-9.1c0-3.9,1-7.1,2.9-9.4s4.5-3.5,7.8-3.5
		c3.1,0,5.5,1,7.3,3c1.8,2,2.7,4.7,2.7,8v2.3h-16.8c0.1,2.9,0.8,5,2.2,6.5c1.4,1.5,3.3,2.2,5.8,2.2c2.6,0,5.2-0.5,7.8-1.6v3.3
		c-1.3,0.6-2.5,1-3.7,1.2C1129.5,1050.3,1128.1,1050.4,1126.5,1050.4z M1125.5,1028.2c-2,0-3.5,0.6-4.7,1.9s-1.9,3-2.1,5.3h12.7
		c0-2.3-0.5-4.1-1.6-5.4S1127.4,1028.2,1125.5,1028.2z"/>
	<path class="st10" d="M1168.6,1049.9l-0.7-3.5h-0.2c-1.2,1.5-2.4,2.6-3.6,3.1c-1.2,0.5-2.7,0.8-4.5,0.8c-2.4,0-4.3-0.6-5.7-1.9
		c-1.4-1.2-2.1-3-2.1-5.3c0-4.9,3.9-7.5,11.8-7.7l4.1-0.1v-1.5c0-1.9-0.4-3.3-1.2-4.2s-2.1-1.4-3.9-1.4c-2,0-4.3,0.6-6.9,1.9
		l-1.1-2.8c1.2-0.7,2.5-1.2,3.9-1.5c1.4-0.4,2.9-0.6,4.3-0.6c2.9,0,5.1,0.6,6.5,1.9c1.4,1.3,2.1,3.4,2.1,6.2v16.6H1168.6z
		 M1160.2,1047.3c2.3,0,4.1-0.6,5.4-1.9c1.3-1.3,2-3,2-5.3v-2.2l-3.7,0.2c-2.9,0.1-5.1,0.6-6.4,1.4c-1.3,0.8-1.9,2.1-1.9,3.8
		c0,1.3,0.4,2.4,1.2,3C1157.6,1047,1158.8,1047.3,1160.2,1047.3z"/>
	<path class="st10" d="M1182.4,1025.6v15.8c0,2,0.5,3.5,1.4,4.4c0.9,1,2.3,1.5,4.2,1.5c2.6,0,4.4-0.7,5.6-2.1
		c1.2-1.4,1.8-3.7,1.8-6.8v-12.8h3.7v24.4h-3l-0.5-3.3h-0.2c-0.8,1.2-1.8,2.1-3.1,2.8c-1.3,0.6-2.9,1-4.6,1c-3,0-5.2-0.7-6.7-2.1
		c-1.5-1.4-2.2-3.7-2.2-6.8v-16H1182.4z"/>
	<path class="st10" d="M1214.7,1047.3c0.7,0,1.3,0,1.9-0.1c0.6-0.1,1.1-0.2,1.4-0.3v2.8c-0.4,0.2-1,0.4-1.8,0.5
		c-0.8,0.1-1.5,0.2-2.1,0.2c-4.7,0-7.1-2.5-7.1-7.5v-14.5h-3.5v-1.8l3.5-1.5l1.6-5.2h2.1v5.7h7.1v2.9h-7.1v14.3c0,1.5,0.3,2.6,1,3.4
		C1212.6,1046.9,1213.5,1047.3,1214.7,1047.3z"/>
	<path class="st10" d="M1244,1037.7c0,4-1,7.1-3,9.3c-2,2.2-4.8,3.3-8.3,3.3c-2.2,0-4.1-0.5-5.8-1.5s-3-2.5-3.9-4.4
		c-0.9-1.9-1.4-4.2-1.4-6.7c0-4,1-7.1,3-9.3s4.7-3.3,8.3-3.3c3.4,0,6.1,1.1,8.1,3.4C1243,1030.8,1244,1033.9,1244,1037.7z
		 M1225.4,1037.7c0,3.1,0.6,5.5,1.9,7.1c1.2,1.6,3.1,2.4,5.5,2.4c2.4,0,4.3-0.8,5.5-2.4c1.3-1.6,1.9-4,1.9-7.1
		c0-3.1-0.6-5.5-1.9-7.1c-1.3-1.6-3.1-2.4-5.6-2.4c-2.4,0-4.2,0.8-5.5,2.4C1226,1032.2,1225.4,1034.6,1225.4,1037.7z"/>
	<path class="st10" d="M1281.5,1049.9v-15.9c0-1.9-0.4-3.4-1.2-4.4c-0.8-1-2.1-1.5-3.9-1.5c-2.3,0-4,0.7-5.1,2s-1.6,3.4-1.6,6.1
		v13.6h-3.7v-15.9c0-1.9-0.4-3.4-1.2-4.4c-0.8-1-2.1-1.5-3.9-1.5c-2.3,0-4,0.7-5.1,2.1s-1.6,3.7-1.6,6.8v12.8h-3.7v-24.4h3l0.6,3.3
		h0.2c0.7-1.2,1.7-2.1,2.9-2.8c1.3-0.7,2.7-1,4.3-1c3.8,0,6.3,1.4,7.5,4.1h0.2c0.7-1.3,1.8-2.3,3.2-3c1.4-0.7,3-1.1,4.7-1.1
		c2.8,0,4.8,0.7,6.2,2.1c1.4,1.4,2.1,3.7,2.1,6.8v15.9H1281.5z"/>
	<path class="st10" d="M1307.8,1049.9l-0.7-3.5h-0.2c-1.2,1.5-2.4,2.6-3.6,3.1c-1.2,0.5-2.7,0.8-4.5,0.8c-2.4,0-4.3-0.6-5.7-1.9
		c-1.4-1.2-2.1-3-2.1-5.3c0-4.9,3.9-7.5,11.8-7.7l4.1-0.1v-1.5c0-1.9-0.4-3.3-1.2-4.2c-0.8-0.9-2.1-1.4-3.9-1.4
		c-2,0-4.3,0.6-6.9,1.9l-1.1-2.8c1.2-0.7,2.5-1.2,3.9-1.5c1.4-0.4,2.9-0.6,4.3-0.6c2.9,0,5.1,0.6,6.5,1.9c1.4,1.3,2.1,3.4,2.1,6.2
		v16.6H1307.8z M1299.5,1047.3c2.3,0,4.1-0.6,5.4-1.9c1.3-1.3,2-3,2-5.3v-2.2l-3.7,0.2c-2.9,0.1-5.1,0.6-6.4,1.4s-1.9,2.1-1.9,3.8
		c0,1.3,0.4,2.4,1.2,3C1296.9,1047,1298,1047.3,1299.5,1047.3z"/>
	<path class="st10" d="M1326.1,1047.3c0.7,0,1.3,0,1.9-0.1c0.6-0.1,1.1-0.2,1.4-0.3v2.8c-0.4,0.2-1,0.4-1.8,0.5
		c-0.8,0.1-1.5,0.2-2.1,0.2c-4.7,0-7.1-2.5-7.1-7.5v-14.5h-3.5v-1.8l3.5-1.5l1.6-5.2h2.1v5.7h7.1v2.9h-7.1v14.3c0,1.5,0.3,2.6,1,3.4
		C1323.9,1046.9,1324.8,1047.3,1326.1,1047.3z"/>
	<path class="st10" d="M1334,1018.9c0-0.8,0.2-1.5,0.6-1.9c0.4-0.4,0.9-0.6,1.6-0.6c0.6,0,1.1,0.2,1.5,0.6c0.4,0.4,0.6,1,0.6,1.8
		c0,0.8-0.2,1.5-0.6,1.9c-0.4,0.4-0.9,0.6-1.5,0.6c-0.6,0-1.1-0.2-1.6-0.6C1334.2,1020.4,1334,1019.8,1334,1018.9z M1338,1049.9
		h-3.7v-24.4h3.7V1049.9z"/>
	<path class="st10" d="M1366.8,1037.7c0,4-1,7.1-3,9.3c-2,2.2-4.8,3.3-8.3,3.3c-2.2,0-4.1-0.5-5.8-1.5c-1.7-1-3-2.5-3.9-4.4
		s-1.4-4.2-1.4-6.7c0-4,1-7.1,3-9.3s4.7-3.3,8.3-3.3c3.4,0,6.1,1.1,8.1,3.4C1365.8,1030.8,1366.8,1033.9,1366.8,1037.7z
		 M1348.3,1037.7c0,3.1,0.6,5.5,1.9,7.1c1.2,1.6,3.1,2.4,5.5,2.4s4.3-0.8,5.5-2.4s1.9-4,1.9-7.1c0-3.1-0.6-5.5-1.9-7.1
		s-3.1-2.4-5.5-2.4c-2.4,0-4.2,0.8-5.5,2.4C1348.9,1032.2,1348.3,1034.6,1348.3,1037.7z"/>
	<path class="st10" d="M1390,1049.9v-15.8c0-2-0.5-3.5-1.4-4.4c-0.9-1-2.3-1.5-4.2-1.5c-2.6,0-4.4,0.7-5.6,2.1
		c-1.2,1.4-1.8,3.7-1.8,6.8v12.8h-3.7v-24.4h3l0.6,3.3h0.2c0.8-1.2,1.8-2.1,3.2-2.8c1.4-0.7,2.9-1,4.6-1c2.9,0,5.1,0.7,6.6,2.1
		c1.5,1.4,2.2,3.7,2.2,6.8v15.9H1390z"/>
</g>
</svg>
