<svg id="Layer_1" data-name="Layer 1" xmlns="http://www.w3.org/2000/svg" xmlns:xlink="http://www.w3.org/1999/xlink" viewBox="0 0 1766.91 1171.67"><defs><clipPath id="clip-path" transform="translate(-88.31 -71.83)"><rect x="808.46" y="843.34" width="96.4" height="125.9" fill="none"/></clipPath><clipPath id="clip-path-2" transform="translate(-88.31 -71.83)"><rect x="267.68" y="839.16" width="128.32" height="137.2" fill="none"/></clipPath><clipPath id="clip-path-3" transform="translate(-88.31 -71.83)"><rect x="463.62" y="214.99" width="244.38" height="170.59" fill="none"/></clipPath><clipPath id="clip-path-4" transform="translate(-88.31 -71.83)"><rect x="427.39" y="153.29" width="308.32" height="308.32" fill="none"/></clipPath><clipPath id="clip-path-5" transform="translate(-88.31 -71.83)"><rect x="1246.62" y="227.99" width="244.38" height="170.59" fill="none"/></clipPath><clipPath id="clip-path-6" transform="translate(-88.31 -71.83)"><rect x="1210.39" y="166.29" width="308.32" height="308.32" fill="none"/></clipPath></defs><title>Tower-RBAC</title><g clip-path="url(#clip-path)"><path d="M904,924.27c-13.89,0-24.17-11.35-24.77-24.77-.43-9.58,5.82-18.14,14.15-22.23A39.73,39.73,0,0,0,883.06,855a35.77,35.77,0,0,0-52.8,0,40,40,0,0,0-10.65,27.37v21.23h-6.37a4.78,4.78,0,0,0-4.78,4.78v56.1a4.78,4.78,0,0,0,4.78,4.78h86.84a4.78,4.78,0,0,0,4.78-4.78V924.25Zm-27.88-20.7H837.2V882.34A22.4,22.4,0,0,1,843.1,867a18.19,18.19,0,0,1,27.11,0,22.39,22.39,0,0,1,5.91,15.35Z" transform="translate(-88.31 -71.83)" fill="#727272"/></g><rect x="146.69" y="488.17" width="718" height="170" fill="#c00"/><line x1="776.69" y1="22.17" x2="782.69" y2="22.17" fill="none" stroke="gray" stroke-miterlimit="10" stroke-width="7"/><line x1="794.19" y1="22.17" x2="1018.44" y2="22.17" fill="none" stroke="gray" stroke-miterlimit="10" stroke-width="7" stroke-dasharray="11.5 11.5"/><polyline points="1024.19 22.17 1030.19 22.17 1030.19 28.17" fill="none" stroke="gray" stroke-miterlimit="10" stroke-width="7"/><line x1="1030.19" y1="40.1" x2="1030.19" y2="1156.2" fill="none" stroke="gray" stroke-miterlimit="10" stroke-width="7" stroke-dasharray="11.94 11.94"/><polyline points="1030.19 1162.17 1030.19 1168.17 1024.19 1168.17" fill="none" stroke="gray" stroke-miterlimit="10" stroke-width="7"/><line x1="1012.25" y1="1168.17" x2="15.47" y2="1168.17" fill="none" stroke="gray" stroke-miterlimit="10" stroke-width="7" stroke-dasharray="11.94 11.94"/><polyline points="9.5 1168.17 3.5 1168.17 3.5 1162.17" fill="none" stroke="gray" stroke-miterlimit="10" stroke-width="7"/><line x1="3.5" y1="1150.23" x2="3.5" y2="34.13" fill="none" stroke="gray" stroke-miterlimit="10" stroke-width="7" stroke-dasharray="11.94 11.94"/><polyline points="3.5 28.17 3.5 22.17 9.5 22.17" fill="none" stroke="gray" stroke-miterlimit="10" stroke-width="7"/><line x1="22.01" y1="22.17" x2="240.93" y2="22.17" fill="none" stroke="gray" stroke-miterlimit="10" stroke-width="7" stroke-dasharray="12.51 12.51"/><line x1="247.19" y1="22.17" x2="253.19" y2="22.17" fill="none" stroke="gray" stroke-miterlimit="10" stroke-width="7"/><path d="M1840,359.14c-6.4-2.71-13.5-5.85-19.9-8.46l-5.47-1.5c-2.18-1.5-4.32-6.48-5.48-8.95l-3.48-.5c.17-3.84,2.55-4,3.48-7,.81-2.57.08-5.93,1.38-8.32.91-1.67,3-1.68,4-3.1a14.15,14.15,0,0,0,1.83-5.12c.53-2.89,1-6.84-.38-9.72-.79-1.64-1.29-1.8-1.51-3.8-.26-2.43.71-10.33.75-12a46.29,46.29,0,0,0-1.08-12.77s-1.3-3.91-3.34-5.1l-4.07-.7-2.52-2.34c-10.14-6.23-21-1.85-26.83.5-8.39,2.73-13.7,14.6-10,32.15.63,3-1.64,4.34-1.48,6,.32,3.57.39,12.17,3.77,14.28a9,9,0,0,0,2.69.64c.33,3.48.67,7,1,10.44.84,2.31,2.86,2.57,3.46,5.85l-2.59.63c-1.17,2.47-3.3,7.45-5.48,8.95l-5.48,1.5c-6.38,2.61-13.49,5.75-19.9,8.46-5.83,2.46-12.81,3.34-14.92,9.45,0,4.16-.39,14-.29,19.42H1855.2c.1-5.45-.28-15.25-.28-19.42C1852.81,362.47,1845.82,361.59,1840,359.14Z" transform="translate(-88.31 -71.83)" fill="#ccc"/><path d="M1490.89,390.43,1484,373.88a1.11,1.11,0,0,0-1.07-.73,1.15,1.15,0,0,0-1.09.73L1474.31,392h2.58l3-7.48,8.92,7.2a1.45,1.45,0,0,0,1,.42,1.23,1.23,0,0,0,1.26-1.23A1.63,1.63,0,0,0,1490.89,390.43Zm-7.94-13.57,4.47,11-6.75-5.32Z" transform="translate(-88.31 -71.83)" fill="#fff"/><circle cx="1394.35" cy="311.74" r="17.27" fill="none" stroke="#fff" stroke-miterlimit="10" stroke-width="3"/><path d="M1753.68,414.08l-1.14-3.74h-5.72l-1.14,3.74h-3.59l5.54-15.77h4.07l5.56,15.77Zm-1.93-6.53q-1.58-5.08-1.78-5.75t-.29-1.05q-.35,1.38-2,6.8Z" transform="translate(-88.31 -71.83)" fill="#4d4d4d"/><path d="M1772,398.37v10.16a5.86,5.86,0,0,1-.78,3.05,5.07,5.07,0,0,1-2.25,2,8,8,0,0,1-3.48.7,6.66,6.66,0,0,1-4.71-1.55,5.51,5.51,0,0,1-1.68-4.25V398.37h3.32V408a4,4,0,0,0,.73,2.66,3,3,0,0,0,2.42.85,3,3,0,0,0,2.37-.85,4,4,0,0,0,.74-2.68v-9.59Z" transform="translate(-88.31 -71.83)" fill="#4d4d4d"/><path d="M1788.91,406.07a7.73,7.73,0,0,1-2.21,5.94q-2.21,2.06-6.38,2.06h-4.45V398.37h4.93a8.31,8.31,0,0,1,6,2A7.47,7.47,0,0,1,1788.91,406.07Zm-3.46.09q0-5.06-4.47-5.06h-1.77v10.23h1.43Q1785.45,411.33,1785.45,406.16Z" transform="translate(-88.31 -71.83)" fill="#4d4d4d"/><path d="M1792.16,414.08V398.37h3.33v15.71Z" transform="translate(-88.31 -71.83)" fill="#4d4d4d"/><path d="M1805.5,414.08h-3.33V401.14h-4.26v-2.77h11.86v2.77h-4.27Z" transform="translate(-88.31 -71.83)" fill="#4d4d4d"/><path d="M1826.44,406.2a8.52,8.52,0,0,1-1.93,6,8.38,8.38,0,0,1-11.09,0,8.55,8.55,0,0,1-1.93-6,8.44,8.44,0,0,1,1.94-6,7.25,7.25,0,0,1,5.56-2.07,7.15,7.15,0,0,1,5.54,2.08A8.55,8.55,0,0,1,1826.44,406.2Zm-11.46,0a6.56,6.56,0,0,0,1,4,3.49,3.49,0,0,0,3,1.33q4,0,4-5.3t-4-5.31a3.52,3.52,0,0,0-3,1.34A6.54,6.54,0,0,0,1815,406.2Z" transform="translate(-88.31 -71.83)" fill="#4d4d4d"/><path d="M1833,408v6h-3.33V398.37h4.58a7.84,7.84,0,0,1,4.74,1.17,4.65,4.65,0,0,1,.77,6,5.05,5.05,0,0,1-2.16,1.69q3.54,5.3,4.62,6.84h-3.7l-3.75-6Zm0-2.71h1.07a4.11,4.11,0,0,0,2.33-.53,1.88,1.88,0,0,0,.75-1.65,1.72,1.72,0,0,0-.77-1.59,4.67,4.67,0,0,0-2.38-.47h-1Z" transform="translate(-88.31 -71.83)" fill="#4d4d4d"/><g clip-path="url(#clip-path-2)"><polygon points="267.94 848.96 190.54 813.89 180.55 822.97 267.95 862.57 307.69 826.44 297.7 821.91 267.94 848.96 267.94 848.96" fill="#727272"/><polygon points="306.48 806.93 219.09 767.33 179.34 803.46 266.74 843.06 306.48 806.93 306.48 806.93" fill="#727272"/></g><polygon points="267.41 869.27 190.01 834.19 180.03 843.27 267.42 882.87 307.16 846.74 297.17 842.21 267.41 869.27 267.41 869.27" fill="#727272"/><polygon points="267.07 890.92 189.68 855.84 179.69 864.92 267.08 904.52 306.83 868.39 296.83 863.86 267.07 890.92 267.07 890.92" fill="#727272"/><path d="M268.9,1038.07v-15.71h3.33v15.71Z" transform="translate(-88.31 -71.83)" fill="#4d4d4d"/><path d="M290.12,1038.07h-4.23l-6.83-11.88H279q.2,3.15.2,4.49v7.39h-3v-15.71h4.2l6.82,11.76h.08q-.16-3.06-.16-4.33v-7.43h3Z" transform="translate(-88.31 -71.83)" fill="#4d4d4d"/><path d="M303,1022.37h3.36l-5.34,15.71h-3.63l-5.33-15.71h3.36l3,9.35q.25.83.51,1.93t.33,1.53a27.53,27.53,0,0,1,.81-3.46Z" transform="translate(-88.31 -71.83)" fill="#4d4d4d"/><path d="M317.42,1038.07h-9v-15.71h9v2.73H311.7v3.45H317v2.73H311.7v4h5.71Z" transform="translate(-88.31 -71.83)" fill="#4d4d4d"/><path d="M334.63,1038.07h-4.23l-6.83-11.88h-.1q.2,3.15.2,4.49v7.39h-3v-15.71h4.2l6.82,11.76h.08q-.16-3.06-.16-4.33v-7.43h3Z" transform="translate(-88.31 -71.83)" fill="#4d4d4d"/><path d="M344.64,1038.07h-3.33v-12.93H337v-2.77H348.9v2.77h-4.26Z" transform="translate(-88.31 -71.83)" fill="#4d4d4d"/><path d="M365.57,1030.2a8.52,8.52,0,0,1-1.93,6,8.38,8.38,0,0,1-11.09,0,8.56,8.56,0,0,1-1.93-6,8.44,8.44,0,0,1,1.94-6,7.25,7.25,0,0,1,5.56-2.07,7.15,7.15,0,0,1,5.54,2.08A8.54,8.54,0,0,1,365.57,1030.2Zm-11.46,0a6.56,6.56,0,0,0,1,4,3.49,3.49,0,0,0,3,1.33q4,0,4-5.29t-4-5.31a3.52,3.52,0,0,0-3,1.34A6.53,6.53,0,0,0,354.11,1030.2Z" transform="translate(-88.31 -71.83)" fill="#4d4d4d"/><path d="M372.16,1032v6h-3.33v-15.71h4.58a7.83,7.83,0,0,1,4.74,1.17,4.65,4.65,0,0,1,.77,6,5.05,5.05,0,0,1-2.16,1.69q3.54,5.3,4.62,6.84h-3.7l-3.75-6Zm0-2.71h1.07a4.1,4.1,0,0,0,2.33-.53,1.88,1.88,0,0,0,.75-1.65,1.72,1.72,0,0,0-.77-1.59,4.67,4.67,0,0,0-2.38-.47h-1Z" transform="translate(-88.31 -71.83)" fill="#4d4d4d"/><path d="M388.24,1028.83l3.28-6.47h3.59l-5.21,9.59v6.11h-3.31v-6l-5.21-9.7H385Z" transform="translate(-88.31 -71.83)" fill="#4d4d4d"/><path d="M559.52,860h72a3.1,3.1,0,0,1,3.19,3.19v93.38a3.1,3.1,0,0,1-3.19,3.19h-72a3.1,3.1,0,0,1-3.19-3.19V863.21a3.1,3.1,0,0,1,3.19-3.19Zm0-7.33A10.58,10.58,0,0,0,549,863.21v93.38a10.58,10.58,0,0,0,10.52,10.52h72A10.58,10.58,0,0,0,642,956.59V863.21a10.58,10.58,0,0,0-10.52-10.52Z" transform="translate(-88.31 -71.83)" fill="#727272"/><path d="M591.29,875.34h32.35a2.75,2.75,0,0,1,2.75,2.75h0a2.75,2.75,0,0,1-2.75,2.75H591.29a2.75,2.75,0,0,1-2.75-2.75h0a2.75,2.75,0,0,1,2.75-2.75Z" transform="translate(-88.31 -71.83)" fill="#727272"/><path d="M585.89,869.09a2.29,2.29,0,0,0-1.57.72L572.91,881.5l-4.35-4.63a2.29,2.29,0,1,0-3.35,3.13h0l6,6.36a2.29,2.29,0,0,0,3.24.1l.07-.07L587.6,873a2.29,2.29,0,0,0-1.71-3.91Z" transform="translate(-88.31 -71.83)" fill="#727272"/><path d="M591.29,896.84h32.35a2.75,2.75,0,0,1,2.75,2.75h0a2.75,2.75,0,0,1-2.75,2.75H591.29a2.75,2.75,0,0,1-2.75-2.75h0a2.75,2.75,0,0,1,2.75-2.75Z" transform="translate(-88.31 -71.83)" fill="#727272"/><path d="M585.89,890.59a2.29,2.29,0,0,0-1.57.72L572.91,903l-4.35-4.63a2.29,2.29,0,1,0-3.35,3.13h0l6,6.36a2.29,2.29,0,0,0,3.24.1l.07-.07,13.08-13.4a2.29,2.29,0,0,0-1.71-3.91Z" transform="translate(-88.31 -71.83)" fill="#727272"/><path d="M591.29,918.34h32.35a2.75,2.75,0,0,1,2.75,2.75h0a2.75,2.75,0,0,1-2.75,2.75H591.29a2.75,2.75,0,0,1-2.75-2.75h0a2.75,2.75,0,0,1,2.75-2.75Z" transform="translate(-88.31 -71.83)" fill="#727272"/><path d="M585.89,912.09a2.29,2.29,0,0,0-1.57.71L572.91,924.5l-4.35-4.63a2.29,2.29,0,0,0-3.33,3.14l6,6.36a2.29,2.29,0,0,0,3.24.1l.07-.07L587.6,916a2.29,2.29,0,0,0-1.71-3.91Z" transform="translate(-88.31 -71.83)" fill="#727272"/><path d="M591.29,939.84h32.35a2.75,2.75,0,0,1,2.75,2.75h0a2.75,2.75,0,0,1-2.75,2.75H591.29a2.75,2.75,0,0,1-2.75-2.75h0a2.75,2.75,0,0,1,2.75-2.75Z" transform="translate(-88.31 -71.83)" fill="#727272"/><path d="M582.9,942.59a6.46,6.46,0,1,1-12.91,0h0a6.46,6.46,0,0,1,12.91,0Z" transform="translate(-88.31 -71.83)" fill="#727272"/><path d="M488,657.89V679.8H475.91V622.69h16.64q11.64,0,17.23,4.24t5.59,12.87a15.15,15.15,0,0,1-2.77,9,18.36,18.36,0,0,1-7.85,6.15q12.89,19.26,16.8,24.88H508.1l-13.63-21.91Zm0-9.84h3.91q5.74,0,8.48-1.91t2.73-6q0-4.06-2.79-5.78t-8.65-1.72H488Z" transform="translate(-88.31 -71.83)" fill="#fff"/><path d="M580.56,651.17q0,14.18-7,21.8t-20.16,7.62q-13.12,0-20.16-7.62t-7-21.87q0-14.26,7.05-21.78t20.21-7.52q13.16,0,20.14,7.58T580.56,651.17Zm-41.68,0q0,9.57,3.63,14.41t10.86,4.84q14.49,0,14.49-19.26t-14.41-19.3q-7.23,0-10.9,4.86T538.88,651.17Z" transform="translate(-88.31 -71.83)" fill="#fff"/><path d="M592.4,679.8V622.69h12.11V669.8h23.16v10Z" transform="translate(-88.31 -71.83)" fill="#fff"/><path d="M670.48,679.8H637.59V622.69h32.89v9.92H649.7v12.54H669v9.92H649.7V669.8h20.78Z" transform="translate(-88.31 -71.83)" fill="#fff"/><path d="M716.11,663.94a14.76,14.76,0,0,1-5.57,12.19q-5.57,4.45-15.49,4.45a36.37,36.37,0,0,1-16.17-3.44V665.89a66.59,66.59,0,0,0,9.79,3.63,29,29,0,0,0,7.32,1.05,10.42,10.42,0,0,0,6.11-1.52,5.21,5.21,0,0,0,2.13-4.53,5,5,0,0,0-.94-3,10.5,10.5,0,0,0-2.75-2.52,71.13,71.13,0,0,0-7.4-3.87,35,35,0,0,1-7.85-4.73,17.71,17.71,0,0,1-4.18-5.27,15,15,0,0,1-1.56-7q0-7.58,5.14-11.91t14.2-4.34a33.53,33.53,0,0,1,8.5,1.05,58.51,58.51,0,0,1,8.46,3l-3.91,9.41a57.2,57.2,0,0,0-7.56-2.62,24.36,24.36,0,0,0-5.88-.74,7.79,7.79,0,0,0-5.27,1.6,5.28,5.28,0,0,0-1.84,4.18,5.17,5.17,0,0,0,.74,2.79,8.14,8.14,0,0,0,2.36,2.3,72.86,72.86,0,0,0,7.68,4q8,3.83,11,7.68A15,15,0,0,1,716.11,663.94Z" transform="translate(-88.31 -71.83)" fill="#fff"/><g clip-path="url(#clip-path-3)"><g clip-path="url(#clip-path-4)"><path d="M651.51,346c-8.77-3.71-18.51-8-27.28-11.6l-7.49-2.05c-3-2.05-5.92-8.88-7.51-12.26-1.58-.23-3.19-.47-4.77-.68.23-5.26,3.49-5.55,4.77-9.56,1.12-3.53.11-8.12,1.89-11.4,1.24-2.29,4.05-2.3,5.44-4.25,1.28-1.76,2.11-4.86,2.5-7,.72-4,1.35-9.38-.52-13.32-1.08-2.25-1.76-2.47-2.07-5.2-.36-3.33,1-14.15,1-16.49.14-6.09,0-11.58-1.48-17.5,0,0-1.78-5.37-4.57-7l-5.58-1-3.46-3.21c-13.9-8.53-28.79-2.54-36.77.68-11.51,3.74-18.78,20-13.7,44.06.86,4.11-2.25,5.94-2,8.19.43,4.9.54,16.67,5.17,19.57.43.29,3.71,1.1,3.69.88.45,4.77.92,9.54,1.37,14.31,1.15,3.17,3.93,3.53,4.74,8l-3.55.86c-1.6,3.39-4.52,10.21-7.51,12.26l-7.51,2.05C537.55,338,527.81,342.3,519,346c-8,3.37-17.56,4.57-20.45,12.95,0,5.71-.54,19.14-.4,26.61H672.36c.14-7.47-.38-20.91-.38-26.61-2.9-8.37-12.48-9.58-20.47-12.95" transform="translate(-88.31 -71.83)" fill="#1a1a1a"/><path d="M516.92,338.51c3.46-1.46,7-3,10.66-4.56,5.33-2.3,10.82-4.66,16-6.79l-.68-1.51-3.4-.49c.16-3.75,2.48-3.94,3.4-6.81.79-2.52.07-5.8,1.35-8.14.88-1.62,2.88-1.62,3.87-3a14.29,14.29,0,0,0,1.78-5c.14-.83.29-1.75.4-2.7-5.42-5-6.1-14.68-6.55-21.3-.05-.83-.11-1.58-.16-2.21a11.23,11.23,0,0,1,1.73-6.66c.14-.27.32-.61.41-.83a86.06,86.06,0,0,1-1.37-8.72l-3.87-.67L538,256.81c-9.9-6.09-20.53-1.82-26.22.49-8.19,2.66-13.38,14.26-9.76,31.4.61,2.94-1.6,4.25-1.46,5.83.31,3.49.38,11.9,3.69,14a8.76,8.76,0,0,0,2.63.61l1,10.21c.83,2.27,2.79,2.52,3.37,5.71l-2.52.61c-1.13,2.43-3.22,7.29-5.35,8.75L498,335.86c-6.25,2.56-13.2,5.64-19.45,8.26-5.71,2.41-12.53,3.26-14.58,9.24,0,4.05-.38,13.65-.27,19h28.2c0-1.73.07-3.47.11-5.15.09-3.67.18-7.17.18-9.31v-1.17l.38-1.1c3.35-9.71,12.19-12.77,19.28-15.23,1.78-.61,3.47-1.21,5-1.85m190.7,14.85c-2.07-6-8.9-6.82-14.58-9.24-6.27-2.63-13.2-5.71-19.45-8.26l-5.35-1.46c-2.13-1.46-4.21-6.32-5.35-8.75l-3.4-.49c.16-3.75,2.48-3.94,3.4-6.81.79-2.52.07-5.8,1.35-8.14.88-1.62,2.88-1.62,3.87-3a14.31,14.31,0,0,0,1.78-5c.52-2.81,1-6.68-.38-9.49-.77-1.6-1.26-1.76-1.48-3.71-.25-2.38.7-10.08.74-11.76a45.38,45.38,0,0,0-1-12.48s-1.28-3.82-3.28-5l-4-.68L658,256.81c-9.9-6.09-20.53-1.82-26.22.49a14,14,0,0,0-7.8,6.9,18.57,18.57,0,0,0,0,2.59,3.34,3.34,0,0,0,.07.49c.05.13.14.23.22.38.29.5.68,1.17,1.13,2.11,2.79,5.83,2,12.82,1.1,17.56-.43,2.36-1.48,6.73-3.69,9.83a11.12,11.12,0,0,1-1.85,2c.34,3.71,1.1,8,3.33,9.36a8.75,8.75,0,0,0,2.63.61l1,10.21c.83,2.27,2.81,2.52,3.37,5.71l-2.52.61c-.2.43-.43.92-.68,1.46,5.2,2.14,10.73,4.52,16.08,6.82,3.64,1.57,7.24,3.12,10.68,4.57,1.57.65,3.26,1.24,5.06,1.85,7.09,2.47,15.92,5.53,19.28,15.23l.38,1.1v1.17c0,2.14.07,5.64.16,9.31,0,1.68.09,3.42.13,5.15h28.07c.11-5.31-.27-14.91-.27-19" transform="translate(-88.31 -71.83)" fill="#bdbdbd"/><path d="M639,369.64l-5.09-12.24a.82.82,0,0,0-.79-.54.85.85,0,0,0-.81.54l-5.58,13.43h1.91l2.21-5.54,6.6,5.33a1.07,1.07,0,0,0,.71.31.91.91,0,0,0,.93-.91,1.21,1.21,0,0,0-.09-.38m-5.87-10,3.31,8.16-5-3.94Z" transform="translate(-88.31 -71.83)" fill="#fff"/><circle cx="544.63" cy="292.73" r="12.78" fill="none" stroke="#fff" stroke-miterlimit="10" stroke-width="3"/></g></g><g clip-path="url(#clip-path-5)"><g clip-path="url(#clip-path-6)"><path d="M1434.51,359c-8.77-3.71-18.51-8-27.28-11.6l-7.49-2.05c-3-2.05-5.92-8.88-7.51-12.26-1.58-.23-3.19-.47-4.77-.68.23-5.26,3.49-5.55,4.77-9.56,1.12-3.53.11-8.12,1.89-11.4,1.24-2.29,4.05-2.3,5.44-4.25,1.28-1.76,2.11-4.86,2.5-7,.72-4,1.35-9.38-.52-13.32-1.08-2.25-1.76-2.47-2.07-5.2-.36-3.33,1-14.15,1-16.49.14-6.09,0-11.58-1.48-17.5,0,0-1.78-5.37-4.57-7l-5.58-1-3.46-3.21c-13.9-8.53-28.79-2.54-36.77.68-11.51,3.74-18.78,20-13.7,44.06.86,4.11-2.25,5.94-2,8.19.43,4.9.54,16.67,5.17,19.57.43.29,3.71,1.1,3.69.88.45,4.77.92,9.54,1.37,14.31,1.15,3.17,3.93,3.53,4.74,8l-3.55.86c-1.6,3.39-4.52,10.21-7.51,12.26l-7.51,2.05c-8.75,3.58-18.49,7.89-27.28,11.6-8,3.37-17.56,4.57-20.45,12.95,0,5.71-.54,19.14-.4,26.61h174.19c.14-7.47-.38-20.91-.38-26.61-2.9-8.37-12.48-9.58-20.47-12.95" transform="translate(-88.31 -71.83)" fill="#1a1a1a"/><path d="M1299.92,351.51c3.46-1.46,7-3,10.66-4.56,5.33-2.3,10.82-4.66,16-6.79l-.68-1.51-3.4-.49c.16-3.75,2.48-3.94,3.4-6.81.79-2.52.07-5.8,1.35-8.14.88-1.62,2.88-1.62,3.87-3a14.29,14.29,0,0,0,1.78-5c.14-.83.29-1.75.4-2.7-5.42-5-6.1-14.68-6.55-21.3-.05-.83-.11-1.58-.16-2.21a11.23,11.23,0,0,1,1.73-6.66c.14-.27.32-.61.41-.83a86.06,86.06,0,0,1-1.37-8.72l-3.87-.67-2.45-2.29c-9.9-6.09-20.53-1.82-26.22.49-8.19,2.66-13.38,14.26-9.76,31.4.61,2.94-1.6,4.25-1.46,5.83.31,3.49.38,11.9,3.69,14a8.76,8.76,0,0,0,2.63.61l1,10.21c.83,2.27,2.79,2.52,3.37,5.71l-2.52.61c-1.13,2.43-3.22,7.29-5.35,8.75l-5.35,1.46c-6.25,2.56-13.2,5.64-19.45,8.26-5.71,2.41-12.53,3.26-14.58,9.24,0,4.05-.38,13.65-.27,19h28.2c0-1.73.07-3.47.11-5.15.09-3.67.18-7.17.18-9.31v-1.17l.38-1.1c3.35-9.71,12.19-12.77,19.28-15.23,1.78-.61,3.47-1.21,5-1.85m190.7,14.85c-2.07-6-8.9-6.82-14.58-9.24-6.27-2.63-13.2-5.71-19.45-8.26l-5.35-1.46c-2.13-1.46-4.21-6.32-5.35-8.75l-3.4-.49c.16-3.75,2.48-3.94,3.4-6.81.79-2.52.07-5.8,1.35-8.14.88-1.62,2.88-1.62,3.87-3a14.31,14.31,0,0,0,1.78-5c.52-2.81,1-6.68-.38-9.49-.77-1.6-1.26-1.76-1.48-3.71-.25-2.38.7-10.08.74-11.76a45.38,45.38,0,0,0-1-12.48s-1.28-3.82-3.28-5l-4-.68-2.45-2.29c-9.9-6.09-20.53-1.82-26.22.49a14,14,0,0,0-7.8,6.9,18.57,18.57,0,0,0,0,2.59,3.34,3.34,0,0,0,.07.49c.05.13.14.23.22.38.29.5.68,1.17,1.13,2.11,2.79,5.83,2,12.82,1.1,17.56-.43,2.36-1.48,6.73-3.69,9.83a11.12,11.12,0,0,1-1.85,2c.34,3.71,1.1,8,3.33,9.36a8.75,8.75,0,0,0,2.63.61l1,10.21c.83,2.27,2.81,2.52,3.37,5.71l-2.52.61c-.2.43-.43.92-.68,1.46,5.2,2.14,10.73,4.52,16.08,6.82,3.64,1.57,7.24,3.12,10.68,4.57,1.57.65,3.26,1.24,5.06,1.85,7.09,2.47,15.92,5.53,19.28,15.23l.38,1.1v1.17c0,2.14.07,5.64.16,9.31,0,1.68.09,3.42.13,5.15h28.07c.11-5.31-.27-14.91-.27-19" transform="translate(-88.31 -71.83)" fill="#bdbdbd"/><path d="M1422,382.64l-5.09-12.24a.82.82,0,0,0-.79-.54.85.85,0,0,0-.81.54l-5.58,13.43h1.91l2.21-5.54,6.6,5.33a1.07,1.07,0,0,0,.71.31.91.91,0,0,0,.93-.91,1.21,1.21,0,0,0-.09-.38m-5.87-10,3.31,8.16-5-3.94Z" transform="translate(-88.31 -71.83)" fill="#fff"/><circle cx="1327.63" cy="305.73" r="12.78" fill="none" stroke="#fff" stroke-miterlimit="10" stroke-width="3"/></g></g><path d="M1667,359.14c-6.4-2.71-13.5-5.85-19.9-8.46l-5.47-1.5c-2.18-1.5-4.32-6.48-5.48-8.95l-3.48-.5c.17-3.84,2.55-4,3.48-7,.81-2.57.08-5.93,1.38-8.32.91-1.67,3-1.68,4-3.1a14.15,14.15,0,0,0,1.83-5.12c.53-2.89,1-6.84-.38-9.72-.79-1.64-1.29-1.8-1.51-3.8-.26-2.43.71-10.33.75-12a46.29,46.29,0,0,0-1.08-12.77s-1.3-3.91-3.34-5.1l-4.07-.7-2.52-2.34c-10.14-6.23-21-1.85-26.83.5-8.39,2.73-13.7,14.6-10,32.15.63,3-1.64,4.34-1.48,6,.32,3.57.39,12.17,3.77,14.28a9,9,0,0,0,2.69.64c.33,3.48.67,7,1,10.44.84,2.31,2.86,2.57,3.46,5.85l-2.59.63c-1.17,2.47-3.3,7.45-5.48,8.95l-5.48,1.5c-6.38,2.61-13.49,5.75-19.9,8.46-5.83,2.46-12.81,3.34-14.92,9.45,0,4.16-.39,14-.29,19.42H1682.2c.1-5.45-.28-15.25-.28-19.42C1679.81,362.47,1672.82,361.59,1667,359.14Z" transform="translate(-88.31 -71.83)" fill="#ccc"/><path d="M1565.06,409.71a4.06,4.06,0,0,1-1.53,3.35,6.65,6.65,0,0,1-4.26,1.22,10,10,0,0,1-4.45-.95v-3.09a18.3,18.3,0,0,0,2.69,1,8,8,0,0,0,2,.29,2.87,2.87,0,0,0,1.68-.42,1.43,1.43,0,0,0,.58-1.25,1.38,1.38,0,0,0-.26-.82,2.9,2.9,0,0,0-.76-.69,19.71,19.71,0,0,0-2-1.06,9.63,9.63,0,0,1-2.16-1.3,4.86,4.86,0,0,1-1.15-1.45,4.14,4.14,0,0,1-.43-1.93,4.06,4.06,0,0,1,1.41-3.28,5.87,5.87,0,0,1,3.9-1.19,9.21,9.21,0,0,1,2.34.29,16.08,16.08,0,0,1,2.33.82l-1.07,2.59a15.79,15.79,0,0,0-2.08-.72,6.72,6.72,0,0,0-1.62-.2,2.14,2.14,0,0,0-1.45.44,1.45,1.45,0,0,0-.5,1.15,1.42,1.42,0,0,0,.2.77,2.24,2.24,0,0,0,.65.63,20,20,0,0,0,2.11,1.1,8.41,8.41,0,0,1,3,2.11A4.12,4.12,0,0,1,1565.06,409.71Z" transform="translate(-88.31 -71.83)" fill="#4d4d4d"/><path d="M1580.69,398.37v10.16a5.86,5.86,0,0,1-.78,3.05,5.07,5.07,0,0,1-2.25,2,8,8,0,0,1-3.48.7,6.66,6.66,0,0,1-4.71-1.55,5.51,5.51,0,0,1-1.68-4.25V398.37h3.32V408a4,4,0,0,0,.73,2.66,3,3,0,0,0,2.42.85,3,3,0,0,0,2.37-.85,4,4,0,0,0,.74-2.68v-9.59Z" transform="translate(-88.31 -71.83)" fill="#4d4d4d"/><path d="M1595.38,403.27a4.8,4.8,0,0,1-1.58,3.88,6.78,6.78,0,0,1-4.51,1.34h-1.43v5.59h-3.33V398.37h5a6.67,6.67,0,0,1,4.34,1.23A4.48,4.48,0,0,1,1595.38,403.27Zm-7.52,2.49h1.1a3.65,3.65,0,0,0,2.3-.61,2.13,2.13,0,0,0,.76-1.77,2.18,2.18,0,0,0-.64-1.73,3,3,0,0,0-2-.56h-1.51Z" transform="translate(-88.31 -71.83)" fill="#4d4d4d"/><path d="M1607.39,414.08h-9V398.37h9v2.73h-5.71v3.45H1607v2.73h-5.32v4h5.71Z" transform="translate(-88.31 -71.83)" fill="#4d4d4d"/><path d="M1614,408v6h-3.33V398.37h4.58a7.83,7.83,0,0,1,4.74,1.17,4.65,4.65,0,0,1,.77,6,5.05,5.05,0,0,1-2.16,1.69q3.54,5.3,4.62,6.84h-3.7l-3.75-6Zm0-2.71h1.07a4.11,4.11,0,0,0,2.33-.53,1.88,1.88,0,0,0,.75-1.65,1.72,1.72,0,0,0-.77-1.59,4.67,4.67,0,0,0-2.38-.47h-1Z" transform="translate(-88.31 -71.83)" fill="#4d4d4d"/><path d="M1643.69,398.37v10.16a5.86,5.86,0,0,1-.78,3.05,5.07,5.07,0,0,1-2.25,2,8,8,0,0,1-3.48.7,6.66,6.66,0,0,1-4.71-1.55,5.51,5.51,0,0,1-1.68-4.25V398.37h3.32V408a4,4,0,0,0,.73,2.66,3,3,0,0,0,2.42.85,3,3,0,0,0,2.37-.85,4,4,0,0,0,.74-2.68v-9.59Z" transform="translate(-88.31 -71.83)" fill="#4d4d4d"/><path d="M1656.81,409.71a4.06,4.06,0,0,1-1.53,3.35,6.65,6.65,0,0,1-4.26,1.22,10,10,0,0,1-4.45-.95v-3.09a18.3,18.3,0,0,0,2.69,1,8,8,0,0,0,2,.29,2.86,2.86,0,0,0,1.68-.42,1.43,1.43,0,0,0,.59-1.25,1.38,1.38,0,0,0-.26-.82,2.88,2.88,0,0,0-.76-.69,19.55,19.55,0,0,0-2-1.06,9.63,9.63,0,0,1-2.16-1.3,4.87,4.87,0,0,1-1.15-1.45,4.13,4.13,0,0,1-.43-1.93,4.06,4.06,0,0,1,1.41-3.28,5.87,5.87,0,0,1,3.91-1.19,9.23,9.23,0,0,1,2.34.29,16.15,16.15,0,0,1,2.33.82l-1.07,2.59a15.7,15.7,0,0,0-2.08-.72,6.69,6.69,0,0,0-1.62-.2,2.14,2.14,0,0,0-1.45.44,1.45,1.45,0,0,0-.5,1.15,1.42,1.42,0,0,0,.2.77,2.23,2.23,0,0,0,.65.63A20,20,0,0,0,1653,405a8.42,8.42,0,0,1,3,2.11A4.12,4.12,0,0,1,1656.81,409.71Z" transform="translate(-88.31 -71.83)" fill="#4d4d4d"/><path d="M1668.7,414.08h-9V398.37h9v2.73H1663v3.45h5.32v2.73H1663v4h5.71Z" transform="translate(-88.31 -71.83)" fill="#4d4d4d"/><path d="M1675.31,408v6H1672V398.37h4.58a7.83,7.83,0,0,1,4.74,1.17,4.65,4.65,0,0,1,.77,6,5.05,5.05,0,0,1-2.16,1.69q3.54,5.3,4.62,6.84h-3.7l-3.75-6Zm0-2.71h1.07a4.11,4.11,0,0,0,2.33-.53,1.88,1.88,0,0,0,.75-1.65,1.72,1.72,0,0,0-.77-1.59,4.66,4.66,0,0,0-2.38-.47h-1Z" transform="translate(-88.31 -71.83)" fill="#4d4d4d"/><path d="M1349.5,410.67v10.16a5.86,5.86,0,0,1-.78,3.05,5.07,5.07,0,0,1-2.25,2,8,8,0,0,1-3.48.7,6.66,6.66,0,0,1-4.71-1.55,5.51,5.51,0,0,1-1.68-4.25V410.67h3.32v9.61a4,4,0,0,0,.73,2.66,3,3,0,0,0,2.42.85,3,3,0,0,0,2.37-.85,4,4,0,0,0,.74-2.68v-9.59Z" transform="translate(-88.31 -71.83)" fill="#4d4d4d"/><path d="M1362.62,422a4.06,4.06,0,0,1-1.53,3.35,6.65,6.65,0,0,1-4.26,1.22,10,10,0,0,1-4.45-.95v-3.09a18.3,18.3,0,0,0,2.69,1,8,8,0,0,0,2,.29,2.87,2.87,0,0,0,1.68-.42,1.43,1.43,0,0,0,.58-1.25,1.38,1.38,0,0,0-.26-.82,2.9,2.9,0,0,0-.76-.69,19.71,19.71,0,0,0-2-1.06,9.63,9.63,0,0,1-2.16-1.3,4.86,4.86,0,0,1-1.15-1.45,4.14,4.14,0,0,1-.43-1.93,4.06,4.06,0,0,1,1.41-3.28,5.87,5.87,0,0,1,3.9-1.19,9.21,9.21,0,0,1,2.34.29,16.08,16.08,0,0,1,2.33.82l-1.07,2.59a15.79,15.79,0,0,0-2.08-.72,6.72,6.72,0,0,0-1.62-.2,2.14,2.14,0,0,0-1.45.44,1.45,1.45,0,0,0-.5,1.15,1.42,1.42,0,0,0,.2.77,2.24,2.24,0,0,0,.65.63,20,20,0,0,0,2.11,1.1,8.41,8.41,0,0,1,3,2.11A4.12,4.12,0,0,1,1362.62,422Z" transform="translate(-88.31 -71.83)" fill="#4d4d4d"/><path d="M1374.51,426.37h-9V410.67h9v2.73h-5.71v3.45h5.32v2.73h-5.32v4h5.71Z" transform="translate(-88.31 -71.83)" fill="#4d4d4d"/><path d="M1381.12,420.34v6h-3.33V410.67h4.58a7.83,7.83,0,0,1,4.74,1.17,4.65,4.65,0,0,1,.77,6,5.05,5.05,0,0,1-2.16,1.69q3.54,5.3,4.62,6.84h-3.7l-3.75-6Zm0-2.71h1.07a4.11,4.11,0,0,0,2.33-.53,1.88,1.88,0,0,0,.75-1.65,1.72,1.72,0,0,0-.77-1.59,4.67,4.67,0,0,0-2.38-.47h-1Z" transform="translate(-88.31 -71.83)" fill="#4d4d4d"/><path d="M1401.58,422a4.06,4.06,0,0,1-1.53,3.35,6.65,6.65,0,0,1-4.26,1.22,10,10,0,0,1-4.45-.95v-3.09a18.3,18.3,0,0,0,2.69,1,8,8,0,0,0,2,.29,2.86,2.86,0,0,0,1.68-.42,1.43,1.43,0,0,0,.59-1.25,1.38,1.38,0,0,0-.26-.82,2.88,2.88,0,0,0-.76-.69,19.55,19.55,0,0,0-2-1.06,9.63,9.63,0,0,1-2.16-1.3,4.87,4.87,0,0,1-1.15-1.45,4.13,4.13,0,0,1-.43-1.93,4.06,4.06,0,0,1,1.41-3.28,5.87,5.87,0,0,1,3.91-1.19,9.23,9.23,0,0,1,2.34.29,16.15,16.15,0,0,1,2.33.82l-1.07,2.59a15.7,15.7,0,0,0-2.08-.72,6.69,6.69,0,0,0-1.62-.2,2.14,2.14,0,0,0-1.45.44,1.45,1.45,0,0,0-.5,1.15,1.42,1.42,0,0,0,.2.77,2.23,2.23,0,0,0,.65.63,20,20,0,0,0,2.11,1.1,8.42,8.42,0,0,1,3,2.11A4.12,4.12,0,0,1,1401.58,422Z" transform="translate(-88.31 -71.83)" fill="#4d4d4d"/><path d="M557.08,418.37h-3.33V405.44h-4.26v-2.77h11.86v2.77h-4.26Z" transform="translate(-88.31 -71.83)" fill="#4d4d4d"/><path d="M572.81,418.37h-9V402.67h9v2.73h-5.71v3.45h5.32v2.73h-5.32v4h5.71Z" transform="translate(-88.31 -71.83)" fill="#4d4d4d"/><path d="M585.7,418.37l-1.14-3.74h-5.73l-1.14,3.74h-3.59l5.54-15.77h4.07l5.56,15.77Zm-1.93-6.53q-1.58-5.08-1.78-5.75T581.7,405q-.35,1.38-2,6.8Z" transform="translate(-88.31 -71.83)" fill="#4d4d4d"/><path d="M597.91,418.37,594.13,406H594q.2,3.76.2,5v7.3h-3V402.67h4.53l3.72,12h.06l3.94-12h4.53v15.71H605v-7.43q0-.53,0-1.21t.15-3.65H605l-4,12.3Z" transform="translate(-88.31 -71.83)" fill="#4d4d4d"/><path d="M621.28,414a4.06,4.06,0,0,1-1.53,3.35,6.65,6.65,0,0,1-4.26,1.22,10,10,0,0,1-4.45-.95v-3.09a18.3,18.3,0,0,0,2.69,1,8,8,0,0,0,2,.29,2.86,2.86,0,0,0,1.68-.42,1.43,1.43,0,0,0,.59-1.25,1.38,1.38,0,0,0-.26-.82,2.89,2.89,0,0,0-.76-.69,19.63,19.63,0,0,0-2-1.06,9.63,9.63,0,0,1-2.16-1.3,4.86,4.86,0,0,1-1.15-1.45,4.14,4.14,0,0,1-.43-1.93,4.06,4.06,0,0,1,1.41-3.28,5.87,5.87,0,0,1,3.9-1.19,9.22,9.22,0,0,1,2.34.29,16.11,16.11,0,0,1,2.33.82l-1.07,2.59a15.74,15.74,0,0,0-2.08-.72,6.71,6.71,0,0,0-1.62-.2,2.14,2.14,0,0,0-1.45.44,1.45,1.45,0,0,0-.5,1.15,1.42,1.42,0,0,0,.2.77,2.23,2.23,0,0,0,.65.63,20,20,0,0,0,2.11,1.1,8.41,8.41,0,0,1,3,2.11A4.12,4.12,0,0,1,621.28,414Z" transform="translate(-88.31 -71.83)" fill="#4d4d4d"/><path d="M559.68,1026.2a4.8,4.8,0,0,1-1.58,3.88,6.78,6.78,0,0,1-4.51,1.34h-1.43V1037h-3.33V1021.3h5a6.68,6.68,0,0,1,4.35,1.23A4.49,4.49,0,0,1,559.68,1026.2Zm-7.52,2.49h1.1a3.65,3.65,0,0,0,2.3-.61,2.12,2.12,0,0,0,.76-1.77,2.18,2.18,0,0,0-.64-1.73,3,3,0,0,0-2-.56h-1.51Z" transform="translate(-88.31 -71.83)" fill="#4d4d4d"/><path d="M566,1031v6h-3.33V1021.3h4.58a7.84,7.84,0,0,1,4.74,1.17,4.65,4.65,0,0,1,.77,6,5.05,5.05,0,0,1-2.16,1.69q3.54,5.3,4.62,6.84h-3.7l-3.75-6Zm0-2.71H567a4.11,4.11,0,0,0,2.33-.53,1.88,1.88,0,0,0,.75-1.65,1.72,1.72,0,0,0-.77-1.59A4.66,4.66,0,0,0,567,1024h-1Z" transform="translate(-88.31 -71.83)" fill="#4d4d4d"/><path d="M591.42,1029.13a8.52,8.52,0,0,1-1.93,6,8.38,8.38,0,0,1-11.09,0,8.55,8.55,0,0,1-1.93-6,8.44,8.44,0,0,1,1.94-6,7.25,7.25,0,0,1,5.56-2.07,7.15,7.15,0,0,1,5.54,2.08A8.55,8.55,0,0,1,591.42,1029.13Zm-11.46,0a6.56,6.56,0,0,0,1,4,3.5,3.5,0,0,0,3,1.33q4,0,4-5.3t-4-5.31a3.52,3.52,0,0,0-3,1.34A6.53,6.53,0,0,0,580,1029.13Z" transform="translate(-88.31 -71.83)" fill="#4d4d4d"/><path d="M593,1041.62a7.3,7.3,0,0,1-2-.24v-2.77a6.55,6.55,0,0,0,1.57.21,1.77,1.77,0,0,0,1.57-.68,3.8,3.8,0,0,0,.47-2.13V1021.3H598V1036a6.19,6.19,0,0,1-1.26,4.19A4.67,4.67,0,0,1,593,1041.62Z" transform="translate(-88.31 -71.83)" fill="#4d4d4d"/><path d="M611,1037h-9V1021.3h9V1024h-5.71v3.45h5.32v2.73h-5.32v4H611Z" transform="translate(-88.31 -71.83)" fill="#4d4d4d"/><path d="M621,1023.85a3.39,3.39,0,0,0-2.91,1.41,6.58,6.58,0,0,0-1,3.94q0,5.25,3.94,5.25a12.46,12.46,0,0,0,4-.83v2.79a11.13,11.13,0,0,1-4.32.81,6.59,6.59,0,0,1-5.24-2.08,8.8,8.8,0,0,1-1.82-6,9.74,9.74,0,0,1,.89-4.29,6.45,6.45,0,0,1,2.56-2.83,7.58,7.58,0,0,1,3.92-1,10.57,10.57,0,0,1,4.6,1.11l-1.07,2.71a17.89,17.89,0,0,0-1.77-.73A5.28,5.28,0,0,0,621,1023.85Z" transform="translate(-88.31 -71.83)" fill="#4d4d4d"/><path d="M634.36,1037H631v-12.93h-4.26v-2.77h11.86v2.77h-4.26Z" transform="translate(-88.31 -71.83)" fill="#4d4d4d"/><path d="M650.31,1032.64a4.06,4.06,0,0,1-1.53,3.35,6.65,6.65,0,0,1-4.26,1.22,10,10,0,0,1-4.45-.95v-3.09a18.3,18.3,0,0,0,2.69,1,8,8,0,0,0,2,.29,2.86,2.86,0,0,0,1.68-.42,1.43,1.43,0,0,0,.59-1.25,1.38,1.38,0,0,0-.26-.82,2.89,2.89,0,0,0-.76-.69,19.63,19.63,0,0,0-2-1.06,9.65,9.65,0,0,1-2.16-1.3,4.86,4.86,0,0,1-1.15-1.45,4.14,4.14,0,0,1-.43-1.93,4.06,4.06,0,0,1,1.41-3.28,5.87,5.87,0,0,1,3.9-1.19,9.22,9.22,0,0,1,2.34.29,16.07,16.07,0,0,1,2.33.82l-1.07,2.59a15.67,15.67,0,0,0-2.08-.72,6.71,6.71,0,0,0-1.62-.2,2.14,2.14,0,0,0-1.45.44,1.45,1.45,0,0,0-.5,1.15,1.42,1.42,0,0,0,.2.77,2.23,2.23,0,0,0,.65.63,20.06,20.06,0,0,0,2.11,1.1,8.41,8.41,0,0,1,3,2.11A4.13,4.13,0,0,1,650.31,1032.64Z" transform="translate(-88.31 -71.83)" fill="#4d4d4d"/><path d="M798.11,1022.91a3.39,3.39,0,0,0-2.91,1.41,6.57,6.57,0,0,0-1,3.94q0,5.25,3.94,5.25a12.48,12.48,0,0,0,4-.83v2.79a11.13,11.13,0,0,1-4.32.8,6.58,6.58,0,0,1-5.24-2.08,8.8,8.8,0,0,1-1.82-6,9.73,9.73,0,0,1,.89-4.29,6.44,6.44,0,0,1,2.56-2.83,7.58,7.58,0,0,1,3.92-1,10.58,10.58,0,0,1,4.6,1.11l-1.07,2.71a18.11,18.11,0,0,0-1.77-.73A5.31,5.31,0,0,0,798.11,1022.91Z" transform="translate(-88.31 -71.83)" fill="#4d4d4d"/><path d="M808.79,1030v6h-3.33v-15.71H810a7.83,7.83,0,0,1,4.74,1.17,4.65,4.65,0,0,1,.77,6,5.05,5.05,0,0,1-2.16,1.69q3.54,5.3,4.62,6.84h-3.7l-3.75-6Zm0-2.71h1.07a4.11,4.11,0,0,0,2.33-.53,1.88,1.88,0,0,0,.75-1.65,1.72,1.72,0,0,0-.77-1.59,4.67,4.67,0,0,0-2.38-.47h-1Z" transform="translate(-88.31 -71.83)" fill="#4d4d4d"/><path d="M829,1036.07h-9v-15.71h9v2.73h-5.71v3.45h5.32v2.73h-5.32v4H829Z" transform="translate(-88.31 -71.83)" fill="#4d4d4d"/><path d="M845.33,1028.07a7.73,7.73,0,0,1-2.21,5.94q-2.21,2.06-6.37,2.06H832.3v-15.71h4.93a8.3,8.3,0,0,1,6,2A7.47,7.47,0,0,1,845.33,1028.07Zm-3.46.09q0-5.06-4.47-5.06h-1.77v10.23h1.43Q841.88,1033.32,841.88,1028.16Z" transform="translate(-88.31 -71.83)" fill="#4d4d4d"/><path d="M857.63,1036.07h-9v-15.71h9v2.73h-5.71v3.45h5.32v2.73h-5.32v4h5.71Z" transform="translate(-88.31 -71.83)" fill="#4d4d4d"/><path d="M874.84,1036.07h-4.23l-6.83-11.88h-.1q.21,3.15.21,4.49v7.39h-3v-15.71h4.2l6.82,11.76H872q-.16-3.06-.16-4.33v-7.43h3Z" transform="translate(-88.31 -71.83)" fill="#4d4d4d"/><path d="M884.86,1036.07h-3.33v-12.93h-4.27v-2.77h11.86v2.77h-4.26Z" transform="translate(-88.31 -71.83)" fill="#4d4d4d"/><path d="M891.54,1036.07v-15.71h3.33v15.71Z" transform="translate(-88.31 -71.83)" fill="#4d4d4d"/><path d="M908.43,1036.07l-1.14-3.74h-5.72l-1.14,3.74h-3.59l5.54-15.77h4.07l5.56,15.77Zm-1.93-6.53q-1.58-5.08-1.78-5.75t-.29-1.05q-.35,1.37-2,6.8Z" transform="translate(-88.31 -71.83)" fill="#4d4d4d"/><path d="M914,1036.07v-15.71h3.33v13h6.37v2.75Z" transform="translate(-88.31 -71.83)" fill="#4d4d4d"/><path d="M935.7,1031.71a4.06,4.06,0,0,1-1.53,3.35,6.65,6.65,0,0,1-4.26,1.22,10,10,0,0,1-4.45-.95v-3.09a18.28,18.28,0,0,0,2.69,1,8,8,0,0,0,2,.29,2.86,2.86,0,0,0,1.68-.42,1.43,1.43,0,0,0,.58-1.25,1.38,1.38,0,0,0-.26-.82,2.89,2.89,0,0,0-.76-.69,19.65,19.65,0,0,0-2-1.06,9.6,9.6,0,0,1-2.16-1.3,4.87,4.87,0,0,1-1.15-1.45,4.14,4.14,0,0,1-.43-1.93,4.06,4.06,0,0,1,1.41-3.28,5.87,5.87,0,0,1,3.91-1.19,9.22,9.22,0,0,1,2.34.29,16.28,16.28,0,0,1,2.33.82l-1.07,2.59a15.84,15.84,0,0,0-2.08-.72,6.75,6.75,0,0,0-1.62-.2,2.15,2.15,0,0,0-1.45.44,1.46,1.46,0,0,0-.5,1.15,1.43,1.43,0,0,0,.2.77,2.25,2.25,0,0,0,.65.63,19.85,19.85,0,0,0,2.11,1.1,8.42,8.42,0,0,1,3,2.11A4.11,4.11,0,0,1,935.7,1031.71Z" transform="translate(-88.31 -71.83)" fill="#4d4d4d"/><path d="M960.37,928.46l-34.63-27-.2.07a21.17,21.17,0,0,0-7.86-19.86A21.72,21.72,0,0,0,891,916a21.19,21.19,0,0,0,21.56,2.59l7,5.42,9.46.12,1.48,6.66,7.06-.88,1.28,7.66,7.38-.92.92,7.38L962,941.51ZM897,899.3c-8.12,0-8.1-12.59,0-12.59S905.1,899.3,897,899.3Z" transform="translate(-88.31 -71.83)" fill="#727272"/><path d="M412,94.23q0,10.81-5.36,16.62t-15.37,5.81q-10,0-15.37-5.81t-5.36-16.68q0-10.87,5.38-16.6t15.41-5.73q10,0,15.35,5.78T412,94.23Zm-31.78,0q0,7.3,2.77,11t8.28,3.69q11.05,0,11.05-14.68t-11-14.71q-5.51,0-8.31,3.71T380.26,94.23Z" transform="translate(-88.31 -71.83)" fill="#4d4d4d"/><path d="M430.29,99.36v16.71h-9.23V72.52h12.69q8.88,0,13.14,3.23t4.26,9.81A11.56,11.56,0,0,1,449,92.4a14,14,0,0,1-6,4.69q9.83,14.68,12.81,19H445.6l-10.4-16.71Zm0-7.51h3q4.38,0,6.46-1.46a5.21,5.21,0,0,0,2.08-4.59,4.77,4.77,0,0,0-2.13-4.41q-2.13-1.31-6.6-1.31h-2.8Z" transform="translate(-88.31 -71.83)" fill="#4d4d4d"/><path d="M477.86,91.61h17.28v22.58a48.73,48.73,0,0,1-7.91,1.92,51.54,51.54,0,0,1-7.58.55q-9.86,0-15.06-5.79t-5.2-16.64q0-10.54,6-16.44t16.72-5.9a32.36,32.36,0,0,1,12.93,2.68L492,82a21.91,21.91,0,0,0-9.92-2.38,12.25,12.25,0,0,0-9.59,4q-3.6,4-3.6,10.81,0,7.09,2.9,10.83t8.44,3.74a29.85,29.85,0,0,0,5.87-.6V99.3h-8.25Z" transform="translate(-88.31 -71.83)" fill="#4d4d4d"/><path d="M532.16,116.07,529,105.7H513.13L510,116.07H500l15.37-43.72h11.29l15.43,43.72ZM526.8,98Q522.42,83.87,521.87,82t-.79-2.92q-1,3.81-5.63,18.85Z" transform="translate(-88.31 -71.83)" fill="#4d4d4d"/><path d="M586.22,116.07H574.48L555.54,83.12h-.27q.57,8.73.57,12.45v20.49h-8.25V72.52h11.65l18.91,32.61h.21q-.45-8.49-.45-12V72.52h8.31Z" transform="translate(-88.31 -71.83)" fill="#4d4d4d"/><path d="M597.18,116.07V72.52h9.23v43.55Z" transform="translate(-88.31 -71.83)" fill="#4d4d4d"/><path d="M645.76,116.07H613.35v-6l20.88-29.93H613.92V72.52h31.27v6l-20.85,30h21.42Z" transform="translate(-88.31 -71.83)" fill="#4d4d4d"/><path d="M679.36,116.07,676.2,105.7H660.33l-3.16,10.37h-9.95l15.37-43.72h11.29l15.43,43.72ZM674,98Q669.62,83.87,669.07,82t-.79-2.92q-1,3.81-5.63,18.85Z" transform="translate(-88.31 -71.83)" fill="#4d4d4d"/><path d="M711.59,116.07h-9.23V80.2H690.53V72.52h32.88V80.2H711.59Z" transform="translate(-88.31 -71.83)" fill="#4d4d4d"/><path d="M730.11,116.07V72.52h9.23v43.55Z" transform="translate(-88.31 -71.83)" fill="#4d4d4d"/><path d="M789.83,94.23q0,10.81-5.36,16.62t-15.37,5.81q-10,0-15.37-5.81t-5.36-16.68q0-10.87,5.38-16.6t15.41-5.73q10,0,15.35,5.78T789.83,94.23Zm-31.78,0q0,7.3,2.77,11t8.28,3.69q11,0,11-14.68t-11-14.71q-5.51,0-8.31,3.71T758.05,94.23Z" transform="translate(-88.31 -71.83)" fill="#4d4d4d"/><path d="M837.49,116.07H825.75L806.81,83.12h-.27q.57,8.73.57,12.45v20.49h-8.25V72.52H810.5l18.91,32.61h.21q-.45-8.49-.45-12V72.52h8.31Z" transform="translate(-88.31 -71.83)" fill="#4d4d4d"/><polygon points="1154.67 249.99 706.2 252.41 706.13 239.56 690.19 255.66 706.3 271.6 706.23 258.75 1154.71 256.34 1154.67 249.99" fill="#646464"/><path d="M1364.33,448V650.27a.48.48,0,0,1,0,.06h-3.48l-39.67.11-83.94.23-220.22.6,0-12.85-16,16.07,16.07,16,0-12.85,220.22-.6,83.94-.23,44.27-.12h5.2a.72.72,0,0,0,0-.1V448Z" transform="translate(-88.31 -71.83)" fill="#646464"/><polygon points="504.02 652.17 504.02 706.14 491.17 706.14 507.19 722.17 523.21 706.14 510.36 706.14 510.36 652.17 504.02 652.17" fill="#d22020"/><polygon points="240.02 651.17 240.02 705.14 227.16 705.14 243.19 721.17 259.21 705.14 246.36 705.14 246.36 651.17 240.02 651.17" fill="#d22020"/><polygon points="499.53 361.17 499.53 415.14 486.68 415.14 502.7 431.17 518.73 415.14 505.88 415.14 505.88 361.17 499.53 361.17" fill="#646464"/><polygon points="787.02 651.17 787.02 705.14 774.16 705.14 790.19 721.17 806.21 705.14 793.36 705.14 793.36 651.17 787.02 651.17" fill="#d22020"/><polygon points="504.02 992.17 504.02 1046.14 491.17 1046.14 507.19 1062.17 523.21 1046.14 510.36 1046.14 510.36 992.17 504.02 992.17" fill="#646464"/><path d="M511.5,1177.62a7.3,7.3,0,0,1-2-.24v-2.77a6.55,6.55,0,0,0,1.57.21,1.77,1.77,0,0,0,1.57-.68,3.8,3.8,0,0,0,.47-2.13V1157.3h3.33V1172a6.19,6.19,0,0,1-1.26,4.19A4.67,4.67,0,0,1,511.5,1177.62Z" transform="translate(-88.31 -71.83)" fill="#4d4d4d"/><path d="M534.68,1165.13a8.52,8.52,0,0,1-1.93,6,8.38,8.38,0,0,1-11.09,0,8.55,8.55,0,0,1-1.93-6,8.44,8.44,0,0,1,1.94-6,7.25,7.25,0,0,1,5.56-2.07,7.15,7.15,0,0,1,5.54,2.08A8.55,8.55,0,0,1,534.68,1165.13Zm-11.46,0a6.56,6.56,0,0,0,1,4,3.5,3.5,0,0,0,3,1.33q4,0,4-5.3t-4-5.31a3.52,3.52,0,0,0-3,1.34A6.53,6.53,0,0,0,523.22,1165.13Z" transform="translate(-88.31 -71.83)" fill="#4d4d4d"/><path d="M537.94,1157.3h4.89a9.42,9.42,0,0,1,4.85,1,3.31,3.31,0,0,1,1.51,3,3.81,3.81,0,0,1-.66,2.31,2.64,2.64,0,0,1-1.76,1.08v.11a3.46,3.46,0,0,1,2.15,1.25,4.05,4.05,0,0,1,.66,2.43,4,4,0,0,1-1.55,3.35,6.72,6.72,0,0,1-4.22,1.2h-5.88Zm3.33,6.22h1.93a3.54,3.54,0,0,0,2-.42,1.56,1.56,0,0,0,.61-1.39,1.39,1.39,0,0,0-.66-1.29A4.26,4.26,0,0,0,543,1160h-1.75Zm0,2.64v4.09h2.17a3.22,3.22,0,0,0,2-.53,1.94,1.94,0,0,0,.66-1.61q0-2-2.79-2Z" transform="translate(-88.31 -71.83)" fill="#4d4d4d"/><path d="M564.49,1173h-3.33v-12.93H556.9v-2.77h11.86v2.77h-4.26Z" transform="translate(-88.31 -71.83)" fill="#4d4d4d"/><path d="M580.22,1173h-9V1157.3h9V1160H574.5v3.45h5.32v2.73H574.5v4h5.71Z" transform="translate(-88.31 -71.83)" fill="#4d4d4d"/><path d="M590.15,1173l-3.78-12.32h-.1q.2,3.76.2,5v7.3h-3V1157.3H588l3.72,12h.06l3.94-12h4.53V1173h-3.1v-7.43q0-.53,0-1.21t.15-3.65h-.1l-4,12.3Z" transform="translate(-88.31 -71.83)" fill="#4d4d4d"/><path d="M615.09,1162.2a4.8,4.8,0,0,1-1.58,3.88,6.78,6.78,0,0,1-4.51,1.34h-1.43V1173h-3.33V1157.3h5a6.68,6.68,0,0,1,4.35,1.23A4.49,4.49,0,0,1,615.09,1162.2Zm-7.52,2.49h1.1a3.65,3.65,0,0,0,2.3-.61,2.12,2.12,0,0,0,.76-1.77,2.18,2.18,0,0,0-.64-1.73,3,3,0,0,0-2-.56h-1.51Z" transform="translate(-88.31 -71.83)" fill="#4d4d4d"/><path d="M618.05,1173V1157.3h3.33v13h6.37V1173Z" transform="translate(-88.31 -71.83)" fill="#4d4d4d"/><path d="M640.1,1173l-1.14-3.74h-5.73l-1.14,3.74h-3.59l5.54-15.77h4.07l5.56,15.77Zm-1.93-6.53q-1.58-5.08-1.78-5.75t-.28-1.05q-.35,1.38-2,6.8Z" transform="translate(-88.31 -71.83)" fill="#4d4d4d"/><path d="M651.72,1173h-3.33v-12.93h-4.26v-2.77H656v2.77h-4.26Z" transform="translate(-88.31 -71.83)" fill="#4d4d4d"/><path d="M667.45,1173h-9V1157.3h9V1160h-5.71v3.45H667v2.73h-5.32v4h5.71Z" transform="translate(-88.31 -71.83)" fill="#4d4d4d"/><path d="M680,1168.64a4.06,4.06,0,0,1-1.53,3.35,6.65,6.65,0,0,1-4.26,1.22,10,10,0,0,1-4.45-.95v-3.09a18.3,18.3,0,0,0,2.69,1,8,8,0,0,0,2,.29,2.87,2.87,0,0,0,1.68-.42,1.43,1.43,0,0,0,.58-1.25,1.38,1.38,0,0,0-.26-.82,2.9,2.9,0,0,0-.76-.69,19.71,19.71,0,0,0-2-1.06,9.65,9.65,0,0,1-2.16-1.3,4.86,4.86,0,0,1-1.15-1.45,4.14,4.14,0,0,1-.43-1.93,4.06,4.06,0,0,1,1.41-3.28,5.87,5.87,0,0,1,3.9-1.19,9.21,9.21,0,0,1,2.34.29,16.08,16.08,0,0,1,2.33.82l-1.07,2.59a15.71,15.71,0,0,0-2.08-.72,6.72,6.72,0,0,0-1.62-.2,2.14,2.14,0,0,0-1.45.44,1.45,1.45,0,0,0-.5,1.15,1.42,1.42,0,0,0,.2.77,2.24,2.24,0,0,0,.65.63,20.08,20.08,0,0,0,2.11,1.1,8.41,8.41,0,0,1,3,2.11A4.12,4.12,0,0,1,680,1168.64Z" transform="translate(-88.31 -71.83)" fill="#4d4d4d"/></svg>