<?xml version="1.0" encoding="utf-8"?>
<!-- Generator: Adobe Illustrator 21.0.2, SVG Export Plug-In . SVG Version: 6.00 Build 0)  -->
<svg version="1.1" id="Layer_1" xmlns="http://www.w3.org/2000/svg" xmlns:xlink="http://www.w3.org/1999/xlink" x="0px" y="0px"
	 viewBox="0 0 2000 1332" style="enable-background:new 0 0 2000 1332;" xml:space="preserve">
<style type="text/css">
	.st0{clip-path:url(#SVGID_4_);}
	.st1{clip-path:url(#SVGID_6_);fill:#BF4641;}
	.st2{clip-path:url(#SVGID_6_);fill:none;stroke:#C04641;stroke-width:1.4097;stroke-miterlimit:10;}
	.st3{clip-path:url(#SVGID_6_);fill:#646970;}
	.st4{clip-path:url(#SVGID_6_);fill:none;stroke:#656A71;stroke-width:1.4097;stroke-miterlimit:10;}
	.st5{clip-path:url(#SVGID_6_);fill:#125285;}
	.st6{clip-path:url(#SVGID_6_);fill:none;stroke:#0F5285;stroke-width:1.4097;stroke-miterlimit:10;}
	.st7{clip-path:url(#SVGID_6_);fill:#3E888A;}
	.st8{clip-path:url(#SVGID_6_);fill:none;stroke:#3F888A;stroke-width:1.4097;stroke-miterlimit:10;}
	.st9{clip-path:url(#SVGID_6_);fill:#2178BE;}
	.st10{clip-path:url(#SVGID_8_);}
	.st11{clip-path:url(#SVGID_10_);}
	.st12{clip-path:url(#SVGID_12_);fill:none;stroke:#2178BE;stroke-width:1.4097;stroke-miterlimit:10;}
	.st13{clip-path:url(#SVGID_14_);}
	.st14{clip-path:url(#SVGID_16_);fill:#5BBDBF;}
	.st15{clip-path:url(#SVGID_18_);}
	.st16{clip-path:url(#SVGID_20_);}
	.st17{clip-path:url(#SVGID_22_);fill:none;stroke:#5BBDBF;stroke-width:1.4097;stroke-miterlimit:10;}
	.st18{clip-path:url(#SVGID_24_);}
	.st19{clip-path:url(#SVGID_26_);fill:#848992;}
	.st20{clip-path:url(#SVGID_28_);}
	.st21{clip-path:url(#SVGID_30_);}
	.st22{clip-path:url(#SVGID_32_);fill:none;stroke:#848992;stroke-width:1.4097;stroke-miterlimit:10;}
	.st23{clip-path:url(#SVGID_34_);}
	.st24{clip-path:url(#SVGID_36_);fill:#F15B54;}
	.st25{clip-path:url(#SVGID_38_);}
	.st26{clip-path:url(#SVGID_40_);}
	.st27{clip-path:url(#SVGID_42_);fill:none;stroke:#F15A53;stroke-width:1.4097;stroke-miterlimit:10;}
	.st28{clip-path:url(#SVGID_44_);}
	.st29{fill:#1562B6;}
	.st30{fill:#FFFFFF;}
	.st31{fill:#4CB0B1;}
	.st32{fill:#717680;}
	.st33{fill:#FB3E3F;}
	.st34{clip-path:url(#SVGID_46_);}
	.st35{clip-path:url(#SVGID_48_);}
	.st36{clip-path:url(#SVGID_50_);fill:#231F20;}
	.st37{clip-path:url(#SVGID_52_);}
	.st38{clip-path:url(#SVGID_54_);fill:#FFFFFF;}
</style>
<g>
	<defs>
		<rect id="SVGID_1_" x="-168.9" y="-96.3" width="2144" height="1608"/>
	</defs>
	<clipPath id="SVGID_2_">
		<use xlink:href="#SVGID_1_"  style="overflow:visible;"/>
	</clipPath>
</g>
<g>
	<defs>
		<rect id="SVGID_3_" x="441.6" y="109.8" width="1179.6" height="1179.6"/>
	</defs>
	<clipPath id="SVGID_4_">
		<use xlink:href="#SVGID_3_"  style="overflow:visible;"/>
	</clipPath>
	<g class="st0">
		<defs>
			<rect id="SVGID_5_" x="441.6" y="109.8" width="1179.6" height="1179.6"/>
		</defs>
		<clipPath id="SVGID_6_">
			<use xlink:href="#SVGID_5_"  style="overflow:visible;"/>
		</clipPath>
		<path class="st1" d="M1281.5,704.4h-93.9c-4.6,81.9-69.7,146.9-151.6,151.5v94C1169.6,945.2,1276.8,838,1281.5,704.4"/>
		<path class="st2" d="M1281.5,704.4h-93.9c-4.6,81.9-69.7,146.9-151.6,151.5v94C1169.6,945.2,1276.8,838,1281.5,704.4z"/>
		<path class="st3" d="M866.6,704.4h-94c4.8,136.5,116.7,245.9,254.4,245.9v-93.5C941.1,856.7,871.4,789.2,866.6,704.4"/>
		<path class="st4" d="M866.6,704.4h-94c4.8,136.5,116.7,245.9,254.4,245.9v-93.5C941.1,856.7,871.4,789.2,866.6,704.4z"/>
		<path class="st5" d="M1027.1,534v-93.5c-140.8,0-254.9,114.1-254.9,254.9h93.5C865.7,606.3,938,534,1027.1,534"/>
		<path class="st6" d="M1027.1,534v-93.5c-140.8,0-254.9,114.1-254.9,254.9h93.5C865.7,606.3,938,534,1027.1,534z"/>
		<path class="st7" d="M1188.5,695.4h93.5c0-137.7-109.2-249.5-245.7-254.4v94C1121.1,539.8,1188.5,609.4,1188.5,695.4"/>
		<path class="st8" d="M1188.5,695.4h93.5c0-137.7-109.2-249.5-245.7-254.4v94C1121.1,539.8,1188.5,609.4,1188.5,695.4z"/>
		<path class="st9" d="M1027.3,472.7v-88.6l7.8,8.7c11.5,12.8,27.6,20.1,44.4,20.1c33.1,0,59.9-26.9,59.9-59.9
			c0-33.1-26.9-59.9-59.9-59.9c-16.8,0-33,7.3-44.4,20.1l-7.8,8.8V198.4c-16.9,0.2-33.7,1.1-50.2,2.8l-49.3-88.6
			c-34.9,6.1-68.6,15.3-101.2,27.2l1.8,101.4c-33.1,14.7-64.1,32.9-92.9,54.1l-87.6-52.5c-26.7,22.5-51.5,47.2-73.9,73.9l52.6,87.6
			c-21.1,28.9-39.4,60-54,93.1L471,495.9c-11.8,32.5-21,66.3-27.1,101.1l88.6,49.1c-1.7,16.2-2.5,32.6-2.7,49.3h106.3
			c-12.6-12.7-19.9-30-19.9-48.3c0-37.7,30.7-68.5,68.5-68.5c37.8,0,68.5,30.7,68.5,68.5c0,18.3-7.3,35.6-20,48.3h71.3
			C804.6,572.4,904.4,472.7,1027.3,472.7"/>
	</g>
</g>
<g>
	<defs>
		<rect id="SVGID_7_" x="441.6" y="109.8" width="1179.6" height="1179.6"/>
	</defs>
	<clipPath id="SVGID_8_">
		<use xlink:href="#SVGID_7_"  style="overflow:visible;"/>
	</clipPath>
	<g class="st10">
		<defs>
			<rect id="SVGID_9_" x="441.6" y="110.2" width="1179.2" height="1179.1"/>
		</defs>
		<clipPath id="SVGID_10_">
			<use xlink:href="#SVGID_9_"  style="overflow:visible;"/>
		</clipPath>
		<g class="st11">
			<defs>
				<rect id="SVGID_11_" x="441.6" y="109.8" width="1179.6" height="1179.6"/>
			</defs>
			<clipPath id="SVGID_12_">
				<use xlink:href="#SVGID_11_"  style="overflow:visible;"/>
			</clipPath>
			<path class="st12" d="M1027.3,472.7v-88.6l7.8,8.7c11.5,12.8,27.6,20.1,44.4,20.1c33.1,0,59.9-26.9,59.9-59.9
				c0-33.1-26.9-59.9-59.9-59.9c-16.8,0-33,7.3-44.4,20.1l-7.8,8.8V198.4c-16.9,0.2-33.7,1.1-50.2,2.8l-49.3-88.6
				c-34.9,6.1-68.6,15.3-101.2,27.2l1.8,101.4c-33.1,14.7-64.1,32.9-92.9,54.1l-87.6-52.5c-26.7,22.5-51.5,47.2-73.9,73.9l52.6,87.6
				c-21.1,28.9-39.4,60-54,93.1L471,495.9c-11.8,32.5-21,66.3-27.1,101.1l88.6,49.1c-1.7,16.2-2.5,32.6-2.7,49.3h106.3
				c-12.6-12.7-19.9-30-19.9-48.3c0-37.7,30.7-68.5,68.5-68.5c37.8,0,68.5,30.7,68.5,68.5c0,18.3-7.3,35.6-20,48.3h71.3
				C804.6,572.4,904.4,472.7,1027.3,472.7z"/>
		</g>
	</g>
</g>
<g>
	<defs>
		<rect id="SVGID_13_" x="441.6" y="109.8" width="1179.6" height="1179.6"/>
	</defs>
	<clipPath id="SVGID_14_">
		<use xlink:href="#SVGID_13_"  style="overflow:visible;"/>
	</clipPath>
	<g class="st13">
		<defs>
			<rect id="SVGID_15_" x="441.6" y="109.8" width="1179.6" height="1179.6"/>
		</defs>
		<clipPath id="SVGID_16_">
			<use xlink:href="#SVGID_15_"  style="overflow:visible;"/>
		</clipPath>
		<path class="st14" d="M1250,695.4h104.7l-11.3,8.1c-4.1,2.9-7.5,5.9-10.3,9c-9.9,11.2-15.4,25.3-15.4,39.8
			c0,14.5,5.5,28.6,15.4,39.8c11.5,12.8,27.6,20.1,44.4,20.1c33,0,59.9-26.9,59.9-59.9c0-19.3-9.5-37.5-25.4-48.8l-11.4-8.1h131.9
			c-0.1-16.8-1-33.5-2.8-49.8l88.6-49.3c-6.1-34.9-15.3-68.6-27.2-101.2l-101.5,1.8c-14.7-33.1-32.9-64-54-92.8l52.5-87.7
			c-22.5-26.7-47.2-51.4-74-73.9l-87.6,52.6c-28.8-21.1-59.9-39.4-93-54l1.6-101.5c-32.6-11.8-66.3-21-101.2-27l-49.1,88.6
			c-15.9-1.7-32.1-2.5-48.6-2.7v101.3c12.2-10,27.5-15.6,43.2-15.6c38,0,68.9,30.9,68.9,68.9c0,38-31,68.8-68.9,68.8
			c-15.7,0-31-5.6-43.2-15.6v66.9C1155.1,477.9,1250,575.4,1250,695.4"/>
	</g>
</g>
<g>
	<defs>
		<rect id="SVGID_17_" x="441.6" y="109.8" width="1179.6" height="1179.6"/>
	</defs>
	<clipPath id="SVGID_18_">
		<use xlink:href="#SVGID_17_"  style="overflow:visible;"/>
	</clipPath>
	<g class="st15">
		<defs>
			<rect id="SVGID_19_" x="441.6" y="110.2" width="1179.2" height="1179.1"/>
		</defs>
		<clipPath id="SVGID_20_">
			<use xlink:href="#SVGID_19_"  style="overflow:visible;"/>
		</clipPath>
		<g class="st16">
			<defs>
				<rect id="SVGID_21_" x="441.6" y="109.8" width="1179.6" height="1179.6"/>
			</defs>
			<clipPath id="SVGID_22_">
				<use xlink:href="#SVGID_21_"  style="overflow:visible;"/>
			</clipPath>
			<path class="st17" d="M1250,695.4h104.7l-11.3,8.1c-4.1,2.9-7.5,5.9-10.3,9c-9.9,11.2-15.4,25.3-15.4,39.8
				c0,14.5,5.5,28.6,15.4,39.8c11.5,12.8,27.6,20.1,44.4,20.1c33,0,59.9-26.9,59.9-59.9c0-19.3-9.5-37.5-25.4-48.8l-11.4-8.1h131.9
				c-0.1-16.8-1-33.5-2.8-49.8l88.6-49.3c-6.1-34.9-15.3-68.6-27.2-101.2l-101.5,1.8c-14.7-33.1-32.9-64-54-92.8l52.5-87.7
				c-22.5-26.7-47.2-51.4-74-73.9l-87.6,52.6c-28.8-21.1-59.9-39.4-93-54l1.6-101.5c-32.6-11.8-66.3-21-101.2-27l-49.1,88.6
				c-15.9-1.7-32.1-2.5-48.6-2.7v101.3c12.2-10,27.5-15.6,43.2-15.6c38,0,68.9,30.9,68.9,68.9c0,38-31,68.8-68.9,68.8
				c-15.7,0-31-5.6-43.2-15.6v66.9C1155.1,477.9,1250,575.4,1250,695.4z"/>
		</g>
	</g>
</g>
<g>
	<defs>
		<rect id="SVGID_23_" x="441.6" y="109.8" width="1179.6" height="1179.6"/>
	</defs>
	<clipPath id="SVGID_24_">
		<use xlink:href="#SVGID_23_"  style="overflow:visible;"/>
	</clipPath>
	<g class="st18">
		<defs>
			<rect id="SVGID_25_" x="441.6" y="109.8" width="1179.6" height="1179.6"/>
		</defs>
		<clipPath id="SVGID_26_">
			<use xlink:href="#SVGID_25_"  style="overflow:visible;"/>
		</clipPath>
		<path class="st19" d="M805.1,704.4h-98.7l12-8.2c16.2-11.1,25.9-29.5,25.9-49.1c0-32.8-26.7-59.5-59.5-59.5
			c-32.8,0-59.5,26.7-59.5,59.5c0,19.6,9.7,38,25.9,49.1l11.9,8.2H529.9c0.1,16.7,1,33.3,2.8,49.6l-88.6,49.3
			c6.1,34.9,15.3,68.6,27.2,101l101.5-1.7c14.6,33,32.9,64.1,54,92.9l-52.5,87.7c22.5,26.7,47.2,51.4,74,73.9l87.7-52.6
			c28.8,21.1,59.9,39.4,93,54l-1.6,101.5c32.6,11.8,66.3,21,101.2,27l49.1-88.6c16.2,1.8,32.6,2.5,49.3,2.7v-102.1
			c-12.3,10.1-27.6,15.8-43.4,15.8c-37.7,0-68.5-30.8-68.5-68.5c0-37.8,30.8-68.5,68.5-68.5c15.9,0,31.2,5.7,43.4,15.9l0.1-75.5
			C907.2,917.9,809.8,823.1,805.1,704.4"/>
	</g>
</g>
<g>
	<defs>
		<rect id="SVGID_27_" x="441.6" y="109.8" width="1179.6" height="1179.6"/>
	</defs>
	<clipPath id="SVGID_28_">
		<use xlink:href="#SVGID_27_"  style="overflow:visible;"/>
	</clipPath>
	<g class="st20">
		<defs>
			<rect id="SVGID_29_" x="441.6" y="110.2" width="1179.2" height="1179.1"/>
		</defs>
		<clipPath id="SVGID_30_">
			<use xlink:href="#SVGID_29_"  style="overflow:visible;"/>
		</clipPath>
		<g class="st21">
			<defs>
				<rect id="SVGID_31_" x="441.6" y="109.8" width="1179.6" height="1179.6"/>
			</defs>
			<clipPath id="SVGID_32_">
				<use xlink:href="#SVGID_31_"  style="overflow:visible;"/>
			</clipPath>
			<path class="st22" d="M805.1,704.4h-98.7l12-8.2c16.2-11.1,25.9-29.5,25.9-49.1c0-32.8-26.7-59.5-59.5-59.5
				c-32.8,0-59.5,26.7-59.5,59.5c0,19.6,9.7,38,25.9,49.1l11.9,8.2H529.9c0.1,16.7,1,33.3,2.8,49.6l-88.6,49.3
				c6.1,34.9,15.3,68.6,27.2,101l101.5-1.7c14.6,33,32.9,64.1,54,92.9l-52.5,87.7c22.5,26.7,47.2,51.4,74,73.9l87.7-52.6
				c28.8,21.1,59.9,39.4,93,54l-1.6,101.5c32.6,11.8,66.3,21,101.2,27l49.1-88.6c16.2,1.8,32.6,2.5,49.3,2.7v-102.1
				c-12.3,10.1-27.6,15.8-43.4,15.8c-37.7,0-68.5-30.8-68.5-68.5c0-37.8,30.8-68.5,68.5-68.5c15.9,0,31.2,5.7,43.4,15.9l0.1-75.5
				C907.2,917.9,809.8,823.1,805.1,704.4z"/>
		</g>
	</g>
</g>
<g>
	<defs>
		<rect id="SVGID_33_" x="441.6" y="109.8" width="1179.6" height="1179.6"/>
	</defs>
	<clipPath id="SVGID_34_">
		<use xlink:href="#SVGID_33_"  style="overflow:visible;"/>
	</clipPath>
	<g class="st23">
		<defs>
			<rect id="SVGID_35_" x="441.6" y="109.8" width="1179.6" height="1179.6"/>
		</defs>
		<clipPath id="SVGID_36_">
			<use xlink:href="#SVGID_35_"  style="overflow:visible;"/>
		</clipPath>
		<path class="st24" d="M1529.9,753.3c1.7-16.1,2.5-32.4,2.7-48.9h-105.8c12.4,12.8,19.6,30,19.6,48c0,38-30.9,68.9-68.9,68.9
			c-19.3,0-37.9-8.4-51.1-23c-11.4-12.9-17.8-29.1-17.8-45.8c0-16.8,6.3-33,17.8-45.8c0.7-0.8,1.3-1.5,2.1-2.2h-78.9
			c-4.6,115.9-97.6,208.8-213.5,213.3l-0.1,98.6l-7.9-9.1c-11.4-13-27.6-20.4-44.6-20.4c-32.8,0-59.5,26.7-59.5,59.5
			c0,32.8,26.7,59.5,59.5,59.5c16.9,0,33.1-7.4,44.6-20.4l7.9-9V1201c16.7-0.1,33.3-1.1,49.6-2.8l49.3,88.6
			c34.9-6.1,68.7-15.3,101.1-27.2l-1.8-101.5c33-14.7,64.1-32.9,92.9-54l87.7,52.5c26.7-22.5,51.5-47.2,73.9-74L1436,995
			c21.1-28.8,39.4-59.9,54-93l101.5,1.6c11.8-32.5,21-66.3,27-101.1L1529.9,753.3"/>
	</g>
</g>
<g>
	<defs>
		<rect id="SVGID_37_" x="441.6" y="109.8" width="1179.6" height="1179.6"/>
	</defs>
	<clipPath id="SVGID_38_">
		<use xlink:href="#SVGID_37_"  style="overflow:visible;"/>
	</clipPath>
	<g class="st25">
		<defs>
			<rect id="SVGID_39_" x="441.6" y="110.2" width="1179.2" height="1179.1"/>
		</defs>
		<clipPath id="SVGID_40_">
			<use xlink:href="#SVGID_39_"  style="overflow:visible;"/>
		</clipPath>
		<g class="st26">
			<defs>
				<rect id="SVGID_41_" x="441.6" y="109.8" width="1179.6" height="1179.6"/>
			</defs>
			<clipPath id="SVGID_42_">
				<use xlink:href="#SVGID_41_"  style="overflow:visible;"/>
			</clipPath>
			<path class="st27" d="M1529.9,753.3c1.7-16.1,2.5-32.4,2.7-48.9h-105.8c12.4,12.8,19.6,30,19.6,48c0,38-30.9,68.9-68.9,68.9
				c-19.3,0-37.9-8.4-51.1-23c-11.4-12.9-17.8-29.1-17.8-45.8c0-16.8,6.3-33,17.8-45.8c0.7-0.8,1.3-1.5,2.1-2.2h-78.9
				c-4.6,115.9-97.6,208.8-213.5,213.3l-0.1,98.6l-7.9-9.1c-11.4-13-27.6-20.4-44.6-20.4c-32.8,0-59.5,26.7-59.5,59.5
				c0,32.8,26.7,59.5,59.5,59.5c16.9,0,33.1-7.4,44.6-20.4l7.9-9V1201c16.7-0.1,33.3-1.1,49.6-2.8l49.3,88.6
				c34.9-6.1,68.7-15.3,101.1-27.2l-1.8-101.5c33-14.7,64.1-32.9,92.9-54l87.7,52.5c26.7-22.5,51.5-47.2,73.9-74L1436,995
				c21.1-28.8,39.4-59.9,54-93l101.5,1.6c11.8-32.5,21-66.3,27-101.1L1529.9,753.3z"/>
		</g>
	</g>
</g>
<g>
	<defs>
		<rect id="SVGID_43_" x="-46.9" y="-173.3" width="2144" height="1608"/>
	</defs>
	<clipPath id="SVGID_44_">
		<use xlink:href="#SVGID_43_"  style="overflow:visible;"/>
	</clipPath>
	<g class="st28">
		<path class="st29" d="M207.6,339.4l-2.2-7.1h-10.8l-2.2,7.1h-6.8l10.5-29.9h7.7l10.5,29.9H207.6z M203.9,327.1
			c-2-6.4-3.1-10-3.4-10.9c-0.3-0.8-0.4-1.5-0.5-2c-0.4,1.7-1.7,6-3.8,12.9H203.9z"/>
		<path class="st29" d="M238.7,319c0,3.2-1,5.7-3,7.3c-2,1.7-4.8,2.5-8.5,2.5h-2.7v10.6h-6.3v-29.8h9.5c3.6,0,6.4,0.8,8.2,2.3
			C237.8,313.6,238.7,315.9,238.7,319z M224.4,323.7h2.1c1.9,0,3.4-0.4,4.4-1.2c1-0.8,1.4-1.9,1.4-3.3c0-1.5-0.4-2.6-1.2-3.3
			c-0.8-0.7-2.1-1.1-3.8-1.1h-2.9V323.7z"/>
		<path class="st29" d="M264.9,319c0,3.2-1,5.7-3,7.3c-2,1.7-4.8,2.5-8.5,2.5h-2.7v10.6h-6.3v-29.8h9.5c3.6,0,6.4,0.8,8.2,2.3
			C263.9,313.6,264.9,315.9,264.9,319z M250.6,323.7h2.1c1.9,0,3.4-0.4,4.4-1.2c1-0.8,1.4-1.9,1.4-3.3c0-1.5-0.4-2.6-1.2-3.3
			c-0.8-0.7-2.1-1.1-3.8-1.1h-2.9V323.7z"/>
		<path class="st29" d="M270.5,339.4v-29.8h6.3v24.5h12.1v5.2H270.5z"/>
		<path class="st29" d="M294,339.4v-29.8h6.3v29.8H294z"/>
		<path class="st29" d="M320.5,314.5c-2.4,0-4.2,0.9-5.5,2.7c-1.3,1.8-2,4.3-2,7.5c0,6.6,2.5,10,7.5,10c2.1,0,4.6-0.5,7.6-1.6v5.3
			c-2.4,1-5.2,1.5-8.2,1.5c-4.3,0-7.6-1.3-9.9-3.9s-3.4-6.4-3.4-11.3c0-3.1,0.6-5.8,1.7-8.1c1.1-2.3,2.7-4.1,4.9-5.4
			c2.1-1.2,4.6-1.9,7.4-1.9c2.9,0,5.8,0.7,8.7,2.1l-2,5.1c-1.1-0.5-2.2-1-3.4-1.4C322.7,314.7,321.6,314.5,320.5,314.5z"/>
		<path class="st29" d="M352.6,339.4l-2.2-7.1h-10.8l-2.2,7.1h-6.8l10.5-29.9h7.7l10.5,29.9H352.6z M349,327.1
			c-2-6.4-3.1-10-3.4-10.9c-0.3-0.8-0.4-1.5-0.5-2c-0.4,1.7-1.7,6-3.8,12.9H349z"/>
		<path class="st29" d="M374.7,339.4h-6.3v-24.5h-8.1v-5.3h22.5v5.3h-8.1V339.4z"/>
		<path class="st29" d="M387.3,339.4v-29.8h6.3v29.8H387.3z"/>
		<path class="st29" d="M428.1,324.5c0,4.9-1.2,8.7-3.7,11.4c-2.4,2.6-5.9,4-10.5,4c-4.6,0-8.1-1.3-10.5-4
			c-2.4-2.6-3.7-6.4-3.7-11.4s1.2-8.7,3.7-11.3c2.4-2.6,6-3.9,10.5-3.9s8.1,1.3,10.5,3.9S428.1,319.6,428.1,324.5z M406.4,324.5
			c0,3.3,0.6,5.8,1.9,7.5c1.3,1.7,3.1,2.5,5.7,2.5c5,0,7.6-3.3,7.6-10c0-6.7-2.5-10.1-7.5-10.1c-2.5,0-4.4,0.8-5.7,2.5
			C407,318.7,406.4,321.2,406.4,324.5z"/>
		<path class="st29" d="M460.7,339.4h-8l-12.9-22.5h-0.2c0.3,4,0.4,6.8,0.4,8.5v14h-5.6v-29.8h8l12.9,22.3h0.1
			c-0.2-3.9-0.3-6.6-0.3-8.2v-14.1h5.7V339.4z"/>
	</g>
	<g class="st28">
		<path class="st29" d="M209.1,371.9c0,4.9-1.4,8.7-4.2,11.3c-2.8,2.6-6.8,3.9-12.1,3.9h-8.4v-29.8h9.3c4.9,0,8.6,1.3,11.3,3.8
			S209.1,367.3,209.1,371.9z M202.5,372.1c0-6.4-2.8-9.6-8.5-9.6h-3.4v19.4h2.7C199.5,381.9,202.5,378.6,202.5,372.1z"/>
		<path class="st29" d="M232.4,387.1h-17.1v-29.8h17.1v5.2h-10.8v6.5h10.1v5.2h-10.1v7.7h10.8V387.1z"/>
		<path class="st29" d="M259.1,366.6c0,3.2-1,5.7-3,7.3c-2,1.7-4.8,2.5-8.5,2.5h-2.7v10.6h-6.3v-29.8h9.5c3.6,0,6.4,0.8,8.2,2.3
			C258.2,361.2,259.1,363.5,259.1,366.6z M244.9,371.3h2.1c1.9,0,3.4-0.4,4.4-1.2c1-0.8,1.4-1.9,1.4-3.3c0-1.5-0.4-2.6-1.2-3.3
			c-0.8-0.7-2.1-1.1-3.8-1.1h-2.9V371.3z"/>
		<path class="st29" d="M264.8,387.1v-29.8h6.3v24.5h12.1v5.2H264.8z"/>
		<path class="st29" d="M315.3,372.2c0,4.9-1.2,8.7-3.7,11.4c-2.4,2.6-5.9,4-10.5,4c-4.6,0-8.1-1.3-10.5-4
			c-2.4-2.6-3.7-6.4-3.7-11.4s1.2-8.7,3.7-11.3c2.4-2.6,6-3.9,10.5-3.9s8.1,1.3,10.5,3.9S315.3,367.2,315.3,372.2z M293.6,372.2
			c0,3.3,0.6,5.8,1.9,7.5c1.3,1.7,3.1,2.5,5.7,2.5c5,0,7.6-3.3,7.6-10c0-6.7-2.5-10.1-7.5-10.1c-2.5,0-4.4,0.8-5.7,2.5
			C294.2,366.3,293.6,368.8,293.6,372.2z"/>
		<path class="st29" d="M330.7,369.6l6.2-12.3h6.8l-9.9,18.2v11.6h-6.3v-11.4l-9.9-18.4h6.8L330.7,369.6z"/>
		<path class="st29" d="M360.1,387.1l-7.2-23.3h-0.2c0.3,4.8,0.4,7.9,0.4,9.5v13.8h-5.6v-29.8h8.6l7,22.8h0.1l7.5-22.8h8.6v29.8
			h-5.9V373c0-0.7,0-1.4,0-2.3c0-0.9,0.1-3.2,0.3-6.9h-0.2l-7.7,23.3H360.1z"/>
		<path class="st29" d="M403.9,387.1h-17.1v-29.8h17.1v5.2h-10.8v6.5h10.1v5.2h-10.1v7.7h10.8V387.1z"/>
		<path class="st29" d="M436.6,387.1h-8l-12.9-22.5h-0.2c0.3,4,0.4,6.8,0.4,8.5v14h-5.6v-29.8h8l12.9,22.3h0.1
			c-0.2-3.9-0.3-6.6-0.3-8.2v-14.1h5.7V387.1z"/>
		<path class="st29" d="M455.5,387.1h-6.3v-24.5h-8.1v-5.3h22.5v5.3h-8.1V387.1z"/>
	</g>
	<g class="st28">
		<path class="st30" d="M754.3,896.6c-3.3,0-5.9,1.1-7.7,3.3c-1.9,2.2-2.8,5.2-2.8,8.9c0,3.9,0.9,6.9,2.7,9c1.8,2.1,4.4,3.2,7.8,3.2
			c2.1,0,4.4-0.4,7.1-1.1v3c-2.1,0.8-4.6,1.2-7.6,1.2c-4.4,0-7.8-1.3-10.1-4c-2.4-2.7-3.6-6.4-3.6-11.3c0-3.1,0.6-5.8,1.7-8.1
			c1.1-2.3,2.8-4.1,5-5.3c2.2-1.2,4.7-1.9,7.6-1.9c3.1,0,5.8,0.6,8.2,1.7l-1.5,3C758.8,897.1,756.5,896.6,754.3,896.6z"/>
		<path class="st30" d="M781.7,923.7v-14.4c0-1.8-0.4-3.2-1.2-4.1c-0.8-0.9-2.1-1.3-3.9-1.3c-2.3,0-4.1,0.6-5.1,1.9
			c-1.1,1.3-1.6,3.4-1.6,6.3v11.7h-3.4V892h3.4v9.6c0,1.2-0.1,2.1-0.2,2.9h0.2c0.7-1.1,1.6-1.9,2.8-2.5c1.2-0.6,2.6-0.9,4.2-0.9
			c2.7,0,4.8,0.6,6.1,1.9c1.4,1.3,2,3.4,2,6.2v14.6H781.7z"/>
		<path class="st30" d="M800.6,924.1c-3.3,0-5.9-1-7.8-3c-1.9-2-2.9-4.8-2.9-8.4c0-3.6,0.9-6.5,2.7-8.6c1.8-2.1,4.1-3.2,7.1-3.2
			c2.8,0,5,0.9,6.6,2.8s2.4,4.3,2.4,7.3v2.1h-15.4c0.1,2.6,0.7,4.6,2,6c1.3,1.4,3,2,5.3,2c2.4,0,4.8-0.5,7.1-1.5v3
			c-1.2,0.5-2.3,0.9-3.4,1.1S802.1,924.1,800.6,924.1z M799.7,903.8c-1.8,0-3.2,0.6-4.3,1.8c-1.1,1.2-1.7,2.8-1.9,4.8h11.7
			c0-2.1-0.5-3.8-1.4-4.9C802.8,904.4,801.4,903.8,799.7,903.8z"/>
		<path class="st30" d="M823.7,904H818v19.7h-3.4V904h-4v-1.5l4-1.2V900c0-5.5,2.4-8.2,7.2-8.2c1.2,0,2.6,0.2,4.2,0.7l-0.9,2.7
			c-1.3-0.4-2.4-0.6-3.3-0.6c-1.3,0-2.2,0.4-2.8,1.3c-0.6,0.8-0.9,2.2-0.9,4.1v1.4h5.7V904z"/>
	</g>
	<g class="st28">
		<path class="st30" d="M736,951.3c0,3-1,5.3-3.1,7c-2.1,1.6-5,2.4-8.8,2.4h-3.5v11.7h-3.5v-29.8h7.7
			C732.3,942.6,736,945.5,736,951.3z M720.6,957.7h3.1c3.1,0,5.3-0.5,6.7-1.5c1.4-1,2.1-2.6,2.1-4.8c0-2-0.6-3.4-1.9-4.4
			c-1.3-1-3.3-1.4-6-1.4h-3.9V957.7z"/>
		<path class="st30" d="M744.1,950.1v14.5c0,1.8,0.4,3.2,1.2,4.1c0.8,0.9,2.1,1.3,3.9,1.3c2.3,0,4-0.6,5.1-1.9
			c1.1-1.3,1.6-3.4,1.6-6.2v-11.7h3.4v22.3h-2.8l-0.5-3h-0.2c-0.7,1.1-1.7,1.9-2.9,2.5c-1.2,0.6-2.6,0.9-4.2,0.9
			c-2.7,0-4.7-0.6-6.1-1.9c-1.4-1.3-2-3.4-2-6.2v-14.6H744.1z"/>
		<path class="st30" d="M776,972.8c-1.5,0-2.8-0.3-4-0.8c-1.2-0.5-2.2-1.4-3-2.5h-0.2c0.2,1.3,0.2,2.5,0.2,3.7v9.2h-3.4v-32.3h2.7
			l0.5,3.1h0.2c0.9-1.2,1.9-2.1,3-2.6c1.2-0.5,2.5-0.8,4-0.8c3,0,5.2,1,6.8,3c1.6,2,2.4,4.9,2.4,8.5c0,3.7-0.8,6.5-2.5,8.5
			C781.1,971.8,778.9,972.8,776,972.8z M775.5,952.5c-2.3,0-3.9,0.6-4.9,1.9c-1,1.3-1.5,3.3-1.6,6v0.8c0,3.1,0.5,5.4,1.6,6.7
			c1,1.4,2.7,2,5,2c1.9,0,3.4-0.8,4.5-2.3c1.1-1.6,1.6-3.7,1.6-6.5c0-2.8-0.5-4.9-1.6-6.4C779,953.3,777.5,952.5,775.5,952.5z"/>
		<path class="st30" d="M800.6,972.8c-1.5,0-2.8-0.3-4-0.8c-1.2-0.5-2.2-1.4-3-2.5h-0.2c0.2,1.3,0.2,2.5,0.2,3.7v9.2h-3.4v-32.3h2.7
			l0.5,3.1h0.2c0.9-1.2,1.9-2.1,3-2.6c1.2-0.5,2.5-0.8,4-0.8c3,0,5.2,1,6.8,3c1.6,2,2.4,4.9,2.4,8.5c0,3.7-0.8,6.5-2.5,8.5
			C805.8,971.8,803.6,972.8,800.6,972.8z M800.2,952.5c-2.3,0-3.9,0.6-4.9,1.9c-1,1.3-1.5,3.3-1.6,6v0.8c0,3.1,0.5,5.4,1.6,6.7
			c1,1.4,2.7,2,5,2c1.9,0,3.4-0.8,4.5-2.3c1.1-1.6,1.6-3.7,1.6-6.5c0-2.8-0.5-4.9-1.6-6.4C803.7,953.3,802.1,952.5,800.2,952.5z"/>
		<path class="st30" d="M824.4,972.8c-3.3,0-5.9-1-7.8-3c-1.9-2-2.9-4.8-2.9-8.4c0-3.6,0.9-6.5,2.7-8.6c1.8-2.1,4.1-3.2,7.1-3.2
			c2.8,0,5,0.9,6.6,2.8s2.4,4.3,2.4,7.3v2.1h-15.4c0.1,2.6,0.7,4.6,2,6c1.3,1.4,3,2,5.3,2c2.4,0,4.8-0.5,7.1-1.5v3
			c-1.2,0.5-2.3,0.9-3.4,1.1S825.9,972.8,824.4,972.8z M823.4,952.5c-1.8,0-3.2,0.6-4.3,1.8c-1.1,1.2-1.7,2.8-1.9,4.8h11.7
			c0-2.1-0.5-3.8-1.4-4.9C826.6,953.1,825.2,952.5,823.4,952.5z"/>
		<path class="st30" d="M844.7,970c0.6,0,1.2,0,1.7-0.1c0.6-0.1,1-0.2,1.3-0.3v2.6c-0.4,0.2-0.9,0.3-1.6,0.4
			c-0.7,0.1-1.4,0.2-1.9,0.2c-4.3,0-6.5-2.3-6.5-6.8v-13.3h-3.2v-1.6l3.2-1.4l1.4-4.8h2v5.2h6.5v2.6h-6.5v13.1c0,1.3,0.3,2.4,1,3.1
			C842.7,969.7,843.5,970,844.7,970z"/>
	</g>
	<g class="st28">
		<path class="st30" d="M711.3,995.9c-3.3,0-5.9,1.1-7.7,3.3c-1.9,2.2-2.8,5.2-2.8,8.9c0,3.9,0.9,6.9,2.7,9c1.8,2.1,4.4,3.2,7.8,3.2
			c2.1,0,4.4-0.4,7.1-1.1v3c-2.1,0.8-4.6,1.2-7.6,1.2c-4.4,0-7.8-1.3-10.1-4c-2.4-2.7-3.6-6.4-3.6-11.3c0-3.1,0.6-5.8,1.7-8.1
			c1.1-2.3,2.8-4.1,5-5.3c2.2-1.2,4.7-1.9,7.6-1.9c3.1,0,5.8,0.6,8.2,1.7l-1.5,3C715.8,996.5,713.5,995.9,711.3,995.9z"/>
		<path class="st30" d="M727.4,1023H724v-29.8h16.6v3.1h-13.1v10.9h12.3v3.1h-12.3V1023z"/>
		<path class="st30" d="M761.2,1023h-16.6v-29.8h16.6v3.1h-13.1v9.6h12.3v3.1h-12.3v11h13.1V1023z"/>
		<path class="st30" d="M781.7,1023v-14.4c0-1.8-0.4-3.2-1.2-4.1c-0.8-0.9-2.1-1.3-3.9-1.3c-2.3,0-4,0.6-5.1,1.9
			c-1.1,1.3-1.6,3.3-1.6,6.2v11.7h-3.4v-22.3h2.7l0.5,3.1h0.2c0.7-1.1,1.7-2,2.9-2.6c1.2-0.6,2.6-0.9,4.2-0.9c2.7,0,4.7,0.6,6.1,1.9
			s2,3.4,2,6.2v14.6H781.7z"/>
		<path class="st30" d="M809.4,1000.7v2.1l-4.1,0.5c0.4,0.5,0.7,1.1,1,1.9c0.3,0.8,0.4,1.6,0.4,2.6c0,2.2-0.7,3.9-2.2,5.2
			s-3.5,2-6.1,2c-0.7,0-1.3-0.1-1.9-0.2c-1.4,0.8-2.2,1.7-2.2,2.9c0,0.6,0.3,1.1,0.8,1.4s1.4,0.4,2.6,0.4h3.9c2.4,0,4.3,0.5,5.6,1.5
			c1.3,1,1.9,2.5,1.9,4.4c0,2.5-1,4.4-3,5.6c-2,1.3-4.9,1.9-8.7,1.9c-2.9,0-5.2-0.5-6.7-1.6c-1.6-1.1-2.4-2.6-2.4-4.6
			c0-1.4,0.4-2.5,1.3-3.5c0.9-1,2.1-1.7,3.7-2c-0.6-0.3-1-0.7-1.4-1.2s-0.6-1.2-0.6-1.9c0-0.8,0.2-1.5,0.7-2.1
			c0.4-0.6,1.1-1.2,2.1-1.8c-1.2-0.5-2.1-1.3-2.8-2.4c-0.7-1.1-1.1-2.4-1.1-3.9c0-2.4,0.7-4.3,2.2-5.6c1.5-1.3,3.5-2,6.2-2
			c1.2,0,2.2,0.1,3.2,0.4H809.4z M791.6,1026.8c0,1.2,0.5,2.1,1.5,2.7c1,0.6,2.5,0.9,4.4,0.9c2.8,0,4.9-0.4,6.3-1.3
			c1.4-0.8,2-2,2-3.5c0-1.2-0.4-2-1.1-2.5c-0.7-0.5-2.2-0.7-4.2-0.7h-4.1c-1.5,0-2.7,0.4-3.6,1.1
			C792,1024.3,791.6,1025.4,791.6,1026.8z M793.4,1007.8c0,1.6,0.4,2.7,1.3,3.5c0.9,0.8,2.1,1.2,3.7,1.2c3.3,0,4.9-1.6,4.9-4.8
			c0-3.4-1.7-5-5-5c-1.6,0-2.8,0.4-3.7,1.3C793.8,1004.9,793.4,1006.2,793.4,1007.8z"/>
		<path class="st30" d="M812.8,994.7c0-0.8,0.2-1.3,0.6-1.7c0.4-0.4,0.9-0.5,1.4-0.5c0.5,0,1,0.2,1.4,0.5c0.4,0.4,0.6,0.9,0.6,1.7
			s-0.2,1.3-0.6,1.7c-0.4,0.4-0.9,0.6-1.4,0.6c-0.6,0-1-0.2-1.4-0.6C813,996,812.8,995.4,812.8,994.7z M816.5,1023h-3.4v-22.3h3.4
			V1023z"/>
		<path class="st30" d="M838,1023v-14.4c0-1.8-0.4-3.2-1.2-4.1c-0.8-0.9-2.1-1.3-3.9-1.3c-2.3,0-4,0.6-5.1,1.9
			c-1.1,1.3-1.6,3.3-1.6,6.2v11.7h-3.4v-22.3h2.7l0.5,3.1h0.2c0.7-1.1,1.7-2,2.9-2.6c1.2-0.6,2.6-0.9,4.2-0.9c2.7,0,4.7,0.6,6.1,1.9
			s2,3.4,2,6.2v14.6H838z"/>
		<path class="st30" d="M856.9,1023.4c-3.3,0-5.9-1-7.8-3c-1.9-2-2.9-4.8-2.9-8.4c0-3.6,0.9-6.5,2.7-8.6c1.8-2.1,4.1-3.2,7.1-3.2
			c2.8,0,5,0.9,6.6,2.8s2.4,4.3,2.4,7.3v2.1h-15.4c0.1,2.6,0.7,4.6,2,6c1.3,1.4,3,2,5.3,2c2.4,0,4.8-0.5,7.1-1.5v3
			c-1.2,0.5-2.3,0.9-3.4,1.1S858.4,1023.4,856.9,1023.4z M856,1003.1c-1.8,0-3.2,0.6-4.3,1.8c-1.1,1.2-1.7,2.8-1.9,4.8h11.7
			c0-2.1-0.5-3.8-1.4-4.9C859.1,1003.7,857.7,1003.1,856,1003.1z"/>
	</g>
	<g class="st28">
	</g>
	<g class="st28">
		<path class="st31" d="M1590.4,336.9l-7.2-23.3h-0.2c0.3,4.8,0.4,7.9,0.4,9.5v13.8h-5.6v-29.8h8.6l7,22.8h0.1l7.5-22.8h8.6v29.8
			h-5.9v-14.1c0-0.7,0-1.4,0-2.3c0-0.9,0.1-3.2,0.3-6.9h-0.2l-7.7,23.3H1590.4z"/>
		<path class="st31" d="M1641.4,307.1v19.3c0,2.2-0.5,4.1-1.5,5.8c-1,1.7-2.4,2.9-4.3,3.8c-1.9,0.9-4.1,1.3-6.6,1.3
			c-3.8,0-6.8-1-8.9-2.9c-2.1-2-3.2-4.6-3.2-8.1v-19.2h6.3v18.2c0,2.3,0.5,4,1.4,5c0.9,1.1,2.4,1.6,4.6,1.6c2.1,0,3.6-0.5,4.5-1.6
			c0.9-1.1,1.4-2.8,1.4-5.1v-18.2H1641.4z"/>
		<path class="st31" d="M1648.7,336.9v-29.8h6.3v24.5h12.1v5.2H1648.7z"/>
		<path class="st31" d="M1683.7,336.9h-6.3v-24.5h-8.1v-5.3h22.5v5.3h-8.1V336.9z"/>
		<path class="st31" d="M1696.4,336.9v-29.8h6.3v29.8H1696.4z"/>
		<path class="st31" d="M1707.6,328.2v-5.1h10.9v5.1H1707.6z"/>
		<path class="st31" d="M1735,336.9h-6.3v-24.5h-8.1v-5.3h22.5v5.3h-8.1V336.9z"/>
		<path class="st31" d="M1747.7,336.9v-29.8h6.3v29.8H1747.7z"/>
		<path class="st31" d="M1778.6,336.9h-17.1v-29.8h17.1v5.2h-10.8v6.5h10.1v5.2h-10.1v7.7h10.8V336.9z"/>
		<path class="st31" d="M1791.2,325.4v11.4h-6.3v-29.8h8.7c4,0,7,0.7,9,2.2c1.9,1.5,2.9,3.7,2.9,6.7c0,1.8-0.5,3.3-1.4,4.7
			s-2.3,2.4-4.1,3.2c4.5,6.7,7.4,11,8.8,13h-7l-7.1-11.4H1791.2z M1791.2,320.3h2c2,0,3.5-0.3,4.4-1c0.9-0.7,1.4-1.7,1.4-3.1
			c0-1.4-0.5-2.4-1.5-3c-1-0.6-2.5-0.9-4.5-0.9h-1.9V320.3z"/>
	</g>
	<g class="st28">
		<path class="st31" d="M1604.9,369.6c0,4.9-1.2,8.7-3.7,11.4c-2.4,2.6-5.9,4-10.5,4s-8.1-1.3-10.5-4c-2.4-2.6-3.7-6.4-3.7-11.4
			s1.2-8.7,3.7-11.3c2.4-2.6,6-3.9,10.5-3.9s8.1,1.3,10.5,3.9C1603.6,360.9,1604.9,364.6,1604.9,369.6z M1583.1,369.6
			c0,3.3,0.6,5.8,1.9,7.5c1.3,1.7,3.1,2.5,5.7,2.5c5,0,7.6-3.3,7.6-10c0-6.7-2.5-10.1-7.5-10.1c-2.5,0-4.4,0.8-5.7,2.5
			S1583.1,366.3,1583.1,369.6z"/>
		<path class="st31" d="M1617.3,373.1v11.4h-6.3v-29.8h8.7c4,0,7,0.7,9,2.2c1.9,1.5,2.9,3.7,2.9,6.7c0,1.8-0.5,3.3-1.4,4.7
			s-2.3,2.4-4.1,3.2c4.5,6.7,7.4,11,8.8,13h-7l-7.1-11.4H1617.3z M1617.3,368h2c2,0,3.5-0.3,4.4-1c0.9-0.7,1.4-1.7,1.4-3.1
			c0-1.4-0.5-2.4-1.5-3c-1-0.6-2.5-0.9-4.5-0.9h-1.9V368z"/>
		<path class="st31" d="M1651.2,359.6c-2.4,0-4.2,0.9-5.5,2.7c-1.3,1.8-2,4.3-2,7.5c0,6.6,2.5,10,7.5,10c2.1,0,4.6-0.5,7.6-1.6v5.3
			c-2.4,1-5.2,1.5-8.2,1.5c-4.3,0-7.6-1.3-9.9-3.9s-3.4-6.4-3.4-11.3c0-3.1,0.6-5.8,1.7-8.1c1.1-2.3,2.7-4.1,4.9-5.4
			s4.6-1.9,7.4-1.9c2.9,0,5.8,0.7,8.7,2.1l-2,5.1c-1.1-0.5-2.2-1-3.4-1.4C1653.4,359.8,1652.3,359.6,1651.2,359.6z"/>
		<path class="st31" d="M1689.5,384.5h-6.3v-12.8h-11.8v12.8h-6.3v-29.8h6.3v11.7h11.8v-11.7h6.3V384.5z"/>
		<path class="st31" d="M1714.1,384.5H1697v-29.8h17.1v5.2h-10.8v6.5h10.1v5.2h-10.1v7.7h10.8V384.5z"/>
		<path class="st31" d="M1737.9,376.2c0,2.7-1,4.8-2.9,6.4c-1.9,1.5-4.6,2.3-8.1,2.3c-3.2,0-6-0.6-8.4-1.8v-5.9
			c2,0.9,3.7,1.5,5.1,1.9c1.4,0.4,2.7,0.5,3.8,0.5c1.4,0,2.4-0.3,3.2-0.8c0.7-0.5,1.1-1.3,1.1-2.4c0-0.6-0.2-1.1-0.5-1.6
			c-0.3-0.5-0.8-0.9-1.4-1.3c-0.6-0.4-1.9-1.1-3.9-2c-1.8-0.9-3.2-1.7-4.1-2.5s-1.6-1.7-2.2-2.7c-0.5-1-0.8-2.3-0.8-3.7
			c0-2.6,0.9-4.7,2.7-6.2c1.8-1.5,4.3-2.3,7.4-2.3c1.5,0,3,0.2,4.4,0.5c1.4,0.4,2.9,0.9,4.4,1.5l-2,4.9c-1.6-0.7-2.9-1.1-3.9-1.4
			c-1-0.3-2.1-0.4-3.1-0.4c-1.2,0-2.1,0.3-2.7,0.8c-0.6,0.6-1,1.3-1,2.2c0,0.6,0.1,1,0.4,1.5c0.3,0.4,0.7,0.8,1.2,1.2
			c0.6,0.4,1.9,1.1,4,2.1c2.8,1.3,4.7,2.7,5.7,4C1737.4,372.7,1737.9,374.3,1737.9,376.2z"/>
		<path class="st31" d="M1754.8,384.5h-6.3V360h-8.1v-5.3h22.5v5.3h-8.1V384.5z"/>
		<path class="st31" d="M1773.8,373.1v11.4h-6.3v-29.8h8.7c4,0,7,0.7,9,2.2c1.9,1.5,2.9,3.7,2.9,6.7c0,1.8-0.5,3.3-1.4,4.7
			s-2.3,2.4-4.1,3.2c4.5,6.7,7.4,11,8.8,13h-7l-7.1-11.4H1773.8z M1773.8,368h2c2,0,3.5-0.3,4.4-1c0.9-0.7,1.4-1.7,1.4-3.1
			c0-1.4-0.5-2.4-1.5-3c-1-0.6-2.5-0.9-4.5-0.9h-1.9V368z"/>
		<path class="st31" d="M1813.2,384.5l-2.2-7.1h-10.8l-2.2,7.1h-6.8l10.5-29.9h7.7l10.5,29.9H1813.2z M1809.5,372.1
			c-2-6.4-3.1-10-3.4-10.9s-0.4-1.5-0.5-2c-0.4,1.7-1.7,6-3.8,12.9H1809.5z"/>
		<path class="st31" d="M1835.2,384.5h-6.3V360h-8.1v-5.3h22.5v5.3h-8.1V384.5z"/>
		<path class="st31" d="M1847.9,384.5v-29.8h6.3v29.8H1847.9z"/>
		<path class="st31" d="M1888.7,369.6c0,4.9-1.2,8.7-3.7,11.4c-2.4,2.6-5.9,4-10.5,4s-8.1-1.3-10.5-4c-2.4-2.6-3.7-6.4-3.7-11.4
			s1.2-8.7,3.7-11.3c2.4-2.6,6-3.9,10.5-3.9s8.1,1.3,10.5,3.9C1887.5,360.9,1888.7,364.6,1888.7,369.6z M1867,369.6
			c0,3.3,0.6,5.8,1.9,7.5c1.3,1.7,3.1,2.5,5.7,2.5c5,0,7.6-3.3,7.6-10c0-6.7-2.5-10.1-7.5-10.1c-2.5,0-4.4,0.8-5.7,2.5
			S1867,366.3,1867,369.6z"/>
		<path class="st31" d="M1921.3,384.5h-8l-12.9-22.5h-0.2c0.3,4,0.4,6.8,0.4,8.5v14h-5.6v-29.8h8l12.9,22.3h0.1
			c-0.2-3.9-0.3-6.6-0.3-8.2v-14.1h5.7V384.5z"/>
	</g>
	<g class="st28">
		<path class="st32" d="M159.1,1003.1c-2.4,0-4.2,0.9-5.5,2.7c-1.3,1.8-2,4.3-2,7.5c0,6.6,2.5,10,7.5,10c2.1,0,4.6-0.5,7.6-1.6v5.3
			c-2.4,1-5.2,1.5-8.2,1.5c-4.3,0-7.6-1.3-9.9-3.9c-2.3-2.6-3.4-6.4-3.4-11.3c0-3.1,0.6-5.8,1.7-8.1s2.7-4.1,4.9-5.4
			c2.1-1.2,4.6-1.9,7.4-1.9c2.9,0,5.8,0.7,8.7,2.1l-2,5.1c-1.1-0.5-2.2-1-3.4-1.4C161.3,1003.3,160.2,1003.1,159.1,1003.1z"/>
		<path class="st32" d="M200,1013.2c0,4.9-1.2,8.7-3.7,11.4s-5.9,4-10.5,4c-4.6,0-8.1-1.3-10.5-4s-3.7-6.4-3.7-11.4
			c0-5,1.2-8.7,3.7-11.3c2.4-2.6,6-3.9,10.5-3.9s8.1,1.3,10.5,3.9S200,1008.2,200,1013.2z M178.3,1013.2c0,3.3,0.6,5.8,1.9,7.5
			s3.1,2.5,5.7,2.5c5,0,7.6-3.3,7.6-10c0-6.7-2.5-10.1-7.5-10.1c-2.5,0-4.4,0.8-5.7,2.5C179,1007.3,178.3,1009.8,178.3,1013.2z"/>
		<path class="st32" d="M232.6,1028.1h-8l-12.9-22.5h-0.2c0.3,4,0.4,6.8,0.4,8.5v14h-5.6v-29.8h8l12.9,22.3h0.1
			c-0.2-3.9-0.3-6.6-0.3-8.2v-14.1h5.7V1028.1z"/>
		<path class="st32" d="M246.3,1028.1h-6.2v-29.8h17.1v5.2h-10.8v7.7h10.1v5.2h-10.1V1028.1z"/>
		<path class="st32" d="M263,1028.1v-29.8h6.3v29.8H263z"/>
		<path class="st32" d="M288.1,1011.4h11.8v15.4c-1.9,0.6-3.7,1.1-5.4,1.3s-3.4,0.4-5.2,0.4c-4.5,0-7.9-1.3-10.3-4
			c-2.4-2.6-3.6-6.4-3.6-11.4c0-4.8,1.4-8.5,4.1-11.2c2.7-2.7,6.6-4,11.4-4c3.1,0,6,0.6,8.8,1.8l-2.1,5c-2.2-1.1-4.4-1.6-6.8-1.6
			c-2.7,0-4.9,0.9-6.6,2.7s-2.5,4.3-2.5,7.4c0,3.2,0.7,5.7,2,7.4c1.3,1.7,3.2,2.6,5.8,2.6c1.3,0,2.7-0.1,4-0.4v-6.2h-5.6V1011.4z"/>
		<path class="st32" d="M331.2,998.3v19.3c0,2.2-0.5,4.1-1.5,5.8c-1,1.7-2.4,2.9-4.3,3.8s-4.1,1.3-6.6,1.3c-3.8,0-6.8-1-8.9-2.9
			c-2.1-2-3.2-4.6-3.2-8.1v-19.2h6.3v18.2c0,2.3,0.5,4,1.4,5c0.9,1.1,2.4,1.6,4.6,1.6c2.1,0,3.6-0.5,4.5-1.6
			c0.9-1.1,1.4-2.8,1.4-5.1v-18.2H331.2z"/>
		<path class="st32" d="M344.8,1016.7v11.4h-6.3v-29.8h8.7c4,0,7,0.7,9,2.2c1.9,1.5,2.9,3.7,2.9,6.7c0,1.8-0.5,3.3-1.4,4.7
			c-1,1.4-2.3,2.4-4.1,3.2c4.5,6.7,7.4,11,8.8,13h-7l-7.1-11.4H344.8z M344.8,1011.5h2c2,0,3.5-0.3,4.4-1c0.9-0.7,1.4-1.7,1.4-3.1
			c0-1.4-0.5-2.4-1.5-3c-1-0.6-2.5-0.9-4.5-0.9h-1.9V1011.5z"/>
		<path class="st32" d="M384.2,1028.1l-2.2-7.1h-10.8l-2.2,7.1h-6.8l10.5-29.9h7.7l10.5,29.9H384.2z M380.6,1015.7
			c-2-6.4-3.1-10-3.4-10.9c-0.3-0.8-0.4-1.5-0.5-2c-0.4,1.7-1.7,6-3.8,12.9H380.6z"/>
		<path class="st32" d="M406.2,1028.1h-6.3v-24.5h-8.1v-5.3h22.5v5.3h-8.1V1028.1z"/>
		<path class="st32" d="M418.9,1028.1v-29.8h6.3v29.8H418.9z"/>
		<path class="st32" d="M459.7,1013.2c0,4.9-1.2,8.7-3.7,11.4s-5.9,4-10.5,4c-4.6,0-8.1-1.3-10.5-4s-3.7-6.4-3.7-11.4
			c0-5,1.2-8.7,3.7-11.3c2.4-2.6,6-3.9,10.5-3.9s8.1,1.3,10.5,3.9S459.7,1008.2,459.7,1013.2z M438,1013.2c0,3.3,0.6,5.8,1.9,7.5
			s3.1,2.5,5.7,2.5c5,0,7.6-3.3,7.6-10c0-6.7-2.5-10.1-7.5-10.1c-2.5,0-4.4,0.8-5.7,2.5C438.6,1007.3,438,1009.8,438,1013.2z"/>
		<path class="st32" d="M492.3,1028.1h-8l-12.9-22.5h-0.2c0.3,4,0.4,6.8,0.4,8.5v14h-5.6v-29.8h8l12.9,22.3h0.1
			c-0.2-3.9-0.3-6.6-0.3-8.2v-14.1h5.7V1028.1z"/>
	</g>
	<g class="st28">
		<path class="st32" d="M207.4,1075.7l-7.2-23.3h-0.2c0.3,4.8,0.4,7.9,0.4,9.5v13.8h-5.6V1046h8.6l7,22.8h0.1l7.5-22.8h8.6v29.8
			h-5.9v-14.1c0-0.7,0-1.4,0-2.3c0-0.9,0.1-3.2,0.3-6.9h-0.2l-7.7,23.3H207.4z"/>
		<path class="st32" d="M252.4,1075.7l-2.2-7.1h-10.8l-2.2,7.1h-6.8l10.5-29.9h7.7l10.5,29.9H252.4z M248.7,1063.3
			c-2-6.4-3.1-10-3.4-10.9c-0.3-0.8-0.4-1.5-0.5-2c-0.4,1.7-1.7,6-3.8,12.9H248.7z"/>
		<path class="st32" d="M289.3,1075.7h-8l-12.9-22.5h-0.2c0.3,4,0.4,6.8,0.4,8.5v14h-5.6V1046h8l12.9,22.3h0.1
			c-0.2-3.9-0.3-6.6-0.3-8.2V1046h5.7V1075.7z"/>
		<path class="st32" d="M315,1075.7l-2.2-7.1H302l-2.2,7.1H293l10.5-29.9h7.7l10.5,29.9H315z M311.3,1063.3c-2-6.4-3.1-10-3.4-10.9
			c-0.3-0.8-0.4-1.5-0.5-2c-0.4,1.7-1.7,6-3.8,12.9H311.3z"/>
		<path class="st32" d="M336.9,1059h11.8v15.4c-1.9,0.6-3.7,1.1-5.4,1.3s-3.4,0.4-5.2,0.4c-4.5,0-7.9-1.3-10.3-4
			c-2.4-2.6-3.6-6.4-3.6-11.4c0-4.8,1.4-8.5,4.1-11.2c2.7-2.7,6.6-4,11.4-4c3.1,0,6,0.6,8.8,1.8l-2.1,5c-2.2-1.1-4.4-1.6-6.8-1.6
			c-2.7,0-4.9,0.9-6.6,2.7s-2.5,4.3-2.5,7.4c0,3.2,0.7,5.7,2,7.4c1.3,1.7,3.2,2.6,5.8,2.6c1.3,0,2.7-0.1,4-0.4v-6.2h-5.6V1059z"/>
		<path class="st32" d="M372.9,1075.7h-17.1V1046h17.1v5.2h-10.8v6.5h10.1v5.2h-10.1v7.7h10.8V1075.7z"/>
		<path class="st32" d="M391.7,1075.7l-7.2-23.3h-0.2c0.3,4.8,0.4,7.9,0.4,9.5v13.8h-5.6V1046h8.6l7,22.8h0.1l7.5-22.8h8.6v29.8H405
			v-14.1c0-0.7,0-1.4,0-2.3c0-0.9,0.1-3.2,0.3-6.9h-0.2l-7.7,23.3H391.7z"/>
		<path class="st32" d="M435.5,1075.7h-17.1V1046h17.1v5.2h-10.8v6.5h10.1v5.2h-10.1v7.7h10.8V1075.7z"/>
		<path class="st32" d="M468.1,1075.7h-8l-12.9-22.5H447c0.3,4,0.4,6.8,0.4,8.5v14h-5.6V1046h8l12.9,22.3h0.1
			c-0.2-3.9-0.3-6.6-0.3-8.2V1046h5.7V1075.7z"/>
		<path class="st32" d="M487.1,1075.7h-6.3v-24.5h-8.1v-5.3h22.5v5.3h-8.1V1075.7z"/>
	</g>
	<g class="st28">
		<path class="st33" d="M1598.4,1025c0,3.2-1,5.7-3,7.3c-2,1.7-4.8,2.5-8.5,2.5h-2.7v10.6h-6.3v-29.8h9.5c3.6,0,6.4,0.8,8.2,2.3
			S1598.4,1021.9,1598.4,1025z M1584.1,1029.7h2.1c1.9,0,3.4-0.4,4.4-1.1s1.4-1.9,1.4-3.3c0-1.5-0.4-2.6-1.2-3.3
			c-0.8-0.7-2.1-1.1-3.8-1.1h-2.9V1029.7z"/>
		<path class="st33" d="M1610.3,1034v11.4h-6.3v-29.8h8.7c4,0,7,0.7,9,2.2c1.9,1.5,2.9,3.7,2.9,6.7c0,1.8-0.5,3.3-1.4,4.7
			c-1,1.4-2.3,2.4-4.1,3.2c4.5,6.7,7.4,11,8.8,13h-7l-7.1-11.4H1610.3z M1610.3,1028.9h2c2,0,3.5-0.3,4.4-1c0.9-0.7,1.4-1.7,1.4-3.1
			c0-1.4-0.5-2.4-1.5-3c-1-0.6-2.5-0.9-4.5-0.9h-1.9V1028.9z"/>
		<path class="st33" d="M1658.6,1030.5c0,4.9-1.2,8.7-3.7,11.4s-5.9,4-10.5,4s-8.1-1.3-10.5-4c-2.4-2.6-3.7-6.4-3.7-11.4
			c0-5,1.2-8.7,3.7-11.3c2.4-2.6,6-3.9,10.5-3.9s8.1,1.3,10.5,3.9C1657.3,1021.8,1658.6,1025.6,1658.6,1030.5z M1636.8,1030.5
			c0,3.3,0.6,5.8,1.9,7.5c1.3,1.7,3.1,2.5,5.7,2.5c5,0,7.6-3.3,7.6-10c0-6.7-2.5-10.1-7.5-10.1c-2.5,0-4.4,0.8-5.7,2.5
			S1636.8,1027.2,1636.8,1030.5z"/>
		<path class="st33" d="M1681.7,1015.7h6.4l-10.1,29.8h-6.9l-10.1-29.8h6.4l5.6,17.7c0.3,1,0.6,2.3,1,3.7c0.3,1.4,0.5,2.4,0.6,2.9
			c0.1-1.2,0.7-3.4,1.5-6.6L1681.7,1015.7z"/>
		<path class="st33" d="M1691.8,1045.5v-29.8h6.3v29.8H1691.8z"/>
		<path class="st33" d="M1723.2,1037.2c0,2.7-1,4.8-2.9,6.4c-1.9,1.5-4.6,2.3-8.1,2.3c-3.2,0-6-0.6-8.4-1.8v-5.9
			c2,0.9,3.7,1.5,5.1,1.9c1.4,0.4,2.7,0.5,3.8,0.5c1.4,0,2.4-0.3,3.2-0.8c0.7-0.5,1.1-1.3,1.1-2.4c0-0.6-0.2-1.1-0.5-1.6
			c-0.3-0.5-0.8-0.9-1.4-1.3c-0.6-0.4-1.9-1.1-3.9-2c-1.8-0.9-3.2-1.7-4.1-2.5s-1.6-1.7-2.2-2.7c-0.5-1-0.8-2.3-0.8-3.7
			c0-2.6,0.9-4.7,2.7-6.2c1.8-1.5,4.3-2.3,7.4-2.3c1.5,0,3,0.2,4.4,0.5c1.4,0.4,2.9,0.9,4.4,1.5l-2,4.9c-1.6-0.7-2.9-1.1-3.9-1.4
			s-2.1-0.4-3.1-0.4c-1.2,0-2.1,0.3-2.7,0.8c-0.6,0.6-1,1.3-1,2.2c0,0.6,0.1,1,0.4,1.5c0.3,0.4,0.7,0.8,1.2,1.2
			c0.6,0.4,1.9,1.1,4,2.1c2.8,1.3,4.7,2.7,5.7,4C1722.7,1033.6,1723.2,1035.3,1723.2,1037.2z"/>
		<path class="st33" d="M1728.6,1045.5v-29.8h6.3v29.8H1728.6z"/>
		<path class="st33" d="M1769.4,1030.5c0,4.9-1.2,8.7-3.7,11.4s-5.9,4-10.5,4s-8.1-1.3-10.5-4c-2.4-2.6-3.7-6.4-3.7-11.4
			c0-5,1.2-8.7,3.7-11.3c2.4-2.6,6-3.9,10.5-3.9s8.1,1.3,10.5,3.9C1768.2,1021.8,1769.4,1025.6,1769.4,1030.5z M1747.7,1030.5
			c0,3.3,0.6,5.8,1.9,7.5c1.3,1.7,3.1,2.5,5.7,2.5c5,0,7.6-3.3,7.6-10c0-6.7-2.5-10.1-7.5-10.1c-2.5,0-4.4,0.8-5.7,2.5
			S1747.7,1027.2,1747.7,1030.5z"/>
		<path class="st33" d="M1802,1045.5h-8L1781,1023h-0.2c0.3,4,0.4,6.8,0.4,8.5v14h-5.6v-29.8h8l12.9,22.3h0.1
			c-0.2-3.9-0.3-6.6-0.3-8.2v-14.1h5.7V1045.5z"/>
		<path class="st33" d="M1809.4,1045.5v-29.8h6.3v29.8H1809.4z"/>
		<path class="st33" d="M1849.7,1045.5h-8l-12.9-22.5h-0.2c0.3,4,0.4,6.8,0.4,8.5v14h-5.6v-29.8h8l12.9,22.3h0.1
			c-0.2-3.9-0.3-6.6-0.3-8.2v-14.1h5.7V1045.5z"/>
		<path class="st33" d="M1868.4,1028.8h11.8v15.4c-1.9,0.6-3.7,1.1-5.4,1.3s-3.4,0.4-5.2,0.4c-4.5,0-7.9-1.3-10.3-4
			s-3.6-6.4-3.6-11.4c0-4.8,1.4-8.5,4.1-11.2c2.7-2.7,6.6-4,11.4-4c3.1,0,6,0.6,8.8,1.8l-2.1,5c-2.2-1.1-4.4-1.6-6.8-1.6
			c-2.7,0-4.9,0.9-6.6,2.7c-1.6,1.8-2.5,4.3-2.5,7.4c0,3.2,0.7,5.7,2,7.4s3.2,2.6,5.8,2.6c1.3,0,2.7-0.1,4-0.4v-6.2h-5.6V1028.8z"/>
	</g>
	<g class="st28">
		<path class="st30" d="M731.7,409.2h-3.5v-29.8h16.6v3.1h-13.1v10.9h12.3v3.1h-12.3V409.2z"/>
		<path class="st30" d="M762.1,409.2l-0.7-3.2h-0.2c-1.1,1.4-2.2,2.3-3.3,2.8s-2.5,0.7-4.1,0.7c-2.2,0-3.9-0.6-5.2-1.7
			c-1.3-1.1-1.9-2.8-1.9-4.9c0-4.5,3.6-6.9,10.8-7.1l3.8-0.1v-1.4c0-1.8-0.4-3-1.1-3.9c-0.8-0.8-2-1.3-3.6-1.3c-1.9,0-4,0.6-6.3,1.7
			l-1-2.6c1.1-0.6,2.3-1.1,3.6-1.4s2.6-0.5,3.9-0.5c2.7,0,4.6,0.6,5.9,1.8c1.3,1.2,1.9,3.1,1.9,5.7v15.2H762.1z M754.5,406.8
			c2.1,0,3.8-0.6,5-1.7c1.2-1.2,1.8-2.8,1.8-4.8v-2l-3.4,0.1c-2.7,0.1-4.6,0.5-5.8,1.3c-1.2,0.7-1.8,1.9-1.8,3.5
			c0,1.2,0.4,2.2,1.1,2.8C752.1,406.5,753.2,406.8,754.5,406.8z"/>
		<path class="st30" d="M781.1,386.5c2.9,0,5.2,1,6.8,3s2.4,4.8,2.4,8.5s-0.8,6.5-2.5,8.5c-1.6,2-3.9,3-6.8,3c-1.5,0-2.8-0.3-4-0.8
			c-1.2-0.5-2.2-1.4-3-2.5h-0.2l-0.7,2.9h-2.4v-31.7h3.4v7.7c0,1.7-0.1,3.3-0.2,4.6h0.2C775.7,387.6,778,386.5,781.1,386.5z
			 M780.6,389.3c-2.3,0-4,0.7-5,2c-1,1.3-1.5,3.6-1.5,6.7s0.5,5.4,1.6,6.7c1,1.4,2.7,2,5,2c2.1,0,3.6-0.8,4.6-2.3
			c1-1.5,1.5-3.7,1.5-6.5c0-2.9-0.5-5.1-1.5-6.5C784.3,390,782.8,389.3,780.6,389.3z"/>
		<path class="st30" d="M805.6,386.4c1,0,1.9,0.1,2.7,0.2l-0.5,3.1c-0.9-0.2-1.7-0.3-2.4-0.3c-1.8,0-3.3,0.7-4.6,2.2
			c-1.3,1.5-1.9,3.3-1.9,5.5v12h-3.4v-22.3h2.8l0.4,4.1h0.2c0.8-1.5,1.8-2.6,3-3.4C802.9,386.8,804.2,386.4,805.6,386.4z"/>
		<path class="st30" d="M811.3,380.8c0-0.8,0.2-1.3,0.6-1.7c0.4-0.4,0.9-0.5,1.4-0.5c0.5,0,1,0.2,1.4,0.5c0.4,0.4,0.6,0.9,0.6,1.7
			c0,0.8-0.2,1.3-0.6,1.7c-0.4,0.4-0.9,0.6-1.4,0.6c-0.6,0-1-0.2-1.4-0.6C811.4,382.1,811.3,381.6,811.3,380.8z M814.9,409.2h-3.4
			v-22.3h3.4V409.2z"/>
		<path class="st30" d="M830.1,409.6c-3.2,0-5.7-1-7.5-3c-1.8-2-2.7-4.8-2.7-8.4c0-3.7,0.9-6.6,2.7-8.7c1.8-2,4.4-3.1,7.7-3.1
			c1.1,0,2.1,0.1,3.2,0.3c1.1,0.2,1.9,0.5,2.5,0.8l-1,2.9c-0.7-0.3-1.6-0.5-2.4-0.7c-0.9-0.2-1.7-0.3-2.3-0.3
			c-4.5,0-6.8,2.9-6.8,8.7c0,2.7,0.6,4.8,1.7,6.3c1.1,1.5,2.7,2.2,4.9,2.2c1.9,0,3.8-0.4,5.7-1.2v3
			C834.3,409.2,832.4,409.6,830.1,409.6z"/>
	</g>
	<g class="st28">
		<path class="st30" d="M696.1,430.8c-3.3,0-5.9,1.1-7.7,3.3s-2.8,5.2-2.8,8.9c0,3.9,0.9,6.9,2.7,9c1.8,2.1,4.4,3.2,7.8,3.2
			c2.1,0,4.4-0.4,7.1-1.1v3c-2.1,0.8-4.6,1.2-7.6,1.2c-4.4,0-7.8-1.3-10.1-4c-2.4-2.7-3.6-6.4-3.6-11.3c0-3.1,0.6-5.8,1.7-8.1
			c1.1-2.3,2.8-4.1,5-5.3s4.7-1.9,7.6-1.9c3.1,0,5.8,0.6,8.2,1.7l-1.5,3C700.6,431.3,698.3,430.8,696.1,430.8z"/>
		<path class="st30" d="M722,457.9l-0.7-3.2h-0.2c-1.1,1.4-2.2,2.3-3.3,2.8s-2.5,0.7-4.1,0.7c-2.2,0-3.9-0.6-5.2-1.7
			c-1.3-1.1-1.9-2.8-1.9-4.9c0-4.5,3.6-6.9,10.8-7.1l3.8-0.1v-1.4c0-1.8-0.4-3-1.1-3.9c-0.8-0.8-2-1.3-3.6-1.3c-1.9,0-4,0.6-6.3,1.7
			l-1-2.6c1.1-0.6,2.3-1.1,3.6-1.4s2.6-0.5,3.9-0.5c2.7,0,4.6,0.6,5.9,1.8c1.3,1.2,1.9,3.1,1.9,5.7v15.2H722z M714.3,455.5
			c2.1,0,3.8-0.6,5-1.7c1.2-1.2,1.8-2.8,1.8-4.8v-2l-3.4,0.1c-2.7,0.1-4.6,0.5-5.8,1.3c-1.2,0.7-1.8,1.9-1.8,3.5
			c0,1.2,0.4,2.2,1.1,2.8C712,455.2,713,455.5,714.3,455.5z"/>
		<path class="st30" d="M740.9,458.3c-1.5,0-2.8-0.3-4-0.8c-1.2-0.5-2.2-1.4-3-2.5h-0.2c0.2,1.3,0.2,2.5,0.2,3.7v9.2h-3.4v-32.3h2.7
			l0.5,3.1h0.2c0.9-1.2,1.9-2.1,3-2.6s2.5-0.8,4-0.8c3,0,5.2,1,6.8,3c1.6,2,2.4,4.9,2.4,8.5c0,3.7-0.8,6.5-2.5,8.5
			C746.1,457.3,743.8,458.3,740.9,458.3z M740.4,438c-2.3,0-3.9,0.6-4.9,1.9c-1,1.3-1.5,3.3-1.6,6v0.8c0,3.1,0.5,5.4,1.6,6.7
			c1,1.4,2.7,2,5,2c1.9,0,3.4-0.8,4.5-2.3c1.1-1.6,1.6-3.7,1.6-6.5c0-2.8-0.5-4.9-1.6-6.4C744,438.8,742.4,438,740.4,438z"/>
		<path class="st30" d="M754.9,429.5c0-0.8,0.2-1.3,0.6-1.7c0.4-0.4,0.9-0.5,1.4-0.5c0.5,0,1,0.2,1.4,0.5c0.4,0.4,0.6,0.9,0.6,1.7
			c0,0.8-0.2,1.3-0.6,1.7c-0.4,0.4-0.9,0.6-1.4,0.6c-0.6,0-1-0.2-1.4-0.6C755.1,430.8,754.9,430.3,754.9,429.5z M758.6,457.9h-3.4
			v-22.3h3.4V457.9z"/>
		<path class="st30" d="M779.3,451.8c0,2.1-0.8,3.7-2.3,4.8c-1.5,1.1-3.7,1.7-6.5,1.7c-3,0-5.3-0.5-6.9-1.4v-3.1
			c1.1,0.5,2.2,1,3.5,1.3s2.4,0.5,3.6,0.5c1.8,0,3.1-0.3,4.1-0.8c0.9-0.6,1.4-1.4,1.4-2.6c0-0.9-0.4-1.6-1.1-2.2
			c-0.8-0.6-2.2-1.3-4.4-2.2c-2.1-0.8-3.6-1.4-4.4-2c-0.9-0.6-1.5-1.2-2-2c-0.4-0.7-0.6-1.6-0.6-2.6c0-1.8,0.7-3.3,2.2-4.3
			c1.5-1.1,3.5-1.6,6.1-1.6c2.4,0,4.7,0.5,7,1.5l-1.2,2.7c-2.2-0.9-4.3-1.4-6.1-1.4c-1.6,0-2.8,0.3-3.6,0.8
			c-0.8,0.5-1.2,1.2-1.2,2.1c0,0.6,0.2,1.1,0.5,1.5c0.3,0.4,0.8,0.8,1.5,1.2s2,0.9,3.9,1.6c2.6,1,4.4,1.9,5.4,2.9
			C778.8,449.1,779.3,450.3,779.3,451.8z"/>
		<path class="st30" d="M791.1,455.5c0.6,0,1.2,0,1.7-0.1c0.6-0.1,1-0.2,1.3-0.3v2.6c-0.4,0.2-0.9,0.3-1.6,0.4s-1.4,0.2-1.9,0.2
			c-4.3,0-6.5-2.3-6.5-6.8v-13.3H781v-1.6l3.2-1.4l1.4-4.8h2v5.2h6.5v2.6h-6.5v13.1c0,1.3,0.3,2.4,1,3.1S790,455.5,791.1,455.5z"/>
		<path class="st30" d="M807.9,435.2c1,0,1.9,0.1,2.7,0.2l-0.5,3.1c-0.9-0.2-1.7-0.3-2.4-0.3c-1.8,0-3.3,0.7-4.6,2.2
			c-1.3,1.5-1.9,3.3-1.9,5.5v12h-3.4v-22.3h2.8l0.4,4.1h0.2c0.8-1.5,1.8-2.6,3-3.4C805.2,435.5,806.5,435.2,807.9,435.2z"/>
		<path class="st30" d="M827.6,457.9l-0.7-3.2h-0.2c-1.1,1.4-2.2,2.3-3.3,2.8s-2.5,0.7-4.1,0.7c-2.2,0-3.9-0.6-5.2-1.7
			c-1.3-1.1-1.9-2.8-1.9-4.9c0-4.5,3.6-6.9,10.8-7.1l3.8-0.1v-1.4c0-1.8-0.4-3-1.1-3.9c-0.8-0.8-2-1.3-3.6-1.3c-1.9,0-4,0.6-6.3,1.7
			l-1-2.6c1.1-0.6,2.3-1.1,3.6-1.4s2.6-0.5,3.9-0.5c2.7,0,4.6,0.6,5.9,1.8c1.3,1.2,1.9,3.1,1.9,5.7v15.2H827.6z M820,455.5
			c2.1,0,3.8-0.6,5-1.7c1.2-1.2,1.8-2.8,1.8-4.8v-2l-3.4,0.1c-2.7,0.1-4.6,0.5-5.8,1.3c-1.2,0.7-1.8,1.9-1.8,3.5
			c0,1.2,0.4,2.2,1.1,2.8C817.6,455.2,818.6,455.5,820,455.5z"/>
		<path class="st30" d="M851.5,457.9v-14.4c0-1.8-0.4-3.2-1.2-4.1c-0.8-0.9-2.1-1.3-3.9-1.3c-2.3,0-4,0.6-5.1,1.9
			c-1.1,1.3-1.6,3.3-1.6,6.2v11.7h-3.4v-22.3h2.7l0.5,3.1h0.2c0.7-1.1,1.7-2,2.9-2.6c1.2-0.6,2.6-0.9,4.2-0.9c2.7,0,4.7,0.6,6.1,1.9
			c1.4,1.3,2,3.4,2,6.2v14.6H851.5z"/>
		<path class="st30" d="M880.2,446.7c0,3.6-0.9,6.5-2.7,8.5s-4.4,3.1-7.6,3.1c-2,0-3.8-0.5-5.3-1.4c-1.5-0.9-2.7-2.3-3.6-4
			c-0.8-1.8-1.3-3.8-1.3-6.1c0-3.6,0.9-6.5,2.7-8.5c1.8-2,4.3-3,7.6-3c3.1,0,5.6,1,7.4,3.1C879.2,440.3,880.2,443.2,880.2,446.7z
			 M863.2,446.7c0,2.8,0.6,5,1.7,6.5c1.1,1.5,2.8,2.2,5,2.2c2.2,0,3.9-0.7,5-2.2c1.1-1.5,1.7-3.7,1.7-6.5c0-2.8-0.6-5-1.7-6.5
			c-1.1-1.5-2.8-2.2-5.1-2.2c-2.2,0-3.9,0.7-5,2.2C863.7,441.7,863.2,443.8,863.2,446.7z"/>
	</g>
	<g class="st28">
		<path class="st30" d="M758.5,508.5h-3.9l-16.3-25h-0.2c0.2,2.9,0.3,5.6,0.3,8.1v16.9h-3.2v-29.8h3.9l16.2,24.9h0.2
			c0-0.4-0.1-1.5-0.2-3.5c-0.1-2-0.1-3.4-0.1-4.3v-17.1h3.2V508.5z"/>
		<path class="st30" d="M784.5,497.3c0,3.6-0.9,6.5-2.7,8.5s-4.4,3.1-7.6,3.1c-2,0-3.8-0.5-5.3-1.4c-1.5-0.9-2.7-2.3-3.6-4
			c-0.8-1.8-1.3-3.8-1.3-6.1c0-3.6,0.9-6.5,2.7-8.5c1.8-2,4.3-3,7.6-3c3.1,0,5.6,1,7.4,3.1C783.6,491,784.5,493.8,784.5,497.3z
			 M767.5,497.3c0,2.8,0.6,5,1.7,6.5c1.1,1.5,2.8,2.2,5,2.2c2.2,0,3.9-0.7,5-2.2c1.1-1.5,1.7-3.7,1.7-6.5c0-2.8-0.6-5-1.7-6.5
			c-1.1-1.5-2.8-2.2-5.1-2.2c-2.2,0-3.9,0.7-5,2.2C768.1,492.3,767.5,494.4,767.5,497.3z"/>
		<path class="st30" d="M793,508.5h-3.4v-31.7h3.4V508.5z"/>
		<path class="st30" d="M799,480.1c0-0.8,0.2-1.3,0.6-1.7c0.4-0.4,0.9-0.5,1.4-0.5c0.5,0,1,0.2,1.4,0.5c0.4,0.4,0.6,0.9,0.6,1.7
			c0,0.8-0.2,1.3-0.6,1.7c-0.4,0.4-0.9,0.6-1.4,0.6c-0.6,0-1-0.2-1.4-0.6C799.1,481.5,799,480.9,799,480.1z M802.6,508.5h-3.4v-22.3
			h3.4V508.5z"/>
		<path class="st30" d="M828.2,497.3c0,3.6-0.9,6.5-2.7,8.5s-4.4,3.1-7.6,3.1c-2,0-3.8-0.5-5.3-1.4c-1.5-0.9-2.7-2.3-3.6-4
			c-0.8-1.8-1.3-3.8-1.3-6.1c0-3.6,0.9-6.5,2.7-8.5c1.8-2,4.3-3,7.6-3c3.1,0,5.6,1,7.4,3.1C827.3,491,828.2,493.8,828.2,497.3z
			 M811.2,497.3c0,2.8,0.6,5,1.7,6.5c1.1,1.5,2.8,2.2,5,2.2c2.2,0,3.9-0.7,5-2.2c1.1-1.5,1.7-3.7,1.7-6.5c0-2.8-0.6-5-1.7-6.5
			c-1.1-1.5-2.8-2.2-5.1-2.2c-2.2,0-3.9,0.7-5,2.2C811.7,492.3,811.2,494.4,811.2,497.3z"/>
	</g>
	<g class="st28">
	</g>
	<g class="st28">
		<path class="st30" d="M1272.8,379.4h8.4c3.9,0,6.8,0.6,8.6,1.8c1.8,1.2,2.6,3,2.6,5.6c0,1.8-0.5,3.2-1.5,4.4
			c-1,1.1-2.4,1.9-4.3,2.2v0.2c4.5,0.8,6.8,3.1,6.8,7.1c0,2.7-0.9,4.7-2.7,6.2c-1.8,1.5-4.3,2.2-7.5,2.2h-10.4V379.4z M1276.2,392.1
			h5.7c2.4,0,4.2-0.4,5.3-1.1c1.1-0.8,1.6-2.1,1.6-3.9c0-1.7-0.6-2.9-1.8-3.6c-1.2-0.7-3.1-1.1-5.7-1.1h-5.1V392.1z M1276.2,395.1
			v11.1h6.2c2.4,0,4.2-0.5,5.4-1.4c1.2-0.9,1.8-2.4,1.8-4.4c0-1.8-0.6-3.2-1.9-4.1c-1.2-0.9-3.1-1.3-5.7-1.3H1276.2z"/>
		<path class="st30" d="M1312.1,409.2l-10.1-26.4h-0.2c0.2,2.1,0.3,4.6,0.3,7.5v18.9h-3.2v-29.8h5.2l9.4,24.5h0.2l9.5-24.5h5.2v29.8
			h-3.5V390c0-2.2,0.1-4.6,0.3-7.2h-0.2l-10.2,26.3H1312.1z"/>
		<path class="st30" d="M1348.4,382.1c-3.3,0-5.9,1.1-7.7,3.3c-1.9,2.2-2.8,5.2-2.8,8.9c0,3.9,0.9,6.9,2.7,9
			c1.8,2.1,4.4,3.2,7.8,3.2c2.1,0,4.4-0.4,7.1-1.1v3c-2.1,0.8-4.6,1.2-7.6,1.2c-4.4,0-7.8-1.3-10.1-4s-3.6-6.4-3.6-11.3
			c0-3.1,0.6-5.8,1.7-8.1c1.1-2.3,2.8-4.1,5-5.3c2.2-1.2,4.7-1.9,7.6-1.9c3.1,0,5.8,0.6,8.2,1.7l-1.5,3
			C1352.9,382.6,1350.7,382.1,1348.4,382.1z"/>
	</g>
	<g class="st28">
		<path class="st30" d="M1226.7,457.9l-10.1-26.4h-0.2c0.2,2.1,0.3,4.6,0.3,7.5v18.9h-3.2v-29.8h5.2l9.4,24.5h0.2l9.5-24.5h5.2v29.8
			h-3.5v-19.2c0-2.2,0.1-4.6,0.3-7.2h-0.2l-10.2,26.3H1226.7z"/>
		<path class="st30" d="M1258.7,458.3c-3.2,0-5.7-1-7.5-3c-1.8-2-2.7-4.8-2.7-8.4c0-3.7,0.9-6.6,2.7-8.7c1.8-2,4.4-3.1,7.7-3.1
			c1.1,0,2.1,0.1,3.2,0.3c1.1,0.2,1.9,0.5,2.5,0.8l-1,2.9c-0.7-0.3-1.6-0.5-2.4-0.7c-0.9-0.2-1.7-0.3-2.3-0.3
			c-4.5,0-6.8,2.9-6.8,8.7c0,2.7,0.6,4.8,1.7,6.3c1.1,1.5,2.7,2.2,4.9,2.2c1.9,0,3.8-0.4,5.7-1.2v3
			C1262.9,457.9,1261,458.3,1258.7,458.3z"/>
		<path class="st30" d="M1288,446.7c0,3.6-0.9,6.5-2.7,8.5s-4.4,3.1-7.6,3.1c-2,0-3.8-0.5-5.3-1.4c-1.5-0.9-2.7-2.3-3.6-4
			c-0.8-1.8-1.3-3.8-1.3-6.1c0-3.6,0.9-6.5,2.7-8.5s4.3-3,7.6-3c3.1,0,5.6,1,7.4,3.1C1287.1,440.3,1288,443.2,1288,446.7z
			 M1271,446.7c0,2.8,0.6,5,1.7,6.5c1.1,1.5,2.8,2.2,5,2.2s3.9-0.7,5-2.2c1.1-1.5,1.7-3.7,1.7-6.5c0-2.8-0.6-5-1.7-6.5
			c-1.1-1.5-2.8-2.2-5.1-2.2c-2.2,0-3.9,0.7-5,2.2C1271.6,441.7,1271,443.8,1271,446.7z"/>
		<path class="st30" d="M1296.5,457.9h-3.4v-31.7h3.4V457.9z"/>
		<path class="st30" d="M1306.1,457.9h-3.4v-31.7h3.4V457.9z"/>
		<path class="st30" d="M1321.9,458.3c-3.3,0-5.9-1-7.8-3c-1.9-2-2.9-4.8-2.9-8.4c0-3.6,0.9-6.5,2.7-8.6c1.8-2.1,4.1-3.2,7.1-3.2
			c2.8,0,5,0.9,6.6,2.8c1.6,1.8,2.4,4.3,2.4,7.3v2.1h-15.4c0.1,2.6,0.7,4.6,2,6c1.3,1.4,3,2,5.3,2c2.4,0,4.8-0.5,7.1-1.5v3
			c-1.2,0.5-2.3,0.9-3.4,1.1C1324.6,458.2,1323.4,458.3,1321.9,458.3z M1320.9,438c-1.8,0-3.2,0.6-4.3,1.8c-1.1,1.2-1.7,2.8-1.9,4.8
			h11.7c0-2.1-0.5-3.8-1.4-4.9C1324.1,438.5,1322.7,438,1320.9,438z"/>
		<path class="st30" d="M1343.9,458.3c-3.2,0-5.7-1-7.5-3c-1.8-2-2.7-4.8-2.7-8.4c0-3.7,0.9-6.6,2.7-8.7c1.8-2,4.4-3.1,7.7-3.1
			c1.1,0,2.1,0.1,3.2,0.3c1.1,0.2,1.9,0.5,2.5,0.8l-1,2.9c-0.7-0.3-1.6-0.5-2.4-0.7c-0.9-0.2-1.7-0.3-2.3-0.3
			c-4.5,0-6.8,2.9-6.8,8.7c0,2.7,0.6,4.8,1.7,6.3c1.1,1.5,2.7,2.2,4.9,2.2c1.9,0,3.8-0.4,5.7-1.2v3
			C1348,457.9,1346.1,458.3,1343.9,458.3z"/>
		<path class="st30" d="M1361.1,455.5c0.6,0,1.2,0,1.7-0.1c0.6-0.1,1-0.2,1.3-0.3v2.6c-0.4,0.2-0.9,0.3-1.6,0.4
			c-0.7,0.1-1.4,0.2-1.9,0.2c-4.3,0-6.5-2.3-6.5-6.8v-13.3h-3.2v-1.6l3.2-1.4l1.4-4.8h2v5.2h6.5v2.6h-6.5v13.1c0,1.3,0.3,2.4,1,3.1
			C1359.1,455.1,1360,455.5,1361.1,455.5z"/>
		<path class="st30" d="M1367.5,429.5c0-0.8,0.2-1.3,0.6-1.7c0.4-0.4,0.9-0.5,1.4-0.5c0.5,0,1,0.2,1.4,0.5c0.4,0.4,0.6,0.9,0.6,1.7
			c0,0.8-0.2,1.3-0.6,1.7c-0.4,0.4-0.9,0.6-1.4,0.6c-0.6,0-1-0.2-1.4-0.6C1367.7,430.8,1367.5,430.3,1367.5,429.5z M1371.1,457.9
			h-3.4v-22.3h3.4V457.9z"/>
		<path class="st30" d="M1382.3,457.9l-8.5-22.3h3.6l4.8,13.2c1.1,3.1,1.7,5.1,1.9,6h0.2c0.1-0.7,0.6-2.2,1.4-4.5
			c0.8-2.3,2.6-7.2,5.3-14.8h3.6l-8.5,22.3H1382.3z"/>
		<path class="st30" d="M1406.9,458.3c-3.3,0-5.9-1-7.8-3c-1.9-2-2.9-4.8-2.9-8.4c0-3.6,0.9-6.5,2.7-8.6c1.8-2.1,4.1-3.2,7.1-3.2
			c2.8,0,5,0.9,6.6,2.8c1.6,1.8,2.4,4.3,2.4,7.3v2.1h-15.4c0.1,2.6,0.7,4.6,2,6c1.3,1.4,3,2,5.3,2c2.4,0,4.8-0.5,7.1-1.5v3
			c-1.2,0.5-2.3,0.9-3.4,1.1C1409.7,458.2,1408.4,458.3,1406.9,458.3z M1405.9,438c-1.8,0-3.2,0.6-4.3,1.8c-1.1,1.2-1.7,2.8-1.9,4.8
			h11.7c0-2.1-0.5-3.8-1.4-4.9C1409.1,438.5,1407.7,438,1405.9,438z"/>
	</g>
	<g class="st28">
	</g>
	<g class="st28">
		<path class="st30" d="M1229.3,481.4c-3.3,0-5.9,1.1-7.7,3.3c-1.9,2.2-2.8,5.2-2.8,8.9c0,3.9,0.9,6.9,2.7,9
			c1.8,2.1,4.4,3.2,7.8,3.2c2.1,0,4.4-0.4,7.1-1.1v3c-2.1,0.8-4.6,1.2-7.6,1.2c-4.4,0-7.8-1.3-10.1-4s-3.6-6.4-3.6-11.3
			c0-3.1,0.6-5.8,1.7-8.1c1.1-2.3,2.8-4.1,5-5.3c2.2-1.2,4.7-1.9,7.6-1.9c3.1,0,5.8,0.6,8.2,1.7l-1.5,3
			C1233.8,481.9,1231.5,481.4,1229.3,481.4z"/>
		<path class="st30" d="M1256.7,508.5v-14.4c0-1.8-0.4-3.2-1.2-4.1c-0.8-0.9-2.1-1.3-3.9-1.3c-2.3,0-4.1,0.6-5.1,1.9
			c-1.1,1.3-1.6,3.4-1.6,6.3v11.7h-3.4v-31.7h3.4v9.6c0,1.2-0.1,2.1-0.2,2.9h0.2c0.7-1.1,1.6-1.9,2.8-2.5c1.2-0.6,2.6-0.9,4.2-0.9
			c2.7,0,4.8,0.6,6.1,1.9c1.4,1.3,2,3.4,2,6.2v14.6H1256.7z"/>
		<path class="st30" d="M1275.6,508.9c-3.3,0-5.9-1-7.8-3c-1.9-2-2.9-4.8-2.9-8.4c0-3.6,0.9-6.5,2.7-8.6c1.8-2.1,4.1-3.2,7.1-3.2
			c2.8,0,5,0.9,6.6,2.8c1.6,1.8,2.4,4.3,2.4,7.3v2.1h-15.4c0.1,2.6,0.7,4.6,2,6c1.3,1.4,3,2,5.3,2c2.4,0,4.8-0.5,7.1-1.5v3
			c-1.2,0.5-2.3,0.9-3.4,1.1C1278.4,508.8,1277.1,508.9,1275.6,508.9z M1274.7,488.6c-1.8,0-3.2,0.6-4.3,1.8
			c-1.1,1.2-1.7,2.8-1.9,4.8h11.7c0-2.1-0.5-3.8-1.4-4.9C1277.8,489.2,1276.4,488.6,1274.7,488.6z"/>
		<path class="st30" d="M1298.7,488.8h-5.7v19.7h-3.4v-19.7h-4v-1.5l4-1.2v-1.2c0-5.5,2.4-8.2,7.2-8.2c1.2,0,2.6,0.2,4.2,0.7
			l-0.9,2.7c-1.3-0.4-2.4-0.6-3.3-0.6c-1.3,0-2.2,0.4-2.8,1.3c-0.6,0.8-0.9,2.2-0.9,4.1v1.4h5.7V488.8z"/>
		<path class="st30" d="M1325.6,508.5l-10.1-26.4h-0.2c0.2,2.1,0.3,4.6,0.3,7.5v18.9h-3.2v-29.8h5.2l9.4,24.5h0.2l9.5-24.5h5.2v29.8
			h-3.5v-19.2c0-2.2,0.1-4.6,0.3-7.2h-0.2l-10.2,26.3H1325.6z"/>
		<path class="st30" d="M1358.1,508.9c-3.3,0-5.9-1-7.8-3c-1.9-2-2.9-4.8-2.9-8.4c0-3.6,0.9-6.5,2.7-8.6c1.8-2.1,4.1-3.2,7.1-3.2
			c2.8,0,5,0.9,6.6,2.8c1.6,1.8,2.4,4.3,2.4,7.3v2.1h-15.4c0.1,2.6,0.7,4.6,2,6c1.3,1.4,3,2,5.3,2c2.4,0,4.8-0.5,7.1-1.5v3
			c-1.2,0.5-2.3,0.9-3.4,1.1C1360.9,508.8,1359.6,508.9,1358.1,508.9z M1357.1,488.6c-1.8,0-3.2,0.6-4.3,1.8
			c-1.1,1.2-1.7,2.8-1.9,4.8h11.7c0-2.1-0.5-3.8-1.4-4.9C1360.3,489.2,1358.9,488.6,1357.1,488.6z"/>
		<path class="st30" d="M1378.4,506.1c0.6,0,1.2,0,1.7-0.1c0.6-0.1,1-0.2,1.3-0.3v2.6c-0.4,0.2-0.9,0.3-1.6,0.4
			c-0.7,0.1-1.4,0.2-1.9,0.2c-4.3,0-6.5-2.3-6.5-6.8v-13.3h-3.2v-1.6l3.2-1.4l1.4-4.8h2v5.2h6.5v2.6h-6.5v13.1c0,1.3,0.3,2.4,1,3.1
			C1376.4,505.8,1377.2,506.1,1378.4,506.1z"/>
		<path class="st30" d="M1398.7,508.5l-0.7-3.2h-0.2c-1.1,1.4-2.2,2.3-3.3,2.8s-2.5,0.7-4.1,0.7c-2.2,0-3.9-0.6-5.2-1.7
			c-1.3-1.1-1.9-2.8-1.9-4.9c0-4.5,3.6-6.9,10.8-7.1l3.8-0.1v-1.4c0-1.8-0.4-3-1.1-3.9s-2-1.3-3.6-1.3c-1.9,0-4,0.6-6.3,1.7l-1-2.6
			c1.1-0.6,2.3-1.1,3.6-1.4s2.6-0.5,3.9-0.5c2.7,0,4.6,0.6,5.9,1.8c1.3,1.2,1.9,3.1,1.9,5.7v15.2H1398.7z M1391.1,506.1
			c2.1,0,3.8-0.6,5-1.7s1.8-2.8,1.8-4.8v-2l-3.4,0.1c-2.7,0.1-4.6,0.5-5.8,1.3c-1.2,0.7-1.8,1.9-1.8,3.5c0,1.2,0.4,2.2,1.1,2.8
			C1388.7,505.8,1389.7,506.1,1391.1,506.1z"/>
		<path class="st30" d="M1410.7,508.5h-3.4v-31.7h3.4V508.5z"/>
	</g>
	<g class="st28">
		<path class="st30" d="M1215.5,896.9c-3.3,0-5.9,1.1-7.7,3.3c-1.9,2.2-2.8,5.2-2.8,8.9c0,3.9,0.9,6.9,2.7,9
			c1.8,2.1,4.4,3.2,7.8,3.2c2.1,0,4.4-0.4,7.1-1.1v3c-2.1,0.8-4.6,1.2-7.6,1.2c-4.4,0-7.8-1.3-10.1-4c-2.4-2.7-3.6-6.4-3.6-11.3
			c0-3.1,0.6-5.8,1.7-8.1c1.1-2.3,2.8-4.1,5-5.3c2.2-1.2,4.7-1.9,7.6-1.9c3.1,0,5.8,0.6,8.2,1.7l-1.5,3
			C1220,897.5,1217.7,896.9,1215.5,896.9z"/>
		<path class="st30" d="M1246.9,912.9c0,3.6-0.9,6.5-2.7,8.5s-4.4,3.1-7.6,3.1c-2,0-3.8-0.5-5.3-1.4c-1.5-0.9-2.7-2.3-3.6-4
			c-0.8-1.8-1.3-3.8-1.3-6.1c0-3.6,0.9-6.5,2.7-8.5s4.3-3,7.6-3c3.1,0,5.6,1,7.4,3.1S1246.9,909.3,1246.9,912.9z M1229.9,912.9
			c0,2.9,0.6,5,1.7,6.5c1.1,1.5,2.8,2.2,5,2.2s3.9-0.7,5-2.2c1.1-1.5,1.7-3.7,1.7-6.5c0-2.8-0.6-5-1.7-6.5c-1.1-1.5-2.8-2.2-5.1-2.2
			c-2.2,0-3.9,0.7-5,2.2C1230.5,907.8,1229.9,910,1229.9,912.9z"/>
		<path class="st30" d="M1262.3,901.4c2.9,0,5.2,1,6.8,3c1.6,2,2.4,4.8,2.4,8.5s-0.8,6.5-2.5,8.5c-1.6,2-3.9,3-6.8,3
			c-1.5,0-2.8-0.3-4-0.8c-1.2-0.5-2.2-1.4-3-2.5h-0.2l-0.7,2.9h-2.4v-31.7h3.4v7.7c0,1.7-0.1,3.3-0.2,4.6h0.2
			C1256.9,902.5,1259.2,901.4,1262.3,901.4z M1261.8,904.2c-2.3,0-4,0.7-5,2s-1.5,3.6-1.5,6.7s0.5,5.4,1.6,6.7c1,1.4,2.7,2,5,2
			c2.1,0,3.6-0.8,4.6-2.3c1-1.5,1.5-3.7,1.5-6.5c0-2.9-0.5-5.1-1.5-6.5S1264,904.2,1261.8,904.2z"/>
		<path class="st30" d="M1287,901.4c2.9,0,5.2,1,6.8,3c1.6,2,2.4,4.8,2.4,8.5s-0.8,6.5-2.5,8.5c-1.6,2-3.9,3-6.8,3
			c-1.5,0-2.8-0.3-4-0.8c-1.2-0.5-2.2-1.4-3-2.5h-0.2l-0.7,2.9h-2.4v-31.7h3.4v7.7c0,1.7-0.1,3.3-0.2,4.6h0.2
			C1281.6,902.5,1283.9,901.4,1287,901.4z M1286.5,904.2c-2.3,0-4,0.7-5,2s-1.5,3.6-1.5,6.7s0.5,5.4,1.6,6.7c1,1.4,2.7,2,5,2
			c2.1,0,3.6-0.8,4.6-2.3c1-1.5,1.5-3.7,1.5-6.5c0-2.9-0.5-5.1-1.5-6.5S1288.6,904.2,1286.5,904.2z"/>
		<path class="st30" d="M1304.7,924h-3.4v-31.7h3.4V924z"/>
		<path class="st30" d="M1320.4,924.4c-3.3,0-5.9-1-7.8-3c-1.9-2-2.9-4.8-2.9-8.4c0-3.6,0.9-6.5,2.7-8.6c1.8-2.1,4.1-3.2,7.1-3.2
			c2.8,0,5,0.9,6.6,2.8c1.6,1.8,2.4,4.3,2.4,7.3v2.1h-15.4c0.1,2.6,0.7,4.6,2,6c1.3,1.4,3,2,5.3,2c2.4,0,4.8-0.5,7.1-1.5v3
			c-1.2,0.5-2.3,0.9-3.4,1.1C1323.2,924.3,1321.9,924.4,1320.4,924.4z M1319.5,904.1c-1.8,0-3.2,0.6-4.3,1.8s-1.7,2.8-1.9,4.8h11.7
			c0-2.1-0.5-3.8-1.4-4.9C1322.6,904.7,1321.2,904.1,1319.5,904.1z"/>
		<path class="st30" d="M1343.6,901.3c1,0,1.9,0.1,2.7,0.2l-0.5,3.1c-0.9-0.2-1.7-0.3-2.4-0.3c-1.8,0-3.3,0.7-4.6,2.2
			c-1.3,1.5-1.9,3.3-1.9,5.5v12h-3.4v-22.3h2.8l0.4,4.1h0.2c0.8-1.5,1.8-2.6,3-3.4S1342.2,901.3,1343.6,901.3z"/>
	</g>
	<g class="st28">
		<path class="st30" d="M1252.5,972.7l-3.7-9.5h-11.9l-3.7,9.5h-3.5l11.8-29.9h2.9l11.7,29.9H1252.5z M1247.7,960.2l-3.5-9.2
			c-0.4-1.2-0.9-2.6-1.4-4.3c-0.3,1.3-0.7,2.7-1.3,4.3l-3.5,9.2H1247.7z"/>
		<path class="st30" d="M1285.2,972.7h-3.4l-6-19.9c-0.3-0.9-0.6-2-1-3.3c-0.4-1.3-0.5-2.2-0.5-2.4c-0.3,1.8-0.8,3.8-1.4,5.9
			l-5.8,19.8h-3.4l-7.9-29.8h3.7l4.7,18.4c0.7,2.6,1.1,4.9,1.4,7c0.4-2.5,0.9-4.9,1.6-7.3l5.3-18.1h3.7l5.6,18.3
			c0.7,2.1,1.2,4.5,1.6,7.1c0.3-1.9,0.7-4.3,1.5-7l4.7-18.3h3.7L1285.2,972.7z"/>
		<path class="st30" d="M1313.8,964.8c0,2.6-0.9,4.7-2.8,6.1c-1.9,1.5-4.5,2.2-7.7,2.2c-3.5,0-6.2-0.5-8.1-1.4v-3.3
			c1.2,0.5,2.6,0.9,4,1.2c1.4,0.3,2.9,0.4,4.3,0.4c2.3,0,4-0.4,5.2-1.3c1.2-0.9,1.8-2.1,1.8-3.7c0-1-0.2-1.9-0.6-2.5
			s-1.1-1.3-2.1-1.8c-1-0.6-2.4-1.2-4.4-1.9c-2.8-1-4.7-2.2-5.9-3.5c-1.2-1.4-1.8-3.1-1.8-5.3c0-2.3,0.9-4.1,2.6-5.5
			c1.7-1.4,4-2,6.8-2c3,0,5.7,0.5,8.2,1.6l-1.1,3c-2.5-1-4.8-1.5-7.2-1.5c-1.8,0-3.3,0.4-4.3,1.2s-1.5,1.9-1.5,3.3
			c0,1,0.2,1.9,0.6,2.5s1,1.3,1.9,1.8s2.3,1.2,4.1,1.8c3.1,1.1,5.3,2.3,6.4,3.6C1313.2,961.1,1313.8,962.8,1313.8,964.8z"/>
	</g>
	<g class="st28">
		<path class="st30" d="M1237.1,1031.2c-1.3,0-2.3-0.2-3-0.5v-3c1,0.3,2,0.4,3,0.4c1.3,0,2.4-0.4,3.1-1.2s1-2,1-3.5v-29.8h3.5v29.5
			c0,2.6-0.7,4.6-2,6S1239.5,1031.2,1237.1,1031.2z"/>
		<path class="st30" d="M1254.3,1001.1v14.5c0,1.8,0.4,3.2,1.2,4.1c0.8,0.9,2.1,1.3,3.9,1.3c2.3,0,4-0.6,5.1-1.9
			c1.1-1.3,1.6-3.4,1.6-6.2v-11.7h3.4v22.3h-2.8l-0.5-3h-0.2c-0.7,1.1-1.7,1.9-2.9,2.5c-1.2,0.6-2.6,0.9-4.2,0.9
			c-2.7,0-4.7-0.6-6.1-1.9c-1.4-1.3-2-3.4-2-6.2v-14.6H1254.3z"/>
		<path class="st30" d="M1272,1031.2c-1.3,0-2.3-0.2-3-0.5v-3c1,0.3,2,0.4,3,0.4c1.3,0,2.4-0.4,3.1-1.2s1-2,1-3.5v-29.8h3.5v29.5
			c0,2.6-0.7,4.6-2,6S1274.5,1031.2,1272,1031.2z"/>
		<path class="st30" d="M1289.3,1001.1v14.5c0,1.8,0.4,3.2,1.2,4.1c0.8,0.9,2.1,1.3,3.9,1.3c2.3,0,4-0.6,5.1-1.9
			c1.1-1.3,1.6-3.4,1.6-6.2v-11.7h3.4v22.3h-2.8l-0.5-3h-0.2c-0.7,1.1-1.7,1.9-2.9,2.5c-1.2,0.6-2.6,0.9-4.2,0.9
			c-2.7,0-4.7-0.6-6.1-1.9c-1.4-1.3-2-3.4-2-6.2v-14.6H1289.3z"/>
	</g>
	<g class="st28">
	</g>
</g>
<g>
	<defs>
		<rect id="SVGID_45_" x="850.7" y="517.7" width="359.1" height="359.1"/>
	</defs>
	<clipPath id="SVGID_46_">
		<use xlink:href="#SVGID_45_"  style="overflow:visible;"/>
	</clipPath>
	<g class="st34">
		<defs>
			<rect id="SVGID_47_" x="851" y="518.8" width="357.7" height="358"/>
		</defs>
		<clipPath id="SVGID_48_">
			<use xlink:href="#SVGID_47_"  style="overflow:visible;"/>
		</clipPath>
		<g class="st35">
			<defs>
				<rect id="SVGID_49_" x="850.7" y="517.7" width="359.1" height="359.1"/>
			</defs>
			<clipPath id="SVGID_50_">
				<use xlink:href="#SVGID_49_"  style="overflow:visible;"/>
			</clipPath>
			<path class="st36" d="M1208.7,697.8c0,98.9-80.1,179-179,179c-98.9,0-179-80.1-179-179c0-98.9,80.2-179,179-179
				C1128.6,518.8,1208.7,598.9,1208.7,697.8"/>
		</g>
	</g>
</g>
<g>
	<defs>
		<rect id="SVGID_51_" x="850.7" y="517.7" width="359.1" height="359.1"/>
	</defs>
	<clipPath id="SVGID_52_">
		<use xlink:href="#SVGID_51_"  style="overflow:visible;"/>
	</clipPath>
	<g class="st37">
		<defs>
			<rect id="SVGID_53_" x="850.7" y="517.7" width="359.1" height="359.1"/>
		</defs>
		<clipPath id="SVGID_54_">
			<use xlink:href="#SVGID_53_"  style="overflow:visible;"/>
		</clipPath>
		<path class="st38" d="M1032.7,628.1l46.3,114.3l-70-55.1L1032.7,628.1 M1115,768.8l-71.3-171.5c-2-4.9-6.1-7.6-11-7.6
			c-4.9,0-9.3,2.6-11.3,7.6l-78.2,188.1h26.8l31-77.6l92.4,74.6c3.7,3,6.4,4.4,9.9,4.4c7,0,13.1-5.2,13.1-12.8
			C1116.2,772.8,1115.8,770.9,1115,768.8"/>
	</g>
</g>
</svg>
