<?xml version="1.0" encoding="utf-8"?>
<!-- Generator: Adobe Illustrator 21.0.2, SVG Export Plug-In . SVG Version: 6.00 Build 0)  -->
<svg version="1.1" id="logo" xmlns="http://www.w3.org/2000/svg" xmlns:xlink="http://www.w3.org/1999/xlink" x="0px" y="0px"
	 viewBox="0 0 576 82" style="enable-background:new 0 0 576 82;" xml:space="preserve">
<style type="text/css">
	.st0{fill:#FFFFFF;}
</style>
<title>Ansible-byRedHat-Wordmark-RGB</title>
<path class="st0" d="M153.5,71.6c-1.3,0.1-2.6-0.4-3.4-1.4L111.4,22v49.1h-8.8V10.6c0.1-2.4,2.1-4.4,4.5-4.3
	c1.4-0.1,2.7,0.5,3.5,1.5l38.6,48.1v-49h8.8v60.4C158,69.7,156,71.6,153.5,71.6C153.6,71.6,153.6,71.6,153.5,71.6"/>
<path class="st0" d="M226.5,72.2c-9.1-0.1-18.1-1.7-26.7-4.8l2.1-6.9c7.9,2.6,16.2,3.9,24.6,4.1c11.1,0,16.9-3.8,16.9-9.1
	c0-4.8-4.5-7.2-20-14.2c-15.5-6.9-21.6-11.4-21.6-20c0-10.9,8.8-15.3,25.5-15.3c8,0.1,15.9,1.2,23.7,3.1l-1.4,7.1
	c-7.2-1.6-14.6-2.5-22-2.6c-11.7,0-16.5,2.1-16.5,7.4c0,5.2,3.5,7.4,19.9,14.6c17.3,7.6,21.7,11.5,21.7,19.4
	C252.6,66.5,241.1,72.2,226.5,72.2"/>
<rect x="294.4" y="6.9" class="st0" width="9.1" height="64.2"/>
<path class="st0" d="M381.1,42h-22.7v21.8h22.7c7.7,0,12.4-4.6,12.4-11.1C393.5,46.6,388.6,42,381.1,42 M376.6,14.3h-18.2v20.5h18.2
	c7.3,0,12.6-4.4,12.6-10.6C389.3,18.1,384.7,14.3,376.6,14.3 M381.2,71.1h-27.3c-2.4,0.1-4.5-1.8-4.6-4.3v-0.1V11.2
	c0.1-2.5,2.1-4.4,4.6-4.3h22.5c13.8,0,22,6.5,22,16.6c-0.2,5.7-3.5,10.9-8.6,13.6c7.7,2.2,12.9,8.3,12.9,15.6
	C402.8,62.9,393.9,71.1,381.2,71.1"/>
<path class="st0" d="M446.6,71.1c-2.4,0-4.4-1.9-4.5-4.3V6.9h9.1v56.4h36.3v7.8L446.6,71.1L446.6,71.1z"/>
<path class="st0" d="M549.7,72.2c-18.6,0-29.9-6.6-29.9-19.8c0.1-6.8,4.5-12.9,10.9-15c-5.8-3.5-8.8-8.4-8.8-13.8
	c0-11.9,9.7-17.6,28-17.6c7.4,0,14.7,0.8,21.9,2.2l-1,7.1c-7.2-1.2-14.4-1.8-21.6-1.8c-11.8,0-18.1,3.1-18.1,10.5
	c0,5.9,5.8,10.5,13.5,10.5h15.6c2-0.1,3.8,1.5,3.9,3.5c0.1,2-1.5,3.8-3.5,3.9c-0.1,0-0.3,0-0.4,0h-16.8c-8.8,0-14.4,4.1-14.4,10.5
	c0,9.3,9.1,12.1,20.5,12.1c7.2,0,14.4-0.8,21.4-2.3l1.3,7C564.8,71.2,557.3,72.1,549.7,72.2"/>
<path class="st0" d="M34.8,19l16,37.9L26.7,38.6L34.8,19z M63.1,65.6L38.5,8.8c-0.6-1.6-2.1-2.6-3.8-2.5c-1.7-0.1-3.2,0.9-3.9,2.5
	l-27,62.3H13l10.7-25.7l31.9,24.7c0.9,0.9,2.1,1.4,3.4,1.4c2.4,0.1,4.4-1.8,4.5-4.1v-0.1C63.5,66.7,63.4,66.2,63.1,65.6"/>
</svg>
