<svg id="Layer_1" data-name="Layer 1" xmlns="http://www.w3.org/2000/svg" xmlns:xlink="http://www.w3.org/1999/xlink" viewBox="0 0 620.48 217.47"><defs><clipPath id="clip-path" transform="translate(-46.41 -15.5)"><rect x="46.41" y="39.56" width="621.15" height="81.05" fill="none"/></clipPath><clipPath id="clip-path-3" transform="translate(-46.41 -15.5)"><polyline points="0 -138 0 267 720 267 720 -138" fill="none"/></clipPath><clipPath id="clip-path-4" transform="translate(-46.41 -15.5)"><rect x="179.16" y="138.11" width="111.1" height="75.66" fill="none"/></clipPath><clipPath id="clip-path-5" transform="translate(-46.41 -15.5)"><rect x="179.17" y="138.14" width="110.96" height="75.62" fill="none"/></clipPath><clipPath id="clip-path-9" transform="translate(-46.41 -15.5)"><rect x="58.3" y="138.11" width="111.1" height="75.66" fill="none"/></clipPath><clipPath id="clip-path-10" transform="translate(-46.41 -15.5)"><rect x="58.31" y="138.14" width="110.96" height="75.62" fill="none"/></clipPath><clipPath id="clip-path-14" transform="translate(-46.41 -15.5)"><rect x="420.97" y="138.11" width="111.1" height="75.66" fill="none"/></clipPath><clipPath id="clip-path-15" transform="translate(-46.41 -15.5)"><rect x="420.98" y="138.14" width="110.96" height="75.62" fill="none"/></clipPath><clipPath id="clip-path-19" transform="translate(-46.41 -15.5)"><rect x="299.4" y="138.11" width="111.1" height="75.66" fill="none"/></clipPath><clipPath id="clip-path-20" transform="translate(-46.41 -15.5)"><rect x="299.41" y="138.14" width="110.96" height="75.62" fill="none"/></clipPath><clipPath id="clip-path-24" transform="translate(-46.41 -15.5)"><rect x="542.02" y="138.11" width="111.1" height="75.66" fill="none"/></clipPath><clipPath id="clip-path-25" transform="translate(-46.41 -15.5)"><rect x="542.03" y="138.14" width="110.96" height="75.62" fill="none"/></clipPath><clipPath id="clip-path-29" transform="translate(-46.41 -15.5)"><rect x="326.24" y="35.23" width="53.62" height="74.97" fill="none"/></clipPath></defs><title>DevOps-Language-Diagram</title><g clip-path="url(#clip-path)"><g clip-path="url(#clip-path)"><polyline points="620.48 64.88 581.78 105.11 581.78 24.64 620.48 64.88" fill="#e2e3e4"/><polyline points="0 64.88 38.7 24.64 38.7 105.11 0 64.88" fill="#e2e3e4"/><rect x="35.3" y="41.11" width="548.67" height="46.76" fill="#e2e3e4"/></g></g><g clip-path="url(#clip-path-3)"><path d="M101.24,85.46h-.9V72.61h7v.83h-6.14v5.45H107v.83h-5.8Z" transform="translate(-46.41 -15.5)" fill="#424c55"/><path d="M112.92,75.72a7.48,7.48,0,0,1,1.3.12l-.17.83a5.09,5.09,0,0,0-1.24-.15,2.41,2.41,0,0,0-2,1,4.23,4.23,0,0,0-.78,2.62v5.27h-.87V75.91h.74l.09,1.72H110a4.06,4.06,0,0,1,1.26-1.48A3,3,0,0,1,112.92,75.72Z" transform="translate(-46.41 -15.5)" fill="#424c55"/><path d="M124.06,80.67a5.41,5.41,0,0,1-1.13,3.65,3.91,3.91,0,0,1-3.13,1.31,4.05,4.05,0,0,1-2.21-.61,3.88,3.88,0,0,1-1.47-1.74,6.33,6.33,0,0,1-.51-2.62A5.38,5.38,0,0,1,116.74,77a3.91,3.91,0,0,1,3.11-1.3A3.84,3.84,0,0,1,122.94,77,5.44,5.44,0,0,1,124.06,80.67Zm-7.54,0a4.86,4.86,0,0,0,.87,3.07,3.27,3.27,0,0,0,4.9,0,4.86,4.86,0,0,0,.87-3.07,4.79,4.79,0,0,0-.87-3.07,3,3,0,0,0-2.46-1.09,2.93,2.93,0,0,0-2.44,1.09A4.85,4.85,0,0,0,116.52,80.67Z" transform="translate(-46.41 -15.5)" fill="#424c55"/><path d="M138.64,85.46V79.19a3.12,3.12,0,0,0-.54-2,2.07,2.07,0,0,0-1.67-.64,2.73,2.73,0,0,0-2.17.81,3.81,3.81,0,0,0-.7,2.54v5.6h-.89V78.93q0-2.42-2.21-2.42a2.61,2.61,0,0,0-2.19.88,4.55,4.55,0,0,0-.69,2.8v5.27h-.87V75.91h.72l.18,1.31h.05a2.75,2.75,0,0,1,1.13-1.1,3.36,3.36,0,0,1,1.61-.39,2.75,2.75,0,0,1,2.9,1.7h0a3.25,3.25,0,0,1,1.25-1.26,3.6,3.6,0,0,1,1.79-.44,3.07,3.07,0,0,1,2.35.83,3.79,3.79,0,0,1,.78,2.65v6.25Z" transform="translate(-46.41 -15.5)" fill="#424c55"/><path d="M150.77,75.72a4,4,0,0,1,1.79.38,3.57,3.57,0,0,1,1.35,1.29H154q-.05-1.11-.05-2.17V71.78h.86V85.46h-.57L154,84h-.07a3.54,3.54,0,0,1-3.13,1.63,3.75,3.75,0,0,1-3-1.23,5.4,5.4,0,0,1-1-3.59,6,6,0,0,1,1-3.79A3.62,3.62,0,0,1,150.77,75.72Zm0,.79a2.7,2.7,0,0,0-2.35,1.1,5.44,5.44,0,0,0-.79,3.19q0,4.06,3.16,4.06a2.86,2.86,0,0,0,2.37-.94,5,5,0,0,0,.76-3.1v-.15a5.32,5.32,0,0,0-.74-3.19A2.84,2.84,0,0,0,150.77,76.51Z" transform="translate(-46.41 -15.5)" fill="#424c55"/><path d="M161.85,85.64a4.16,4.16,0,0,1-3.25-1.28,5.16,5.16,0,0,1-1.16-3.59,5.61,5.61,0,0,1,1.13-3.66,3.72,3.72,0,0,1,3-1.37,3.27,3.27,0,0,1,2.66,1.18,4.86,4.86,0,0,1,1,3.2v.7h-6.88a4.52,4.52,0,0,0,.92,3,3.23,3.23,0,0,0,2.58,1,8,8,0,0,0,1.44-.11,8.73,8.73,0,0,0,1.57-.49V85a7,7,0,0,1-1.49.48A8.38,8.38,0,0,1,161.85,85.64Zm-.25-9.14a2.86,2.86,0,0,0-2.21.91,4.29,4.29,0,0,0-1,2.62h5.91a4.17,4.17,0,0,0-.72-2.6A2.38,2.38,0,0,0,161.59,76.5Z" transform="translate(-46.41 -15.5)" fill="#424c55"/><path d="M170,85.46l-3.69-9.55h.9l2.47,6.5a20,20,0,0,1,.74,2.18h.05q.36-1.2.74-2.2l2.47-6.48h.9l-3.69,9.55Z" transform="translate(-46.41 -15.5)" fill="#424c55"/><path d="M180,85.64a4.16,4.16,0,0,1-3.25-1.28,5.16,5.16,0,0,1-1.16-3.59,5.61,5.61,0,0,1,1.13-3.66,3.72,3.72,0,0,1,3-1.37,3.27,3.27,0,0,1,2.66,1.18,4.86,4.86,0,0,1,1,3.2v.7h-6.88a4.52,4.52,0,0,0,.92,3,3.23,3.23,0,0,0,2.58,1,8,8,0,0,0,1.44-.11,8.73,8.73,0,0,0,1.57-.49V85a7,7,0,0,1-1.49.48A8.38,8.38,0,0,1,180,85.64Zm-.25-9.14a2.86,2.86,0,0,0-2.21.91,4.29,4.29,0,0,0-1,2.62h5.91a4.17,4.17,0,0,0-.72-2.6A2.38,2.38,0,0,0,179.73,76.5Z" transform="translate(-46.41 -15.5)" fill="#424c55"/><path d="M186.88,85.46H186V71.78h.87Z" transform="translate(-46.41 -15.5)" fill="#424c55"/><path d="M198,80.67a5.41,5.41,0,0,1-1.13,3.65,3.91,3.91,0,0,1-3.13,1.31A4.05,4.05,0,0,1,191.5,85,3.88,3.88,0,0,1,190,83.29a6.33,6.33,0,0,1-.51-2.62A5.38,5.38,0,0,1,190.66,77a3.91,3.91,0,0,1,3.11-1.3A3.84,3.84,0,0,1,196.86,77,5.44,5.44,0,0,1,198,80.67Zm-7.54,0a4.86,4.86,0,0,0,.87,3.07,3.27,3.27,0,0,0,4.9,0,4.86,4.86,0,0,0,.87-3.07,4.79,4.79,0,0,0-.87-3.07,3,3,0,0,0-2.46-1.09,2.93,2.93,0,0,0-2.44,1.09A4.85,4.85,0,0,0,190.44,80.67Z" transform="translate(-46.41 -15.5)" fill="#424c55"/><path d="M204.71,85.64A3.49,3.49,0,0,1,201.49,84h-.06l0,.74q0,.65,0,1.42v3.64h-.87V75.91h.74l.17,1.36h.05a3.45,3.45,0,0,1,3.15-1.55A3.55,3.55,0,0,1,207.68,77a5.81,5.81,0,0,1,1,3.7,5.59,5.59,0,0,1-1.07,3.65A3.57,3.57,0,0,1,204.71,85.64Zm0-.77A2.66,2.66,0,0,0,207,83.77a5.05,5.05,0,0,0,.8-3q0-4.21-3-4.21a3.05,3.05,0,0,0-2.45.92,4.6,4.6,0,0,0-.78,3v.28a5.26,5.26,0,0,0,.75,3.2A2.92,2.92,0,0,0,204.69,84.86Z" transform="translate(-46.41 -15.5)" fill="#424c55"/><path d="M223.27,85.46V79.19a3.12,3.12,0,0,0-.54-2,2.07,2.07,0,0,0-1.67-.64,2.73,2.73,0,0,0-2.17.81,3.81,3.81,0,0,0-.7,2.54v5.6h-.89V78.93q0-2.42-2.21-2.42a2.61,2.61,0,0,0-2.19.88,4.55,4.55,0,0,0-.69,2.8v5.27h-.87V75.91h.72l.18,1.31h.05a2.75,2.75,0,0,1,1.13-1.1,3.36,3.36,0,0,1,1.61-.39,2.75,2.75,0,0,1,2.9,1.7h0a3.25,3.25,0,0,1,1.25-1.26,3.6,3.6,0,0,1,1.79-.44,3.07,3.07,0,0,1,2.35.83,3.79,3.79,0,0,1,.78,2.65v6.25Z" transform="translate(-46.41 -15.5)" fill="#424c55"/><path d="M231.09,85.64a4.16,4.16,0,0,1-3.25-1.28,5.16,5.16,0,0,1-1.16-3.59,5.61,5.61,0,0,1,1.13-3.66,3.72,3.72,0,0,1,3-1.37,3.27,3.27,0,0,1,2.66,1.18,4.86,4.86,0,0,1,1,3.2v.7h-6.88a4.52,4.52,0,0,0,.92,3,3.23,3.23,0,0,0,2.58,1,8,8,0,0,0,1.44-.11,8.73,8.73,0,0,0,1.57-.49V85a7,7,0,0,1-1.49.48A8.38,8.38,0,0,1,231.09,85.64Zm-.25-9.14a2.86,2.86,0,0,0-2.21.91,4.29,4.29,0,0,0-1,2.62h5.91a4.17,4.17,0,0,0-.72-2.6A2.38,2.38,0,0,0,230.83,76.5Z" transform="translate(-46.41 -15.5)" fill="#424c55"/><path d="M243.77,85.46v-6.2a3,3,0,0,0-.61-2.1,2.45,2.45,0,0,0-1.88-.65,3.26,3.26,0,0,0-2.51.87,4.08,4.08,0,0,0-.8,2.81v5.27h-.87V75.91h.74l.17,1.31h.05a3.59,3.59,0,0,1,3.31-1.49q3.25,0,3.25,3.49v6.25Z" transform="translate(-46.41 -15.5)" fill="#424c55"/><path d="M250.25,84.86a6.53,6.53,0,0,0,1.44-.14v.7a4.61,4.61,0,0,1-1.46.21,2.38,2.38,0,0,1-1.87-.68,3.14,3.14,0,0,1-.6-2.13V76.66h-1.42v-.51l1.42-.4.44-2.16h.45v2.31h2.8v.76h-2.8v6a2.76,2.76,0,0,0,.39,1.63A1.4,1.4,0,0,0,250.25,84.86Z" transform="translate(-46.41 -15.5)" fill="#424c55"/><path d="M253.58,84.77q0-.86.7-.86t.72.86q0,.86-.72.86T253.58,84.77Zm4.3,0q0-.86.7-.86t.72.86q0,.86-.72.86T257.88,84.77Zm4.31,0q0-.86.7-.86t.72.86q0,.86-.72.86T262.18,84.77Z" transform="translate(-46.41 -15.5)" fill="#868686"/><path d="M479.95,85.31q0-.86.7-.86t.72.86q0,.86-.72.86T479.95,85.31Zm4.3,0q0-.86.7-.86t.72.86q0,.86-.72.86T484.24,85.31Zm4.31,0q0-.86.7-.86t.72.86q0,.86-.72.86T488.55,85.31Z" transform="translate(-46.41 -15.5)" fill="#868686"/><path d="M495.53,85.39a6.53,6.53,0,0,0,1.44-.14V86a4.61,4.61,0,0,1-1.46.21,2.38,2.38,0,0,1-1.87-.68,3.14,3.14,0,0,1-.6-2.13V77.19h-1.42v-.51l1.42-.4.44-2.16h.45v2.31h2.8v.76h-2.8v6a2.76,2.76,0,0,0,.39,1.63A1.4,1.4,0,0,0,495.53,85.39Z" transform="translate(-46.41 -15.5)" fill="#424c55"/><path d="M506.94,81.2a5.41,5.41,0,0,1-1.13,3.65,3.91,3.91,0,0,1-3.13,1.31,4.05,4.05,0,0,1-2.21-.61A3.88,3.88,0,0,1,499,83.82a6.33,6.33,0,0,1-.51-2.62,5.38,5.38,0,0,1,1.13-3.64,3.91,3.91,0,0,1,3.11-1.3,3.83,3.83,0,0,1,3.09,1.32A5.44,5.44,0,0,1,506.94,81.2Zm-7.54,0a4.86,4.86,0,0,0,.87,3.07,3.27,3.27,0,0,0,4.9,0A4.86,4.86,0,0,0,506,81.2a4.79,4.79,0,0,0-.87-3.07A3,3,0,0,0,502.69,77a2.93,2.93,0,0,0-2.44,1.09A4.85,4.85,0,0,0,499.4,81.2Z" transform="translate(-46.41 -15.5)" fill="#424c55"/><path d="M518.34,86.17a3.49,3.49,0,0,1-3.22-1.65h-.06l0,.74q0,.65,0,1.42v3.64h-.87V76.44H515l.17,1.36h.05a3.45,3.45,0,0,1,3.15-1.55,3.55,3.55,0,0,1,2.95,1.27,5.81,5.81,0,0,1,1,3.7,5.59,5.59,0,0,1-1.07,3.65A3.57,3.57,0,0,1,518.34,86.17Zm0-.77a2.66,2.66,0,0,0,2.27-1.09,5.05,5.05,0,0,0,.8-3q0-4.21-3-4.21a3.05,3.05,0,0,0-2.45.92,4.6,4.6,0,0,0-.78,3v.28a5.26,5.26,0,0,0,.75,3.2A2.92,2.92,0,0,0,518.33,85.39Z" transform="translate(-46.41 -15.5)" fill="#424c55"/><path d="M528.73,76.25a7.48,7.48,0,0,1,1.3.12l-.17.83a5.09,5.09,0,0,0-1.24-.15,2.41,2.41,0,0,0-2,1,4.23,4.23,0,0,0-.78,2.62V86H525V76.44h.74l.09,1.72h.06a4.06,4.06,0,0,1,1.26-1.48A3,3,0,0,1,528.73,76.25Z" transform="translate(-46.41 -15.5)" fill="#424c55"/><path d="M539.88,81.2a5.41,5.41,0,0,1-1.13,3.65,3.91,3.91,0,0,1-3.13,1.31,4.05,4.05,0,0,1-2.21-.61,3.88,3.88,0,0,1-1.47-1.74,6.33,6.33,0,0,1-.51-2.62,5.38,5.38,0,0,1,1.13-3.64,3.91,3.91,0,0,1,3.11-1.3,3.83,3.83,0,0,1,3.09,1.32A5.44,5.44,0,0,1,539.88,81.2Zm-7.54,0a4.86,4.86,0,0,0,.87,3.07,3.27,3.27,0,0,0,4.9,0A4.86,4.86,0,0,0,539,81.2a4.79,4.79,0,0,0-.87-3.07A3,3,0,0,0,535.63,77a2.93,2.93,0,0,0-2.44,1.09A4.85,4.85,0,0,0,532.34,81.2Z" transform="translate(-46.41 -15.5)" fill="#424c55"/><path d="M546,76.25a4,4,0,0,1,1.79.38,3.57,3.57,0,0,1,1.35,1.29h.05q-.05-1.11-.05-2.17V72.32H550V86h-.57l-.22-1.46h-.07A3.54,3.54,0,0,1,546,86.17a3.75,3.75,0,0,1-3-1.23,5.4,5.4,0,0,1-1-3.59,6,6,0,0,1,1-3.79A3.62,3.62,0,0,1,546,76.25Zm0,.79a2.7,2.7,0,0,0-2.35,1.1,5.44,5.44,0,0,0-.79,3.19q0,4.06,3.16,4.06a2.86,2.86,0,0,0,2.37-.94,5,5,0,0,0,.76-3.1V81.2a5.32,5.32,0,0,0-.74-3.19A2.84,2.84,0,0,0,546,77Z" transform="translate(-46.41 -15.5)" fill="#424c55"/><path d="M554,76.44v6.19a3,3,0,0,0,.61,2.1,2.45,2.45,0,0,0,1.88.65,3.28,3.28,0,0,0,2.51-.86,4,4,0,0,0,.8-2.8V76.44h.86V86h-.74l-.16-1.32h-.05a3.59,3.59,0,0,1-3.31,1.49q-3.26,0-3.26-3.49V76.44Z" transform="translate(-46.41 -15.5)" fill="#424c55"/><path d="M567.67,86.17a4.09,4.09,0,0,1-3.21-1.29,5.2,5.2,0,0,1-1.16-3.6,5.29,5.29,0,0,1,1.2-3.7,4.24,4.24,0,0,1,3.3-1.32,6.63,6.63,0,0,1,2.37.43l-.24.77a7,7,0,0,0-2.15-.41,3.27,3.27,0,0,0-2.66,1.09,4.76,4.76,0,0,0-.91,3.12,4.62,4.62,0,0,0,.91,3,3.11,3.11,0,0,0,2.53,1.09,6.21,6.21,0,0,0,2.42-.47v.81A5.48,5.48,0,0,1,567.67,86.17Z" transform="translate(-46.41 -15.5)" fill="#424c55"/><path d="M574.93,85.39a6.53,6.53,0,0,0,1.44-.14V86a4.61,4.61,0,0,1-1.46.21,2.38,2.38,0,0,1-1.87-.68,3.14,3.14,0,0,1-.6-2.13V77.19H571v-.51l1.42-.4.44-2.16h.45v2.31h2.8v.76h-2.8v6a2.76,2.76,0,0,0,.39,1.63A1.4,1.4,0,0,0,574.93,85.39Z" transform="translate(-46.41 -15.5)" fill="#424c55"/><path d="M578.31,73.78q0-.84.55-.84a.49.49,0,0,1,.43.22,1.08,1.08,0,0,1,.15.62,1.1,1.1,0,0,1-.15.62.49.49,0,0,1-.43.23Q578.31,74.64,578.31,73.78Zm1,12.21h-.87V76.44h.87Z" transform="translate(-46.41 -15.5)" fill="#424c55"/><path d="M590.41,81.2a5.41,5.41,0,0,1-1.13,3.65,3.91,3.91,0,0,1-3.13,1.31,4.05,4.05,0,0,1-2.21-.61,3.88,3.88,0,0,1-1.47-1.74A6.33,6.33,0,0,1,582,81.2a5.38,5.38,0,0,1,1.13-3.64,3.91,3.91,0,0,1,3.11-1.3,3.83,3.83,0,0,1,3.09,1.32A5.44,5.44,0,0,1,590.41,81.2Zm-7.54,0a4.86,4.86,0,0,0,.87,3.07,3.27,3.27,0,0,0,4.9,0,4.86,4.86,0,0,0,.87-3.07,4.79,4.79,0,0,0-.87-3.07A3,3,0,0,0,586.16,77a2.93,2.93,0,0,0-2.44,1.09A4.85,4.85,0,0,0,582.87,81.2Z" transform="translate(-46.41 -15.5)" fill="#424c55"/><path d="M599.71,86V79.8a3,3,0,0,0-.61-2.1,2.45,2.45,0,0,0-1.88-.65,3.26,3.26,0,0,0-2.51.87,4.08,4.08,0,0,0-.79,2.81V86h-.87V76.44h.74l.17,1.31H594a3.59,3.59,0,0,1,3.31-1.49q3.25,0,3.25,3.49V86Z" transform="translate(-46.41 -15.5)" fill="#424c55"/><path d="M603.49,85.31q0-.86.7-.86t.72.86q0,.86-.72.86T603.49,85.31Z" transform="translate(-46.41 -15.5)" fill="#424c55"/><path d="M306.73,23.12l-.54-1.78h-2.73l-.54,1.78h-1.71l2.65-7.53h1.94l2.66,7.53ZM305.8,20,305,17.26q-.1-.32-.14-.5-.17.66-1,3.25Z" transform="translate(-46.41 -15.5)" fill="#424c55"/><path d="M316,23.12h-2l-3.26-5.67h0q.1,1.5.1,2.14v3.53h-1.42v-7.5h2l3.26,5.61h0q-.08-1.46-.08-2.07V15.62H316Z" transform="translate(-46.41 -15.5)" fill="#424c55"/><path d="M322.34,21a1.93,1.93,0,0,1-.73,1.6,3.17,3.17,0,0,1-2,.58,4.77,4.77,0,0,1-2.12-.45V21.29a8.7,8.7,0,0,0,1.28.48,3.78,3.78,0,0,0,1,.14,1.36,1.36,0,0,0,.8-.2.68.68,0,0,0,.28-.59.66.66,0,0,0-.12-.39,1.37,1.37,0,0,0-.36-.33,9.39,9.39,0,0,0-1-.51,4.58,4.58,0,0,1-1-.62,2.32,2.32,0,0,1-.55-.69,2,2,0,0,1-.21-.92,1.94,1.94,0,0,1,.67-1.56,2.8,2.8,0,0,1,1.86-.57,4.43,4.43,0,0,1,1.12.14,7.67,7.67,0,0,1,1.11.39l-.51,1.24a7.57,7.57,0,0,0-1-.34,3.21,3.21,0,0,0-.77-.1,1,1,0,0,0-.69.21.69.69,0,0,0-.24.55.68.68,0,0,0,.1.37,1.07,1.07,0,0,0,.31.3,9.52,9.52,0,0,0,1,.53,4,4,0,0,1,1.44,1A2,2,0,0,1,322.34,21Z" transform="translate(-46.41 -15.5)" fill="#424c55"/><path d="M323.7,23.12v-7.5h1.59v7.5Z" transform="translate(-46.41 -15.5)" fill="#424c55"/><path d="M327.18,15.62h2.33a4.49,4.49,0,0,1,2.31.45,1.58,1.58,0,0,1,.72,1.44,1.82,1.82,0,0,1-.32,1.1,1.26,1.26,0,0,1-.84.52v.05a1.65,1.65,0,0,1,1,.6,1.93,1.93,0,0,1,.32,1.16,1.91,1.91,0,0,1-.74,1.6,3.21,3.21,0,0,1-2,.57h-2.8Zm1.59,3h.92a1.69,1.69,0,0,0,.94-.2.75.75,0,0,0,.29-.66.66.66,0,0,0-.31-.62,2,2,0,0,0-1-.19h-.84Zm0,1.26v2h1a1.54,1.54,0,0,0,1-.25.93.93,0,0,0,.31-.77q0-.93-1.33-.93Z" transform="translate(-46.41 -15.5)" fill="#424c55"/><path d="M334.23,23.12v-7.5h1.59V21.8h3v1.31Z" transform="translate(-46.41 -15.5)" fill="#424c55"/><path d="M344.48,23.12h-4.32v-7.5h4.32v1.3h-2.73v1.65h2.54v1.3h-2.54V21.8h2.73Z" transform="translate(-46.41 -15.5)" fill="#424c55"/><path d="M353.95,18a2.29,2.29,0,0,1-.76,1.85,3.24,3.24,0,0,1-2.15.64h-.68v2.67h-1.59v-7.5h2.39a3.18,3.18,0,0,1,2.07.59A2.14,2.14,0,0,1,353.95,18Zm-3.59,1.19h.52a1.74,1.74,0,0,0,1.1-.29,1,1,0,0,0,.36-.84,1,1,0,0,0-.3-.83,1.43,1.43,0,0,0-1-.27h-.72Z" transform="translate(-46.41 -15.5)" fill="#424c55"/><path d="M355.36,23.12v-7.5H357V21.8h3v1.31Z" transform="translate(-46.41 -15.5)" fill="#424c55"/><path d="M365.89,23.12l-.54-1.78h-2.73l-.54,1.78h-1.71L363,15.59h1.94l2.66,7.53ZM365,20l-.85-2.74c-.06-.21-.11-.38-.14-.5q-.17.66-1,3.25Z" transform="translate(-46.41 -15.5)" fill="#424c55"/><path d="M370.87,18.71l1.56-3.09h1.71l-2.49,4.58v2.92h-1.58V20.25l-2.49-4.63h1.72Z" transform="translate(-46.41 -15.5)" fill="#424c55"/><path d="M375.09,15.62h2.33a4.49,4.49,0,0,1,2.31.45,1.58,1.58,0,0,1,.72,1.44,1.82,1.82,0,0,1-.32,1.1,1.26,1.26,0,0,1-.84.52v.05a1.65,1.65,0,0,1,1,.6,1.93,1.93,0,0,1,.32,1.16,1.91,1.91,0,0,1-.74,1.6,3.2,3.2,0,0,1-2,.57h-2.8Zm1.59,3h.92a1.69,1.69,0,0,0,.94-.2.75.75,0,0,0,.29-.66.66.66,0,0,0-.32-.62,2,2,0,0,0-1-.19h-.84Zm0,1.26v2h1a1.54,1.54,0,0,0,1-.25.93.93,0,0,0,.31-.77q0-.93-1.33-.93Z" transform="translate(-46.41 -15.5)" fill="#424c55"/><path d="M389,19.36a4.07,4.07,0,0,1-.92,2.86,4,4,0,0,1-5.29,0,4.08,4.08,0,0,1-.92-2.87,4,4,0,0,1,.92-2.86,3.46,3.46,0,0,1,2.65-1,3.41,3.41,0,0,1,2.64,1A4.08,4.08,0,0,1,389,19.36Zm-5.47,0a3.13,3.13,0,0,0,.48,1.89,1.67,1.67,0,0,0,1.43.64q1.9,0,1.9-2.53t-1.89-2.53a1.68,1.68,0,0,0-1.43.64A3.12,3.12,0,0,0,383.48,19.36Z" transform="translate(-46.41 -15.5)" fill="#424c55"/><path d="M397.31,19.36a4.07,4.07,0,0,1-.92,2.86,4,4,0,0,1-5.29,0,4.08,4.08,0,0,1-.92-2.87,4,4,0,0,1,.93-2.86,3.46,3.46,0,0,1,2.65-1,3.41,3.41,0,0,1,2.64,1A4.08,4.08,0,0,1,397.31,19.36Zm-5.47,0a3.13,3.13,0,0,0,.48,1.89,1.67,1.67,0,0,0,1.43.64q1.9,0,1.9-2.53t-1.89-2.53a1.68,1.68,0,0,0-1.43.64A3.12,3.12,0,0,0,391.84,19.36Z" transform="translate(-46.41 -15.5)" fill="#424c55"/><path d="M404.89,23.12h-1.8l-2-3.16-.67.48v2.68h-1.59v-7.5h1.59v3.43l.63-.88,2-2.55h1.76l-2.62,3.32Z" transform="translate(-46.41 -15.5)" fill="#424c55"/><path d="M97.63,228.48a3.16,3.16,0,0,1-.9,2.43,3.68,3.68,0,0,1-2.61.84H92.3v-6.42h2a3.39,3.39,0,0,1,2.44.83A3.05,3.05,0,0,1,97.63,228.48Zm-1.42,0q0-2.07-1.83-2.07h-.73v4.18h.58Q96.22,230.63,96.22,228.52Z" transform="translate(-46.41 -15.5)" fill="#424c55"/><path d="M102.66,231.75H99v-6.42h3.7v1.12h-2.34v1.41h2.18V229h-2.18v1.66h2.34Z" transform="translate(-46.41 -15.5)" fill="#424c55"/><path d="M107.67,225.33H109l-2.18,6.42h-1.49l-2.18-6.42h1.38l1.21,3.82q.1.34.21.79t.13.63a11.26,11.26,0,0,1,.33-1.42Z" transform="translate(-46.41 -15.5)" fill="#424c55"/><path d="M112.72,225.33l-2.4,6.42H109.1l2.4-6.42Z" transform="translate(-46.41 -15.5)" fill="#424c55"/><path d="M116,231.75h-1.36v-5.29h-1.74v-1.13h4.85v1.13H116Z" transform="translate(-46.41 -15.5)" fill="#424c55"/><path d="M122.48,231.75h-3.7v-6.42h3.7v1.12h-2.34v1.41h2.18V229h-2.18v1.66h2.34Z" transform="translate(-46.41 -15.5)" fill="#424c55"/><path d="M127.61,230a1.66,1.66,0,0,1-.63,1.37,2.72,2.72,0,0,1-1.74.5,4.09,4.09,0,0,1-1.82-.39v-1.27a7.37,7.37,0,0,0,1.1.41,3.22,3.22,0,0,0,.82.12,1.16,1.16,0,0,0,.69-.17.58.58,0,0,0,.24-.51.57.57,0,0,0-.11-.34,1.18,1.18,0,0,0-.31-.28A8.07,8.07,0,0,0,125,229a3.91,3.91,0,0,1-.88-.53,2,2,0,0,1-.47-.59,1.69,1.69,0,0,1-.18-.79,1.66,1.66,0,0,1,.58-1.34,2.4,2.4,0,0,1,1.6-.49,3.78,3.78,0,0,1,1,.12,6.59,6.59,0,0,1,1,.33l-.44,1.06a6.39,6.39,0,0,0-.85-.29,2.73,2.73,0,0,0-.66-.08.88.88,0,0,0-.59.18.6.6,0,0,0-.21.47.58.58,0,0,0,.08.31.91.91,0,0,0,.27.26,8.27,8.27,0,0,0,.86.45,3.44,3.44,0,0,1,1.23.86A1.69,1.69,0,0,1,127.61,230Z" transform="translate(-46.41 -15.5)" fill="#424c55"/><path d="M131.26,231.75H129.9v-5.29h-1.74v-1.13H133v1.13h-1.74Z" transform="translate(-46.41 -15.5)" fill="#424c55"/><path d="M231.84,228.22a4.07,4.07,0,0,1-.4,1.9,2.46,2.46,0,0,1-1.18,1.12l1.55,1.73h-1.74l-1.18-1.44h-.1a2.93,2.93,0,0,1-2.27-.86,3.5,3.5,0,0,1-.79-2.46,3.45,3.45,0,0,1,.79-2.45,3,3,0,0,1,2.27-.85,2.93,2.93,0,0,1,2.27.85A3.5,3.5,0,0,1,231.84,228.22Zm-4.69,0a2.68,2.68,0,0,0,.41,1.62,1.43,1.43,0,0,0,1.22.54q1.63,0,1.63-2.17T228.79,226a1.44,1.44,0,0,0-1.23.55A2.67,2.67,0,0,0,227.15,228.22Z" transform="translate(-46.41 -15.5)" fill="#424c55"/><path d="M236,225l-2.4,6.42h-1.22l2.4-6.42Z" transform="translate(-46.41 -15.5)" fill="#424c55"/><path d="M240.83,231.44l-.47-1.53H238l-.47,1.53h-1.47l2.27-6.45H240l2.28,6.45Zm-.79-2.67-.73-2.35c-.05-.18-.09-.32-.12-.43q-.15.56-.83,2.78Z" transform="translate(-46.41 -15.5)" fill="#424c55"/><path d="M331.45,228.22a3.48,3.48,0,0,1-.79,2.45,3.43,3.43,0,0,1-4.54,0,3.5,3.5,0,0,1-.79-2.46,3.45,3.45,0,0,1,.79-2.45,3,3,0,0,1,2.27-.85,2.93,2.93,0,0,1,2.27.85A3.5,3.5,0,0,1,331.45,228.22Zm-4.69,0a2.68,2.68,0,0,0,.41,1.62,1.43,1.43,0,0,0,1.22.54q1.63,0,1.63-2.17T328.4,226a1.44,1.44,0,0,0-1.23.55A2.67,2.67,0,0,0,326.76,228.22Z" transform="translate(-46.41 -15.5)" fill="#424c55"/><path d="M337.22,227a2,2,0,0,1-.65,1.59,2.77,2.77,0,0,1-1.84.55h-.58v2.29h-1.36V225h2.05a2.73,2.73,0,0,1,1.78.5A1.84,1.84,0,0,1,337.22,227Zm-3.08,1h.45a1.5,1.5,0,0,0,.94-.25.87.87,0,0,0,.31-.72.89.89,0,0,0-.26-.71,1.23,1.23,0,0,0-.82-.23h-.62Z" transform="translate(-46.41 -15.5)" fill="#424c55"/><path d="M342.13,231.44h-3.7V225h3.7v1.12h-2.34v1.41H342v1.12h-2.18v1.66h2.34Z" transform="translate(-46.41 -15.5)" fill="#424c55"/><path d="M344.83,229v2.46h-1.36V225h1.87a3.21,3.21,0,0,1,1.94.48,1.9,1.9,0,0,1,.32,2.46,2.08,2.08,0,0,1-.88.69q1.45,2.17,1.89,2.8h-1.51L345.56,229Zm0-1.11h.44a1.68,1.68,0,0,0,1-.22.77.77,0,0,0,.31-.68.7.7,0,0,0-.31-.65,1.91,1.91,0,0,0-1-.19h-.41Z" transform="translate(-46.41 -15.5)" fill="#424c55"/><path d="M353.35,231.44l-.47-1.53h-2.34l-.47,1.53H348.6l2.27-6.45h1.67l2.28,6.45Zm-.79-2.67-.73-2.35c-.05-.18-.09-.32-.12-.43q-.15.56-.83,2.78Z" transform="translate(-46.41 -15.5)" fill="#424c55"/><path d="M358.1,231.44h-1.36v-5.29H355V225h4.85v1.13H358.1Z" transform="translate(-46.41 -15.5)" fill="#424c55"/><path d="M360.83,231.44V225h1.36v6.42Z" transform="translate(-46.41 -15.5)" fill="#424c55"/><path d="M369.65,228.22a3.48,3.48,0,0,1-.79,2.45,3.43,3.43,0,0,1-4.54,0,3.5,3.5,0,0,1-.79-2.46,3.45,3.45,0,0,1,.79-2.45,3,3,0,0,1,2.27-.85,2.93,2.93,0,0,1,2.27.85A3.5,3.5,0,0,1,369.65,228.22Zm-4.69,0a2.68,2.68,0,0,0,.41,1.62,1.43,1.43,0,0,0,1.22.54q1.63,0,1.63-2.17T366.6,226a1.44,1.44,0,0,0-1.23.55A2.67,2.67,0,0,0,365,228.22Z" transform="translate(-46.41 -15.5)" fill="#424c55"/><path d="M376.68,231.44h-1.73l-2.79-4.86h0q.08,1.29.08,1.84v3H371V225h1.72l2.79,4.81h0q-.07-1.25-.07-1.77v-3h1.23Z" transform="translate(-46.41 -15.5)" fill="#424c55"/><path d="M382.09,229.66a1.66,1.66,0,0,1-.63,1.37,2.72,2.72,0,0,1-1.74.5,4.09,4.09,0,0,1-1.82-.39v-1.27a7.39,7.39,0,0,0,1.1.41,3.22,3.22,0,0,0,.82.12,1.16,1.16,0,0,0,.69-.17.58.58,0,0,0,.24-.51.57.57,0,0,0-.11-.34,1.18,1.18,0,0,0-.31-.28,8,8,0,0,0-.83-.44,3.92,3.92,0,0,1-.88-.53,2,2,0,0,1-.47-.59,1.69,1.69,0,0,1-.18-.79,1.66,1.66,0,0,1,.58-1.34,2.4,2.4,0,0,1,1.6-.49,3.78,3.78,0,0,1,1,.12,6.59,6.59,0,0,1,1,.33l-.44,1.06a6.39,6.39,0,0,0-.85-.29,2.73,2.73,0,0,0-.66-.08.87.87,0,0,0-.59.18.6.6,0,0,0-.21.47.58.58,0,0,0,.08.31.91.91,0,0,0,.27.26,8.27,8.27,0,0,0,.86.45,3.44,3.44,0,0,1,1.24.86A1.69,1.69,0,0,1,382.09,229.66Z" transform="translate(-46.41 -15.5)" fill="#424c55"/><path d="M447.63,231.44l-1.55-5h0q.08,1.54.08,2.05v3h-1.22V225h1.85l1.52,4.91h0l1.61-4.91h1.85v6.42h-1.27v-3c0-.14,0-.31,0-.5s0-.69.06-1.49h0l-1.66,5Z" transform="translate(-46.41 -15.5)" fill="#424c55"/><path d="M457.33,231.44l-.47-1.53h-2.34l-.47,1.53h-1.47l2.27-6.45h1.67l2.28,6.45Zm-.79-2.67-.73-2.35c-.05-.18-.09-.32-.12-.43q-.15.56-.83,2.78Z" transform="translate(-46.41 -15.5)" fill="#424c55"/><path d="M465.3,231.44h-1.73l-2.79-4.86h0q.08,1.29.08,1.84v3H459.6V225h1.72l2.79,4.81h0q-.07-1.25-.07-1.77v-3h1.23Z" transform="translate(-46.41 -15.5)" fill="#424c55"/><path d="M470.85,231.44l-.47-1.53H468l-.47,1.53h-1.47l2.27-6.45H470l2.28,6.45Zm-.79-2.67-.73-2.35c-.05-.18-.09-.32-.12-.43q-.15.56-.83,2.78Z" transform="translate(-46.41 -15.5)" fill="#424c55"/><path d="M475.57,227.83h2.55v3.33a7.16,7.16,0,0,1-1.17.28,7.67,7.67,0,0,1-1.12.08,2.83,2.83,0,0,1-2.22-.85,3.55,3.55,0,0,1-.77-2.45,3.24,3.24,0,0,1,.89-2.43,3.38,3.38,0,0,1,2.47-.87,4.78,4.78,0,0,1,1.91.4l-.45,1.09a3.23,3.23,0,0,0-1.46-.35,1.81,1.81,0,0,0-1.42.59,2.3,2.3,0,0,0-.53,1.59,2.56,2.56,0,0,0,.43,1.6,1.48,1.48,0,0,0,1.25.55,4.4,4.4,0,0,0,.87-.09V229h-1.22Z" transform="translate(-46.41 -15.5)" fill="#424c55"/><path d="M483.35,231.44h-3.7V225h3.7v1.12H481v1.41h2.17v1.12H481v1.66h2.34Z" transform="translate(-46.41 -15.5)" fill="#424c55"/><path d="M487.41,231.44l-1.55-5h0q.08,1.54.08,2.05v3h-1.22V225h1.85l1.52,4.91h0L489.7,225h1.85v6.42h-1.27v-3c0-.14,0-.31,0-.5s0-.69.06-1.49h0l-1.66,5Z" transform="translate(-46.41 -15.5)" fill="#424c55"/><path d="M496.87,231.44h-3.7V225h3.7v1.12h-2.34v1.41h2.17v1.12h-2.17v1.66h2.34Z" transform="translate(-46.41 -15.5)" fill="#424c55"/><path d="M503.91,231.44h-1.73l-2.79-4.86h0q.08,1.29.08,1.84v3h-1.22V225h1.72l2.79,4.81h0q-.07-1.25-.07-1.77v-3h1.23Z" transform="translate(-46.41 -15.5)" fill="#424c55"/><path d="M508,231.44h-1.36v-5.29H504.9V225h4.85v1.13H508Z" transform="translate(-46.41 -15.5)" fill="#424c55"/><path d="M571.33,228.22a3.48,3.48,0,0,1-.79,2.45,3.43,3.43,0,0,1-4.54,0,3.5,3.5,0,0,1-.79-2.46,3.45,3.45,0,0,1,.79-2.45,3,3,0,0,1,2.27-.85,2.93,2.93,0,0,1,2.26.85A3.5,3.5,0,0,1,571.33,228.22Zm-4.69,0a2.68,2.68,0,0,0,.41,1.62,1.43,1.43,0,0,0,1.22.54q1.63,0,1.63-2.17T568.28,226a1.44,1.44,0,0,0-1.23.55A2.67,2.67,0,0,0,566.64,228.22Z" transform="translate(-46.41 -15.5)" fill="#424c55"/><path d="M577.89,225v4.16a2.4,2.4,0,0,1-.32,1.25,2.08,2.08,0,0,1-.92.82,3.29,3.29,0,0,1-1.42.29,2.73,2.73,0,0,1-1.92-.63,2.25,2.25,0,0,1-.69-1.74V225H574V229a1.64,1.64,0,0,0,.3,1.09,1.24,1.24,0,0,0,1,.35,1.21,1.21,0,0,0,1-.35,1.65,1.65,0,0,0,.3-1.1V225Z" transform="translate(-46.41 -15.5)" fill="#424c55"/><path d="M581.94,231.44h-1.36v-5.29h-1.74V225h4.85v1.13h-1.75Z" transform="translate(-46.41 -15.5)" fill="#424c55"/><path d="M588.47,229.66a1.66,1.66,0,0,1-.63,1.37,2.72,2.72,0,0,1-1.74.5,4.09,4.09,0,0,1-1.82-.39v-1.27a7.39,7.39,0,0,0,1.1.41,3.22,3.22,0,0,0,.82.12,1.16,1.16,0,0,0,.69-.17.58.58,0,0,0,.24-.51.57.57,0,0,0-.11-.34,1.18,1.18,0,0,0-.31-.28,8,8,0,0,0-.83-.44,3.92,3.92,0,0,1-.88-.53,2,2,0,0,1-.47-.59,1.69,1.69,0,0,1-.18-.79,1.66,1.66,0,0,1,.58-1.34,2.4,2.4,0,0,1,1.6-.49,3.78,3.78,0,0,1,1,.12,6.59,6.59,0,0,1,1,.33l-.44,1.06a6.39,6.39,0,0,0-.85-.29,2.73,2.73,0,0,0-.66-.08.87.87,0,0,0-.59.18.6.6,0,0,0-.21.47.58.58,0,0,0,.08.31.91.91,0,0,0,.27.26,8.27,8.27,0,0,0,.86.45,3.44,3.44,0,0,1,1.24.86A1.69,1.69,0,0,1,588.47,229.66Z" transform="translate(-46.41 -15.5)" fill="#424c55"/><path d="M595.46,228.22a3.48,3.48,0,0,1-.79,2.45,3.43,3.43,0,0,1-4.54,0,3.5,3.5,0,0,1-.79-2.46,3.45,3.45,0,0,1,.79-2.45,3,3,0,0,1,2.27-.85,2.93,2.93,0,0,1,2.26.85A3.5,3.5,0,0,1,595.46,228.22Zm-4.69,0a2.68,2.68,0,0,0,.41,1.62,1.43,1.43,0,0,0,1.22.54q1.63,0,1.63-2.17T592.41,226a1.44,1.44,0,0,0-1.23.55A2.67,2.67,0,0,0,590.77,228.22Z" transform="translate(-46.41 -15.5)" fill="#424c55"/><path d="M602,225v4.16a2.4,2.4,0,0,1-.32,1.25,2.08,2.08,0,0,1-.92.82,3.29,3.29,0,0,1-1.42.29,2.73,2.73,0,0,1-1.92-.63,2.25,2.25,0,0,1-.69-1.74V225h1.36V229a1.64,1.64,0,0,0,.3,1.09,1.24,1.24,0,0,0,1,.35,1.21,1.21,0,0,0,1-.35,1.65,1.65,0,0,0,.3-1.1V225Z" transform="translate(-46.41 -15.5)" fill="#424c55"/><path d="M605,229v2.46H603.6V225h1.87a3.21,3.21,0,0,1,1.94.48,1.9,1.9,0,0,1,.32,2.46,2.08,2.08,0,0,1-.88.69q1.45,2.17,1.89,2.8h-1.51L605.68,229Zm0-1.11h.44a1.68,1.68,0,0,0,1-.22.77.77,0,0,0,.31-.68.7.7,0,0,0-.31-.65,1.91,1.91,0,0,0-1-.19H605Z" transform="translate(-46.41 -15.5)" fill="#424c55"/><path d="M612.27,226.06a1.39,1.39,0,0,0-1.19.58,2.69,2.69,0,0,0-.42,1.61q0,2.15,1.61,2.15a5.07,5.07,0,0,0,1.64-.34v1.14a4.53,4.53,0,0,1-1.77.33,2.69,2.69,0,0,1-2.14-.85,3.6,3.6,0,0,1-.74-2.44,4,4,0,0,1,.36-1.76,2.64,2.64,0,0,1,1-1.16,3.11,3.11,0,0,1,1.6-.4,4.32,4.32,0,0,1,1.88.45l-.44,1.11a7.28,7.28,0,0,0-.73-.3A2.16,2.16,0,0,0,612.27,226.06Z" transform="translate(-46.41 -15.5)" fill="#424c55"/><path d="M619,231.44h-3.7V225H619v1.12h-2.34v1.41h2.17v1.12h-2.17v1.66H619Z" transform="translate(-46.41 -15.5)" fill="#424c55"/><path d="M621.68,229v2.46h-1.36V225h1.87a3.21,3.21,0,0,1,1.94.48,1.9,1.9,0,0,1,.32,2.46,2.08,2.08,0,0,1-.88.69q1.45,2.17,1.89,2.8h-1.51L622.4,229Zm0-1.11h.44a1.68,1.68,0,0,0,1-.22.77.77,0,0,0,.31-.68.7.7,0,0,0-.31-.65,1.91,1.91,0,0,0-1-.19h-.41Z" transform="translate(-46.41 -15.5)" fill="#424c55"/><path d="M630,229.66a1.66,1.66,0,0,1-.63,1.37,2.72,2.72,0,0,1-1.74.5,4.09,4.09,0,0,1-1.82-.39v-1.27a7.39,7.39,0,0,0,1.1.41,3.22,3.22,0,0,0,.82.12,1.16,1.16,0,0,0,.69-.17.58.58,0,0,0,.24-.51.57.57,0,0,0-.11-.34,1.18,1.18,0,0,0-.31-.28,8,8,0,0,0-.83-.44,3.92,3.92,0,0,1-.88-.53,2,2,0,0,1-.47-.59,1.69,1.69,0,0,1-.18-.79,1.66,1.66,0,0,1,.58-1.34,2.4,2.4,0,0,1,1.6-.49,3.78,3.78,0,0,1,1,.12,6.59,6.59,0,0,1,1,.33l-.44,1.06a6.39,6.39,0,0,0-.85-.29,2.73,2.73,0,0,0-.66-.08.87.87,0,0,0-.59.18.6.6,0,0,0-.21.47.58.58,0,0,0,.08.31.91.91,0,0,0,.27.26,8.27,8.27,0,0,0,.86.45,3.44,3.44,0,0,1,1.24.86A1.69,1.69,0,0,1,630,229.66Z" transform="translate(-46.41 -15.5)" fill="#424c55"/></g><g clip-path="url(#clip-path-4)"><g clip-path="url(#clip-path-5)"><g clip-path="url(#clip-path-4)"><path d="M264.5,195.8c-4-1.69-8.41-3.64-12.4-5.27l-3.4-.93c-1.36-.93-2.69-4-3.41-5.57l-2.17-.31c.11-2.39,1.59-2.52,2.17-4.34.51-1.6,0-3.69.86-5.18.56-1,1.84-1,2.47-1.93a8.81,8.81,0,0,0,1.14-3.19c.33-1.8.61-4.26-.24-6.05a5.36,5.36,0,0,1-.94-2.36c-.16-1.51.44-6.43.47-7.49a28.83,28.83,0,0,0-.67-8s-.81-2.44-2.08-3.17l-2.54-.43-1.57-1.46c-6.32-3.88-13.08-1.15-16.71.31-5.23,1.7-8.53,9.09-6.23,20,.39,1.87-1,2.7-.92,3.72.2,2.23.25,7.58,2.35,8.89a5.63,5.63,0,0,0,1.68.4c.2,2.17.42,4.34.62,6.5.52,1.44,1.78,1.6,2.15,3.64l-1.61.39c-.73,1.54-2.05,4.64-3.41,5.57l-3.41.93c-4,1.63-8.4,3.58-12.4,5.27-3.63,1.53-8,2.08-9.29,5.88,0,2.59-.25,8.7-.18,12.09H274c.07-3.4-.17-9.5-.17-12.09-1.32-3.8-5.67-4.35-9.3-5.88" transform="translate(-46.41 -15.5)" fill="#414042"/><path d="M203.34,192.38l4.84-2.07c2.42-1,4.92-2.12,7.27-3.08l-.31-.69-1.55-.22c.07-1.7,1.13-1.79,1.55-3.09.36-1.15,0-2.63.61-3.7.4-.74,1.31-.74,1.76-1.37a6.49,6.49,0,0,0,.81-2.28c.07-.38.13-.79.18-1.23-2.46-2.27-2.77-6.67-3-9.68,0-.38,0-.72-.07-1a5.1,5.1,0,0,1,.79-3c.07-.12.15-.28.19-.38a39.08,39.08,0,0,1-.62-4l-1.76-.3-1.11-1c-4.5-2.77-9.33-.83-11.91.22-3.72,1.21-6.08,6.48-4.43,14.27.28,1.33-.73,1.93-.66,2.65.14,1.59.17,5.41,1.68,6.35a4,4,0,0,0,1.19.28l.44,4.64c.38,1,1.27,1.15,1.53,2.59l-1.15.28c-.52,1.1-1.46,3.31-2.43,4l-2.43.66c-2.84,1.16-6,2.56-8.84,3.76-2.59,1.1-5.69,1.48-6.63,4.2,0,1.84-.17,6.2-.12,8.62H192c0-.79,0-1.58,0-2.34,0-1.67.08-3.26.08-4.23v-.53l.17-.5c1.52-4.41,5.54-5.8,8.76-6.92.81-.28,1.58-.55,2.29-.84M290,199.13c-.94-2.72-4-3.1-6.63-4.2-2.85-1.19-6-2.59-8.84-3.76l-2.43-.66c-1-.66-1.91-2.87-2.43-4l-1.55-.22c.07-1.7,1.13-1.79,1.55-3.09.36-1.15,0-2.63.61-3.7.4-.74,1.31-.74,1.76-1.37a6.5,6.5,0,0,0,.81-2.28,7.46,7.46,0,0,0-.17-4.31,3.8,3.8,0,0,1-.67-1.69c-.11-1.08.32-4.58.34-5.34a20.62,20.62,0,0,0-.47-5.67,4.94,4.94,0,0,0-1.49-2.26l-1.81-.31-1.11-1c-4.5-2.77-9.33-.83-11.91.22a6.36,6.36,0,0,0-3.54,3.13,8.43,8.43,0,0,0,0,1.18,1.5,1.5,0,0,0,0,.22c0,.06.07.11.1.17.13.23.31.53.52,1,1.27,2.65.89,5.83.5,8a11.87,11.87,0,0,1-1.68,4.47,5,5,0,0,1-.84.91c.16,1.69.5,3.62,1.51,4.26a4,4,0,0,0,1.19.28l.44,4.64c.38,1,1.28,1.15,1.53,2.59l-1.15.28-.31.66c2.36,1,4.88,2.05,7.31,3.1l4.85,2.08c.71.29,1.48.56,2.3.84,3.22,1.12,7.23,2.51,8.76,6.92l.17.5v.53c0,1,0,2.56.07,4.23,0,.76,0,1.55.06,2.34h12.76C290.17,205.34,290,201,290,199.13Z" transform="translate(-46.41 -15.5)" fill="#c5c6c8"/></g></g></g><g clip-path="url(#clip-path-4)"><g clip-path="url(#clip-path-4)"><path d="M258.82,206.53,256.51,201a.37.37,0,0,0-.36-.25.39.39,0,0,0-.37.25l-2.54,6.1h.87l1-2.52,3,2.42a.49.49,0,0,0,.32.14.41.41,0,0,0,.42-.41.55.55,0,0,0,0-.17M256.15,202l1.5,3.71-2.27-1.79Z" transform="translate(-46.41 -15.5)" fill="#fff"/><circle cx="209.64" cy="188.72" r="5.81" fill="none" stroke="#fff" stroke-miterlimit="10" stroke-width="0.41"/></g></g><g clip-path="url(#clip-path-9)"><g clip-path="url(#clip-path-10)"><g clip-path="url(#clip-path-9)"><path d="M143.64,195.8c-4-1.69-8.41-3.64-12.4-5.27l-3.4-.93c-1.36-.93-2.69-4-3.41-5.57l-2.17-.31c.11-2.39,1.59-2.52,2.17-4.34.51-1.6,0-3.69.86-5.18.56-1,1.84-1,2.47-1.93a8.81,8.81,0,0,0,1.14-3.19c.33-1.8.61-4.26-.24-6.05a5.36,5.36,0,0,1-.94-2.36c-.16-1.51.44-6.43.47-7.49a28.83,28.83,0,0,0-.67-8s-.81-2.44-2.08-3.17l-2.54-.43-1.57-1.46c-6.32-3.88-13.08-1.15-16.71.31-5.23,1.7-8.53,9.09-6.23,20,.39,1.87-1,2.7-.92,3.72.2,2.23.25,7.58,2.35,8.89a5.63,5.63,0,0,0,1.68.4c.2,2.17.42,4.34.62,6.5.52,1.44,1.78,1.6,2.15,3.64l-1.61.39c-.73,1.54-2.05,4.64-3.41,5.57l-3.41.93c-4,1.63-8.4,3.58-12.4,5.27-3.63,1.53-8,2.08-9.29,5.88,0,2.59-.25,8.7-.18,12.09h79.15c.07-3.4-.17-9.5-.17-12.09-1.32-3.8-5.67-4.35-9.3-5.88" transform="translate(-46.41 -15.5)" fill="#414042"/><path d="M82.48,192.38l4.84-2.07c2.42-1,4.92-2.12,7.27-3.08l-.31-.69-1.55-.22c.07-1.7,1.13-1.79,1.55-3.09.36-1.15,0-2.63.61-3.7.4-.74,1.31-.74,1.76-1.37a6.49,6.49,0,0,0,.81-2.28c.07-.38.13-.79.18-1.23-2.46-2.27-2.77-6.67-3-9.68,0-.38,0-.72-.07-1a5.1,5.1,0,0,1,.79-3c.07-.12.15-.28.19-.38a39.06,39.06,0,0,1-.62-4l-1.76-.3-1.11-1c-4.5-2.77-9.33-.83-11.91.22-3.72,1.21-6.08,6.48-4.43,14.27.28,1.33-.73,1.93-.66,2.65.14,1.59.17,5.41,1.68,6.35a4,4,0,0,0,1.19.28l.44,4.64c.38,1,1.27,1.15,1.53,2.59l-1.15.28c-.52,1.1-1.46,3.31-2.43,4l-2.43.66c-2.84,1.16-6,2.56-8.84,3.76-2.59,1.1-5.69,1.48-6.63,4.2,0,1.84-.17,6.2-.12,8.62H71.12c0-.79,0-1.58,0-2.34,0-1.67.08-3.26.08-4.23v-.53l.17-.5c1.52-4.41,5.54-5.8,8.76-6.92.81-.28,1.58-.55,2.29-.84m86.66,6.75c-.94-2.72-4-3.1-6.63-4.2-2.85-1.19-6-2.59-8.84-3.76l-2.43-.66c-1-.66-1.91-2.87-2.43-4l-1.55-.22c.07-1.7,1.13-1.79,1.55-3.09.36-1.15,0-2.63.61-3.7.4-.74,1.31-.74,1.76-1.37a6.5,6.5,0,0,0,.81-2.28,7.46,7.46,0,0,0-.17-4.31,3.8,3.8,0,0,1-.67-1.69c-.11-1.08.32-4.58.34-5.34a20.62,20.62,0,0,0-.47-5.67,4.94,4.94,0,0,0-1.49-2.26l-1.81-.31-1.11-1c-4.5-2.77-9.33-.83-11.91.22a6.36,6.36,0,0,0-3.54,3.13,8.45,8.45,0,0,0,0,1.18,1.53,1.53,0,0,0,0,.22c0,.06.07.11.1.17.13.23.31.53.52,1,1.27,2.65.89,5.83.5,8a11.87,11.87,0,0,1-1.68,4.47,5,5,0,0,1-.84.91c.16,1.69.5,3.62,1.51,4.26a4,4,0,0,0,1.19.28l.44,4.64c.38,1,1.28,1.15,1.53,2.59l-1.15.28-.31.66c2.36,1,4.88,2.05,7.31,3.1l4.85,2.08c.71.29,1.48.56,2.3.84,3.22,1.12,7.23,2.51,8.76,6.92l.17.5v.53c0,1,0,2.56.07,4.23,0,.76,0,1.55.06,2.34h12.76C169.31,205.34,169.14,201,169.14,199.13Z" transform="translate(-46.41 -15.5)" fill="#c5c6c8"/></g></g></g><g clip-path="url(#clip-path-9)"><g clip-path="url(#clip-path-9)"><path d="M138,206.53,135.66,201a.37.37,0,0,0-.36-.25.39.39,0,0,0-.37.25l-2.54,6.1h.87l1-2.52,3,2.42a.49.49,0,0,0,.32.14.41.41,0,0,0,.42-.41.55.55,0,0,0,0-.17M135.3,202l1.5,3.71-2.27-1.79Z" transform="translate(-46.41 -15.5)" fill="#fff"/><circle cx="88.79" cy="188.72" r="5.81" fill="none" stroke="#fff" stroke-miterlimit="10" stroke-width="0.41"/></g></g><g clip-path="url(#clip-path-14)"><g clip-path="url(#clip-path-15)"><g clip-path="url(#clip-path-14)"><path d="M506.31,195.8c-4-1.69-8.41-3.64-12.4-5.27l-3.4-.93c-1.36-.93-2.69-4-3.41-5.57l-2.17-.31c.11-2.39,1.59-2.52,2.17-4.34.51-1.6,0-3.69.86-5.18.56-1,1.84-1,2.47-1.93a8.81,8.81,0,0,0,1.14-3.19c.33-1.8.61-4.26-.24-6.05a5.36,5.36,0,0,1-.94-2.36c-.16-1.51.44-6.43.47-7.49a28.83,28.83,0,0,0-.67-8s-.81-2.44-2.08-3.17l-2.54-.43L484,140.13c-6.32-3.88-13.08-1.15-16.71.31-5.23,1.7-8.53,9.09-6.23,20,.39,1.87-1,2.7-.92,3.72.2,2.23.25,7.58,2.35,8.89a5.63,5.63,0,0,0,1.68.4c.2,2.17.42,4.34.62,6.5.52,1.44,1.78,1.6,2.15,3.64l-1.61.39c-.73,1.54-2.05,4.64-3.41,5.57l-3.41.93c-4,1.63-8.4,3.58-12.4,5.27-3.63,1.53-8,2.08-9.29,5.88,0,2.59-.25,8.7-.18,12.09h79.15c.07-3.4-.17-9.5-.17-12.09-1.32-3.8-5.67-4.35-9.3-5.88" transform="translate(-46.41 -15.5)" fill="#414042"/><path d="M445.15,192.38l4.84-2.07c2.42-1,4.92-2.12,7.27-3.08l-.31-.69-1.55-.22c.07-1.7,1.13-1.79,1.55-3.09.36-1.15,0-2.63.61-3.7.4-.74,1.31-.74,1.76-1.37a6.49,6.49,0,0,0,.81-2.28c.07-.38.13-.79.18-1.23-2.46-2.27-2.77-6.67-3-9.68,0-.38,0-.72-.07-1a5.1,5.1,0,0,1,.79-3c.07-.12.15-.28.19-.38a39.08,39.08,0,0,1-.62-4l-1.76-.3-1.11-1c-4.5-2.77-9.33-.83-11.91.22-3.72,1.21-6.08,6.48-4.43,14.27.28,1.33-.73,1.93-.66,2.65.14,1.59.17,5.41,1.68,6.35a4,4,0,0,0,1.19.28l.44,4.64c.38,1,1.27,1.15,1.53,2.59l-1.15.28c-.52,1.1-1.46,3.31-2.43,4l-2.43.66c-2.84,1.16-6,2.56-8.84,3.76-2.59,1.1-5.69,1.48-6.63,4.2,0,1.84-.17,6.2-.12,8.62h12.81c0-.79,0-1.58,0-2.34,0-1.67.08-3.26.08-4.23v-.53l.17-.5c1.52-4.41,5.54-5.8,8.76-6.92.81-.28,1.58-.55,2.29-.84m86.66,6.75c-.94-2.72-4-3.1-6.63-4.2-2.85-1.19-6-2.59-8.84-3.76l-2.43-.66c-1-.66-1.91-2.87-2.43-4l-1.55-.22c.07-1.7,1.13-1.79,1.55-3.09.36-1.15,0-2.63.61-3.7.4-.74,1.31-.74,1.76-1.37a6.5,6.5,0,0,0,.81-2.28,7.46,7.46,0,0,0-.17-4.31,3.8,3.8,0,0,1-.67-1.69c-.11-1.08.32-4.58.34-5.34a20.62,20.62,0,0,0-.47-5.67,4.94,4.94,0,0,0-1.49-2.26l-1.81-.31-1.11-1c-4.5-2.77-9.33-.83-11.91.22a6.36,6.36,0,0,0-3.54,3.13,8.42,8.42,0,0,0,0,1.18,1.52,1.52,0,0,0,0,.22c0,.06.07.11.1.17.13.23.31.53.52,1,1.27,2.65.89,5.83.5,8a11.87,11.87,0,0,1-1.68,4.47,5,5,0,0,1-.84.91c.16,1.69.5,3.62,1.51,4.26a4,4,0,0,0,1.19.28l.44,4.64c.38,1,1.28,1.15,1.53,2.59l-1.15.28-.31.66c2.36,1,4.88,2.05,7.31,3.1l4.85,2.08c.71.29,1.48.56,2.3.84,3.22,1.12,7.23,2.51,8.76,6.92l.17.5v.53c0,1,0,2.56.07,4.23,0,.76,0,1.55.06,2.34h12.76C532,205.34,531.81,201,531.81,199.13Z" transform="translate(-46.41 -15.5)" fill="#c5c6c8"/></g></g></g><g clip-path="url(#clip-path-14)"><g clip-path="url(#clip-path-14)"><path d="M500.64,206.53,498.33,201a.37.37,0,0,0-.36-.25.39.39,0,0,0-.37.25l-2.54,6.1h.87l1-2.52,3,2.42a.49.49,0,0,0,.32.14.41.41,0,0,0,.42-.41.55.55,0,0,0,0-.17M498,202l1.5,3.71-2.27-1.79Z" transform="translate(-46.41 -15.5)" fill="#fff"/><circle cx="451.46" cy="188.72" r="5.81" fill="none" stroke="#fff" stroke-miterlimit="10" stroke-width="0.41"/></g></g><g clip-path="url(#clip-path-19)"><g clip-path="url(#clip-path-20)"><g clip-path="url(#clip-path-19)"><path d="M384.74,195.8c-4-1.69-8.41-3.64-12.4-5.27l-3.4-.93c-1.36-.93-2.69-4-3.41-5.57l-2.17-.31c.11-2.39,1.59-2.52,2.17-4.34.51-1.6,0-3.69.86-5.18.56-1,1.84-1,2.47-1.93a8.81,8.81,0,0,0,1.14-3.19c.33-1.8.61-4.26-.24-6.05a5.36,5.36,0,0,1-.94-2.36c-.16-1.51.44-6.43.47-7.49a28.83,28.83,0,0,0-.67-8s-.81-2.44-2.08-3.17l-2.54-.43-1.57-1.46c-6.32-3.88-13.08-1.15-16.71.31-5.23,1.7-8.53,9.09-6.23,20,.39,1.87-1,2.7-.92,3.72.2,2.23.25,7.58,2.35,8.89a5.63,5.63,0,0,0,1.68.4c.2,2.17.42,4.34.62,6.5.52,1.44,1.78,1.6,2.15,3.64l-1.61.39c-.73,1.54-2.05,4.64-3.41,5.57l-3.41.93c-4,1.63-8.4,3.58-12.4,5.27-3.63,1.53-8,2.08-9.29,5.88,0,2.59-.25,8.7-.18,12.09h79.15c.07-3.4-.17-9.5-.17-12.09-1.32-3.8-5.67-4.35-9.3-5.88" transform="translate(-46.41 -15.5)" fill="#414042"/><path d="M323.58,192.38l4.84-2.07c2.42-1,4.92-2.12,7.27-3.08l-.31-.69-1.55-.22c.07-1.7,1.13-1.79,1.55-3.09.36-1.15,0-2.63.61-3.7.4-.74,1.31-.74,1.76-1.37a6.5,6.5,0,0,0,.81-2.28c.07-.38.13-.79.18-1.23-2.46-2.27-2.77-6.67-3-9.68,0-.38,0-.72-.07-1a5.1,5.1,0,0,1,.79-3c.07-.12.15-.28.19-.38a39,39,0,0,1-.62-4l-1.76-.3-1.11-1c-4.5-2.77-9.33-.83-11.91.22-3.72,1.21-6.08,6.48-4.43,14.27.28,1.33-.73,1.93-.66,2.65.14,1.59.17,5.41,1.68,6.35A4,4,0,0,0,319,179l.44,4.64c.38,1,1.27,1.15,1.53,2.59l-1.15.28c-.52,1.1-1.46,3.31-2.43,4l-2.43.66c-2.84,1.16-6,2.56-8.84,3.76-2.59,1.1-5.69,1.48-6.63,4.2,0,1.84-.17,6.2-.12,8.62h12.81c0-.79,0-1.58,0-2.34,0-1.67.08-3.26.08-4.23v-.53l.17-.5c1.52-4.41,5.54-5.8,8.76-6.92.81-.28,1.58-.55,2.29-.84m86.66,6.75c-.94-2.72-4-3.1-6.63-4.2-2.85-1.19-6-2.59-8.84-3.76l-2.43-.66c-1-.66-1.91-2.87-2.43-4l-1.55-.22c.07-1.7,1.13-1.79,1.55-3.09.36-1.15,0-2.63.61-3.7.4-.74,1.31-.74,1.76-1.37a6.5,6.5,0,0,0,.81-2.28,7.46,7.46,0,0,0-.17-4.31,3.8,3.8,0,0,1-.67-1.69c-.11-1.08.32-4.58.34-5.34a20.62,20.62,0,0,0-.47-5.67,4.94,4.94,0,0,0-1.49-2.26l-1.81-.31-1.11-1c-4.5-2.77-9.33-.83-11.91.22a6.36,6.36,0,0,0-3.54,3.13,8.45,8.45,0,0,0,0,1.18,1.53,1.53,0,0,0,0,.22c0,.06.07.11.1.17.13.23.31.53.52,1,1.27,2.65.89,5.83.5,8a11.87,11.87,0,0,1-1.68,4.47,5,5,0,0,1-.84.91c.16,1.69.5,3.62,1.51,4.26a4,4,0,0,0,1.19.28l.44,4.64c.38,1,1.28,1.15,1.53,2.59l-1.15.28-.31.66c2.36,1,4.88,2.05,7.31,3.1l4.85,2.08c.71.29,1.48.56,2.3.84,3.22,1.12,7.23,2.51,8.76,6.92l.17.5v.53c0,1,0,2.56.07,4.23,0,.76,0,1.55.06,2.34h12.76C410.41,205.34,410.24,201,410.24,199.13Z" transform="translate(-46.41 -15.5)" fill="#c5c6c8"/></g></g></g><g clip-path="url(#clip-path-19)"><g clip-path="url(#clip-path-19)"><path d="M379.07,206.53,376.75,201a.37.37,0,0,0-.36-.25.39.39,0,0,0-.37.25l-2.54,6.1h.87l1-2.52,3,2.42a.49.49,0,0,0,.32.14.41.41,0,0,0,.42-.41.55.55,0,0,0,0-.17M376.4,202l1.5,3.71-2.27-1.79Z" transform="translate(-46.41 -15.5)" fill="#fff"/><circle cx="329.89" cy="188.72" r="5.81" fill="none" stroke="#fff" stroke-miterlimit="10" stroke-width="0.41"/></g></g><g clip-path="url(#clip-path-24)"><g clip-path="url(#clip-path-25)"><g clip-path="url(#clip-path-24)"><path d="M627.36,195.8c-4-1.69-8.41-3.64-12.4-5.27l-3.4-.93c-1.36-.93-2.69-4-3.41-5.57l-2.17-.31c.11-2.39,1.59-2.52,2.17-4.34.51-1.6,0-3.69.86-5.18.56-1,1.84-1,2.47-1.93a8.81,8.81,0,0,0,1.14-3.19c.33-1.8.61-4.26-.24-6.05a5.36,5.36,0,0,1-.94-2.36c-.16-1.51.44-6.43.47-7.49a28.83,28.83,0,0,0-.67-8s-.81-2.44-2.08-3.17l-2.54-.43L605,140.13c-6.32-3.88-13.08-1.15-16.71.31-5.23,1.7-8.53,9.09-6.23,20,.39,1.87-1,2.7-.92,3.72.2,2.23.25,7.58,2.35,8.89a5.63,5.63,0,0,0,1.68.4c.2,2.17.42,4.34.62,6.5.52,1.44,1.78,1.6,2.15,3.64l-1.61.39c-.73,1.54-2.05,4.64-3.41,5.57l-3.41.93c-4,1.63-8.4,3.58-12.4,5.27-3.63,1.53-8,2.08-9.29,5.88,0,2.59-.25,8.7-.18,12.09h79.15c.07-3.4-.17-9.5-.17-12.09-1.32-3.8-5.67-4.35-9.3-5.88" transform="translate(-46.41 -15.5)" fill="#414042"/><path d="M566.2,192.38l4.84-2.07c2.42-1,4.92-2.12,7.27-3.08l-.31-.69-1.55-.22c.07-1.7,1.13-1.79,1.55-3.09.36-1.15,0-2.63.61-3.7.4-.74,1.31-.74,1.76-1.37a6.49,6.49,0,0,0,.81-2.28c.07-.38.13-.79.18-1.23-2.46-2.27-2.77-6.67-3-9.68,0-.38,0-.72-.07-1a5.1,5.1,0,0,1,.79-3c.07-.12.15-.28.19-.38a39.07,39.07,0,0,1-.62-4l-1.76-.3-1.11-1c-4.5-2.77-9.33-.83-11.91.22-3.72,1.21-6.08,6.48-4.43,14.27.28,1.33-.73,1.93-.66,2.65.14,1.59.17,5.41,1.68,6.35a4,4,0,0,0,1.19.28l.44,4.64c.38,1,1.27,1.15,1.53,2.59l-1.15.28c-.52,1.1-1.46,3.31-2.43,4l-2.43.66c-2.84,1.16-6,2.56-8.84,3.76-2.59,1.1-5.69,1.48-6.63,4.2,0,1.84-.17,6.2-.12,8.62h12.81c0-.79,0-1.58,0-2.34,0-1.67.08-3.26.08-4.23v-.53l.17-.5c1.52-4.41,5.54-5.8,8.76-6.92.81-.28,1.58-.55,2.29-.84m86.66,6.75c-.94-2.72-4-3.1-6.63-4.2-2.85-1.19-6-2.59-8.84-3.76l-2.43-.66c-1-.66-1.91-2.87-2.43-4l-1.55-.22c.07-1.7,1.13-1.79,1.55-3.09.36-1.15,0-2.63.61-3.7.4-.74,1.31-.74,1.76-1.37a6.5,6.5,0,0,0,.81-2.28,7.46,7.46,0,0,0-.17-4.31,3.8,3.8,0,0,1-.67-1.69c-.11-1.08.32-4.58.34-5.34a20.62,20.62,0,0,0-.47-5.67,4.94,4.94,0,0,0-1.49-2.26l-1.81-.31-1.11-1c-4.5-2.77-9.33-.83-11.91.22a6.36,6.36,0,0,0-3.54,3.13,8.46,8.46,0,0,0,0,1.18,1.51,1.51,0,0,0,0,.22c0,.06.07.11.1.17.13.23.31.53.52,1,1.27,2.65.89,5.83.5,8a11.87,11.87,0,0,1-1.68,4.47,5,5,0,0,1-.84.91c.16,1.69.5,3.62,1.51,4.26a4,4,0,0,0,1.19.28l.44,4.64c.38,1,1.28,1.15,1.53,2.59l-1.15.28-.31.66c2.36,1,4.88,2.05,7.31,3.1l4.85,2.08c.71.29,1.48.56,2.3.84,3.22,1.12,7.23,2.51,8.76,6.92l.17.5v.53c0,1,0,2.56.07,4.23,0,.76,0,1.55.06,2.34H653C653,205.34,652.86,201,652.86,199.13Z" transform="translate(-46.41 -15.5)" fill="#c5c6c8"/></g></g></g><g clip-path="url(#clip-path-24)"><g clip-path="url(#clip-path-24)"><path d="M621.69,206.53,619.38,201a.37.37,0,0,0-.36-.25.39.39,0,0,0-.37.25l-2.54,6.1H617l1-2.52,3,2.42a.49.49,0,0,0,.32.14.41.41,0,0,0,.42-.41.55.55,0,0,0,0-.17M619,202l1.5,3.71-2.27-1.79Z" transform="translate(-46.41 -15.5)" fill="#fff"/><circle cx="572.51" cy="188.72" r="5.81" fill="none" stroke="#fff" stroke-miterlimit="10" stroke-width="0.41"/></g></g><g clip-path="url(#clip-path-29)"><g clip-path="url(#clip-path-29)"><rect x="281.59" y="23.37" width="33.83" height="69.18" fill="#fff"/><rect x="309.38" y="36.03" width="20.54" height="56.19" fill="#fff"/><path d="M344.1,54.23l-2.8-6.73a.45.45,0,0,0-.43-.3.47.47,0,0,0-.45.3l-3.07,7.38h1l1.21-3,3.63,2.93a.59.59,0,0,0,.39.17.5.5,0,0,0,.51-.5.67.67,0,0,0,0-.21m-3.23-5.52,1.82,4.49L339.94,51Z" transform="translate(-46.41 -15.5)" fill="#292929"/><circle cx="294.34" cy="35.94" r="7.02" fill="none" stroke="#292929" stroke-miterlimit="10" stroke-width="0.5"/><path d="M347.74,74.21h23.73V66.86H347.74Zm0,11.59h23.73V78.45H347.74Zm0,11.59h23.73V90H347.74Zm-8.3-22.92H341v-8h-1.31a1.31,1.31,0,0,1-.06.32,1.37,1.37,0,0,1-.31.57,1.45,1.45,0,0,1-.77.42,6.73,6.73,0,0,1-1,.1V69h1.87Zm0,9.92q.22-.19.8-.6l.63-.44a5.22,5.22,0,0,0,1.14-1,2.5,2.5,0,0,0,.53-1.57,2.42,2.42,0,0,0-.75-1.85,2.82,2.82,0,0,0-2-.7,2.29,2.29,0,0,0-2.22,1.19,3.82,3.82,0,0,0-.37,1.64h1.52a2.64,2.64,0,0,1,.18-1,1.14,1.14,0,0,1,1.77-.2,1.26,1.26,0,0,1,.28.84,1.64,1.64,0,0,1-.49,1.14,11.5,11.5,0,0,1-1.4,1.11,4.42,4.42,0,0,0-1.58,1.68,3.75,3.75,0,0,0-.37,1.56h5.45V84.82h-3.47A1.78,1.78,0,0,1,339.48,84.39Zm1.89,8.85a1.41,1.41,0,0,0,.55-.41,1.75,1.75,0,0,0,.42-1.18,2,2,0,0,0-.7-1.58,2.76,2.76,0,0,0-1.84-.59,3.14,3.14,0,0,0-1,.15,2.11,2.11,0,0,0-.73.43,2.53,2.53,0,0,0-.6.86,3.92,3.92,0,0,0-.2,1.12h1.46a1.49,1.49,0,0,1,.25-.94.94.94,0,0,1,.81-.35,1,1,0,0,1,.75.28,1,1,0,0,1,.27.74.92.92,0,0,1-.52.93,3,3,0,0,1-1.06.15V94a3.21,3.21,0,0,1,1.14.15,1,1,0,0,1,.63,1,1.17,1.17,0,0,1-.34.91,1.14,1.14,0,0,1-.8.32,1,1,0,0,1-1-.58,1.79,1.79,0,0,1-.15-.79h-1.54a3.27,3.27,0,0,0,.38,1.54,2.5,2.5,0,0,0,2.35,1.1,2.66,2.66,0,0,0,2.07-.77,2.55,2.55,0,0,0,.7-1.77,2,2,0,0,0-.6-1.51A1.13,1.13,0,0,0,341.37,93.24Z" transform="translate(-46.41 -15.5)" fill="#231f20"/><path d="M378.49,51.74,362.08,35.33H326.24V110.2h53.56V53.05l-1.32-1.32m-47.75,54V39.82h25.45c6.68,0,3.46,15.85,3.46,15.85s15.46-3.76,15.65,3.33v46.7Z" transform="translate(-46.41 -15.5)" fill="#231f20"/></g></g></svg>