<svg width="163.12" height="20.244" version="1.1" xmlns="http://www.w3.org/2000/svg">
 <style/>
 <defs>
  <linearGradient id="linearGradient891" x1="170.83" x2="170.83" y1="-5.6998" y2="-16.76" gradientTransform="matrix(1.0082 0 0 1.0082 0 20.082)" gradientUnits="userSpaceOnUse">
   <stop stop-color="#480900" stop-opacity=".4549" offset="0"/>
   <stop stop-color="#d2d2d2" stop-opacity="0" offset="1"/>
  </linearGradient>
  <filter id="filter923" x="-.0021966" y="-.018085" width="1.0044" height="1.0362" color-interpolation-filters="sRGB">
   <feGaussianBlur stdDeviation="0.082526871"/>
  </filter>
  <filter id="filter927" x="-.0025127" y="-.018605" width="1.005" height="1.0372" color-interpolation-filters="sRGB">
   <feGaussianBlur stdDeviation="0.082526871"/>
  </filter>
 </defs>
 <clipPath id="a">
  <rect width="102" height="20" rx="3" fill="#fff"/>
 </clipPath>
 <g transform="matrix(.84167 0 0 1 0 .083029)" stroke-width="1.0082">
  <path d="m190.39-0.082626h-105.42v20.165h105.42c1.8869 0 3.406-1.5191 3.406-3.406v-13.353c0-1.8869-1.5191-3.406-3.406-3.406z" fill="#f60" style="paint-order:stroke fill markers"/>
  <path d="m3.406-0.082626h102.02v20.165h-102.02c-1.8869 0-3.406-1.5191-3.406-3.406v-13.353c0-1.8869 1.5191-3.406 3.406-3.406z" fill="#4d4d4d" style="paint-order:stroke fill markers"/>
  <rect x="4.6399e-15" y="-.082626" width="193.75" height="20.243" ry="3.406" fill="url(#linearGradient891)" style="paint-order:stroke fill markers"/>
 </g>
 <g transform="translate(0 .083029)">
  <g transform="translate(0 .81938)" fill="#010101" fill-opacity=".66791" filter="url(#filter927)" stroke-width=".1" aria-label="ansible-galaxy">
   <path d="m10.162 11.088q-1.1978 0-1.6597 0.27393-0.46191 0.27393-0.46191 0.93457 0 0.52637 0.34375 0.83789 0.34912 0.30615 0.94531 0.30615 0.82178 0 1.3159-0.58008 0.49951-0.58545 0.49951-1.5522v-0.22022zm1.9712-0.4082v3.4321h-0.98828v-0.91309q-0.33838 0.54785-0.84326 0.81104-0.50488 0.25781-1.2354 0.25781-0.92383 0-1.4717-0.51562-0.54248-0.521-0.54248-1.3911 0-1.0151 0.67676-1.5308 0.68213-0.51562 2.0303-0.51562h1.3857v-0.09668q0-0.68213-0.45117-1.0527-0.4458-0.37598-1.2568-0.37598-0.51562 0-1.0044 0.12354-0.48877 0.12354-0.93994 0.37061v-0.91309q0.54248-0.20947 1.0527-0.31152 0.51025-0.10742 0.99365-0.10742 1.3052 0 1.9497 0.67676t0.64453 2.0518z" style="font-feature-settings:normal;font-variant-caps:normal;font-variant-ligatures:normal;font-variant-numeric:normal"/>
   <path d="m19.169 10.481v3.6309h-0.98828v-3.5986q0-0.854-0.33301-1.2783t-0.99902-0.42432q-0.80029 0-1.2622 0.51025t-0.46191 1.3911v3.3999h-0.99365v-6.0156h0.99365v0.93457q0.35449-0.54248 0.83252-0.81104 0.4834-0.26855 1.1118-0.26855 1.0366 0 1.5684 0.64453 0.53174 0.63916 0.53174 1.8853z" style="font-feature-settings:normal;font-variant-caps:normal;font-variant-ligatures:normal;font-variant-numeric:normal"/>
   <path d="m24.975 8.2737v0.93457q-0.41894-0.21484-0.87012-0.32227t-0.93457-0.10742q-0.73584 0-1.1064 0.22559-0.36523 0.22559-0.36523 0.67676 0 0.34375 0.26318 0.54248 0.26318 0.19336 1.0581 0.3706l0.33838 0.0752q1.0527 0.22559 1.4932 0.63916 0.4458 0.4082 0.4458 1.144 0 0.83789-0.66602 1.3267-0.66064 0.48877-1.8208 0.48877-0.4834 0-1.0098-0.09668-0.521-0.09131-1.1011-0.2793v-1.0205q0.54785 0.28467 1.0796 0.42969 0.53174 0.13965 1.0527 0.13965 0.69824 0 1.0742-0.23633 0.37598-0.2417 0.37598-0.67676 0-0.40283-0.27393-0.61768-0.26855-0.21484-1.187-0.41357l-0.34375-0.08057q-0.91846-0.19336-1.3267-0.59082-0.4082-0.40283-0.4082-1.1011 0-0.84863 0.60156-1.3105 0.60156-0.46191 1.708-0.46191 0.54785 0 1.0312 0.080566 0.4834 0.080566 0.8916 0.2417z" style="font-feature-settings:normal;font-variant-caps:normal;font-variant-ligatures:normal;font-variant-numeric:normal"/>
   <path d="m26.871 8.0965h0.98828v6.0156h-0.98828zm0-2.3418h0.98828v1.2515h-0.98828z" style="font-feature-settings:normal;font-variant-caps:normal;font-variant-ligatures:normal;font-variant-numeric:normal"/>
   <path d="m34.246 11.11q0-1.0903-0.45117-1.708-0.4458-0.62305-1.23-0.62305-0.78418 0-1.2354 0.62305-0.4458 0.61768-0.4458 1.708t0.4458 1.7134q0.45117 0.61768 1.2354 0.61768 0.78418 0 1.23-0.61768 0.45117-0.62305 0.45117-1.7134zm-3.3623-2.1001q0.31152-0.53711 0.78418-0.79492 0.47803-0.26318 1.1387-0.26318 1.0957 0 1.7778 0.87012 0.6875 0.87012 0.6875 2.2881 0 1.418-0.6875 2.2881-0.68213 0.87012-1.7778 0.87012-0.66064 0-1.1387-0.25781-0.47266-0.26318-0.78418-0.80029v0.90234h-0.99365v-8.3574h0.99365z" style="font-feature-settings:normal;font-variant-caps:normal;font-variant-ligatures:normal;font-variant-numeric:normal"/>
   <path d="m36.91 5.7547h0.98828v8.3574h-0.98828z" style="font-feature-settings:normal;font-variant-caps:normal;font-variant-ligatures:normal;font-variant-numeric:normal"/>
   <path d="m45.111 10.857v0.4834h-4.5439q0.06445 1.0205 0.6123 1.5576 0.55322 0.53174 1.5361 0.53174 0.56934 0 1.1011-0.13965 0.53711-0.13965 1.0635-0.41894v0.93457q-0.53174 0.22559-1.0903 0.34375-0.55859 0.11816-1.1333 0.11816-1.4395 0-2.2827-0.83789-0.83789-0.83789-0.83789-2.2666 0-1.4771 0.79492-2.3418 0.80029-0.87012 2.1538-0.87012 1.2139 0 1.9175 0.78418 0.70898 0.77881 0.70898 2.1216zm-0.98828-0.29004q-0.01074-0.81104-0.45654-1.2944-0.44043-0.4834-1.1709-0.4834-0.82715 0-1.3267 0.46729-0.49414 0.46729-0.56934 1.3159z" style="font-feature-settings:normal;font-variant-caps:normal;font-variant-ligatures:normal;font-variant-numeric:normal"/>
   <path d="m46.234 10.659h2.895v0.88086h-2.895z" style="font-feature-settings:normal;font-variant-caps:normal;font-variant-ligatures:normal;font-variant-numeric:normal"/>
   <path d="m54.661 11.034q0-1.0742-0.4458-1.665-0.44043-0.59082-1.2407-0.59082-0.79492 0-1.2407 0.59082-0.44043 0.59082-0.44043 1.665 0 1.0688 0.44043 1.6597 0.4458 0.59082 1.2407 0.59082 0.80029 0 1.2407-0.59082 0.4458-0.59082 0.4458-1.6597zm0.98828 2.3311q0 1.5361-0.68213 2.2827-0.68213 0.75195-2.0894 0.75195-0.521 0-0.98291-0.08057-0.46191-0.0752-0.89697-0.23633v-0.96143q0.43506 0.23633 0.85938 0.34912t0.86475 0.11279q0.97217 0 1.4556-0.51025 0.4834-0.50488 0.4834-1.5308v-0.48877q-0.30615 0.53174-0.78418 0.79492t-1.144 0.26318q-1.1064 0-1.7832-0.84326-0.67676-0.84326-0.67676-2.2344 0-1.3965 0.67676-2.2397 0.67676-0.84326 1.7832-0.84326 0.66602 0 1.144 0.26318 0.47803 0.26318 0.78418 0.79492v-0.91309h0.98828z" style="font-feature-settings:normal;font-variant-caps:normal;font-variant-ligatures:normal;font-variant-numeric:normal"/>
   <path d="m60.419 11.088q-1.1978 0-1.6597 0.27393t-0.46191 0.93457q0 0.52637 0.34375 0.83789 0.34912 0.30615 0.94531 0.30615 0.82178 0 1.3159-0.58008 0.49951-0.58545 0.49951-1.5522v-0.22022zm1.9712-0.4082v3.4321h-0.98828v-0.91309q-0.33838 0.54785-0.84326 0.81104-0.50488 0.25781-1.2354 0.25781-0.92383 0-1.4717-0.51562-0.54248-0.521-0.54248-1.3911 0-1.0151 0.67676-1.5308 0.68213-0.51562 2.0303-0.51562h1.3857v-0.09668q0-0.68213-0.45117-1.0527-0.4458-0.37598-1.2568-0.37598-0.51562 0-1.0044 0.12354-0.48877 0.12354-0.93994 0.37061v-0.91308q0.54248-0.20947 1.0527-0.31152 0.51025-0.10742 0.99365-0.10742 1.3052 0 1.9497 0.67676t0.64453 2.0518z" style="font-feature-settings:normal;font-variant-caps:normal;font-variant-ligatures:normal;font-variant-numeric:normal"/>
   <path d="m64.426 5.7547h0.98828v8.3574h-0.98828z" style="font-feature-settings:normal;font-variant-caps:normal;font-variant-ligatures:normal;font-variant-numeric:normal"/>
   <path d="m70.216 11.088q-1.1978 0-1.6597 0.27393t-0.46191 0.93457q0 0.52637 0.34375 0.83789 0.34912 0.30615 0.94531 0.30615 0.82178 0 1.3159-0.58008 0.49951-0.58545 0.49951-1.5522v-0.22022zm1.9712-0.4082v3.4321h-0.98828v-0.91309q-0.33838 0.54785-0.84326 0.81104-0.50488 0.25781-1.2354 0.25781-0.92383 0-1.4717-0.51562-0.54248-0.521-0.54248-1.3911 0-1.0151 0.67676-1.5308 0.68213-0.51562 2.0303-0.51562h1.3857v-0.09668q0-0.68213-0.45117-1.0527-0.4458-0.37598-1.2568-0.37598-0.51562 0-1.0044 0.12354-0.48877 0.12354-0.93994 0.37061v-0.91308q0.54248-0.20947 1.0527-0.31152 0.51025-0.10742 0.99365-0.10742 1.3052 0 1.9497 0.67676t0.64453 2.0518z" style="font-feature-settings:normal;font-variant-caps:normal;font-variant-ligatures:normal;font-variant-numeric:normal"/>
   <path d="m79.223 8.0965-2.1753 2.9272 2.2881 3.0884h-1.1655l-1.751-2.3633-1.751 2.3633h-1.1655l2.3364-3.1475-2.1377-2.8682h1.1655l1.5952 2.1431 1.5952-2.1431z" style="font-feature-settings:normal;font-variant-caps:normal;font-variant-ligatures:normal;font-variant-numeric:normal"/>
   <path d="m83.235 14.671q-0.41894 1.0742-0.81641 1.4019t-1.0635 0.32764h-0.78955v-0.82715h0.58008q0.4082 0 0.63379-0.19336t0.49951-0.91309l0.17725-0.45117-2.4331-5.9189h1.0474l1.8799 4.7051 1.8799-4.7051h1.0474z" style="font-feature-settings:normal;font-variant-caps:normal;font-variant-ligatures:normal;font-variant-numeric:normal"/>
  </g>
  <g fill="#fff" aria-label="ansible-galaxy">
   <path d="m10.162 11.088q-1.1978 0-1.6597 0.27393-0.46191 0.27393-0.46191 0.93457 0 0.52637 0.34375 0.83789 0.34912 0.30615 0.94531 0.30615 0.82178 0 1.3159-0.58008 0.49951-0.58545 0.49951-1.5522v-0.22022zm1.9712-0.4082v3.4321h-0.98828v-0.91309q-0.33838 0.54785-0.84326 0.81104-0.50488 0.25781-1.2354 0.25781-0.92383 0-1.4717-0.51562-0.54248-0.521-0.54248-1.3911 0-1.0151 0.67676-1.5308 0.68213-0.51562 2.0303-0.51562h1.3857v-0.09668q0-0.68213-0.45117-1.0527-0.4458-0.37598-1.2568-0.37598-0.51562 0-1.0044 0.12354-0.48877 0.12354-0.93994 0.37061v-0.91309q0.54248-0.20947 1.0527-0.31152 0.51025-0.10742 0.99365-0.10742 1.3052 0 1.9497 0.67676t0.64453 2.0518z" style="font-feature-settings:normal;font-variant-caps:normal;font-variant-ligatures:normal;font-variant-numeric:normal"/>
   <path d="m19.169 10.481v3.6309h-0.98828v-3.5986q0-0.854-0.33301-1.2783t-0.99902-0.42432q-0.80029 0-1.2622 0.51025t-0.46191 1.3911v3.3999h-0.99365v-6.0156h0.99365v0.93457q0.35449-0.54248 0.83252-0.81104 0.4834-0.26855 1.1118-0.26855 1.0366 0 1.5684 0.64453 0.53174 0.63916 0.53174 1.8853z" style="font-feature-settings:normal;font-variant-caps:normal;font-variant-ligatures:normal;font-variant-numeric:normal"/>
   <path d="m24.975 8.2737v0.93457q-0.41894-0.21484-0.87012-0.32227t-0.93457-0.10742q-0.73584 0-1.1064 0.22559-0.36523 0.22559-0.36523 0.67676 0 0.34375 0.26318 0.54248 0.26318 0.19336 1.0581 0.3706l0.33838 0.0752q1.0527 0.22559 1.4932 0.63916 0.4458 0.4082 0.4458 1.144 0 0.83789-0.66602 1.3267-0.66064 0.48877-1.8208 0.48877-0.4834 0-1.0098-0.09668-0.521-0.09131-1.1011-0.2793v-1.0205q0.54785 0.28467 1.0796 0.42969 0.53174 0.13965 1.0527 0.13965 0.69824 0 1.0742-0.23633 0.37598-0.2417 0.37598-0.67676 0-0.40283-0.27393-0.61768-0.26855-0.21484-1.187-0.41357l-0.34375-0.08057q-0.91846-0.19336-1.3267-0.59082-0.4082-0.40283-0.4082-1.1011 0-0.84863 0.60156-1.3105 0.60156-0.46191 1.708-0.46191 0.54785 0 1.0312 0.080566 0.4834 0.080566 0.8916 0.2417z" style="font-feature-settings:normal;font-variant-caps:normal;font-variant-ligatures:normal;font-variant-numeric:normal"/>
   <path d="m26.871 8.0965h0.98828v6.0156h-0.98828zm0-2.3418h0.98828v1.2515h-0.98828z" style="font-feature-settings:normal;font-variant-caps:normal;font-variant-ligatures:normal;font-variant-numeric:normal"/>
   <path d="m34.246 11.11q0-1.0903-0.45117-1.708-0.4458-0.62305-1.23-0.62305-0.78418 0-1.2354 0.62305-0.4458 0.61768-0.4458 1.708t0.4458 1.7134q0.45117 0.61768 1.2354 0.61768 0.78418 0 1.23-0.61768 0.45117-0.62305 0.45117-1.7134zm-3.3623-2.1001q0.31152-0.53711 0.78418-0.79492 0.47803-0.26318 1.1387-0.26318 1.0957 0 1.7778 0.87012 0.6875 0.87012 0.6875 2.2881 0 1.418-0.6875 2.2881-0.68213 0.87012-1.7778 0.87012-0.66064 0-1.1387-0.25781-0.47266-0.26318-0.78418-0.80029v0.90234h-0.99365v-8.3574h0.99365z" style="font-feature-settings:normal;font-variant-caps:normal;font-variant-ligatures:normal;font-variant-numeric:normal"/>
   <path d="m36.91 5.7547h0.98828v8.3574h-0.98828z" style="font-feature-settings:normal;font-variant-caps:normal;font-variant-ligatures:normal;font-variant-numeric:normal"/>
   <path d="m45.111 10.857v0.4834h-4.5439q0.06445 1.0205 0.6123 1.5576 0.55322 0.53174 1.5361 0.53174 0.56934 0 1.1011-0.13965 0.53711-0.13965 1.0635-0.41894v0.93457q-0.53174 0.22559-1.0903 0.34375-0.55859 0.11816-1.1333 0.11816-1.4395 0-2.2827-0.83789-0.83789-0.83789-0.83789-2.2666 0-1.4771 0.79492-2.3418 0.80029-0.87012 2.1538-0.87012 1.2139 0 1.9175 0.78418 0.70898 0.77881 0.70898 2.1216zm-0.98828-0.29004q-0.01074-0.81104-0.45654-1.2944-0.44043-0.4834-1.1709-0.4834-0.82715 0-1.3267 0.46729-0.49414 0.46729-0.56934 1.3159z" style="font-feature-settings:normal;font-variant-caps:normal;font-variant-ligatures:normal;font-variant-numeric:normal"/>
   <path d="m46.234 10.659h2.895v0.88086h-2.895z" style="font-feature-settings:normal;font-variant-caps:normal;font-variant-ligatures:normal;font-variant-numeric:normal"/>
   <path d="m54.661 11.034q0-1.0742-0.4458-1.665-0.44043-0.59082-1.2407-0.59082-0.79492 0-1.2407 0.59082-0.44043 0.59082-0.44043 1.665 0 1.0688 0.44043 1.6597 0.4458 0.59082 1.2407 0.59082 0.80029 0 1.2407-0.59082 0.4458-0.59082 0.4458-1.6597zm0.98828 2.3311q0 1.5361-0.68213 2.2827-0.68213 0.75195-2.0894 0.75195-0.521 0-0.98291-0.08057-0.46191-0.0752-0.89697-0.23633v-0.96143q0.43506 0.23633 0.85938 0.34912t0.86475 0.11279q0.97217 0 1.4556-0.51025 0.4834-0.50488 0.4834-1.5308v-0.48877q-0.30615 0.53174-0.78418 0.79492t-1.144 0.26318q-1.1064 0-1.7832-0.84326-0.67676-0.84326-0.67676-2.2344 0-1.3965 0.67676-2.2397 0.67676-0.84326 1.7832-0.84326 0.66602 0 1.144 0.26318 0.47803 0.26318 0.78418 0.79492v-0.91309h0.98828z" style="font-feature-settings:normal;font-variant-caps:normal;font-variant-ligatures:normal;font-variant-numeric:normal"/>
   <path d="m60.419 11.088q-1.1978 0-1.6597 0.27393t-0.46191 0.93457q0 0.52637 0.34375 0.83789 0.34912 0.30615 0.94531 0.30615 0.82178 0 1.3159-0.58008 0.49951-0.58545 0.49951-1.5522v-0.22022zm1.9712-0.4082v3.4321h-0.98828v-0.91309q-0.33838 0.54785-0.84326 0.81104-0.50488 0.25781-1.2354 0.25781-0.92383 0-1.4717-0.51562-0.54248-0.521-0.54248-1.3911 0-1.0151 0.67676-1.5308 0.68213-0.51562 2.0303-0.51562h1.3857v-0.09668q0-0.68213-0.45117-1.0527-0.4458-0.37598-1.2568-0.37598-0.51562 0-1.0044 0.12354-0.48877 0.12354-0.93994 0.37061v-0.91308q0.54248-0.20947 1.0527-0.31152 0.51025-0.10742 0.99365-0.10742 1.3052 0 1.9497 0.67676t0.64453 2.0518z" style="font-feature-settings:normal;font-variant-caps:normal;font-variant-ligatures:normal;font-variant-numeric:normal"/>
   <path d="m64.426 5.7547h0.98828v8.3574h-0.98828z" style="font-feature-settings:normal;font-variant-caps:normal;font-variant-ligatures:normal;font-variant-numeric:normal"/>
   <path d="m70.216 11.088q-1.1978 0-1.6597 0.27393t-0.46191 0.93457q0 0.52637 0.34375 0.83789 0.34912 0.30615 0.94531 0.30615 0.82178 0 1.3159-0.58008 0.49951-0.58545 0.49951-1.5522v-0.22022zm1.9712-0.4082v3.4321h-0.98828v-0.91309q-0.33838 0.54785-0.84326 0.81104-0.50488 0.25781-1.2354 0.25781-0.92383 0-1.4717-0.51562-0.54248-0.521-0.54248-1.3911 0-1.0151 0.67676-1.5308 0.68213-0.51562 2.0303-0.51562h1.3857v-0.09668q0-0.68213-0.45117-1.0527-0.4458-0.37598-1.2568-0.37598-0.51562 0-1.0044 0.12354-0.48877 0.12354-0.93994 0.37061v-0.91308q0.54248-0.20947 1.0527-0.31152 0.51025-0.10742 0.99365-0.10742 1.3052 0 1.9497 0.67676t0.64453 2.0518z" style="font-feature-settings:normal;font-variant-caps:normal;font-variant-ligatures:normal;font-variant-numeric:normal"/>
   <path d="m79.223 8.0965-2.1753 2.9272 2.2881 3.0884h-1.1655l-1.751-2.3633-1.751 2.3633h-1.1655l2.3364-3.1475-2.1377-2.8682h1.1655l1.5952 2.1431 1.5952-2.1431z" style="font-feature-settings:normal;font-variant-caps:normal;font-variant-ligatures:normal;font-variant-numeric:normal"/>
   <path d="m83.235 14.671q-0.41894 1.0742-0.81641 1.4019t-1.0635 0.32764h-0.78955v-0.82715h0.58008q0.4082 0 0.63379-0.19336t0.49951-0.91309l0.17725-0.45117-2.4331-5.9189h1.0474l1.8799 4.7051 1.8799-4.7051h1.0474z" style="font-feature-settings:normal;font-variant-caps:normal;font-variant-ligatures:normal;font-variant-numeric:normal"/>
  </g>
  <g dominant-baseline="auto" fill="#010101" fill-opacity=".66791" filter="url(#filter923)" stroke-width=".1" style="font-feature-settings:normal;font-variant-alternates:normal;font-variant-caps:normal;font-variant-ligatures:normal;font-variant-numeric:normal;font-variant-position:normal;shape-padding:0;text-decoration-color:#000000;text-decoration-line:none;text-decoration-style:solid;text-indent:0;text-orientation:mixed;text-transform:none;white-space:normal" aria-label="do1jlr.gitea">
   <path d="m97.627 9.7322v-3.2549h0.98828v8.3574h-0.98828v-0.90234q-0.31152 0.53711-0.78955 0.80029-0.47266 0.25781-1.1387 0.25781-1.0903 0-1.7778-0.87012-0.68213-0.87012-0.68213-2.2881 0-1.418 0.68213-2.2881 0.6875-0.87012 1.7778-0.87012 0.66602 0 1.1387 0.26318 0.47803 0.25781 0.78955 0.79492zm-3.3677 2.1001q0 1.0903 0.4458 1.7134 0.45117 0.61768 1.2354 0.61768t1.2354-0.61768q0.45117-0.62305 0.45117-1.7134t-0.45117-1.708q-0.45117-0.62305-1.2354-0.62305t-1.2354 0.62305q-0.4458 0.61768-0.4458 1.708z"/>
   <path d="m102.98 9.5119q-0.79492 0-1.2568 0.62305-0.46192 0.61768-0.46192 1.6973 0 1.0796 0.45655 1.7026 0.46191 0.61768 1.2622 0.61768 0.78955 0 1.2515-0.62305 0.46191-0.62305 0.46191-1.6973 0-1.0688-0.46191-1.6919-0.46192-0.62842-1.2515-0.62842zm0-0.83789q1.2891 0 2.0249 0.83789 0.73584 0.83789 0.73584 2.3203 0 1.477-0.73584 2.3203-0.73584 0.83789-2.0249 0.83789-1.2944 0-2.0303-0.83789-0.73047-0.84326-0.73047-2.3203 0-1.4824 0.73047-2.3203 0.73584-0.83789 2.0303-0.83789z"/>
   <path d="m107.71 13.922h1.7725v-6.1177l-1.9282 0.38672v-0.98828l1.9175-0.38672h1.085v7.106h1.7725v0.91309h-4.6191z"/>
   <path d="m114.38 8.8191h0.98829v6.123q0 1.1494-0.44043 1.665-0.43506 0.51562-1.4072 0.51562h-0.37598v-0.83789h0.26319q0.56396 0 0.76806-0.26318 0.2041-0.25781 0.2041-1.0796zm0-2.3418h0.98829v1.2515h-0.98829z"/>
   <path d="m117.44 6.4773h0.98828v8.3574h-0.98828z"/>
   <path d="m123.98 9.7429q-0.16651-0.09668-0.36524-0.13965-0.19336-0.04834-0.42968-0.04834-0.83789 0-1.2891 0.54785-0.4458 0.54248-0.4458 1.563v3.1689h-0.99365v-6.0156h0.99365v0.93457q0.31153-0.54785 0.81104-0.81104 0.49951-0.26855 1.2139-0.26855 0.10205 0 0.22558 0.016113 0.12354 0.010742 0.27393 0.037598z"/>
   <path d="m124.14 13.47h1.1333v1.3643h-1.1333z"/>
   <path d="m131.46 11.757q0-1.0742-0.4458-1.665-0.44043-0.59082-1.2407-0.59082-0.79492 0-1.2407 0.59082-0.44043 0.59082-0.44043 1.665 0 1.0688 0.44043 1.6597 0.4458 0.59082 1.2407 0.59082 0.80029 0 1.2407-0.59082 0.4458-0.59082 0.4458-1.6597zm0.98828 2.3311q0 1.5361-0.68213 2.2827-0.68212 0.75195-2.0894 0.75195-0.521 0-0.98291-0.08057-0.46192-0.0752-0.89697-0.23633v-0.96142q0.43505 0.23633 0.85937 0.34912t0.86475 0.11279q0.97217 0 1.4556-0.51025 0.4834-0.50488 0.4834-1.5308v-0.48877q-0.30615 0.53174-0.78418 0.79492-0.47802 0.26318-1.144 0.26318-1.1064 0-1.7832-0.84326-0.67676-0.84326-0.67676-2.2344 0-1.3965 0.67676-2.2397 0.67675-0.84326 1.7832-0.84326 0.66602 0 1.144 0.26318 0.47803 0.26318 0.78418 0.79492v-0.91308h0.98828z"/>
   <path d="m134.48 8.8191h0.98828v6.0156h-0.98828zm0-2.3418h0.98828v1.2515h-0.98828z"/>
   <path d="m138.52 7.1111v1.708h2.0356v0.76807h-2.0356v3.2656q0 0.73584 0.19873 0.94531 0.2041 0.20947 0.82178 0.20947h1.0151v0.82715h-1.0151q-1.144 0-1.5791-0.42432-0.43506-0.42969-0.43506-1.5576v-3.2656h-0.7251v-0.76807h0.7251v-1.708z"/>
   <path d="m147 11.58v0.4834h-4.544q0.0644 1.0205 0.61231 1.5576 0.55322 0.53174 1.5361 0.53174 0.56933 0 1.1011-0.13965 0.53711-0.13965 1.0635-0.41895v0.93457q-0.53174 0.22559-1.0903 0.34375-0.5586 0.11816-1.1333 0.11816-1.4395 0-2.2827-0.83789-0.83789-0.83789-0.83789-2.2666 0-1.4771 0.79492-2.3418 0.8003-0.87012 2.1538-0.87012 1.2139 0 1.9175 0.78418 0.70899 0.77881 0.70899 2.1216zm-0.98828-0.29004q-0.0108-0.81104-0.45655-1.2944-0.44043-0.4834-1.1709-0.4834-0.82714 0-1.3267 0.46729-0.49414 0.46728-0.56933 1.3159z"/>
   <path d="m151.35 11.811q-1.1978 0-1.6597 0.27393-0.46192 0.27393-0.46192 0.93457 0 0.52637 0.34375 0.83789 0.34912 0.30615 0.94531 0.30615 0.82178 0 1.3159-0.58008 0.49951-0.58545 0.49951-1.5522v-0.22022zm1.9712-0.4082v3.4321h-0.98828v-0.91309q-0.33838 0.54785-0.84326 0.81104-0.50488 0.25781-1.2354 0.25781-0.92383 0-1.4717-0.51562-0.54248-0.521-0.54248-1.3911 0-1.0151 0.67676-1.5308 0.68213-0.51562 2.0303-0.51562h1.3857v-0.09668q0-0.68213-0.45117-1.0527-0.4458-0.37598-1.2568-0.37598-0.51563 0-1.0044 0.12354t-0.93994 0.37061v-0.91309q0.54248-0.20947 1.0527-0.31152 0.51026-0.10742 0.99366-0.10742 1.3052 0 1.9497 0.67676 0.64453 0.67676 0.64453 2.0518z"/>
  </g>
  <g fill="#fff" style="font-feature-settings:normal;font-variant-caps:normal;font-variant-ligatures:normal;font-variant-numeric:normal" aria-label="do1jlr.gitea">
   <path d="m97.454 9.189v-3.2549h0.98828v8.3574h-0.98828v-0.90234q-0.31152 0.53711-0.78955 0.80029-0.47266 0.25781-1.1387 0.25781-1.0903 0-1.7778-0.87012-0.68213-0.87012-0.68213-2.2881 0-1.418 0.68213-2.2881 0.6875-0.87012 1.7778-0.87012 0.66602 0 1.1387 0.26318 0.47803 0.25781 0.78955 0.79492zm-3.3677 2.1001q0 1.0903 0.4458 1.7134 0.45117 0.61768 1.2354 0.61768 0.78418 0 1.2354-0.61768 0.45117-0.62305 0.45117-1.7134 0-1.0903-0.45117-1.708-0.45117-0.62305-1.2354-0.62305-0.78418 0-1.2354 0.62305-0.4458 0.61768-0.4458 1.708z"/>
   <path d="m102.81 8.9688q-0.79492 0-1.2568 0.62305-0.46192 0.61768-0.46192 1.6973 0 1.0796 0.45655 1.7026 0.46191 0.61768 1.2622 0.61768 0.78955 0 1.2515-0.62305 0.46191-0.62305 0.46191-1.6973 0-1.0688-0.46191-1.6919-0.46192-0.62842-1.2515-0.62842zm0-0.83789q1.2891 0 2.0249 0.83789t0.73584 2.3203q0 1.477-0.73584 2.3203-0.73584 0.83789-2.0249 0.83789-1.2944 0-2.0303-0.83789-0.73047-0.84326-0.73047-2.3203 0-1.4824 0.73047-2.3203 0.73584-0.83789 2.0303-0.83789z"/>
   <path d="m107.54 13.378h1.7725v-6.1177l-1.9282 0.38672v-0.98828l1.9175-0.38672h1.085v7.106h1.7725v0.91309h-4.6191z"/>
   <path d="m114.21 8.2759h0.98829v6.123q0 1.1494-0.44043 1.665-0.43506 0.51562-1.4072 0.51562h-0.37598v-0.83789h0.26319q0.56396 0 0.76806-0.26318 0.2041-0.25781 0.2041-1.0796zm0-2.3418h0.98829v1.2515h-0.98829z"/>
   <path d="m117.26 5.9341h0.98828v8.3574h-0.98828z"/>
   <path d="m123.8 9.1997q-0.1665-0.09668-0.36524-0.13965-0.19335-0.04834-0.42968-0.04834-0.83789 0-1.2891 0.54785-0.4458 0.54248-0.4458 1.563v3.1689h-0.99365v-6.0156h0.99365v0.93457q0.31153-0.54785 0.81104-0.81104 0.49951-0.26855 1.2139-0.26855 0.10205 0 0.22558 0.016113 0.12354 0.010742 0.27393 0.037598z"/>
   <path d="m123.97 12.927h1.1333v1.3643h-1.1333z"/>
   <path d="m131.29 11.214q0-1.0742-0.4458-1.665-0.44043-0.59082-1.2407-0.59082-0.79492 0-1.2407 0.59082-0.44043 0.59082-0.44043 1.665 0 1.0688 0.44043 1.6597 0.4458 0.59082 1.2407 0.59082 0.80029 0 1.2407-0.59082 0.4458-0.59082 0.4458-1.6597zm0.98828 2.3311q0 1.5361-0.68213 2.2827-0.68212 0.75195-2.0894 0.75195-0.521 0-0.98291-0.08057-0.46191-0.0752-0.89697-0.23633v-0.96142q0.43506 0.23633 0.85937 0.34912 0.42432 0.11279 0.86475 0.11279 0.97217 0 1.4556-0.51025 0.4834-0.50488 0.4834-1.5308v-0.48877q-0.30615 0.53174-0.78418 0.79492-0.47802 0.26318-1.144 0.26318-1.1064 0-1.7832-0.84326-0.67676-0.84326-0.67676-2.2344 0-1.3965 0.67676-2.2397 0.67675-0.84326 1.7832-0.84326 0.66602 0 1.144 0.26318 0.47803 0.26318 0.78418 0.79492v-0.91309h0.98828z"/>
   <path d="m134.31 8.2759h0.98828v6.0156h-0.98828zm0-2.3418h0.98828v1.2515h-0.98828z"/>
   <path d="m138.34 6.5679v1.708h2.0356v0.76807h-2.0356v3.2656q0 0.73584 0.19873 0.94531 0.2041 0.20947 0.82178 0.20947h1.0151v0.82715h-1.0151q-1.144 0-1.5791-0.42432-0.43506-0.42969-0.43506-1.5576v-3.2656h-0.7251v-0.76807h0.7251v-1.708z"/>
   <path d="m146.83 11.037v0.4834h-4.544q0.0644 1.0205 0.61231 1.5576 0.55322 0.53174 1.5361 0.53174 0.56933 0 1.1011-0.13965 0.53711-0.13965 1.0635-0.41895v0.93457q-0.53174 0.22559-1.0903 0.34375-0.5586 0.11816-1.1333 0.11816-1.4395 0-2.2827-0.83789-0.83789-0.83789-0.83789-2.2666 0-1.4771 0.79492-2.3418 0.8003-0.87012 2.1538-0.87012 1.2139 0 1.9175 0.78418 0.70899 0.77881 0.70899 2.1216zm-0.98828-0.29004q-0.0108-0.81104-0.45655-1.2944-0.44043-0.4834-1.1709-0.4834-0.82714 0-1.3267 0.46729-0.49414 0.46729-0.56933 1.3159z"/>
   <path d="m151.18 11.268q-1.1978 0-1.6597 0.27393-0.46192 0.27393-0.46192 0.93457 0 0.52637 0.34375 0.83789 0.34912 0.30615 0.94531 0.30615 0.82178 0 1.3159-0.58008 0.49951-0.58545 0.49951-1.5522v-0.22022zm1.9712-0.4082v3.4321h-0.98829v-0.91309q-0.33837 0.54785-0.84326 0.81104-0.50488 0.25781-1.2354 0.25781-0.92383 0-1.4717-0.51562-0.54248-0.521-0.54248-1.3911 0-1.0151 0.67676-1.5308 0.68213-0.51562 2.0303-0.51562h1.3857v-0.09668q0-0.68213-0.45117-1.0527-0.4458-0.37598-1.2568-0.37598-0.51563 0-1.0044 0.12354-0.48877 0.12354-0.93994 0.37061v-0.91309q0.54248-0.20947 1.0527-0.31152 0.51026-0.10742 0.99366-0.10742 1.3052 0 1.9497 0.67676 0.64454 0.67676 0.64454 2.0518z"/>
  </g>
 </g>
</svg>
