<svg width="135.94" height="20.057" version="1.1" xmlns="http://www.w3.org/2000/svg" xmlns:xlink="http://www.w3.org/1999/xlink">
 <defs>
  <linearGradient id="linearGradient857" x1="88.041" x2="88.041" y1="13.884" y2="4.2596" gradientUnits="userSpaceOnUse">
   <stop stop-color="#001a4c" stop-opacity=".50602" offset="0"/>
   <stop stop-color="#e4e4e4" stop-opacity="0" offset="1"/>
  </linearGradient>
 </defs>
 <clipPath id="a">
  <rect width="102" height="20" rx="3" fill="#fff"/>
 </clipPath>
 <g>
  <path d="m132.56 0h-92.558v20h92.558c1.8715 0 3.3782-1.5067 3.3782-3.3782v-13.244c0-1.8715-1.5067-3.3782-3.3782-3.3782z" fill="#0055d4" style="paint-order:stroke fill markers"/>
  <path d="m3.3782 0h46.558v20h-46.558c-1.8715 0-3.3782-1.5067-3.3782-3.3782v-13.244c0-1.8715 1.5067-3.3782 3.3782-3.3782z" fill="#4d4d4d" style="paint-order:stroke fill markers"/>
  <path d="m3.3782 0h129.16c1.8715 0 3.3782 1.5067 3.3782 3.3782v13.3c0 1.8715-1.5067 3.3782-3.3782 3.3782h-129.16c-1.8715 0-3.3782-1.5067-3.3782-3.3782v-13.3c0-1.8715 1.5067-3.3782 3.3782-3.3782z" fill="url(#linearGradient857)" style="paint-order:stroke fill markers"/>
 </g>
 <g dominant-baseline="auto" fill="#000418" fill-opacity=".79132" style="font-feature-settings:normal;font-variant-alternates:normal;font-variant-caps:normal;font-variant-ligatures:normal;font-variant-numeric:normal;font-variant-position:normal;shape-padding:0;text-decoration-color:#000000;text-decoration-line:none;text-decoration-style:solid;text-indent:0;text-orientation:mixed;text-transform:none;white-space:normal" aria-label="BSD 3-Clause">
  <path d="m58.104 11.45v2.938h1.7402q0.87549 0 1.2944-0.35986 0.42432-0.36524 0.42432-1.1118 0-0.75195-0.42432-1.1064-0.41894-0.35986-1.2944-0.35986zm0-3.2979v2.417h1.606q0.79492 0 1.1816-0.29541 0.39209-0.30078 0.39209-0.91309 0-0.60693-0.39209-0.90771-0.38672-0.30078-1.1816-0.30078zm-1.085-0.8916h2.7715q1.2407 0 1.9121 0.51562 0.67139 0.51562 0.67139 1.4663 0 0.73584-0.34375 1.1709-0.34375 0.43506-1.0098 0.54248 0.80029 0.17188 1.2407 0.71973 0.4458 0.54248 0.4458 1.3589 0 1.0742-0.73047 1.6597t-2.0786 0.58545h-2.8789z" dominant-baseline="auto" style="font-feature-settings:normal;font-variant-alternates:normal;font-variant-caps:normal;font-variant-ligatures:normal;font-variant-numeric:normal;font-variant-position:normal;shape-padding:0;text-decoration-color:#000000;text-decoration-line:none;text-decoration-style:solid;text-indent:0;text-orientation:mixed;text-transform:none;white-space:normal"/>
  <path d="m69.179 7.5235v1.0581q-0.61768-0.29541-1.1655-0.44043-0.54785-0.14502-1.0581-0.14502-0.88623 0-1.3696 0.34375-0.47803 0.34375-0.47803 0.97754 0 0.53174 0.31689 0.80566 0.32227 0.26856 1.2139 0.43506l0.65527 0.13428q1.2139 0.23096 1.7886 0.81641 0.58008 0.58008 0.58008 1.5576 0 1.1655-0.78418 1.7671-0.77881 0.60156-2.2881 0.60156-0.56934 0-1.2139-0.12891-0.63916-0.12891-1.3267-0.38135v-1.1172q0.66064 0.3706 1.2944 0.55859 0.63379 0.18799 1.2461 0.18799 0.9292 0 1.4341-0.36524 0.50488-0.36523 0.50488-1.042 0-0.59082-0.36523-0.92383-0.35986-0.33301-1.187-0.49951l-0.66064-0.12891q-1.2139-0.2417-1.7563-0.75732-0.54248-0.51562-0.54248-1.4341 0-1.0635 0.74658-1.6758 0.75195-0.6123 2.0679-0.6123 0.56396 0 1.1494 0.10205t1.1978 0.30615z" dominant-baseline="auto" style="font-feature-settings:normal;font-variant-alternates:normal;font-variant-caps:normal;font-variant-ligatures:normal;font-variant-numeric:normal;font-variant-position:normal;shape-padding:0;text-decoration-color:#000000;text-decoration-line:none;text-decoration-style:solid;text-indent:0;text-orientation:mixed;text-transform:none;white-space:normal"/>
  <path d="m72.439 8.1519v6.2358h1.3105q1.6597 0 2.4277-0.75195 0.77344-0.75195 0.77344-2.374 0-1.6113-0.77344-2.3579-0.76807-0.75195-2.4277-0.75195zm-1.085-0.8916h2.229q2.3311 0 3.4214 0.97217 1.0903 0.9668 1.0903 3.0293 0 2.0732-1.0957 3.0454t-3.416 0.97217h-2.229z" dominant-baseline="auto" style="font-feature-settings:normal;font-variant-alternates:normal;font-variant-caps:normal;font-variant-ligatures:normal;font-variant-numeric:normal;font-variant-position:normal;shape-padding:0;text-decoration-color:#000000;text-decoration-line:none;text-decoration-style:solid;text-indent:0;text-orientation:mixed;text-transform:none;white-space:normal"/>
  <path d="m86.705 10.956q0.77881 0.1665 1.2139 0.69287 0.44043 0.52637 0.44043 1.2998 0 1.187-0.81641 1.8369-0.81641 0.6499-2.3203 0.6499-0.50488 0-1.042-0.10205-0.53174-0.09668-1.1011-0.29541v-1.0474q0.45117 0.26318 0.98828 0.39746 0.53711 0.13428 1.1226 0.13428 1.0205 0 1.5522-0.40283 0.53711-0.40283 0.53711-1.1709 0-0.70898-0.49951-1.1064-0.49414-0.40283-1.3804-0.40283h-0.93457v-0.8916h0.97754q0.80029 0 1.2246-0.3169 0.42432-0.32227 0.42432-0.92383 0-0.61768-0.44043-0.94531-0.43506-0.33301-1.2515-0.33301-0.4458 0-0.95606 0.09668t-1.1226 0.30078v-0.9668q0.61768-0.17188 1.1548-0.25781 0.54248-0.085937 1.0205-0.085937 1.2354 0 1.9551 0.56396 0.71973 0.55859 0.71973 1.5146 0 0.66602-0.38135 1.1279-0.38135 0.45654-1.085 0.63379z" dominant-baseline="auto" style="font-feature-settings:normal;font-variant-alternates:normal;font-variant-caps:normal;font-variant-ligatures:normal;font-variant-numeric:normal;font-variant-position:normal;shape-padding:0;text-decoration-color:#000000;text-decoration-line:none;text-decoration-style:solid;text-indent:0;text-orientation:mixed;text-transform:none;white-space:normal"/>
  <path d="m89.777 11.826h2.895v0.88086h-2.895z" dominant-baseline="auto" style="font-feature-settings:normal;font-variant-alternates:normal;font-variant-caps:normal;font-variant-ligatures:normal;font-variant-numeric:normal;font-variant-position:normal;shape-padding:0;text-decoration-color:#000000;text-decoration-line:none;text-decoration-style:solid;text-indent:0;text-orientation:mixed;text-transform:none;white-space:normal"/>
  <path d="m100.29 7.878v1.144q-0.54785-0.51025-1.1709-0.7627-0.61768-0.25244-1.3159-0.25244-1.375 0-2.1055 0.84326-0.73047 0.83789-0.73047 2.4277 0 1.5845 0.73047 2.4277 0.73047 0.83789 2.1055 0.83789 0.69824 0 1.3159-0.25244 0.62305-0.25244 1.1709-0.7627v1.1333q-0.56934 0.38672-1.2085 0.58008-0.63379 0.19336-1.3428 0.19336-1.8208 0-2.8682-1.1118-1.0474-1.1172-1.0474-3.0454 0-1.9336 1.0474-3.0454 1.0474-1.1172 2.8682-1.1172 0.71973 0 1.3535 0.19336 0.63916 0.18799 1.1978 0.56934z" dominant-baseline="auto" style="font-feature-settings:normal;font-variant-alternates:normal;font-variant-caps:normal;font-variant-ligatures:normal;font-variant-numeric:normal;font-variant-position:normal;shape-padding:0;text-decoration-color:#000000;text-decoration-line:none;text-decoration-style:solid;text-indent:0;text-orientation:mixed;text-transform:none;white-space:normal"/>
  <path d="m101.93 6.9219h0.98828v8.3574h-0.98828z" dominant-baseline="auto" style="font-feature-settings:normal;font-variant-alternates:normal;font-variant-caps:normal;font-variant-ligatures:normal;font-variant-numeric:normal;font-variant-position:normal;shape-padding:0;text-decoration-color:#000000;text-decoration-line:none;text-decoration-style:solid;text-indent:0;text-orientation:mixed;text-transform:none;white-space:normal"/>
  <path d="m107.72 12.255q-1.1978 0-1.6597 0.27392-0.46191 0.27393-0.46191 0.93457 0 0.52637 0.34375 0.83789 0.34912 0.30615 0.94531 0.30615 0.82178 0 1.3159-0.58008 0.49951-0.58545 0.49951-1.5522v-0.22021zm1.9712-0.4082v3.4321h-0.98828v-0.91309q-0.33838 0.54785-0.84326 0.81104-0.50488 0.25781-1.2354 0.25781-0.92383 0-1.4717-0.51562-0.54248-0.521-0.54248-1.3911 0-1.0151 0.67676-1.5308 0.68212-0.51562 2.0303-0.51562h1.3857v-0.09668q0-0.68213-0.45117-1.0527-0.4458-0.37598-1.2568-0.37598-0.51562 0-1.0044 0.12354-0.48877 0.12354-0.93994 0.3706v-0.91309q0.54248-0.20947 1.0527-0.31152 0.51026-0.10742 0.99365-0.10742 1.3052 0 1.9497 0.67676 0.64453 0.67676 0.64453 2.0518z" dominant-baseline="auto" style="font-feature-settings:normal;font-variant-alternates:normal;font-variant-caps:normal;font-variant-ligatures:normal;font-variant-numeric:normal;font-variant-position:normal;shape-padding:0;text-decoration-color:#000000;text-decoration-line:none;text-decoration-style:solid;text-indent:0;text-orientation:mixed;text-transform:none;white-space:normal"/>
  <path d="m111.62 12.905v-3.6416h0.98828v3.604q0 0.854 0.33301 1.2837 0.333 0.42432 0.99902 0.42432 0.80029 0 1.2622-0.51025 0.46728-0.51025 0.46728-1.3911v-3.4106h0.98828v6.0156h-0.98828v-0.92383q-0.35986 0.54785-0.83789 0.81641-0.47266 0.26318-1.1011 0.26318-1.0366 0-1.5737-0.64453t-0.53711-1.8853z" dominant-baseline="auto" style="font-feature-settings:normal;font-variant-alternates:normal;font-variant-caps:normal;font-variant-ligatures:normal;font-variant-numeric:normal;font-variant-position:normal;shape-padding:0;text-decoration-color:#000000;text-decoration-line:none;text-decoration-style:solid;text-indent:0;text-orientation:mixed;text-transform:none;white-space:normal"/>
  <path d="m122.53 9.441v0.93457q-0.41895-0.21484-0.87012-0.32227-0.45117-0.10742-0.93457-0.10742-0.73584 0-1.1064 0.22559-0.36524 0.22559-0.36524 0.67676 0 0.34375 0.26318 0.54248 0.26319 0.19336 1.0581 0.3706l0.33838 0.07519q1.0527 0.22559 1.4932 0.63916 0.4458 0.4082 0.4458 1.144 0 0.83789-0.66601 1.3267-0.66065 0.48877-1.8208 0.48877-0.4834 0-1.0098-0.09668-0.52099-0.09131-1.1011-0.2793v-1.0205q0.54785 0.28467 1.0796 0.42969 0.53174 0.13965 1.0527 0.13965 0.69824 0 1.0742-0.23633 0.37598-0.2417 0.37598-0.67676 0-0.40283-0.27393-0.61768-0.26855-0.21484-1.187-0.41357l-0.34375-0.08057q-0.91846-0.19336-1.3267-0.59082-0.4082-0.40283-0.4082-1.1011 0-0.84863 0.60156-1.3105 0.60156-0.46191 1.708-0.46191 0.54785 0 1.0312 0.080566 0.48339 0.080566 0.8916 0.2417z" dominant-baseline="auto" style="font-feature-settings:normal;font-variant-alternates:normal;font-variant-caps:normal;font-variant-ligatures:normal;font-variant-numeric:normal;font-variant-position:normal;shape-padding:0;text-decoration-color:#000000;text-decoration-line:none;text-decoration-style:solid;text-indent:0;text-orientation:mixed;text-transform:none;white-space:normal"/>
  <path d="m129.57 12.024v0.4834h-4.5439q0.0645 1.0205 0.6123 1.5576 0.55322 0.53174 1.5361 0.53174 0.56934 0 1.1011-0.13965 0.53711-0.13965 1.0635-0.41894v0.93457q-0.53173 0.22559-1.0903 0.34375-0.55859 0.11816-1.1333 0.11816-1.4394 0-2.2827-0.83789-0.83789-0.83789-0.83789-2.2666 0-1.4771 0.79492-2.3418 0.80029-0.87012 2.1538-0.87012 1.2139 0 1.9175 0.78418 0.70898 0.77881 0.70898 2.1216zm-0.98828-0.29004q-0.0107-0.81104-0.45654-1.2944-0.44043-0.4834-1.1709-0.4834-0.82715 0-1.3267 0.46729-0.49414 0.46728-0.56934 1.3159z" dominant-baseline="auto" style="font-feature-settings:normal;font-variant-alternates:normal;font-variant-caps:normal;font-variant-ligatures:normal;font-variant-numeric:normal;font-variant-position:normal;shape-padding:0;text-decoration-color:#000000;text-decoration-line:none;text-decoration-style:solid;text-indent:0;text-orientation:mixed;text-transform:none;white-space:normal"/>
 </g>
 <g fill="#fff" aria-label="BSD 3-Clause">
  <path d="m57.575 10.824v2.938h1.7402q0.87549 0 1.2944-0.35986 0.42432-0.36523 0.42432-1.1118 0-0.75195-0.42432-1.1064-0.41894-0.35986-1.2944-0.35986zm0-3.2979v2.417h1.606q0.79492 0 1.1816-0.29541 0.39209-0.30078 0.39209-0.91309 0-0.60693-0.39209-0.90771-0.38672-0.30078-1.1816-0.30078zm-1.085-0.8916h2.7715q1.2407 0 1.9121 0.51562t0.67139 1.4663q0 0.73584-0.34375 1.1709-0.34375 0.43506-1.0098 0.54248 0.80029 0.17188 1.2407 0.71973 0.4458 0.54248 0.4458 1.3589 0 1.0742-0.73047 1.6597t-2.0786 0.58545h-2.8789z" style="font-feature-settings:normal;font-variant-caps:normal;font-variant-ligatures:normal;font-variant-numeric:normal"/>
  <path d="m68.65 6.8976v1.0581q-0.61768-0.29541-1.1655-0.44043-0.54785-0.14502-1.0581-0.14502-0.88623 0-1.3696 0.34375-0.47803 0.34375-0.47803 0.97754 0 0.53174 0.31689 0.80566 0.32227 0.26855 1.2139 0.43506l0.65527 0.13428q1.2139 0.23096 1.7886 0.81641 0.58008 0.58008 0.58008 1.5576 0 1.1655-0.78418 1.7671-0.77881 0.60156-2.2881 0.60156-0.56934 0-1.2139-0.12891-0.63916-0.12891-1.3267-0.38135v-1.1172q0.66064 0.37061 1.2944 0.55859t1.2461 0.18799q0.9292 0 1.4341-0.36523 0.50488-0.36523 0.50488-1.042 0-0.59082-0.36523-0.92383-0.35986-0.33301-1.187-0.49951l-0.66064-0.12891q-1.2139-0.2417-1.7563-0.75732-0.54248-0.51562-0.54248-1.4341 0-1.0635 0.74658-1.6758 0.75195-0.6123 2.0679-0.6123 0.56396 0 1.1494 0.10205 0.58545 0.10205 1.1978 0.30615z" style="font-feature-settings:normal;font-variant-caps:normal;font-variant-ligatures:normal;font-variant-numeric:normal"/>
  <path d="m71.91 7.526v6.2358h1.3105q1.6597 0 2.4277-0.75195 0.77344-0.75195 0.77344-2.374 0-1.6113-0.77344-2.3579-0.76807-0.75195-2.4277-0.75195zm-1.085-0.8916h2.229q2.3311 0 3.4214 0.97217 1.0903 0.9668 1.0903 3.0293 0 2.0732-1.0957 3.0454t-3.416 0.97217h-2.229z" style="font-feature-settings:normal;font-variant-caps:normal;font-variant-ligatures:normal;font-variant-numeric:normal"/>
  <path d="m86.176 10.33q0.77881 0.1665 1.2139 0.69287 0.44043 0.52637 0.44043 1.2998 0 1.187-0.81641 1.8369-0.81641 0.6499-2.3203 0.6499-0.50488 0-1.042-0.10205-0.53174-0.09668-1.1011-0.29541v-1.0474q0.45117 0.26318 0.98828 0.39746 0.53711 0.13428 1.1226 0.13428 1.0205 0 1.5522-0.40283 0.53711-0.40283 0.53711-1.1709 0-0.70898-0.49951-1.1064-0.49414-0.40283-1.3804-0.40283h-0.93457v-0.8916h0.97754q0.80029 0 1.2246-0.31689 0.42432-0.32227 0.42432-0.92383 0-0.61768-0.44043-0.94531-0.43506-0.33301-1.2515-0.33301-0.4458 0-0.95606 0.09668t-1.1226 0.30078v-0.9668q0.61768-0.17188 1.1548-0.25781 0.54248-0.085937 1.0205-0.085937 1.2354 0 1.9551 0.56396 0.71973 0.55859 0.71973 1.5146 0 0.66602-0.38135 1.1279-0.38135 0.45654-1.085 0.63379z" style="font-feature-settings:normal;font-variant-caps:normal;font-variant-ligatures:normal;font-variant-numeric:normal"/>
  <path d="m89.248 11.2h2.895v0.88086h-2.895z" style="font-feature-settings:normal;font-variant-caps:normal;font-variant-ligatures:normal;font-variant-numeric:normal"/>
  <path d="m99.765 7.2521v1.144q-0.54785-0.51025-1.1709-0.7627-0.61768-0.25244-1.3159-0.25244-1.375 0-2.1055 0.84326-0.73047 0.83789-0.73047 2.4277 0 1.5845 0.73047 2.4277 0.73047 0.83789 2.1055 0.83789 0.69824 0 1.3159-0.25244 0.62305-0.25244 1.1709-0.7627v1.1333q-0.56934 0.38672-1.2085 0.58008-0.63379 0.19336-1.3428 0.19336-1.8208 0-2.8682-1.1118-1.0474-1.1172-1.0474-3.0454 0-1.9336 1.0474-3.0454 1.0474-1.1172 2.8682-1.1172 0.71973 0 1.3535 0.19336 0.63916 0.18799 1.1978 0.56934z" style="font-feature-settings:normal;font-variant-caps:normal;font-variant-ligatures:normal;font-variant-numeric:normal"/>
  <path d="m101.4 6.296h0.98828v8.3574h-0.98828z" style="font-feature-settings:normal;font-variant-caps:normal;font-variant-ligatures:normal;font-variant-numeric:normal"/>
  <path d="m107.19 11.63q-1.1978 0-1.6597 0.27393t-0.46191 0.93457q0 0.52637 0.34375 0.83789 0.34912 0.30615 0.94531 0.30615 0.82178 0 1.3159-0.58008 0.49951-0.58545 0.49951-1.5522v-0.22022zm1.9712-0.4082v3.4321h-0.98828v-0.91309q-0.33838 0.54785-0.84326 0.81104-0.50489 0.25781-1.2354 0.25781-0.92383 0-1.4717-0.51562-0.54249-0.521-0.54249-1.3911 0-1.0151 0.67676-1.5308 0.68213-0.51562 2.0303-0.51562h1.3857v-0.09668q0-0.68213-0.45117-1.0527-0.4458-0.37598-1.2568-0.37598-0.51562 0-1.0044 0.12354-0.48877 0.12354-0.93995 0.37061v-0.91309q0.54249-0.20947 1.0527-0.31152 0.51025-0.10742 0.99365-0.10742 1.3052 0 1.9497 0.67676t0.64453 2.0518z" style="font-feature-settings:normal;font-variant-caps:normal;font-variant-ligatures:normal;font-variant-numeric:normal"/>
  <path d="m111.09 12.279v-3.6416h0.98828v3.604q0 0.854 0.33301 1.2837 0.33301 0.42432 0.99903 0.42432 0.80029 0 1.2622-0.51025 0.46729-0.51025 0.46729-1.3911v-3.4106h0.98828v6.0156h-0.98828v-0.92383q-0.35987 0.54785-0.83789 0.81641-0.47266 0.26318-1.1011 0.26318-1.0366 0-1.5737-0.64453-0.53711-0.64453-0.53711-1.8853z" style="font-feature-settings:normal;font-variant-caps:normal;font-variant-ligatures:normal;font-variant-numeric:normal"/>
  <path d="m122 8.8151v0.93457q-0.41894-0.21484-0.87011-0.32227t-0.93457-0.10742q-0.73584 0-1.1064 0.22559-0.36523 0.22559-0.36523 0.67676 0 0.34375 0.26318 0.54248 0.26318 0.19336 1.0581 0.37061l0.33838 0.07519q1.0527 0.22559 1.4932 0.63916 0.4458 0.4082 0.4458 1.144 0 0.83789-0.66602 1.3267-0.66064 0.48877-1.8208 0.48877-0.48339 0-1.0098-0.09668-0.521-0.09131-1.1011-0.2793v-1.0205q0.54786 0.28467 1.0796 0.42969 0.53174 0.13965 1.0527 0.13965 0.69824 0 1.0742-0.23633 0.37597-0.2417 0.37597-0.67676 0-0.40283-0.27392-0.61768-0.26856-0.21484-1.187-0.41358l-0.34375-0.08057q-0.91846-0.19336-1.3267-0.59082-0.40821-0.40283-0.40821-1.1011 0-0.84863 0.60157-1.3105 0.60156-0.46191 1.708-0.46191 0.54785 0 1.0312 0.080566t0.8916 0.2417z" style="font-feature-settings:normal;font-variant-caps:normal;font-variant-ligatures:normal;font-variant-numeric:normal"/>
  <path d="m129.04 11.399v0.4834h-4.544q0.0645 1.0205 0.61231 1.5576 0.55322 0.53174 1.5361 0.53174 0.56934 0 1.1011-0.13965 0.5371-0.13965 1.0635-0.41895v0.93457q-0.53174 0.22559-1.0903 0.34375t-1.1333 0.11816q-1.4394 0-2.2827-0.83789-0.83789-0.83789-0.83789-2.2666 0-1.4771 0.79493-2.3418 0.80029-0.87012 2.1538-0.87012 1.2139 0 1.9175 0.78418 0.70899 0.77881 0.70899 2.1216zm-0.98828-0.29004q-0.0107-0.81104-0.45655-1.2944-0.44043-0.4834-1.1709-0.4834-0.82715 0-1.3267 0.46729-0.49414 0.46728-0.56934 1.3159z" style="font-feature-settings:normal;font-variant-caps:normal;font-variant-ligatures:normal;font-variant-numeric:normal"/>
 </g>
 <g transform="matrix(.1 0 0 .1 3.9475e-7 .1778)" fill="#000418" fill-opacity=".79132" shape-rendering="auto" aria-label="license">
  <path d="m71.531 66.426h9.8828v83.574h-9.8828z" color="#000000" color-rendering="auto" dominant-baseline="auto" image-rendering="auto" solid-color="#000000" stop-color="#000000" style="font-feature-settings:normal;font-variant-alternates:normal;font-variant-caps:normal;font-variant-east-asian:normal;font-variant-ligatures:normal;font-variant-numeric:normal;font-variant-position:normal;font-variation-settings:normal;inline-size:0;isolation:auto;mix-blend-mode:normal;shape-margin:0;shape-padding:0;text-decoration-color:#000000;text-decoration-line:none;text-decoration-style:solid;text-indent:0;text-orientation:mixed;text-transform:none;white-space:normal"/>
  <path d="m99.763 89.844h9.8828v60.156h-9.8828zm0-23.418h9.8828v12.515h-9.8828z" color="#000000" color-rendering="auto" dominant-baseline="auto" image-rendering="auto" solid-color="#000000" stop-color="#000000" style="font-feature-settings:normal;font-variant-alternates:normal;font-variant-caps:normal;font-variant-east-asian:normal;font-variant-ligatures:normal;font-variant-numeric:normal;font-variant-position:normal;font-variation-settings:normal;inline-size:0;isolation:auto;mix-blend-mode:normal;shape-margin:0;shape-padding:0;text-decoration-color:#000000;text-decoration-line:none;text-decoration-style:solid;text-indent:0;text-orientation:mixed;text-transform:none;white-space:normal"/>
  <path d="m171.29 92.153v9.2383c-2.793-1.5397-5.6038-2.6855-8.4326-3.4375-2.793-0.78776-5.6217-1.1816-8.4863-1.1816-6.4095 0-11.387 2.041-14.932 6.123-3.5449 4.0462-5.3174 9.7396-5.3174 17.08 0 7.3405 1.7725 13.052 5.3174 17.134 3.5449 4.0462 8.5221 6.0693 14.932 6.0693 2.8646 0 5.6934-0.37598 8.4863-1.1279 2.8288-0.78776 5.6396-1.9515 8.4326-3.4912v9.1309c-2.7572 1.2891-5.6217 2.2559-8.5938 2.9004-2.9362 0.64453-6.0693 0.9668-9.3994 0.9668-9.0592 0-16.257-2.8467-21.592-8.54s-8.0029-13.374-8.0029-23.042c0-9.8112 2.6856-17.528 8.0566-23.149 5.4069-5.6217 12.801-8.4326 22.183-8.4326 3.0436 0 6.0156 0.32227 8.916 0.9668 2.9004 0.60872 5.7113 1.5397 8.4326 2.793z" color="#000000" color-rendering="auto" dominant-baseline="auto" image-rendering="auto" solid-color="#000000" stop-color="#000000" style="font-feature-settings:normal;font-variant-alternates:normal;font-variant-caps:normal;font-variant-east-asian:normal;font-variant-ligatures:normal;font-variant-numeric:normal;font-variant-position:normal;font-variation-settings:normal;inline-size:0;isolation:auto;mix-blend-mode:normal;shape-margin:0;shape-padding:0;text-decoration-color:#000000;text-decoration-line:none;text-decoration-style:solid;text-indent:0;text-orientation:mixed;text-transform:none;white-space:normal"/>
  <path d="m237.6 117.45v4.834h-45.439c0.42969 6.8034 2.4707 11.995 6.123 15.576 3.6882 3.5449 8.8086 5.3174 15.361 5.3174 3.7956 0 7.4658-0.46549 11.011-1.3965 3.5807-0.93099 7.1256-2.3275 10.635-4.1895v9.3457c-3.5449 1.5039-7.1794 2.6497-10.903 3.4375-3.724 0.78776-7.5016 1.1816-11.333 1.1816-9.5964 0-17.205-2.793-22.827-8.3789-5.5859-5.5859-8.3789-13.141-8.3789-22.666 0-9.847 2.6497-17.653 7.9492-23.418 5.3353-5.8008 12.515-8.7012 21.538-8.7012 8.0924 0 14.484 2.6139 19.175 7.8418 4.7266 5.1921 7.0898 12.264 7.0898 21.216zm-9.8828-2.9004c-0.0716-5.4069-1.5934-9.7217-4.5654-12.944-2.9362-3.2227-6.8392-4.834-11.709-4.834-5.5143 0-9.9365 1.5576-13.267 4.6728-3.2943 3.1152-5.1921 7.5016-5.6934 13.159z" color="#000000" color-rendering="auto" dominant-baseline="auto" image-rendering="auto" solid-color="#000000" stop-color="#000000" style="font-feature-settings:normal;font-variant-alternates:normal;font-variant-caps:normal;font-variant-east-asian:normal;font-variant-ligatures:normal;font-variant-numeric:normal;font-variant-position:normal;font-variation-settings:normal;inline-size:0;isolation:auto;mix-blend-mode:normal;shape-margin:0;shape-padding:0;text-decoration-color:#000000;text-decoration-line:none;text-decoration-style:solid;text-indent:0;text-orientation:mixed;text-transform:none;white-space:normal"/>
  <path d="m301.49 113.69v36.309h-9.8828v-35.986c0-5.6934-1.11-9.9544-3.3301-12.783-2.22-2.8288-5.5501-4.2432-9.9902-4.2432-5.3353 0-9.5426 1.7008-12.622 5.1025s-4.6191 8.0387-4.6191 13.911v33.999h-9.9365v-60.156h9.9365v9.3457c2.3633-3.6165 5.1384-6.32 8.3252-8.1104 3.2226-1.7904 6.9287-2.6855 11.118-2.6855 6.9108 0 12.139 2.1484 15.684 6.4453 3.5449 4.2611 5.3174 10.545 5.3174 18.853z" color="#000000" color-rendering="auto" dominant-baseline="auto" image-rendering="auto" solid-color="#000000" stop-color="#000000" style="font-feature-settings:normal;font-variant-alternates:normal;font-variant-caps:normal;font-variant-east-asian:normal;font-variant-ligatures:normal;font-variant-numeric:normal;font-variant-position:normal;font-variation-settings:normal;inline-size:0;isolation:auto;mix-blend-mode:normal;shape-margin:0;shape-padding:0;text-decoration-color:#000000;text-decoration-line:none;text-decoration-style:solid;text-indent:0;text-orientation:mixed;text-transform:none;white-space:normal"/>
  <path d="m357.23 91.616v9.3457c-2.793-1.4323-5.6934-2.5065-8.7012-3.2227s-6.123-1.0742-9.3457-1.0742c-4.9056 0-8.5938 0.75195-11.064 2.2559-2.4349 1.5039-3.6524 3.7598-3.6524 6.7676 0 2.2917 0.87728 4.0999 2.6318 5.4248 1.7546 1.2891 5.2816 2.5244 10.581 3.7061l3.3838 0.75195c7.0182 1.5039 11.995 3.6344 14.932 6.3916 2.972 2.7214 4.458 6.5348 4.458 11.44 0 5.5859-2.22 10.008-6.6602 13.267-4.4043 3.2585-10.474 4.8877-18.208 4.8877-3.2227 0-6.5886-0.32227-10.098-0.9668-3.4733-0.60873-7.1436-1.5397-11.011-2.793v-10.205c3.6524 1.8978 7.251 3.3301 10.796 4.2969 3.5449 0.93099 7.054 1.3965 10.527 1.3965 4.655 0 8.2357-0.78776 10.742-2.3633 2.5065-1.6113 3.7598-3.8672 3.7598-6.7676 0-2.6856-0.91309-4.7445-2.7393-6.1768-1.7904-1.4323-5.7471-2.8109-11.87-4.1358l-3.4375-0.80566c-6.123-1.2891-10.545-3.2585-13.267-5.9082-2.7214-2.6856-4.082-6.3558-4.082-11.011 0-5.6576 2.0052-10.026 6.0156-13.105 4.0104-3.0794 9.7038-4.6191 17.08-4.6191 3.6524 0 7.0898 0.26856 10.312 0.80566 3.2227 0.53711 6.1947 1.3428 8.916 2.417z" color="#000000" color-rendering="auto" dominant-baseline="auto" image-rendering="auto" solid-color="#000000" stop-color="#000000" style="font-feature-settings:normal;font-variant-alternates:normal;font-variant-caps:normal;font-variant-east-asian:normal;font-variant-ligatures:normal;font-variant-numeric:normal;font-variant-position:normal;font-variation-settings:normal;inline-size:0;isolation:auto;mix-blend-mode:normal;shape-margin:0;shape-padding:0;text-decoration-color:#000000;text-decoration-line:none;text-decoration-style:solid;text-indent:0;text-orientation:mixed;text-transform:none;white-space:normal"/>
  <path d="m425.31 117.45v4.834h-45.439c0.42969 6.8034 2.4707 11.995 6.123 15.576 3.6882 3.5449 8.8086 5.3174 15.361 5.3174 3.7956 0 7.4658-0.46549 11.011-1.3965 3.5807-0.93099 7.1256-2.3275 10.635-4.1895v9.3457c-3.5449 1.5039-7.1794 2.6497-10.903 3.4375-3.724 0.78776-7.5016 1.1816-11.333 1.1816-9.5964 0-17.205-2.793-22.827-8.3789-5.5859-5.5859-8.3789-13.141-8.3789-22.666 0-9.847 2.6497-17.653 7.9492-23.418 5.3353-5.8008 12.515-8.7012 21.538-8.7012 8.0924 0 14.484 2.6139 19.175 7.8418 4.7266 5.1921 7.0898 12.264 7.0898 21.216zm-9.8828-2.9004c-0.0716-5.4069-1.5934-9.7217-4.5654-12.944-2.9362-3.2227-6.8392-4.834-11.709-4.834-5.5143 0-9.9365 1.5576-13.267 4.6728-3.2943 3.1152-5.1921 7.5016-5.6934 13.159z" color="#000000" color-rendering="auto" dominant-baseline="auto" image-rendering="auto" solid-color="#000000" stop-color="#000000" style="font-feature-settings:normal;font-variant-alternates:normal;font-variant-caps:normal;font-variant-east-asian:normal;font-variant-ligatures:normal;font-variant-numeric:normal;font-variant-position:normal;font-variation-settings:normal;inline-size:0;isolation:auto;mix-blend-mode:normal;shape-margin:0;shape-padding:0;text-decoration-color:#000000;text-decoration-line:none;text-decoration-style:solid;text-indent:0;text-orientation:mixed;text-transform:none;white-space:normal"/>
 </g>
 <g transform="matrix(.1 0 0 .1 3.9475e-7 .1778)" fill="#fff" shape-rendering="auto" aria-label="license">
  <path d="m71.531 56.426h9.8828v83.574h-9.8828z" color="#000000" color-rendering="auto" dominant-baseline="auto" image-rendering="auto" solid-color="#000000" stop-color="#000000" style="font-feature-settings:normal;font-variant-alternates:normal;font-variant-caps:normal;font-variant-east-asian:normal;font-variant-ligatures:normal;font-variant-numeric:normal;font-variant-position:normal;font-variation-settings:normal;inline-size:0;isolation:auto;mix-blend-mode:normal;shape-margin:0;shape-padding:0;text-decoration-color:#000000;text-decoration-line:none;text-decoration-style:solid;text-indent:0;text-orientation:mixed;text-transform:none;white-space:normal"/>
  <path d="m99.763 79.844h9.8828v60.156h-9.8828zm0-23.418h9.8828v12.515h-9.8828z" color="#000000" color-rendering="auto" dominant-baseline="auto" image-rendering="auto" solid-color="#000000" stop-color="#000000" style="font-feature-settings:normal;font-variant-alternates:normal;font-variant-caps:normal;font-variant-east-asian:normal;font-variant-ligatures:normal;font-variant-numeric:normal;font-variant-position:normal;font-variation-settings:normal;inline-size:0;isolation:auto;mix-blend-mode:normal;shape-margin:0;shape-padding:0;text-decoration-color:#000000;text-decoration-line:none;text-decoration-style:solid;text-indent:0;text-orientation:mixed;text-transform:none;white-space:normal"/>
  <path d="m171.29 82.153v9.2383c-2.793-1.5397-5.6038-2.6855-8.4326-3.4375-2.793-0.78776-5.6217-1.1816-8.4863-1.1816-6.4095 0-11.387 2.041-14.932 6.123-3.5449 4.0462-5.3174 9.7396-5.3174 17.08 0 7.3405 1.7725 13.052 5.3174 17.134 3.5449 4.0462 8.5221 6.0693 14.932 6.0693 2.8646 0 5.6934-0.37598 8.4863-1.1279 2.8288-0.78776 5.6396-1.9515 8.4326-3.4912v9.1309c-2.7572 1.2891-5.6217 2.2559-8.5938 2.9004-2.9362 0.64453-6.0693 0.9668-9.3994 0.9668-9.0592 0-16.257-2.8467-21.592-8.54s-8.0029-13.374-8.0029-23.042c0-9.8112 2.6856-17.528 8.0566-23.149 5.4069-5.6217 12.801-8.4326 22.183-8.4326 3.0436 0 6.0156 0.32227 8.916 0.9668 2.9004 0.60872 5.7113 1.5397 8.4326 2.793z" color="#000000" color-rendering="auto" dominant-baseline="auto" image-rendering="auto" solid-color="#000000" stop-color="#000000" style="font-feature-settings:normal;font-variant-alternates:normal;font-variant-caps:normal;font-variant-east-asian:normal;font-variant-ligatures:normal;font-variant-numeric:normal;font-variant-position:normal;font-variation-settings:normal;inline-size:0;isolation:auto;mix-blend-mode:normal;shape-margin:0;shape-padding:0;text-decoration-color:#000000;text-decoration-line:none;text-decoration-style:solid;text-indent:0;text-orientation:mixed;text-transform:none;white-space:normal"/>
  <path d="m237.6 107.45v4.834h-45.439c0.42969 6.8034 2.4707 11.995 6.123 15.576 3.6882 3.5449 8.8086 5.3174 15.361 5.3174 3.7956 0 7.4658-0.46549 11.011-1.3965 3.5807-0.93099 7.1256-2.3275 10.635-4.1895v9.3457c-3.5449 1.5039-7.1794 2.6497-10.903 3.4375-3.724 0.78776-7.5016 1.1816-11.333 1.1816-9.5964 0-17.205-2.793-22.827-8.3789-5.5859-5.5859-8.3789-13.141-8.3789-22.666 0-9.847 2.6497-17.653 7.9492-23.418 5.3353-5.8008 12.515-8.7012 21.538-8.7012 8.0924 0 14.484 2.6139 19.175 7.8418 4.7266 5.1921 7.0898 12.264 7.0898 21.216zm-9.8828-2.9004c-0.0716-5.4069-1.5934-9.7217-4.5654-12.944-2.9362-3.2227-6.8392-4.834-11.709-4.834-5.5143 0-9.9365 1.5576-13.267 4.6729-3.2943 3.1152-5.1921 7.5016-5.6934 13.159z" color="#000000" color-rendering="auto" dominant-baseline="auto" image-rendering="auto" solid-color="#000000" stop-color="#000000" style="font-feature-settings:normal;font-variant-alternates:normal;font-variant-caps:normal;font-variant-east-asian:normal;font-variant-ligatures:normal;font-variant-numeric:normal;font-variant-position:normal;font-variation-settings:normal;inline-size:0;isolation:auto;mix-blend-mode:normal;shape-margin:0;shape-padding:0;text-decoration-color:#000000;text-decoration-line:none;text-decoration-style:solid;text-indent:0;text-orientation:mixed;text-transform:none;white-space:normal"/>
  <path d="m301.49 103.69v36.309h-9.8828v-35.986c0-5.6934-1.11-9.9544-3.3301-12.783s-5.5501-4.2432-9.9902-4.2432c-5.3353 0-9.5426 1.7008-12.622 5.1025s-4.6191 8.0387-4.6191 13.911v33.999h-9.9365v-60.156h9.9365v9.3457c2.3633-3.6165 5.1384-6.32 8.3252-8.1104 3.2226-1.7904 6.9287-2.6855 11.118-2.6855 6.9108 0 12.139 2.1484 15.684 6.4453 3.5449 4.2611 5.3174 10.545 5.3174 18.853z" color="#000000" color-rendering="auto" dominant-baseline="auto" image-rendering="auto" solid-color="#000000" stop-color="#000000" style="font-feature-settings:normal;font-variant-alternates:normal;font-variant-caps:normal;font-variant-east-asian:normal;font-variant-ligatures:normal;font-variant-numeric:normal;font-variant-position:normal;font-variation-settings:normal;inline-size:0;isolation:auto;mix-blend-mode:normal;shape-margin:0;shape-padding:0;text-decoration-color:#000000;text-decoration-line:none;text-decoration-style:solid;text-indent:0;text-orientation:mixed;text-transform:none;white-space:normal"/>
  <path d="m357.23 81.616v9.3457c-2.793-1.4323-5.6934-2.5065-8.7012-3.2227s-6.123-1.0742-9.3457-1.0742c-4.9056 0-8.5938 0.75195-11.064 2.2559-2.4349 1.5039-3.6524 3.7598-3.6524 6.7676 0 2.2917 0.87728 4.0999 2.6318 5.4248 1.7546 1.2891 5.2816 2.5244 10.581 3.7061l3.3838 0.75195c7.0182 1.5039 11.995 3.6344 14.932 6.3916 2.972 2.7214 4.458 6.5348 4.458 11.44 0 5.5859-2.22 10.008-6.6602 13.267-4.4043 3.2585-10.474 4.8877-18.208 4.8877-3.2227 0-6.5886-0.32227-10.098-0.9668-3.4733-0.60873-7.1436-1.5397-11.011-2.793v-10.205c3.6524 1.8978 7.251 3.3301 10.796 4.2969 3.5449 0.93099 7.054 1.3965 10.527 1.3965 4.655 0 8.2357-0.78776 10.742-2.3633 2.5065-1.6113 3.7598-3.8672 3.7598-6.7676 0-2.6856-0.91309-4.7445-2.7393-6.1768-1.7904-1.4323-5.7471-2.8109-11.87-4.1358l-3.4375-0.80566c-6.123-1.2891-10.545-3.2585-13.267-5.9082-2.7214-2.6856-4.082-6.3558-4.082-11.011 0-5.6576 2.0052-10.026 6.0156-13.105 4.0104-3.0794 9.7038-4.6191 17.08-4.6191 3.6524 0 7.0898 0.26856 10.312 0.80566 3.2227 0.53711 6.1947 1.3428 8.916 2.417z" color="#000000" color-rendering="auto" dominant-baseline="auto" image-rendering="auto" solid-color="#000000" stop-color="#000000" style="font-feature-settings:normal;font-variant-alternates:normal;font-variant-caps:normal;font-variant-east-asian:normal;font-variant-ligatures:normal;font-variant-numeric:normal;font-variant-position:normal;font-variation-settings:normal;inline-size:0;isolation:auto;mix-blend-mode:normal;shape-margin:0;shape-padding:0;text-decoration-color:#000000;text-decoration-line:none;text-decoration-style:solid;text-indent:0;text-orientation:mixed;text-transform:none;white-space:normal"/>
  <path d="m425.31 107.45v4.834h-45.439c0.42969 6.8034 2.4707 11.995 6.123 15.576 3.6882 3.5449 8.8086 5.3174 15.361 5.3174 3.7956 0 7.4658-0.46549 11.011-1.3965 3.5807-0.93099 7.1256-2.3275 10.635-4.1895v9.3457c-3.5449 1.5039-7.1794 2.6497-10.903 3.4375-3.724 0.78776-7.5016 1.1816-11.333 1.1816-9.5964 0-17.205-2.793-22.827-8.3789-5.5859-5.5859-8.3789-13.141-8.3789-22.666 0-9.847 2.6497-17.653 7.9492-23.418 5.3353-5.8008 12.515-8.7012 21.538-8.7012 8.0924 0 14.484 2.6139 19.175 7.8418 4.7266 5.1921 7.0898 12.264 7.0898 21.216zm-9.8828-2.9004c-0.0716-5.4069-1.5934-9.7217-4.5654-12.944-2.9362-3.2227-6.8392-4.834-11.709-4.834-5.5143 0-9.9365 1.5576-13.267 4.6729-3.2943 3.1152-5.1921 7.5016-5.6934 13.159z" color="#000000" color-rendering="auto" dominant-baseline="auto" image-rendering="auto" solid-color="#000000" stop-color="#000000" style="font-feature-settings:normal;font-variant-alternates:normal;font-variant-caps:normal;font-variant-east-asian:normal;font-variant-ligatures:normal;font-variant-numeric:normal;font-variant-position:normal;font-variation-settings:normal;inline-size:0;isolation:auto;mix-blend-mode:normal;shape-margin:0;shape-padding:0;text-decoration-color:#000000;text-decoration-line:none;text-decoration-style:solid;text-indent:0;text-orientation:mixed;text-transform:none;white-space:normal"/>
 </g>
</svg>
